<mxfile host="Electron" agent="Mozilla/5.0 (Macintosh; Intel Mac OS X 10_15_7) AppleWebKit/537.36 (KHTML, like Gecko) draw.io/27.0.9 Chrome/134.0.6998.205 Electron/35.4.0 Safari/537.36" version="27.0.9">
  <diagram name="Seite-1" id="odOVf1zkvanD0sxpN48c">
    <mxGraphModel dx="851" dy="612" grid="1" gridSize="10" guides="1" tooltips="1" connect="1" arrows="1" fold="1" page="1" pageScale="1" pageWidth="827" pageHeight="1169" math="0" shadow="0">
      <root>
        <mxCell id="0" />
        <mxCell id="1" parent="0" />
        <mxCell id="M6SM5s0gXBHO6KOTd4PE-3" value="" style="shape=image;verticalLabelPosition=bottom;labelBackgroundColor=default;verticalAlign=top;aspect=fixed;imageAspect=0;image=data:image/png,iVBORw0KGgoAAAANSUhEUgAABfUAAASnCAIAAADDjQWfAAAACXBIWXMAAC4jAAAuIwF4pT92AAAAB3RJTUUH6QcYECAZN9tsmAAAACR0RVh0U29mdHdhcmUATUFUTEFCLCBUaGUgTWF0aFdvcmtzLCBJbmMuPFjdGAAAACJ0RVh0Q3JlYXRpb24gVGltZQAyNC1KdWwtMjAyNSAxNjozMjoyNbyWqSQAACAASURBVHic7N1neBRl+/j92VRIQkgIIRBACIQSSqR3QZp0RKUK0gQBFUQsqFjQP4rojYqK3jcKoqCINCkivUrvzRBKgIQkkALppO4+L/Z45pjfTsnsZneTDd/Pq5nZa865djKZ2T33KgaTySQAAAAAAADAZbmVdgUAAAAAAABQIuR3AABlQt++fQ0yAwcOLHnhslYfJ1T+YVPWTmlZq49VXLryQPnDvyQA/cjvAAAAAAAAuDbyOwBKQceOHeU/Rpl16tSptGsHwHaFhYXVq1dX/O+OioqyIWB6erq3t7c8mr+/f05Ojt3rD6AM2rhxo+JdZebMmXp2X7p0qdqnjlmzZumJMHPmTMXdN23aVLJ3BgD2RH4HgLNdvXr16NGjaq8eOXLk2rVrzqwPADvy8PAYPXq04kvr16+3IeDmzZvz8/Pl24cNG+bj42NDQAAu5/HHH3d3d5dvP3z4sJ7d//nnH7WXDh48qCeC4ucWd3f3bt266dkdAJyD/A4AZ/vll1+0C6xYscI5NQFcyFNPPSX90fjmzZulXSNV48aNU9xuW35Hba+xY8faEO3h5EIXD6CocuXKLVu2lG8/e/bsgwcPit1dI79z5syZrKws7d3z8/PPnj0r3966devKlSsXe3QAcBqP0q4AgIeLyWRauXKldpmVK1d++OGHzqkPyo7Jkyf36tXLYmP9+vVLpTKCI+tjQ+SsrKxt27aV/NDOERkZ2aJFC/nXodOnT9+8ebNu3br6Q+Xk5Gzfvl2+vW7dul27dhVXy9rFU6ZYe/FwMlE29ezZ8+TJkxYbCwoKTp48+dhjj2nsmJSUpNEuuKio6MiRI71799aIcObMmby8PPn2Hj16aFYZAJyN/A4Apzp48GCxPx3HxMT8888/Xbp0cUqNUFY888wzpV2F/8Nx9bEh8ubNm3Nzcx1RGQcZN26c4s/d69ev1znahdm2bdsUB9l57rnnDAaDuFrWLp4yxdqLh5OJsqlHjx4LFiyQbz9y5Ih2fkej8Y7ZwYMHtfM7ap3Ke/bsqR0ZAJyM/lkAnKrYzllmdNECpNasWVPaVbDOs88+6+Gh8BvSunXrrIpD56ySc7mLB1DUpUsXLy8v+fZih+ApdoSdYgso5ne8vb07d+6svSMAOBn5HQDOk5ubu3btWouNDRs2bNKkicXGP/74Q7EtNPAQcq3OWWbVqlXr16+ffPuRI0cSExN1BikoKNiyZYt8e+fOncPDw0tUv4eGK148gCIfH5/27dvLtx85ckR7x2Lb7xw7dkxxEHeRYn6nY8eOFStW1I4MAE5GfgeA82zcuDE9Pd1iY//+/YcMGWKxMS0tbfPmzc6qF1CmbdmyRc8AomWN4ijLJpNpw4YNOiPs3r1bfscQaLxjDRe9eABFiv2hkpKSrl+/rrZLTk6ORV9Rg8FgMRXXgwcP5CP7SOMr9itn8B0AZRDj7wBwHsXOWYMGDapUqdInn3xisX3FihVDhw4t+UFjYmIuXbqUkpKSkpJiNBoDAwNDQkLatGlTs2bNEkZOTU09efJkcnJySkpKTk5OQEBAUFBQZGRk48aNpSOD2ODWrVsXLlwQ61ytWrVq1aq1bNmyRo0aJQkbFxd38eLFhISEzMzMrKysChUq+Pv7h4aGNm3atG7duiWps+Mil1BKSsrJkyevXbuWkZHh5+cXGhravHnzRo0alVZ9bOOi/WsGDRpUpUqVe/fuWWxfv379iy++qCeCYmeuChUqDB8+3A71kzGZTJcuXYqJiUlNTTX/61WpUqVKlSq1a9du2bKlp6enIw6qJjU19cKFCzdu3MjIyMjKyvLx8QkICKhdu3bbtm2tmq+ntC4e55/MrKys48ePX758OS0tzcfHJzg4uFWrVhERETYHLLO3tbt37548eTImJiYjI6NSpUqhoaGRkZENGzYsSUwHPXSkTCbToUOHLly4cP/+/YCAgG7dujVt2tTaID169Jg7d658++HDh9WGAD927FhhYaF0S7169Tw8PKKjo6UbDx482KlTJ8UIJRx8xwnn1swJzzu7X3v2utFZSE9PP3z4cGJiYlJSkru7e0hISGRk5KOPPmr3f1un/XEBK5gAwCnu3r0rH48jKCiooKDAaDTWqlXL4iVPT8/k5GSbDxcVFTV16tSwsDC1u1+dOnXee++92NhYayOnpqZ+8MEHrVu3dnNTbgIZEBDw/PPPnzhxwtrIV65cefHFF9U+pBoMhtatW8+fPz87O9uqsPv37588eXJwcLDGs6BatWqTJ08+duxYKUbu06ePfPcBAwboLzxo0CCxwK5du3r27GnxI61Z8+bN//vf/xqNRkfXpySFrf3mM2fOHKPR2KBBA/lLVatWLSgo0H6zZop5Ew8Pjzt37ujZXU4xj+Ph4ZGSklLsvkVFRdWqVZPvPnz4cHlhq86/3JYtW4YPH65xJfv4+PTs2fPbb7/NycnRE9Dm+sTFxc2dO1cjK2EwGFq1arVkyRKN+4ANF49dKm9m95MZGhoqD3LmzBmxQExMzLhx43x8fOTF6tSp8+233+bn5+usvMmRN8xiKf7qsHLlSrHAn3/+2blzZ8XvqC1atPjpp5+sPaIdHzraf6Zjx45ZJBr69OljbW1NJlN+fr6vr6/8QNOmTVPbRT4d59ChQ+WDiGtc4W+//bb8iH5+ftr3VTueWyc875x87dnlRqdoz549ffr0Ucwg16xZc/78+eJt5/jx4/IyYWFheo7ioE9rgF2Q3wHgJF988YX8KTh58mTzqy+99JL81W+++caGA925c2fcuHGKH3TkvL29586dm5eXpydyfn7+hx9+6O/vryeyIAgjR47U+cU4JSVFf51r1aq1evVqPWGjo6MVPxdqGDhwYHx8fKlELnmK5JlnnjGZTPn5+ZMmTSq2Pt26dUtMTHRofZyc3zGZTJ9//rniq9u2bdN4p2a5ubmVKlWS7/vkk08Wu6+aY8eOKdZn2bJlxe67b98+xX3/+usveWGbUxLbtm1r1aqV3rMsCNWqVfv888+Lioq0w9pQn/z8/Dlz5ugfzqNOnToHDhxQDFVa+R0HnUz5AG2CIOzcudP86q+//qqY2ZFq27ZtUlJSsfV33A1TJ8U/3IIFC0wmU2Zmprwjs1zv3r11/i5i94eO4nf13bt3m0ymM2fO+Pn5WbxkW37HZDI98cQT8gM9+uij+st//PHHH3zwgcXGgIAAtUuxe/fu8iP2799f7Yh2P7dOeN457dqz443OQk5Ojp6uu02aNLl69arJZFJsH9q0aVPtozjo0xpgR+R3ADhJy5Yt5Q8/8TP67t275a+2a9fO2qNcvHixTp06ep67Uh07drx375525LS0NBtmQg0JCTl79qx25KioKLVfgTR89tln2mEPHDgQGBhobVhznbUbHzkocslTJKNGjTIajXo+iZpFRkampaU5rj7Oz++kpKRUqFBB/ur48ePV3qZo06ZNipE3btxY7L4aGjdurP/MSM2YMUO+Y/Xq1QsLC+WFbUhJGI3GDz74wLbm+n379r1//75GcGvrY9vtxc3NTfHLg/PzOw49me3atZPvtWbNGpPJ9Msvv+g8aEREhPZv6Y67Yeqn+E7nzJmTm5ur1nVIrm3btpmZmdoHcsRDp02bNvJd1q9fX1hYqJihszm/ozhFuru7u+K7Lioqkv8ks23bNsXv9ufOnVOMoJj4/s9//uO0c+uE551zrj373uik8vLy9CdnQ0ND4+Pj//vf/yq+BY2jOOjTGmBf5HcAOMPFixflz7zg4GDxq1pRUVH16tXlZS5fvqz/KGfPnrW5w/ajjz6alZWlFjkzM7NZs2a2RQ4ICLhw4YJa5GvXrgUEBNgW+YsvvlALGxsbW5K+6yEhIbdu3XJy5JKnSMaNG6f40V+DtIm73evj/PyOyWQaM2aM/NWAgIBiG6mNHz9evmNISIjOvl1q5s+fLw/r7e2dkZGhveMjjzwi33HWrFmKhW1ISYwePdqqM2whIiIiPT1dLbhV9TEajYMGDbKtGt7e3sePH7cI6Pz8jkNPZteuXeW7/PjjjxcvXvT29tZ/lBdffFHtEI67rVnlsccekwefNWvW9OnTrarPsGHDNI7ioIdOly5d5OWXL1/+66+/KoayOb9z4sQJxYC7du2SFz5z5oy8ZEpKyq1bt+TbFZsMnz9/XvFw0h6Cjj63TnjeOeHas/uNTmry5MlWBezVq9enn34q3965c2e1QzjojwvYHeMrA3CGn3/+Wb5x6NChYhtXNze3YcOGffPNNxZlVqxYMW/ePD2HyM7OHjFihOJsOwaDoVOnTuahSaKiok6cOGE0Gi3KnDt37uWXX/7pp58Ug0+bNk0xRSUIQkRERIsWLXx9fWNjY//555+cnByLAmlpaSNGjDh58qS8QXJ+fv6IESPS0tLkYZ9++ukRI0aEh4cbjcaoqKiff/5Z3sTp7bff7t+/v+Loia+88oriqWjfvn27du1q1qxZsWLF3NzchISEQ4cOyecNuXv37qxZs+ST2Ts0csndu3fvo48+Mi+7ubm1adOmdu3amZmZ586du3v3ruIumzdv3r59u7WdMsqyadOmrVy50mJjWlratm3bBg8erLZXUVGR4ox1Y8eOlQ+bZZXnnnvOPDaQdGNeXt6WLVtGjRqltteJEydiY2MV61OSyog+/fRTta+d7u7u7du3DwsL8/b2jo+PP3jwoPyfWhCEqKio8ePHr1+/vuSVWbp0qeLJr1KlyoQJE1q1alWxYsW4uLjff/9dPg90Xl7eq6++Wuz0zw7l6JPp5eUl35ienj558uS8vDz99VyyZMmcOXMUh4kpI7c1xXd6/Phx8e8u3tbS09PPnDmTmpqqGGfNmjV79+5V7FXkuIeOYq4tIyNDfjsqoVatWgUEBMjfwpEjR+RtQ+T/Gg0aNAgKCgoKCgoNDU1ISJC+dPDgwZdfftmivOLgykFBQY8++qjFRsedW0X2fd454dpz3I3u2LFjP/74o+JLgiDUrFmzQ4cOgYGBCQkJ+/btM9+Cdu3apfgW1DpeOfmPC5RIaSeYAJR/RUVFikP37d+/X1rs0KFD8jJ16tQpdlxAs2nTpine5dq1a3flyhVpyaioKMXOYoIgKHbzXr16tWLh6tWrb9++XVoyNTVV7Xfsjz76SB5ZPu6jIAienp7r1q2TF5YnvwRB6Nq1q7xkcnKy/Dt51apV1ToR/P3334qd4S9duuS0yCZ7NIERPfPMM3FxcWLhwsLCX3/9Ve2Xt9atW+s/hNPa74jkn3TNbty4oVjeZDJFRkbKy48aNUqtvEmlg6QgCFFRURp76dS7d2955KFDh2rs8tZbb8l30Rhiw6pTevjwYbUP8RMnTrQYMysnJ+fDDz9Um+/pxx9/LGF9CgsLFRv8h4SEyEd/Vxto459//lGshg0XTxk8mYrXj9gbqEKFCrNnzzZPZRgTE7N8+fLw8HDF+IIgzJs3Tx7fobc1qyi+U9HgwYOll0ReXt7333+vNvZQ+/btFQ/hoIeOWuWlD0R3d/c2bdoMGjSoZ8+eDRo00Bi/pliKnZL69esnLzly5EiLYmJn1aeeesripRo1asgjTJw4UX4sxduX486tE553jr72HHqje/zxxxXLV6pUafny5dJhlTIyMuQpPKnu3bsrHsJxf1zA7sjvAHC4HTt2yB91oaGhFmMZGo1GxaFz9u3bV+whEhMTFX99atiwoWKz//j4+KCgIHl5xU+c8p/pBEGoWLGiYvPswsJCxWbqVatWtRj94cGDB4pTtChmgswUWyCfOnXKotjGjRvlxT755BONE6j429f/+3//z2mRTfbL74wdO1Zxl0OHDileJIJKFsN18zvfffedvLyfn5/GdEWKA5x37NhRrbxVFH/A9/X11aiP4oS71vZfUDulvXr1Ujylipel2erVqxXHeQkPD1cck1V/fQ4cOKBYGcUhGzIyMhQnD7LoYCVyQn6ntE6mWdWqVeVjpmRmZrZu3VqxfK9eveTxHXpbs4rGO1Xr9rJlyxa1mRzNg8hKOe6ho1Z5Mfc3duxYi2RfseNqa/j666/lxwoMDJT/GlS7dm2LYj/88IP5pc8++0we5Nq1axYRFHs7fvfddxbFnH9uxROrGNwuzzszu1x7jrvR3bx5U/F+4u7uvmPHDsWav/HGG2pvtmfPnvLyDv3jAnZHfgeAwykOCDJz5kx5ScWH7vPPP1/sId59913FR/WWLVvUdlm0aJG8vJubm8UEELt27VKM/Prrr6tFPnfunOIuFr/zLF26VF7Gz89PY1yS2NhY+U/lL730kkWx77//Xh5Ze8ai7Ozsfv36jR079q233lq0aNGaNWsOHTokn27DcZFNdsrvVK9eXWMUVcXpugVBmDt3riPqU1r5nYyMDPlsNYIg/PHHH4rljUajYgs7tfYU1srOzlYcoHTDhg2K5S9cuCAvrD1Nu/5TqjgnriAInTp10n4Xak3zzAP92lyf//znP0FKzp8/r1iNAQMGyCMrficxOT6/U4on02zv3r2K8c+dO6f4zbNy5crywg69rVlF7Z0GBQVpPBeeffZZxb3k+SbHPXQ0Ki8IwowZM2w+J4rUukv/+++/FpWXlxGzG4pNhi3m+U5PT1e8kKKjoy2qVCrn1tHPO8F+157jbnSKQ7wJ6pkvk8lUUFCg1spP8RAO/eMCdkd+B4BjZWZmKv4Oc+TIEXnh06dPy0v6+/tr/M5vZh5bx0KdOnU0drl586bi033VqlXSYmqD9sXExGgEr1u3rnyXKVOmSMs8/fTT8jLFzivUtm1bi12Cg4Mtyii2De7Tp09Jfi91dGSTnfI78+fP1zjEv//+q7hX7969HVGf0srvmEymKVOmyHd5+umn9R/C19e32Fl49FPs4zBmzBjFwoot4bX/NfSfUsVpuQQdU8irfaVUfBc2TzFerJkzZ8ojN2/eXLGwo/M7pXgyBUEYMWKExiE6d+6suJf8qnbobc0qau/0gw8+0NhLbbxh+QDGjnvoaFS+Xr16xQ7uboOQkBD5sSxS0qtWrbIoEBQUJLbxycvLk/ezmzhxojTCzp075UepWbOmvD6lcm4d/bwT7HftWUv/jU4xEyQU11hGcfIsQSW/49A/LmB3ys3qAMBe1q9fn52dbbExLCysQ4cO8sItW7aUjz+XkZGhNnOzWXJy8tWrV+Xbtbus16lTJy0t7b6MRZ98xZ/4GjZsGBYWphH84sWL8sgLFy6UllH86lXsxDetWrWy2JKcnGwxFYhiN7ft27f37t17z5498rGl9XNcZHtR/BwmioiIUHwLig1GXJricFRbt27NzMyUb9+wYYN847BhwxQbAdlm3Lhx8o1btmwpKCiQb1ccZ1cxgg327dsn3xgYGFjsrL1NmzZVzCMfPHjQLhXTSbEllNpYp45WuidTMYkpUquDfITUsn9bGzp0qMarrVu3Vkx2yCd+ctxDR8OMGTPUOgqVRI8ePeQbLd6g/PHdqVMnsS+Pl5eX/Bu4xRWoOLiy4qVVKufWCc87e1171tJ/ozt79qx8Y/Xq1dWGWTR76qmn1DqXyZXKHxewGfNnAXCsX375Rb5xxIgRauVHjBghTgkhDaKxi2IKRhCEFi1aaNet2Alx79+/HxUVZUNkxSZLUrGxsYmJifLtJ06cUOtrZqb4i9zp06elH+O6dOni5eWVn59vUWzPnj179uypUqVKp06dzPPCtGvXzqr5Ph0X2S6Cg4MVx22RioyMlH/AunPnTmpqquKQTC7q0Ucf7dChg8WXk9zc3I0bN8r7SyrmdxRb3NjsscceCwsLu3HjhnRjWlranj17LPKwN27ckPdwDAgI0Jj8S7979+4pfrdp166dnmnCWrduLU8l37p1Kz4+XrGDWwnl5eVlZ2db5Bdyc3PlJYuKiux+9GKV7smsUKGC4ozOosaNGytul//eUMZva1WqVGnWrJlGAYPB0KpVq7///ttie2Ji4r1796pUqWJedehDR8OTTz6pp5i1evToIW+ec/jwYemq/LOBxeh4Xbp0sRgX5urVq3fu3Klevbp59dixY4qHtthSKufWCc87e1172kpyo0tLS4uPj5eXbNmypeKgPKJq1arVrVs3Jiam2OqV1j8OYDPyOwAc6Pbt23v37pVvl09pIRo1apQ8v7Njx46kpKRq1aop7qL2hFacrMEq5l4Mjois+HFBEIS9e/cqnjFtFy9elDY7CgwMHDdu3A8//KBY+N69e1u2bNmyZYsgCAaDoWnTpt27d+/evXuvXr0UfzGTclxku1D7Riel9rdLSUkpT/kdQRCmTp0q//H5999/t8jvXLhwQf41u0GDBtpfnq1lMBjGjh0r73i1bt06i/zOunXr5LuPGDFCcfZla928eVPxP7pJkyZ6dle7wG7fvm2X/M6tW7dWrVp17NixM2fOJCYmyjMOZUrpnsyIiAjtLJLad0t5ncvBbU1tMJHk5GTxPDj0oaMmICBAsbdyySm237l8+fL9+/cDAwMFQcjOzpa3IrHotad4lzt8+LDYLkZnfqdUzq0Tnnf2uvYs2PFGl5KSYlWtpCIiIvTkd0rljwuUBP2zADjQypUr5Y3bGzdurDgjlcarhYWF8l/qRPfv31fcbv6QVxLOj2ybe/fuWWz57LPPiv1lTxAEk8l08eLFb7755umnn65atergwYP/+usvxe9sTohccuKPrhrUfn5X7Ljk0kaMGCH/eL1jxw6La0+xM9SECRPsXp+xY8fKf1DduHGjxS3CoZ2z5P8pZopzo8ip/eOrhdXvxo0bgwcPDgsLe/vtt//8889bt26V8eSOUNons9imAcU2opQqy7c1PdkutbMhva05+qGjSM/XbNvUq1dPnjkymUxiUvv48eMWzT28vb3btGkj3dKpUyd5Jx1x1PArV64kJydbvNqgQQP5nFylcm6d8Lyz17UnsvuNLiMjQ3G7ng9pOj/IlcofFygJ8jsAHGjFihXyjZcvXzZoUpx/SrGfl5na89LHx8fmmjs6sn0/Mcg/4gQEBOzbt69du3b6g+Tn52/evHngwIHt27ePjo5WK+a4yCWnZ7wYtW99ah8TXVeFChXkaZGCggKLBjLywa3c3d3tlU+RqlevnkXnCEEQkpKSpANeJCQkyNscNWjQoGPHjnapg9o4NTpHGlJrr1HCj+xbtmxp1qzZ5s2bHZ0psK/SPZkVKlTQU0ynsnxb05OoUivjuPyOzhumQ5s4aQ/BI7+TtG3b1qIZoL+/f2RkpEUxcZ4Hxa7fioPvlMq5dcLzzl7XnpkjbnRqiSo9H9J03qlK5Y8LlAT5HQCOcurUKbXpG2xw+vRptWiFhYWK20s+JoXjIssnziyJ9PR0+cYaNWocOnRo0aJFNWrUsCraiRMn2rVrt3v3brUCjotcQnqGS1T729n3L1JGTJ06Vd5k5rfffhOX7969e+bMGYsCffv2DQ0NdUR9FNNG0gY7f/75p/yj/9ixY+1VAbURGXR+31Abalf/OJ1yBw8eHDp0aE5Ojs0RSksZPJklUWZva3puTWrnXHoynfDQkSv5byEaFPM74hA8YjMckeKUavKks3hLVMzvKB60VM6tE5539rr2BIfd6NQ6aap9eJNSHOJHrlT+uEBJkN8B4CgaLW7sG1CtBXLJP0k4P/LXX39tw1SIa9euVYzm4eExY8aM2NjYv//+e+rUqfqHDcrIyBg2bJjFaLjOiVwS8pFT5dT+dv7+/vauTulr2LBh9+7dLTbu378/KSnJvLx9+3b5p3P7jqwsNWzYMPmExJs3bxaXzaOcSBkMhueee85eFVDrSpCVlaVnd7ViNo/cVFhYOHXq1Ly8PPlL7du3X7t2bUxMjHnkUfGf/YMPPrDtWHZX1k5myZXN25qe86l265Pe1pzz0HEmxVTLiRMnzKlDeX5HnspR3JiSkpKQkCAo5XcMBoP8jiqU0rl1wvPOXtee4250ag3E9HxI03mnKn//OCj3yO8AcIjCwsLff//dvjF//fVXxZ981b5mqA28p5/jIqt1/HbEKDAeHh59+/b9/vvvr127FhcXt2rVqldeeaVTp07av6zev39fPtC10yLbRs/fRa1MuczvCEoTpRuNxj///NO8vG3bNotXg4ODBw0a5KDK+Pv7y4eWvHHjxuXLlwVByM3Nlc+33a1bNzvONqKWOxATXtrUilWtWtW2+mzZskWxWeLAgQMPHz78zDPPhIWF+fj4SFvKKM4oXyrK2sm0l/J6W3PmQ8c5atSoERERYbExIyPj8uXLiYmJ5hyNyGAwdOrUSR5EcYjl8+fPp6amyrvdRUZGKl6fpXJunfC8s9chHHejU3sjipNqWdCZkC1//zgo98jvAHCIbdu26fyUr9/t27flX/8E9SEAr127VsIjOi5yrVq1FLfr+VBSwuOOHDnyq6++OnToUEZGxqlTp+bPny//iGz2xx9/6PmF0NGR9TOnCbTJ54oSBMFgMOgZq9IVDRkyRN7fxDzmjtFo3Llzp8VLY8aM8fT0dFx9FLtomafX3b9//4MHD/SUt1lYWJhip4aoqCg9u1+6dEm+0WAw2DxDkLy9ktnChQvVOl/cvn3btmPZXVk7mY7g6re1kJAQcbW0HjoOpdiE5/jx4ydOnLDY2KRJE8UfbEJDQ8PCwiw2Xrhw4ciRIyZZ20bFwXeEUjq3Tnje2evac9yNrkaNGopdtIqteWFhoZ53J5TTfxyUb8yPDsAhFPtSubu7659N4/r16/Ie1L/88ov881yHDh0UI5w6dUr7EEuWLImNjbXY2KxZM3H69lq1atWqVUv+OaPYyDt37ty/f7/FRl9f37ffftu8XKNGjdq1a8fFxVmUuXDhgnZkO3J3d2/VqlWrVq1mz5797bffvvLKKxYfZ3Nycq5fvy4ffrIUI2u7fft2XFycfHITkclkkg83IwhC/fr1rZptx4V4eHg8//zz8+bNk27cs2fPgwcPLly4IP/p1XGds8x69epV4jknUQAAIABJREFUs2ZNi0/G27dvf/XVV81ZHikfH59nnnnGjkcPCAiIjIw8e/asxfbjx48XFBRoJ7aMRqN8xFZBECIjI4udy0nNxYsX5RuDg4M15nJSvIBLRVk7mY5WWre1+Ph47dua0WhUvCrq1asnHUG2LDx07K5Hjx6LFy+22Hj8+HF54zLFzlniSxZNOc6fP684TopiOkkopXPrhOedva49x93ovL29GzVqJE8Wnz59OiMjQ6OZ0oEDB3RmY8vlPw7KN9rvALC/9PR06Zgaon79+l3W7cknn5RHWLdunbxbdXh4uOKImDt27NAYCNloNL711lsfy1g8sxU/FN6+fVvx84ro22+/lUe2+AlLcUqgo0ePpqWlaUR2BIPBMH369KFDh8pfKuEvVI6LrGbjxo0arx4/flyxMfmjjz7qiMo4lPy3ZTUvvPCCxQiRDx482Lt37/bt2y1Ktm3btlmzZvapnwo3N7cxY8ZYbDxw4EBubq68Pk8//bTd5995/PHH5RvT0tKKHR/3wIEDd+/elW9XHI9DJ/nsy4LmzN9nzpyxy5cK/RePtjJ1Mp3G+be1DRs2aLyq/7ZWdh469tK9e3fFCc5PnjxpsVEjvyPvonXx4sVjx45ZbPTw8OjatatakFI5t0543tnl2nPojU7x7chnirSwdOlSnfGF8viPg/KN/A4A+/vjjz8UJyaQf6/ToFg4KytL8dPG4MGD5RuTkpJWr16tFn/btm2K014+8cQT0lXFNJMgCF9//bVa5NTU1B07dhQbecCAAfIyBQUFP/30k1rkoqKiHj16dOvWbdiwYS+++OLcuXO/++67tWvXSn9pTE9PP3r06IoVK957772RI0e2atWqcuXKepo6N23aVL5ROgmx4yLb0ZdffqkxcYbaX03tV9myTP+c3LVr1+7fv7/Fxr///lveOcvRjXfM5F2uHjx4sG7dOnlreTvOnCVSuwt9/PHH2jt++OGHVgXUQzHPotaz1WQyvfbaa4ov5efnW3XcEk7oLipTJ9M2LnFb++qrrzSGI1m0aJHidvltzUEPnVIUGBjYokULi43nz5/XObiy2ktRUVHyCG3bttVIN5fKuXXC884u155Db3T9+vVTLPzxxx+rjbJ8/PhxqwaILH//OCjnbBj6GwC0KX6Q8vf3z8nJ0R8kLy9P8eedPn36yAtHRUUpTtZbu3bt5ORkefnMzMwmTZrIy9erV6+oqEhasqCgQLFxsoeHx8GDBxVrrvil1N3d/dq1a9Jiubm5wcHB8pKBgYExMTGKkRU/TISGhubl5YllFH+VeuGFF4o94Yqj6l6/ft0Jkc369OkjLzZgwADFmIqFzd58803FXXbs2KHY1d/Dw0PxIil5fexSWP41w2zRokWK5RX99ddfFrvXrl3bogdNxYoV09LS9McsibZt21rUp0GDBhZbatasafHPqMGqU2qRaRV9/vnnavE//fRTxV369u1bkvq0a9dOMew///wjj/nWW28pFhYEwWAwKN5dbbt4XPRkWjh48KDiUaKioqTFHH1bs4rGbW3WrFmKu2zdulXttpaUlGRR2EEPHY3KF/tnKrnXX39d7aSJatasqR1Ez6je7777rkYE559bM4c+78xKfu059EaXmZmpNvb5kCFDsrOzLcpfvHgxNDRU7RA9e/aUV8mhf1zA7sjvALCzmJgYxVTLhAkTrA01depUeRx3d/eEhAR54SFDhig+rZs3b37hwgVpyejoaLUhe5YtWyaP/NVXXykWrlKlyoYNG6Ql7927p9YCYuzYsfLIajOA1qtX7/jx49KSRqPx999/9/b2lhe2+KqWlpYmn4JaEISPPvpI7YNFQUHB/Pnz5btEREQ4J7KZVV8PevXqpXjqzGbMmJGZmSk9e6tWrVLrij9kyBDFQ5SR/I7aGJChoaEXL15U3EWuqKio2GFrx4wZozNayX377bfalREE4a233tIf0KpTeuTIEYsOa2YGg+G1116TXjkmkyk5OVnxRiQIgoeHx7Fjx0pSn8mTJytGbtiwofSP+++//z799NPS48p3+euvv+TVsO3icdGTaUFnfsfRtzWraHzHFgTh5Zdftrit/fLLL9JRTqSefPJJxUM44qGjUXkn5He2bt2qcdLMhg8frh1EraGu1J49e7SDOO7cltbzTlTCa8/RN7opU6ao1Tw8PPyLL744fPjwpUuXduzYMX36dPH/XfH8K+Z3HPrHBeyO/A4AO5s7d67iU3D37t3Whvrnn38UQ/3nP/+RF75z5450vgYpg8HQsWPHiRMnvvDCC126dFGbr6F79+5Go1Ee2dzOVnEXQRAaNmw4evToadOmDRgwQG3MwmrVqsl/SjWZTLm5uWo94Q0GQ9euXWfPnj1v3rxp06YptjYSBKF9+/aFhYUWYd9//33FwsHBwcOHD58zZ86XX3753XffffXVV+YuCWrnbfHixU6LbLLy64HiPCbSNiC+vr6DBg2aOnXqqFGj5NOjiDw9PS2+79lWH8cVzs7OVvyYKwhChQoVevbsOWHChP79+6t9KhV98sknaifBrNhvL3aUmprq5eWlXZ9///1Xf0Brv1suWLBA7bg+Pj79+/efMmXK+PHju3btqnbyBUH48ssvS1gfjREiPD0927VrN3DgwKZNm0oz5uHh4e+88468fHBw8JIlS3bu3Pnnn3+K8W27eFz0ZFrQmd8xOfi2ZhXFdyq9+fv5+Q0ePHjq1KkjR4585JFH1E6mxm3NQQ8dtco7Ib+TlZVV7JR/X3/9tXaQzz//XDtChQoVcnNztYM47tyW1vPOXteeo290SUlJAQEBaodQFBISMnr0aPl2tSep4/64gN2R3wFgZ4ozZFnV1UJK8ZPKo48+qlh4165dNk/tXL9+fcVGy2aJiYlqc6UXq2LFiocOHVKLHBUVZfMIsqGhoYptg3NycuRDElird+/e8myX4yKbrPx6IB8RUxCEyZMnjxgxwqrKzJ49W+1PU0byOyaTqVOnTsW+kUaNGqntbnb37l2NlEpYWJjiH8VxpL/TyrVt29aqaDZ8t1T8cK/fxIkTS16fwsJCecc0DV5eXocOHdJusGDRFcWGi8dFT6YF/fkdh97WrKL4TseOHfvUU09ZVZm3335b4yiOeOioVd4J+R2TydS5c2ftap8+fVo7wpEjR7QjFJtAN3PQuS2t5529rj0n3OhWrlyp2HJckcFg2LRp0/PPPy9/SeMP7aA/LmB3jK8MwJ4OHz587do1+fZnn31WrdWMNsWvDefOnTt//rx8e8+ePXfu3GnD9LotW7Y8ePCgRg/86tWrHz161IZZlqpWrbpjxw6Nr1iNGzf+559/NOYfVVOnTp0dO3Yo5r8qVqy4devWiIgIa2OK+vXrt27dOvmnJcdFtlZeXp58Y0BAwP/+9z/91Rs2bFixrVrKgunTp5c8SLVq1TQ+qU+YMKHkfxSryEdZlnLEyMoWVqxY8f7779vwrt3c3ObPn2/V9Ctq3N3dly5dqjMr7e7uvmzZsk6dOnXv3l3PcCFmdrl4ilUWTqbNys5tTVFOTs6PP/6oMZO0hZEjR86bN0+jgCMeOqVLe8DgSpUqFTtpfevWrdXGcDFTbEEj56BzW1rPO3tde0640Y0ePVqtK70Fg8GwePHiQYMGacyvqqj8/eOg3CrtBBOAckWtF/S5c+dsC6g2fsTrr7+utsvVq1cVJztQVLFixTlz5ugc8S4zM/Pll19W7FYtZzAYhg0blpiYqCdyQkLCsGHDdH49MBgMzz777L1797RjZmdnT5s2zdoGTUFBQV988YV2K2IHRbbq51/FyWvmz59vMpnu3r2r+GunlMFgmDp1an5+vsbbLDvtd0wm07PPPqv9joptv2Mymfbt26e4r5ubW2xsbLG721dBQYHiiJWCIHh6eqakpFgVzea2A1u3brUqb9uhQ4e9e/fatz7r1q1TG8lCFBwcvHXrVnGX7777Tq2kfChZay8elz6ZIv3td8wcd8PUT/GdmkczSUxMLLYplpub20svvVRQUKDnWHZ/6JRi+529e/dqVP6JJ57QE+Txxx/XCHL06FH99bH7uS2t5519rz1H3+hMJtOOHTvq1aunEb9Ro0biPUfxN4ZevXppvAWTYz6tAfZFfgeA3eTl5QUGBsqfcM2bNy9JWPlUO4IghIaGan+kPnr06JgxY6pXr6723G3YsOHcuXMVh2rWFhsbO2vWrMaNG6tFrlat2pQpU86ePWtt5PPnz0+cOLFWrVraka1KlsXGxr777rutW7fW/jji5eXVs2fP77//Xv8MSnaPbNXXA8Xucr/88ov51aKioh9//FHxh01PT89+/fqpzX1mc30cnd8pKiqaP3++Wtu04ODgKVOmFPuOTCaT4tWl8/uP3b3yyiuKb0dtBFANJfluaTQaN2zY8NRTT2k0/atevfqoUaN27NjhoPpcvXp13Lhxih3oqlWrNnv2bHnCa/78+fKBgd3d3Z955hmLktZePK5+Ms2sze+YOe6GafM7HTRokPnVwsLCH374QfG25uXl1b9//8OHD1t7RDs+dEoxv5Obm6s4SLbZRx99pCfIe++9pxbB39/fhhSeHc9taT3v7H7tOfRGZ/bgwYO1a9eOHDkyIiIiICDAw8MjMDCwZcuWkydP3rJli3SggOHDh8urMXjwYD1vxBGf1gB7MZhMJrVLEwDKgUuXLl25ciU1NTU1NbWoqKhy5cp169Zt0aKFzePpiOLj48+ePZucnJyamvrgwQM/P79atWo1adIkIiKihA31o6Ojo6KiUlJSUlNTjUajv79/jRo1mjdvXr9+fdu6uQmCkJGRcfXq1WvXrqWkpOTk5Jg/EPv5+QUFBUVERDRq1MjmoYscF7nkrly5curUqfj4+Pz8/GrVqoWGhnbq1MnagRjLjgcPHhw+fDgqKio9Pd3Hx6dKlSqBgYERERE6hzaIiYkJDw+XP/d///13a8dxKJeMRuO5c+du3rxp/tfz8PAICgoKCgpq0KBBSTrv6JeTk3P06NErV67cv3/fzc0tODi4efPmrVq1UpygShCE1NTUPXv23Lx5Mz8/39/fv0GDBh06dFC7vEt48Vir1E9mCZXKba1v377bt2+32Dhw4MDNmzdLt5hva7dv3y4oKDDf1jp37ly5cuWSHNoRDx2YOe3cluR558xrz6E3Ov369OmzY8cOi40TJ060qrso/zgog8jvAADwUHj11VflIxQEBwfHxcXp7HUIwHEUv2MPGDBgy5YtpVIfPDwewmvvkUceiYuLs9j41ltvzZ8/v1TqA9gLmUUAAMq/O3fu/PDDD/Lt+oeUAgCgjLt///7Fixfv3LmjUebq1avy5I4gCIoDAgCuxaO0KwAAABzLZDK9+OKL2dnZFtt9fHxeeumlUqkSAAAlZDQa33vvvdjY2Pj4+Nu3b8fHx+fk5AiCMGLEiN9//11tr8WLF8s3urm5de/e3YF1BZyC/A4AAOVZTk7O9OnTN2zYIH/p1VdfDQoKcn6VAAAoOTc3t927dx87dsxi+7p16zZt2jR48GD5Ltu3b1fM7/Tt21dxkhDAtZDfAQCgXFmyZElcXFzVqlXz8/OvX7++adOmxMREebHq1au/9dZbzq8eAAD2MnHiRHl+p7CwcNiwYdOnT58yZUp4eLh51ovLly8vW7Zs0aJFhYWFFuUNBsO8efOcVGPAkcjvAABQrmzdunXjxo3FFvvuu+/8/PycUB8AABzk+eef//bbby9cuGCxPT8/f+HChQsXLvTy8qpatWpaWpq565ai6dOnt2zZ0sE1BZyB8ZUBAHjoTJs27amnnirtWgAAUCLu7u4bN24MCQlRK5Cfn5+QkKCR3BkyZMiXX37pmNoBzkZ+BwCAh8vw4cO/+eab0q4FAAB2EBYWdvjw4TZt2li7o7u7+3vvvbdmzRo3N74Uo5zgUgYA4GHh4+Pz2WefrVq1yt3dvbTrAgCAfdSrV+/w4cNLliypV6+envJeXl6jRo06fvz4Rx995OHBiCUoP7iaAQAoV9q1a2eeJjYrK+vBgweenp5BQUGRkZG9evUaP358lSpVSruCAADYmaen5+TJkydNmnTq1KmtW7eeO3fu8uXLSUlJWVlZhYWF/v7+AQEB1atXb926dbt27fr06RMcHFzaVQbsz2AymUq7DgAAAAAAALAd/bMAAAAAAABcG/kdAAAAAAAA10Z+BwAAAAAAwLWR33noNGrUqFGjRqVdCwAAAAAAYDfkdx5SpHgAAAAAACg3yO8AAAAAAAC4NvI7AAAAAAAAro38DgAAAAAAgGsjvwMAAAAAAODayO8AAAAAAAC4NvI7AAAAAAAAro38DgAAAAAAgGsjvwMAAAAAAODayO8AAAAAAAC4NvI7AAAAAAAAro38DgAAAAAAgGsjvwMAAAAAAODayO8AAAAAAAC4NvI7AAAAAAAAro38DgAAAAAAgGsjvwMAAAAAAODayO8AAAAAAAC4NvI7AAAAAAAAro38DgAAAAAAgGsjvwMAAAAAAODayO8AAAAAAAC4NvI7AAAAAAAAro38DgAAAAAAgGsjvwMAAAAAAODayO8AAAAAAAC4NvI7AAAAAAAAro38DgAAAAAAgGsjvwMAAAAAAODayO8AAAAAAAC4NvI7AAAAAAAAro38DgAAAAAAgGsjvwMAAAAAAODayO8AAAAAAAC4NvI7AAAAAAAAro38DgAAAAAAgGsjvwMAAAAAAODayO8AAAAAAAC4No/SrgAAwIEMBoN8o8lkcn5NAAAAADgO+R0bxcXFRUVFJSQk5OTkeHp6BgYGhoeHN2vWzMPDxlNqNBqjo6OvXr2anJycl5dXoUKFkJCQRo0ahYeH27fmAB4eiskdcTtZHgAAAKDceFjyO/fv33/33Xd37dolbrl06ZINuZi8vLzffvtt9erVN27ckL/q6+s7YMCAF154oXbt2vpjJiUlLV26dOPGjffv35e/Wr169eHDh48bN87Pz8/a2gJ4mGkkcdTyPgAAAABclOFh+P32wIED77zzTnJysnSjDfmd8+fPz5w5Mz4+XruYl5fXG2+8MXbsWD0x161bN2/evJycHO1iwcHBX3zxRbt27fTWVV2jRo3MC9HR0SWPBqBs0tNCh1Y8AAAAQLlRzsdXzs3N/eijjyZPnmyR3LHB4cOHR48eXWxyRxCE/Pz8jz/+eOHChcWW/N///vfOO+8Um9wRBCE5OXnChAl79+7VVVcADzediRtzAdryAAAAAOVAeW6/8++//7722msxMTGKr1rVfuf27dtDhgzJzMwUtzRs2HDYsGGRkZEhISHZ2dmxsbGbNm3auXNnYWGhWOazzz578skn1WLu3Lnz5Zdflm7p0qXLkCFD6tevHxQUlJKScuXKlTVr1pw6dUosULFixXXr1tWvX19ntRWZ2+/QeAcor6xtlUMrHgAAAKAcKJ/5HaPR+MMPP3z99dditsXX17dt27b79u0Ty1iV35k0adLBgwfF1WnTps2YMcPNzbL108mTJ6dPn37v3j3zaqVKlXbu3BkYGCgPmJWV9cQTT6SmporVW7BgQe/eveUlV65c+cknnxQVFZlXW7du/dtvv+mstiLyO0D5Rn4HAAAAeAiVw/5ZmZmZzz333BdffCEmdyIjIzdu3Pj444/bFvDEiRPS5M748eNnzpwpT+4IgtCmTZvFixeLnR0yMzN/+OEHxZjLly8XkzuCIHz++eeKyR1BEMaMGfPKK6+Iq6dOndq/f78N7wIAAAAAAJRX5TC/k5iYePLkSfOywWCYPHnyqlWrrJrQysKKFSvE5dq1a7/22msahVu1ajV69GhxdfXq1bm5uRZlioqKpG1wBg8e3LNnT42YkyZNaty4sbj6888/66w5AAAAAAB4GJTD/I4oODh42bJlr7/+ug3zoIuysrKkoxo/99xzXl5e2rtMmDBBuru0U5jZ0aNHpY13nn/+ee2A7u7u48ePF1ePHDmSkpJSTL0BAAAAAMBDo9zmd7p167Zp06ZOnTqVMM7Ro0fz8/PF1b59+xa7S61atZo1ayauyie9knawqlOnjrRtjppevXq5u7ubl41G44EDB4rdBQAAAAAAPCTKYX7Hy8vr7bffXrJkSZUqVUoe7cSJE+JyvXr1QkJC9OzVoUMHcfn48eMWr0q3dOzYUU/ASpUqNWnSRFw9duyYnr0AAAAAAMDDoBzmd+rWrSvtzVRC//77r7gszbBoa9q0qbickJCQlpYmrhYUFFy7dk2xpDZpmyBprQAAAAAAwEOuHOZ37Ov69eviclhYmM69LEpKEzqxsbEFBQU2xKxbt664HBMTYzQade4IAAAAAADKN/I7WvLy8qQDIdesWVPnjqGhodLV+Ph4xWV5SQ3SoxcWFiYlJencEcBDxWQyCYJgMBj0FDYXM+8CAAAAwHWR39FikUPRP6BP5cqVPT09xdW7d++Ky8nJydKSQUFBOmNalJTGBAApMcWjluUxbye5AwAAAJQb5He0pKenS1crVaqkf18/Pz9xOSMjQzGmh4dHhQoVdAa0OLpF3QBASszaGJQIJHcAAACA8oX8jpacnBzpqo+Pj/59pYWzs7MVlytWrGhbQIs4ACBnMpnU0jem/5+TqwQAAADAQTxKuwJlWmFhoXTVw8OK0+Xu7i4uSwdUlsa0KqBFYWlMAFBDEgcAAAB4GJDf0VKSOaqkw15I49hr3qsSxmnUqJGeYtHR0SU5CgAAAAAAcAL6Z2mRtsERBCEvL0//vrm5ueKytOmNdDk/P19/QIujS8dvBgAAAAAADzPa72ixGPzYqvyOtLA0jnTZ5oSRIAje3t7695WjYQ4AAAAAAOUG7Xe0+Pv7S1ctMizapIUrV64sLkunwSosLCwqKrIhoCAIAQEB+isDAAAAAADKMfI7WqpUqSJdTU5O1rljRkaGNB0jjRMUFGRbzLt370pXAwMDde4IAAAAAADKN/I7WgIDA6VTmN+5c0fnjgkJCdLVWrVqics1atSQvpSYmKgzpkVJaUwAAAAAAPAwI79TjLp164rLt2/f1rlXfHy8dDUsLExxWV5SZ8zQ0NASjr8DAAAAAADKDfI7xYiIiBCXL1y4oHOvs2fPisv+/v7StjaVKlWSrtoWs0mTJjr3AgAAAAAA5R75nWK0bt1aXI6Ojs7Oztaz1+nTp8XlNm3aaMQ8deqUnoB5eXmXLl3SiAkAAAAAAB5a5HeK0blzZ3HZaDTu27ev2F2Sk5PPnDkjrnbt2lUj5qVLlywGTla0d+/egoICjZgAAAAAAOChRX6nGDVq1GjZsqW4umrVqmJ3Wbt2rTjruYeHR58+fSwK9OzZ08vLy7xsNBr/+OOPYmP+/vvv4nLjxo3r169f7C4AAAAAAOAhQX6neCNHjhSXT5w4sXfvXo3Cd+/eXbZsmbjav39/i0nWBUHw8/MbNGiQuPrzzz9rz8y1f//+I0eOiKtjxozRWXMAAAAAAPAwIL9TvAEDBjzyyCPi6pw5c27evKlYMicn54033sjIyDCvenh4TJ06VbHkCy+84OHhYV7OzMx8/fXX1Ub2uXXr1pw5c8TV2rVrP/nkk9a/CQAAAAAAUG6R3ymep6fn+++/L66mpqYOHTr0zz//zM/PlxY7efLkqFGjjh07Jm6ZOHGiWkequnXrTpw4UVw9ceLEiBEjjh8/Li1TUFCwefPmYcOGJScnixs/+OADsW8XAAAAAACAIAgGk8lU2nWwp7i4uLffflvxpaSkpFu3bomrbdq0MRgM8mIvvPCC4ujFCxcuXLJkiXRLYGBgRERESEhIenr69evXpcEFQWjfvv2yZcvERjpyhYWF48aNO3nypHRj7dq1w8PDAwICkpKSoqKi7t27J3112rRpM2fOVAuoU6NGjQRBiI6OLmEcAAAAAABQRpS3/M6VK1ekQ9vYYP78+U8//bTiSwsWLJCOraOhY8eOixcv9vX11S6WlZX14osvSpv8aJg8efLrr7+up6Q28jsAAAAAAJQz9M+ywuzZs7/99tvQ0FCNMr6+vm+88cbSpUuLTe4IguDn57ds2bJZs2b5+PhoFKtVq9b3339vl+QOAAAAAAAof1R7D0FR7969u3fvvmfPnt27d1+8eDExMTEnJ8fb27tatWoNGzbs2rXrgAED/Pz89Af08PCYMmXKs88+u2XLloMHD0ZHRycnJxcUFFSsWLFmzZrNmjXr2bNn9+7d3d3dHfemAAAAAACASytv/bNQLPpnAQAAAABQztA/CwAAAAAAwLXRPwsAyjPFiQJpuQkAAACUM7TfAYBySzG5Y96u9hIAAAAAV0T7HQAon8wZHMWmOiR3AAAAgHKG/A4AlEMayR1xu3YZAAAAAC6E/lkAUN7oTNxIszwAAAAAXBr5HQAoV6xqlUOKBwAAACgfyO8AAAAAAAC4NvI7AAAAAAAAro38DgAAAAAAgGsjvwMAAAAAAODayO8AAAAAAAC4NvI7AAAAAAAAro38DgAAAAAAgGsjvwMAAAAAAODayO8AQLliMpkEQTAYDHoKm4uZdwEAAADgusjvAEB5I6Z41LI85u0kdwAAAIByw6O0KwAAsD+TySRN4siR3AEAAADKE/I7AFA+aXTUIq0DAAAAlDPkdwCgPCOVAwAAADwMGH8HAAAAAADAtZHfAQAAAAAAcG3kdwAAAAAAAFwb+R0AAAAAAADXRn4HAAAAAADAtZHfAQAAAAAAcG3kdwAAAAAAAFwb+R0AAAAAAADXRn4HAAAAAADAtZHfAQAAAAAAcG3kdwAAAAAAAFwb+R0AAAAAAADXRn4HAAAAAADAtZHfAQAAAAAAcG3kdwAAAAAAAFwb+R0AAAAAAADXRn4HAAAAAADAtZHfAQAAAAAAcG3kdwAAAAAAAFwb+R0AAAAAAADXRn4HAAAAAADAtZHfAQAAAAAAcG3kdwAAAAAAAFwb+R0AAAAAAADXRn4HAAAAAADAtZHfAQAAAAAAcG3kdwBI3zjYAAAgAElEQVQAAAAAAFwb+R0AAAAAAADXRn4HAAAAAADAtZHfAQAAAAAAcG3kdwAAAAAAAFwb+R0AAAAAAADXRn4HAAAAAADAtZHfAQAAAAAAcG3kdwAAAAAAAFwb+R0AAAAAAADXRn4HAAAAAADAtZHfAQAAAAAAcG3OyO8UFBQ44SgAAAAAAAAPJw8b9snPzz9+/Lifn1+LFi3Uyty7d2/58uW7du2KjY0tKCgIDAxs0qTJ4MGDBw0a5O7uXoIKlwl37ty5cOHCvXv30tLS3NzcqlSpEh4e3rRpUw8PW86nWVxcXFRUVEJCQk5OjqenZ2BgYHh4eLNmzUoSEwAAAAAAPAwMJpPJqh3WrFnz9ddfJyUlTZw4cfbs2Ypl9u7d+/rrr2dlZclfatGixZdffhkaGmpLZUtbZmbmypUr169fHxsbK3+1UqVKgwcPnjJlSkhIiP6YeXl5v/322+rVq2/cuCF/1dfXd8CAAS+88ELt2rVtr/f/1ahRI0EQoqOj7RUQAAAAAACULivyO0aj8Z133tmwYYN5tW/fvosWLZIXO3r06MSJE4uKitTi1KtXb9WqVQEBATZUtxT9/fff7733XmZmpnYxHx+fuXPnPvnkk3pinj9/fubMmfHx8drFvLy83njjjbFjx+qtqybyOwAAAAAAlDNWjL/z/fffi8kdQRAUsxI5OTmvv/66RnJHEISYmJiPP/5Y/3HLgsWLF8+cObPY5I4gCDk5OW+++eby5cuLLXn48OHRo0cXm9wRBCE/P//jjz9euHChnqoCAAAAAICHjd6xXRISEr777jvpFoPBIC+2dOnS5ORkaZmOHTvWqVMnOTn50KFDDx48MG/ftGnT+PHjmzZtamu1nWrz5s1ff/21dEvz5s2feeaZli1bBgYGZmRkREdHr1+//tChQ2KB+fPnh4WFdevWTS3m7du3Z8yYkZ+fL25p2LDhsGHDIiMjQ0JCsrOzY2NjN23atHPnzsLCQnOBJUuWhIeH62wZBAAAAAAAHh56+2d9+umnP/30k3nZ29v7k08+GThwoEWZgoKCxx577P79++ZVf3//JUuWtGzZ0ryakpIybdq08+fPm1dHjx79/vvv2+EdOFhycnKvXr1yc3PFLW+//fa4cePk6a0tW7a89dZb4mRh1apV+/vvv/38/BTDTpo06eDBg+LqtGnTZsyY4eZm2Zzq5MmT06dPv3fvnnm1UqVKO3fuDAwMLMk7on8WAAAAAADljN7+Wbt27RKXFyxYIE/uCIJw5MgRMbkjCMLcuXPF5I4gCFWrVv3222+9vb3Nq9u2bbOlvk63dOlSaXLnjTfeGD9+vGLbpYEDB3722WfialJS0q+//qoY88SJE9Lkzvjx42fOnClP7giC0KZNm8WLF4uHy8zM/OGHH2x7IwAAAAAAoLzSld+5c+dOXFyceTkyMrJfv36KxaQ5oPr16w8YMMCiQEhIiLhvamqqnqFnSldRUdGaNWvE1YiIiIkTJ2qU79+/f9++fcXVlStXGo1GebEVK1aIy7Vr137ttdc0YrZq1Wr06NHi6urVq6X5JgAAAAAAAF35nevXr4vLaskdQRCkbVKeeuopxTIdO3YUl69cuaLn6KXo0qVL0lnen3vuOcVWNlLTpk0Tl5OSko4ePWpRICsra+/evdKYXl5e2jEnTJgg3X3fvn3FVRwAAAAAADxEdOV3pA1tIiMjFcvExcUlJCSIq927d1csFhYWJi7fuXNHVx1Lz+nTp6WrXbp0KXaXxo0bmwe4MTtw4IBFgaNHj0qHVZa291FTq1atZs2aiavS9BAAAAAAAICu/E52dra4HBISolhG2lClatWq4eHhisWkYwNLw5ZNKSkp4nLlypXV3ruFFi1aiMsnT560ePXEiRPicr169XTG7NChg7h8/PhxPbsAAAAAAICHhK78jrS9iVpnImnaon379mqhxPGVBUEQp0svs9LS0sTlypUr69yrfv364nJ0dHRRUZH01X///VdcbtKkic6Y0rnkExISpBUDAAAAAAAPOV35nQoVKojL0lyP1JEjR8RlaWMTC3pSRWWTzonkBUHw9/cXl/Pz8xMTE6WvSgczkvZW02ZR8tq1azp3BAAAAAAA5Z6u/I6vr6+4LO2yJIqOjk5KShJXO3furBZKOoG6j4+PrjqWHmmbnYyMDNuCSEcvysvLS01NFVdr1qypM0hoaKhaTAAAAAAA8JDTld+pUaOGuKw46dXOnTvF5bCwMI20RUxMjLgcFBSkq46lp2rVquJyenr63bt39ex1+/Zt6eq9e/fEZWkWTBCEKlWq6KxJ5cqVPT09xVWdNQEAAAAAAA8DXfkd6WDJu3btsng1Pz9/7dq14mqPHj00QknHBq5bt66eo5ci6UjJgiAcPnxYz17Hjh2TrmZmZorL6enp0pcqVaqkvzJ+fn7iss2NiQAAAAAAQPmjK78TEhJSq1Yt8/KBAwf2798vffWrr76SDjHTr18/tTiZmZnbtm0zL3t6etarV8/q+jpX06ZNK1asKK7++uuvxe5y+fJl6VDTgiDk5eWJyzk5OdKXrOqhJi1c9qceAwAAAAAATqMrvyMIQp8+fcTll156af78+Xv37t2+ffurr766dOlS8aXGjRs3b95cLci8efPExES7du2kwzaXTV5eXk899ZS4euHCBe0UT3Z29muvvWaxsaCgQFwuLCyUvuTh4aG/Mu7u7ooxAQAAAADAQ05vfuHZZ5/95ZdfzGmFgoKC5cuXL1++XF5s2rRpirvfu3fvk08+2bx5s7hl0KBBVle2NIwbN+6PP/4Q8zIff/yxr6/vkCFD5CVjY2Nfe+21a9euGQwGDw8PMQUjTeIYjUaba2IwGOwSx6xRo0Z6ikVHR5fwQAAAAAAAwNH0tt+pVavWlClTtMv06dOnb9++8u0HDhzo2rWrNLlTq1atgQMH6q9lKapbt+4rr7wirhYVFc2ePXvSpEk7duxISkrKz89PSko6evToe++9N3jw4PPnzwuC8PTTT0unfpcuS9vgCP+361axcnNzxWWrGv4AAAAAAIDyzYo0wcsvvxwfH79hwwbFV1u2bDlv3jzFl4KCgqT9idzd3T/77DPpbFBl3KRJk6KiorZu3SpuOXjw4MGDBxULN2nS5J133lm/fr24RTqIskWXNKvyO9LCJe/aRsMcAAAAAADKDb3tdwRBMBgMn3766eeff24xLrKvr+/EiROXL1/u7++vuGODBg3E9ibe3t5fffVV69atba6x87m5uS1cuHDs2LHFlnziiSdWrFghCILJZBI3BgYGissWp0jaJKdY0sKVK1fWvyMAAAAAACjfrO7mM3jw4MGDB9+8eTMuLi47O7tGjRrh4eG+vr4au3h5edWvXz86Orpr166zZ8+WzrbuKtzc3ObMmTNo0KCvv/76yJEjFsMkGwyG9u3bT5o06bHHHhNkTWNq1KghLlepUkX6UnJyss4KZGRkSPM7FnEAAAAAAMDDzMZhXOrWrVu3bl395d988806derUrl3btsOVEZGRkT/++GNWVtapU6fu3r2blpZWoUKFWrVqtWjRQppwuXHjhrjs5uZWs2ZNcTUwMLBixYoPHjwwr965c0fnoRMSEqSr4nT1AAAAAAAAThqmt0uXLs45kBP4+fl169ZNo8DVq1fF5fr160vHVxYEoW7dulFRUebl27dv6zxofHy8dDUsLEznjgAAAAAAoNyzYvwd6HTkyBFxOTIy0uLViIgIcfnChQs6Y549e1Zc9vf3p/0OAAAAAAAQkd+xs8zMTGkupnPnzhYFpGNLR0dHZ2dn6wl7+vRpcblNmzYlqyMAAAAAAChXyO/Y2bp164qKiszLnp6e5hGXpaQZH6PRuG/fvmJjJicnnzlzRlzt2rWrHSoKAAAAAADKCxvH30lMTLx06VJiYmJWVlZOTo50OnD9Zs2a5eZW1hNMf//996VLl65du3b9+vWxY8c+99xzGoULCgqWL18urvbu3Vs+Z3yNGjVatmwp5mtWrVo1YMAA7TqsXbtWzBl5eHj06dPH2ncBAAAAAADKMevyO/n5+StXrvzjjz+kU0TZbObMmS6R39m+fbt5+Zdffhk1apSHh+pJW7RoUWJiorg6ceJExWIjR44U8zsnTpzYu3dv9+7d1WLevXt32bJl4mr//v2ZHB0AAAAAAEhZkV6Ji4sbOnToggUL7JLccRVDhgwRl2NjY7/44gu1kn/99dcPP/wgrvbr16958+aKJQcMGPDII4+Iq3PmzLl586ZiyZycnDfeeCMjI8O86uHhMXXqVGuqDwAAAAAAyj+9+Z3s7OypU6dGR0c7tDZlUPfu3Zs0aSKuLl269P33309PT5eWuX///ueffz5r1ixxS5UqVd555x21mJ6enu+//764mpqaOnTo0D///DM/P19a7OTJk6NGjTp27Ji4ZeLEifXr1y/J2wEAAAAAAOWPQefQOf/973+//PJL+x770qVLGn2dyo6LFy+OHDmyoKBA3OLt7d22bdtHHnmksLDw9u3bJ0+elKZmvLy8li1b1rZtW+2wCxcuXLJkiXRLYGBgRERESEhIenr69evXb926JX21ffv2y5YtK/kZa9SokSAID2GqDgAAAACA8kpvfuexxx5LSkoSVz09PR9//PEWLVrUrFmzUqVKnp6eNhy7Xbt2BoPBhh2d76+//nrzzTcLCwuLLenv779o0aJOnTrpCbtgwQLp2DoaOnbsuHjxYl9fXz2FtZHfAQAAAACgnNGV34mJienXr5+42qZNm08//bR27dqOrFiZc+rUqQ8//FA7LdKrV685c+aEhobqD7tz585PPvkkISFBrYCvr++LL744YcIEd3d3K6qrjvwOAAAAAADljK78zl9//SUOLlOjRo1NmzbJp/1+GBiNxqNHj+7cufPChQu3b9/OysoSBMHf3z8sLKxdu3YDBw60bXCcwsLCPXv27N69++LFi4mJiTk5Od7e3tWqVWvYsGHXrl0HDBjg5+dnx3dBfgcAAAAAgHJG12Au9+/fF5eHDRv2cCZ3BEFwc3Pr1KmTzr5X+nl4eDzxxBNPPPGEfcMCAAAAAICHhK75s7Kzs8XlyMhIh1UGAAAAAAAAVtOV3/H29haXg4KCHFYZAAAAAAAAWE1XfickJERcLioqclhlAAAAAAAAYDVd+Z3GjRuLyykpKQ6rDAAAAAAAAKymK78TFhb2yCP/H3t3Hhd1tf9x/DswA8oIAikkgSkii4Jm0S1TMfcFlyxxbdPrkpVmmq2WXbladq92tcydNrNUUFPIEje00ITckpDSTEQUlX1RYGB+f4z3+/veAYbvLIAz83r+8bvnzHy+55zxPvLRff/O95y2unZqampDrgcAAAAAAADGkZXvCILw5JNP6hq7du26detWg60HAAAAAAAAxpGb70yYMKFTp06CIOTk5CxfvrwhlwQAAAAAAAAjyM13VCrVqlWrfH19BUGIiYn55JNPtFptQy4MAAAAAAAAssjNdwRBuPvuu7ds2fK3v/1NEITly5c/+eSTP/74IykPAAAAAABA01LIDGiuX79eXFxcUlJy8+bNL774Yu/evbrPPTw87rvvPl9fXzc3N6VSadTcM2bMUCgURi8Z5gkKChIEISMjo6kXAgAAAAAALENuvhMSElJdXW3ZudPS0oyNhGA+8h0AAAAAAGyMEe9nAQAAAAAA4A5EvgMAAAAAAGDdyHcAAAAAAACsm9zjb95//30XFxdnZ2elUqn4LzPndnR0NHMEAAAAAAAAyD1fGTaD85UBAAAAALAxvJ8FAAAAAABg3ch3AAAAAAAArBv5DgAAAAAAgHUj3wEAAAAAALBucu/PqpVGozl//nx6evrZs2cLCgqKi4tLS0sFQXB1dXVzc/P09OzUqVNYWJivr6+FVgsAAAAAAAB9JuY7aWlpsbGxu3btKi4urrfYx8dnzJgxUVFRrVq1Mm06AAAAAAAA1MXo+9ELCgoWLlyYkJBg7EwqlerFF1+cNm2agwMvhTUl7kcHAAAAAMDGGJfv/PHHH88+++yNGzdMni88PHz16tWurq4mjwAzke8AAAAAAGBjjNhKk5OTM3XqVHPCHUEQUlNTZ86cqdFozBkEAAAAAAAAIiPO35k/f/6VK1f0PgwODu7WrVvbtm3vueee5s2bu7i4aLXasrKy0tLSS5cu/fXXXykpKZcuXZI+cuTIkQ8//HDevHkWWD4AAAAAAIDdk/t+1qlTp8aMGSN2XVxcnnzyyaeeesrLy6veZ//444/169d/++234lxOTk579+719vY2bdEwB+9nAQAAAABgY+S+n/X555+LbR8fn9jY2Llz58oJdwRB6Nix45IlSz7//HO1Wq37pKKiIiYmxti1AgAAAAAAoCa5+c6RI0d0DUdHx1WrVnXo0MHYmR566KEVK1aI3f379xs7AgAAAAAAAGqSle+cO3cuLy9P1x4+fHhwcLBpk/Xs2bNPnz66dmZmZnZ2tmnjAAAAAAAAQCQr37lw4YLYHjhwoDnzDR06VGz/9ttv5gwFAAAAAAAAQWa+U1hYKLZ1p/OarFu3bmJb3BMEAAAAAAAAkxmd73h6epozX6tWrcR2QUGBOUMBAAAAAABAkJnvODj8f1llZaU58ymVSrFdVVVlzlAAAAAAAAAQZOY7Hh4eYvvGjRvmzCd9XDosAAAAAAAATCMr33F3dxfbx48fN2e+U6dOiW0zX/UCAAAAAACAIDPfkZ6pHB8fb858O3fuFNsBAQHmDAUAAAAAAABBZr7Tpk2btm3b6tpHjx7ds2ePaZPt379/37594pj+/v6mjQMAAAAAAACRrHxHEITevXuL7Xnz5iUlJRk70969e19++WWx26dPH2NHAAAAAAAAQE0KrVYrpy47O3vgwIHSy7OGDBkyZcqU0NBQww9qtdqTJ0+uW7dO3LkjCIJKpdqzZ4+Pj49pi4Y5dG/bZWRkNPVCAAAAAACAZSjrLxEEQRB8fHzGjx//xRdfiJ/s3r179+7d3t7e4eHh/v7+fn5+arXaxcVFq9WWlZWVlpZmZmb++eefx44dy83N1Rvt6aefJtwBAAAAAACwCLn7dwRBqKiomDx5ckpKiplT9urVa9WqVSqVysxxYBr27wAAAAAAYGPknr8jCIKTk9Mnn3zSrVs3c+br2bPnRx99RLgDAAAAAABgKUbkO4IguLm5ffXVV7NnzzYhoHFxcVmwYMH69eubN29u7LMAAAAAAACoixHvZ0ldv349Li5u69atWVlZ9RYHBQVFRUWNHDnSzc3NhLlgWbyfBQAAAACAjTEx3xFduXLlzJkz6enpubm5xcXFxcXFCoXC1dXV1dW1devWoaGhYWFhnp6ellouzEe+AwAAAACAjTE334HVId8BAAAAAMDGGHf+DgAAAAAAAO405DsAAAAAAADWTdnUCwAANCCFQlHzQ97MBQAAAGwM+3cAwGbVGu7oPq/rKwAAAADW6Pb+nV27dlVXV+vaAQEBnTt31quTFljKiBEj+B8YANBAdH/B1rpVh797AQAAABtz+/6skJAQMb6ZNGnS66+/rlcnLbCUtLQ0pZIXxBob92cB9sBAuGNUDQAAAACrwPtZAGBrZAY3ugL28gAAAAA2gHwHAGyKUbtyiHgAAAAA20C+AwAAAAAAYN1uH38THR0tHq8THBxcs05aYCmOjo6WHRAAAAAAAMAOKThZ095wvjJg24w9NZlTlgEAAAAbwPtZAAAAAAAA1o18BwAAAAAAwLopZdZlZmbqdu97eHi4ubmZPF9CQkJycrIgCM7Ozu+8847J4zStS5cu/fbbb3l5eUVFRUql0tXV1dvbOywszNPT05wx09PTs7Ozy8rKVCqVh4dHQEBAaGioUin3vyMAAAAAAGCf5GYHgwYN0p2vPGfOnOnTp5s8X35+fmxsrK49ffp0b29vk4dqfFevXv3666+3bdt27dq1WgsCAgKioqKeeOIJV1dXmWOWl5dv2rRp8+bNFy5cqPmtWq2OjIycNm2an5+f6esGAAAAAAA2rbHfz/Lx8RHbaWlpjTy7ybRa7caNGwcPHrx69eq6wh1BEM6dO/fee+8NHjw4MTFRzrCnT58eMmTI+++/X2u4IwhCaWnpli1bhg4d+sUXX5i4dAAAAAAAYOua8vwdA0HJnebdd9+Njo6+efOm9EMfH5+QkJCOHTt6eHhIP79x48aLL75YbyKTnJw8ceLEy5cv1zt7RUXFokWLli5dasLKAdgb3bu0ulux6sXlWQAAAIBtaOyzXaR7dgoLCxt5dtOsWbPmm2++EbteXl4vvPDCkCFDWrZsKX6YmZkZGxsbExNTWVmp+2TRokX33HNPv379ah0zKytr1qxZFRUV4ieBgYFRUVFdunTx9vYuLS3NzMzcuXNnYmKiRqPRFaxduzYgIGDkyJGW/4UAbItWq1UoFAayG4VCoaupqwAAAACAdWm8fKeqqurw4cMbNmwQPxGTiztZVlbWxx9/LHY7dOiwcePGmucot23bds6cOf3793/66afFbT7R0dE9e/Z0dnauOey7775bXFwsdmfMmDFr1iwHh//fThUQENC3b9/U1NSZM2fm5eWJA0ZEROhtFwKAmsT4pq6NPIQ7AAAAgC2pJd8ZPHhwzeRFd7iyIAgxMTFbt241dpqqqqrc3Nzy8nLph61btzZ2nMa3bds26S6bpUuXGrgkq0uXLjNnzvzggw903StXrvz44481t/CkpKQcPnxY7D777LOzZ8+udcDw8PCVK1dOmDBB97/BiouL161b9+qrr5r8cwDYDwMvahHrAAAAADamlnzn4sWLYppTU0FBQUFBgUXmDg8Pt8g4DSopKUlsd+nSJSQkxHD9E0888a9//Uv8306HDh2qme98+eWXYtvPz2/u3LkGBrz//vsnTpy4ceNGXXfz5s2zZs1q1qyZ/J8AwJ4R5QAAAAD2oMnOV+7fv7+/v39TzS6f9PzjsLCweuvd3d2ld5lnZ2frFZSUlBw4cEDsPvXUU05OTobHnDRpkvTxgwcP1rsMAAAAAPZDUZumXhSARlVLvrNw4cIxY8Z07txZpVI10KwPPvjge++910CDW1ZRUZHYlnnwjfTcZenjOkePHpW+8DV48OB6B/T19Q0NDRW70ngIAAAAgJ0zcNweKQ9gP2p5PysqKioqKkoQhIqKit9//z0tLe3XX38Vz9xRq9VqtdqEmZycnFxdXYOCggYMGNC3b1/pWcJ3Mjc3t/z8fF27rKxMziO3bt2SPq73bUpKitj29/f39vaWM+bDDz985swZXfvYsWNyHgEAAABg8wzfmNnoywHQZAzdn+Xk5BQaGhoaGjp27Ni4uDjdoTzTp0+fPn16Yy2v6QUGBv7888+69rlz5+qtr6qqkr6TFRQUpFfw22+/ie1OnTrJXEbnzp3FdnZ2dkFBgbu7u8xnAQAAANgkwxdiSi9b4Eg+wOZZxyaaJtSnTx+xfezYMfGq8rocP368tLRU7D766KN6BefPnxfb7du3l7kMvUo5SRMAAAAAGyYzuDFwpSYAW0K+U49Ro0aJ71jdunVryZIlBoqrqqqWL18udsPCwvTuCCsvL8/NzRW799xzj8xl+Pj4SLvSU58BAAAA2BujduUQ8QD2wND7WVLbt2/X/aXg5eVlznzV1dWVlZWCIDg6OiqVcmdvQu7u7m+99dZrr72m6+7YsUOlUr3xxhs1DyHKz89/++23xeN1nJycFi5cqFdz7do1adfT01PmMlq2bKlSqXR/dIIg5OTkGPUrAAAAAACADZObsAQHB1tkvqSkpOeee04QhP79+69cudIiYza0xx577MqVK//5z3903a1bt+7evXvQoEFhYWF33XVXVVXVjRs3Tp48uXfvXvFk5WbNmi1btqzm8TqFhYXSrqurq/xltGjRQjzpuea1XAAAAAAAwG419g6a1q1b6xq///57I09tjhkzZnTu3HnJkiW6g29KSkri4uLi4uJqLe7Tp88rr7wSEBBQ8yu9G7hcXFzkr8HFxUXMd6RH/AAAAAAAADvX2PlOZmamrnHjxo1GntpMERERAQEBq1ev3rx5c101arV66tSpo0aNuvvuu2st0Gg00q5Rb6g5OjqKbfFFLZPVvNirVhkZGWZOBAAAAAAAGlrjna9cXV197Nixf//737qu3k6WO9yNGzfmzJnTr18/A+GOIAilpaX/+c9/+vbtO3fu3FoDLN0d86aRHodmzjgAAAAAAMDGmLJ/p6ys7Keffjpy5EhWVlZeXp6cvSQVFRVXr16VZjpGvZrUtNLT0ydNmiS+G+Xk5PTYY4/179+/U6dOLVu21Gg0ubm5aWlpu3fvTkxMrKqqqqqqio+P/+mnnz777DO9c4uke3AEQSgvL5e/DPFwH8HIjT+1YmMOAAAAAAA2w+iYYNOmTR9//LH0km/TWOrA5oaWk5MjDXeCgoI++uije++9VyxwcnJycXHx8/MbPHjwmTNnXnrppaysLEEQ8vPzJ0+eHB8fL70kq1mzZtLBjcp3pMV64wAAAAAAAHtmxPtZGo3m9ddf/8c//mF+uCMIwtixY80fpBG8/fbbYrjj7e0dExMjDXf0hIaGfvrpp+LV6bm5uUuWLJEWuLm5SbvSLTn1kha3bNlS/oMAAAAAAMC2GZHvrFq1avv27RaZdcqUKY899phFhmpQGRkZSUlJYnf27NmtWrUy/Ejbtm0nTZokduPj469fvy52pXt5BEGQfmVYUVGRNN/RGwcAAACAXdFqtcL/ntFpgK5M9wgAWyU33zl//vyqVatqH8LBQfrXioODg4NDLcP6+vpGRES8+OKL33333bx580xYa+NLTEwU2yqVavDgwXKekpZpNJrk5GSx6+Hh0bx5c7F79epVmSvJzs6Wdn19fWU+CAAAAMAmiRFPXSmP7nPCHcBOyD1/Z9OmTVVVVWK3S5cuEydOfOCBB7y8vJydnX/++eenn3EShYkAACAASURBVH5a99Wvv/6qVCqrq6tzc3NPnjy5Y8eOvXv3CoKg0WiioqIGDhxo8d/QcM6cOSO2/f39ZZ4J3aFDB4VCIf4Fmp6ePnLkSPHbdu3apaen69q6k3rkuHz5srTbvn17mQ8CAAAAsFVarVYa4tREuAPYD7n7dxISEsT2xIkTN2/e/Nhjj/n5+Tk7O9c+roND69atBwwYsHLlytjYWF9f36tXr86cOfPNN9806lDhppWXlye29Y7OMcDBwUE8gkcQBPH4Hp2QkBCx/euvv8oc8+TJk9KVsH8HAAAAgCAIWq22rvhG+1+NvCQATUJWvpOZmSmGFP7+/m+++Watb2DVJSwsbPv27Q8++KAgCHFxcc8991xFRYUJa2180uvMb968Kf9B6U3wKpVK+tUDDzwgtjMyMkpLS+UMePz4cbEdHh4ufyUAAAAAbJ62Nk29KACNSlZMc/bsWbH9+OOPK5VG36ru5ua2YsUKLy8vQRCSk5MXLlxo7AhNQnqMsd4JOAZcu3aturpa7N51113Sb3v06CG2q6urDx48WO+A169fP3HihNiNiIiQuRIAAAAAAGAPZOU7BQUFYrtr166mzeTp6bl48WJde+vWrampqaaN05jatWsntvPy8v788085T506dUra9ff3l3bbtGnTrVs3sfv111/XO2BsbKx4+JFSqRw0aJCcZQAAAAAAADshK98pLi4W23q7UWqSbl3R06tXr+DgYF177dq1cqZuWr1795Z2v/nmGzlPxcbGSrs9e/bUKxg3bpzYTklJOXDggIHRcnJyYmJixO7QoUO5HB0AAAAAAEjJynekN2fV+nKW9JyayspKA0OJ92f99NNP0tjoznT//fe3bdtW7H711Vf1bjtKTEyUvnL16KOP1kzEIiMjpcO+9dZbf/31V62jlZWVzZs3r6ioSNdVKpXPPfecET8AAAAAAADYAVn5jvRecOnJwaLmzZuL7cLCQgNDde7cWdfQaDTyb49qKkql8tVXXxW7Go1mypQpcXFx0sBL+u2mTZvmzJkjfuLg4PDKK6/UrFSpVO+8847Yzc3NHT169I4dO/SOnU5NTR0/fvzPP/8sfjJ58uQOHTqY84sAAAAAAIDtkXVSsru7u9i+dOmS9IZvHWkAlJ2d7ePjU9dQ0s0sf/755yOPPCJ3pU1kwIABkydPFt+Qunnz5ptvvrly5crevXuHhIS0bNlSq9UWFhamp6cfOHDg6tWr0mcXLlzYsWPHWoft1avXtGnTxJfUiouLX3vttffffz8kJMTb27uwsPD8+fMXL16UPvLQQw+99NJLDfATAQAAAACAdZOV77Rv315sp6SkiO9YiaQBUHp6uoELvKW39N3572fpvPbaa82aNVu9erV4tNDly5c3bdpk4BFnZ+c333wzKirKQM3cuXM1Go30bJ38/Pzk5ORai7t3775y5UoTbi4DAAAAAAA2T9b7Wf7+/mKysGPHDul1WjoeHh7iob8JCQkGhsrMzBTb0qznDvfSSy9t3ry5e/fu9VY6ODj07dt3+/bt0kOU6/Laa699/PHHBrY7CYKgVqvnzZu3YcMGtVptxIoBAAAAAIDdkLUfpHnz5n/72990W0uKioqmTp26fPlyvVQiKCjoyJEjgiCcOHFi//79ffv2rXUoafoj3fVz5+vSpctnn3128eLFffv2nTp16vfff8/Pzy8pKREEwc3NzcPDIzg4uGvXrv379zec1+gZMGBAnz599u/fv2/fvjNnzly5cqWsrMzZ2dnLyyswMDAiIiIyMrJFixYN9rMAAAAAAIDVU8jcRLNt27Y33nhD7CqVykceeWTu3Lnifedr1qxZtmyZrq1Wq9evX3///ffrDfLNN98sWLBA7MbExPTo0cOs5cN4QUFBgiBkZGQ09UIAAAAAAIBlyM13NBrNkCFDpG9XCf8b0GRlZfXr1+//x1UoBg4cOGDAAB8fHycnp8zMzPj4+P3794sFSqUyJSVFejAzGgf5DgAAAAAANkbueb1KpfL9999/5plnKisrxQ+ll2H5+voOHjz4+++/13W1Wu0PP/zwww8/1DXgsGHDCHcAAAAAAADMJ+t8ZZ0HHnhg2bJlzZs3Fz/x8PCQFrz55puurq5yhmrRosWLL74of2oAAAAAAADUxYh8RxCEgQMHxsXFDR48WKFQCIIg3pml4+3t/emnn7Zs2dLwIC4uLitWrPDz8zN2rQAAAAAAAKhJ7vk7evLy8k6cOCE9cEd0+fLlJUuW1PVmVq9evd5666327dubMCksgvN3AAAAAACwMSbmO/W6cuXKgQMHzp07l5eXV11d7e7uHhQU9Mgjj5DsNDnyHQAAAAAAbExD5Tu4Y5HvAAAAAABgY4w7fwcAAAAAAAB3GvIdAAAAAAAA60a+AwAAAAAAYN3IdwAAAAAAAKybUvcfsbGx1dXVjTx3VFSUQqFo5EkBAAAAAABszO37s0JCQho/30lLS1MqlY08Kbg/CwAAAAAAG8P7WQAAAAAAANaNfAcAAAAAAMC6ke8AAAAAAABYt9vH33zwwQeNf/6Oo6NjI88IAAAAAABge27nO8OHD2/adQAAAAAAAMA0vJ8FAAAAAABg3ch3AAAAAAAArBv5DgAAAAAAgHUj3wEAAAAAALBuSnMe1mg058+fT09PP3v2bEFBQXFxcWlpqSAIrq6ubm5unp6enTp1CgsL8/X1tdBqAQAAAAAAoM/EfCctLS02NnbXrl3FxcX1Fvv4+IwZMyYqKqpVq1amTQcAAAAAAIC6KLRarVEPFBQULFy4MCEhwdiZVCrViy++OG3aNAcHXgprSkFBQYIgZGRkNPVCAAAAAACAZRiX7/zxxx/PPvvsjRs3TJ4vPDx89erVrq6uJo8AM5HvAAAAAABgY4zYSpOTkzN16lRzwh1BEFJTU2fOnKnRaMwZBAAAAAAAACIjzt+ZP3/+lStX9D4MDg7u1q1b27Zt77nnnubNm7u4uGi12rKystLS0kuXLv31118pKSmXLl2SPnLkyJEPP/xw3rx5Flg+AAAAAACA3ZP7ftapU6fGjBkjdl1cXJ588smnnnrKy8ur3mf/+OOP9evXf/vtt+JcTk5Oe/fu9fb2Nm3RMAfvZwEAAAAAYGPkvp/1+eefi20fH5/Y2Ni5c+fKCXcEQejYseOSJUs+//xztVqt+6SioiImJsbYtQIAAAAAalLUpqkXBaBRyc13jhw5oms4OjquWrWqQ4cOxs700EMPrVixQuzu37/f2BEAAAAAAHrqinJIeQC7IivfOXfuXF5enq49fPjw4OBg0ybr2bNnnz59dO3MzMzs7GzTxgEAAAAACP8Nd7S1aeqlAWhUsvKdCxcuiO2BAweaM9/QoUPF9m+//WbOUAAAAABgz8Rwp9ZvdSkPu3gAOyEr3yksLBTbutN5TdatWzexLe4JAgAAAAAYxXC4I9IVEPEANs/ofMfT09Oc+Vq1aiW2CwoKzBkKAAAAAOyTzHBHh4gHsAey8h0Hh/8vq6ysNGc+pVIptquqqswZCgAAAAAAAILMfMfDw0Ns37hxw5z5pI9LhwUAAAAAAIBpZOU77u7uYvv48ePmzHfq1CmxbearXgAAAAAAABBk5jvSM5Xj4+PNmW/nzp1iOyAgwJyhAAAAAAAAIMjMd9q0adO2bVtd++jRo3v27DFtsv379+/bt08c09/f37RxAAAAAAAAIJKV7wiC0Lt3b7E9b968pKQkY2fau3fvyy+/LHb79Olj7AgAAAAAAACoSSHzRr3s7OyBAwdKL88aMmTIlClTQkNDDT+o1WpPnjy5bt06ceeOIAgqlWrPnj0+Pj6mLRrm0L1tl5GR0dQLAQAAAGAio+5HN6EegNVR1l8iCIIg+Pj4jB8//osvvhA/2b179+7du729vcPDw/39/f38/NRqtYuLi1arLSsrKy0tzczM/PPPP48dO5abm6s32tNPP024AwAAAAAAYBFy9+8IglBRUTF58uSUlBQzp+zVq9eqVatUKpWZ48A07N8BAAAAbID8LTls3gHsgdzzdwRBcHJy+uSTT7p162bOfD179vzoo48IdwAAAADAHLq8RqFQ6OKbmnSfE+4AdsKIfEcQBDc3t6+++mr27NkmBDQuLi4LFixYv3598+bNjX0WAAAAAKBHTG0UtREIdwB7YsT7WVLXr1+Pi4vbunVrVlZWvcVBQUFRUVEjR450c3MzYS5YFu9nAQAAADam1i08xDqAXTEx3xFduXLlzJkz6enpubm5xcXFxcXFCoXC1dXV1dW1devWoaGhYWFhnp6ellouzEe+AwAAAACAjTE334HVId8BAAAAAMDGGHf+DgAAAAAAAO405DsAAAAAAADWjXwHAAAAAADAupHvAAAAAAAAWDel7j927dpVXV2tawcEBHTu3FmvTlpgKSNGjKj1Gj8AAAAAAADId/v+rJCQEDG+mTRp0uuvv65XJy2wlLS0NKVSadkxUS/uzwIAAAAAwMbwfhYAAAAAAIB1I98BAAAAAACwbuQ7AAAAAAAA1u328TfR0dHi8TrBwcE166QFluLo6GjZAQEAemo9xl538hoAAAAAm6Hg3/LvEJcuXUpPT8/Ozi4rK1OpVB4eHgEBAaGhoRY/gprzlQH7YfiOQv7+BwAAAGwG11cZsnHjxujoaDMH+fjjjwcMGFDXt+Xl5Zs2bdq8efOFCxdqfqtWqyMjI6dNm+bn52fmMgDYG124U2uIYzj3AQAAAGB1/uf8nX/+85+///57Uy3FDp0+fXrIkCHvv/9+reGOIAilpaVbtmwZOnToF1980chrA2DVDIQ7us+1Wq1CoSDoAQAAAGzD/+Q7X3311fDhwydMmLBr166KioqmWpOdSE5Onjhx4uXLl+utrKioWLRo0dKlSxthVQBsgOFwR6QrIOIBAAAAbEAt72f98ssvv/zyy6JFi0aPHj127Fh7fjPI29v7wQcfNPYprVabmpoqdl1dXWvWZGVlzZo1SxqiBQYGRkVFdenSxdvbu7S0NDMzc+fOnYmJiRqNRlewdu3agICAkSNHGv87ANgRmeGOjriLh7N4AAAAAKv2P/9OHxISondJlkKh6NWr1/jx43v37s11VzJJT+155JFHPv3005o1U6ZMOXz4sNidMWPGrFmzHBz0r6tPTU2dOXNmXl6eruvq6pqYmOjh4WHO8jhfGbBtRuU7JtQDAAAAuAPpBwp6tFrtoUOHZsyY0a9fv08++eT69euNsyzrlZ2dLb5I5ezsvHDhwpo1KSkp0nDn2WefnT17ds1wRxCE8PDwlStXim9PFBcXr1u3rgFWDQAAAAAArNj/ZAq9e/euNWUQBOHKlSvLly9/9NFHX3rppaNHjzbK2qzSggULysrKdO0XX3yx1rfbvvzyS7Ht5+c3d+5cAwPef//9EydOFLubN2++deuWhRYLAAAAAABswf+kOatXrz5w4MDMmTN9fHxqrdZoNN9///0zzzwzZMiQzz//vKioqFEWaTV27Nhx6NAhXbtjx46TJ0+uWVNSUnLgwAGx+9RTTzk5ORkedtKkSdLHDx48aIG1AgAAAAAAW6G/W+fuu+9+8cUX9+3bt379+oEDByqVtRzALAjCn3/+uXjx4p49e77xxhunT59u+HVagfz8/Pfee0/sLliwoNY/vaNHj0qPVR48eHC9I/v6+oaGhopdaTwEAAAAAABQ+9tYDg4OvXr1+uijjw4dOjRv3rz27dvXWlZeXr5t27aoqKjHH39869atN2/ebMil3umWL19eUFCgaw8fPryui7dSUlLEtr+/v7e3t5zBH374YbF97NgxM5YJAAAAAABsTT3nK991111Tpkz5/vvvN27cOHLkSGdn51rL0tLS5s+f37Nnz3/+85/nz59vgHXe6c6ePbt582ZdW61Wv/rqq3VV/vbbb2K7U6dOMsfv3Lmz2M7OzhaDJAAAAAAAgHryHdGDDz74wQcf/Pjjj2+//XZwcHCtNSUlJV9++eXQoUOffPLJhISEyspKy63zTrdo0SLxavnp06d7eXnVVSnNv+raGFWTXuW5c+eMXyMAAAAAALBNcvMdHTc3tyeffPLbb7+NjY0dM2aMWq2utSwlJWXOnDm9e/detmzZ5cuXLbHOO9r3338vvjPVpk2bZ599tq7K8vLy3NxcsXvPPffInELvxGt7+FMFYBqtVisIgkKhkFOsK9M9AgAAAMB6GZfviMLCwqKjo3/88cdFixbdd999tdbk5uauWbOmX79+06dPT0pKEre32Jiqqqply5aJ3blz59b1FpsgCNeuXZN2PT09Zc7SsmVLlUoldnNycoxcJgA7IkY8daU8us8JdwAAAACbYWK+o+Pi4jJ69OjNmzfHx8c/88wz7u7uNWu0Wu3BgwenTZvWv3//NWvWSHev2IZvv/324sWLunZgYOCwYcMMFBcWFkq7rq6u8idq0aKF2OZmegCGiamNojYC4Q4AAABgW8zKd0QdO3Z88803Dx8+vHTpUulNT1KXL19etmxZ7969X375ZekdUlZNo9GsXLlS7L7wwguG34koKyuTdl1cXOTPJS0uLS2V/yAA+6TVauuKb7T/1chLAgAAANBAlBYcy8nJadiwYcOGDbt06dKWLVu+/fbbmq8RVVZWfvfdd999912HDh3i4+MdHCwTMDWVbdu2ZWVl6doBAQGDBg0yXK/RaKRdpdKIP39HR0exbf7Z1UFBQXLKMjIyzJwIQNMixAEAAADsQYPEK35+fnPnzk1KSvrqq68mTpzYqlWrmjXnz5+39hN5tFrthg0bxO4zzzxT74Gm5vxk6eDW/kcHAAAAAAAsyJL7d/QoFIrw8PDw8PD58+cfO3bsu+++27NnT35+fsPN2MgOHz78119/6doeHh4jR46s9xHpHhxBEMrLy+VPd+vWLbFt1MafWrExBwAAAAAAm9EYr0dVVlYWFxcXFxdLEwob8OWXX4rtkSNHGrg2S9SsWTNp16h8R1qsNw4AAAAAALBnDbh/p6Ki4vDhw7t3796/f7/tnQd86dKlw4cPi90nnnhCzlNubm7SrlGBl7S4ZcuW8h8EAAAAAAC2rUHynTNnzmzevDkhIcFArBMSEmLVhyvv2LFDPLU0ODg4MDBQzlOenp7S7vXr12VOV1RUJM139MYBAAAAAAD2zJL5TnFx8a5du7Zs2ZKenl5XjZOT09ChQydMmNC1a1cLTt34du/eLbbrvTZL5OHh0bx585s3b+q6V69elflgdna2tOvr6yvzQQAAAAAAYPMsk+8cP358y5Ytu3fvNvDCUbt27caOHfv444+7u7tbZNImdO7cufPnz4vdAQMGyH+2Xbt2Yv4l3q1er8uXL0u77du3lz8jAAAAAACwbWblOwUFBd9+++2WLVvOnTtXV42jo2Pfvn0nTJjQvXv3eq8PtxY//PCD2Pby8urYsaP8Z0NCQsR859dff5X51MmTJ8W2m5sb+3cAAAAAAIDIlHxHq9UeO3Zsy5YtP/zwQ2VlZV1lXl5eY8aMGTNmjLe3txkrvBMdPXpUbHfv3t2oZx944IFt27bp2hkZGaWlpWq1ut6njh8/LrbDw8ONmhEAAAAAANg24/Kd3Nzcbdu2bd269eLFiwbKHnnkkQkTJvTt29fR0dG85d2JKioqTp06JXbvu+8+ox7v0aOH2K6urj548GBkZKThR65fv37ixAmxGxERYdSMAAAAAADAtsnKd6qrq5OTk7ds2bJv3z6NRlNXmbu7+6hRo8aPH3/vvfdaboV3nNOnT5eXl4vdsLAwox5v06ZNt27dxLzm66+/rjffiY2Nraqq0rWVSqX845wBAAAA2INaj8IQL/wFYA/qyXdycnLi4uJiY2P1zvfV07Vr1wkTJgwZMsTZ2dmiy7sTnTlzRtoNCAgwdoRx48aJ+U5KSsqBAwf69OlTV3FOTk5MTIzYHTp0KJejAwAAABDVdc6p7nNSHsBO1J7vVFVVJSUlbdmyJSkpqbq6uq6HXVxchg0bNmHChJCQkAZb4R3nwoULYtvb27t58+bGjhAZGbly5crMzExd96233tq0aVO7du1qVpaVlc2bN6+oqEjXVSqVzz33nCmLBgAAAGCLDIQ4NnO/DQA59POdrKws3Yada9euGXisY8eO48aNe+yxx1q0aNGQy7sTSfMd0+6xUqlU77zzzpQpU3Td3Nzc0aNHz58/f+jQoU5OTmJZampqdHT02bNnxU8mT57coUMHUxcOAAAAwKYY3qGj+5xdPICdUEj/OZ86derhw4cN/JOvUqkGDRo0fvx4e77CqXfv3levXtW1BwwY8PHHH5s2ztKlS9euXSv9xMPDIyQkxNvbu7Cw8Pz583qHWD/00EMxMTFKpVlX2guCEBQUJAhCRkaGmeMAAAAAaELygxsiHsAe/E9Y8OOPP9b1z7yvr+/YsWNHjx7N4S+FhYVi25w/jblz52o0GunZOvn5+cnJybUWd+/efeXKleaHOwAAAABsgFGRjVarVSgUCoWCiAewYfXkBQ4ODr179x4/fnyvXr0cHBwaZ013surq6ps3b4pdEw7fkXrttdfuv//+xYsXZ2dn11WjVquff/75SZMm2eRl8wAAAAAAwHx15jutWrUaPXr02LFjfXx8GnNBd7iysjJpV3pcjmkGDBjQp0+f/fv379u378yZM1euXCkrK3N2dvby8goMDIyIiIiMjLTDQ44AAAAAAIB8/7NDLyQkpLq6+m9/+9v48eMHDBigUqmacGVoIJy/AwAAAFg7Y4/U4QgewOb9z/6dp59+esyYMdzQBAAAAAAAYEU4YcvusH8HAAAAsHbs3wGghyOTAQAAAAAArBv5DgAAAAAAgHUj3wEAAAAAALBu5DsAAAAAYGV0J+noTtWpF4fvAPaAfAcAAAAArI8Y8dSV8ug+J9wB7ISy/hIAAAAAwJ1Hq9VKQ5yaCHcA+0G+AwAAAADWysCLWsQ6gF0h3wEAAAAA60aUA4DzdwAAAAAAAKwb+Q4AAAAAAIB1I98BAAAAAACwbuQ7AAAAAAAA1o18BwAAAAAAwLqR7wAAAAAAAFg3ufnOCy+8sG/fPo1G06CrAQAAAAAAgLEUWq1WTl1ISEh1dXXr1q1HjRoVFRXVtm3bhl4ZGkhQUJAgCBkZGU29EAAAAAAAYBnG5Tti9+GHH46Kiho4cKCTk1ODrQ0NgnwHAAAAAAAbozTtsaNHjx49erRly5YjR46MiooKDAy07LIAABahUChqfigz2QcAAABgLUzcv6OnS5cuUVFRkZGRarXacmtDg2D/DmA/ag13RKQ8AAAAgM2Qm+/8+OOP8fHxiYmJJSUlddW4uLhERkZGRUV17drVciuEhZHvAHZCF+7U+pe8ga8AAAAAWCO5+Y5ORUVFUlLSd999t3///lu3btVVFhgYGBUVNWLECHd3d0ssEpZEvgPYAzkJDikPAAAAYDOMy3dEZWVl+/fvT0hIOHz4cGVlZa01KpVq4MCBY8aMeeihhwy/I4DGRL4D2Dz5wQ0RDwAAAGAbTMx3REVFRXv27ElISDh69GhdB/T4+flFRUWNGjXKy8vLnLlgEeQ7gG0zNrIh4gEAAABsgLn5jigvL2/37t0JCQm//PJLrQWOjo6PPvpoVFRURESEo6OjRSaFCch3ANtGvgMAAADYIYvlO6KrV69+99138fHxaWlptRZ4eXk98cQTo0eP9vX1tezUkIN8B7Bt5DsAAACAHbJ8viO6ePFifHx8fHz8n3/+WWtBr169JkyY8Oijjzo4ODTQGlAT+Q5g28h3AAAAADvUgPmO6MyZM7t27UpISLh+/XrNb9u2bfv3v//98ccfd3JyauiVQCDfAWwd+Q4AAABghxpj40xoaOiIESOGDRtWa4KTmZm5YMGCwYMHx8fHN8JiAAAAAAAAbEzD7t85d+5cQkJCQkLCxYsX5dT36NHjX//611133dVwSwL7dwDbxv4dAAAAwA41SL5z5cqVnTt3xsfH//7777XPqlD06tXr6tWrNQu8vb0//fTTDh06WHxV0CHfAWwb+Q4AAABghyyZ71RUVCQmJsbFxSUnJ9c1bOvWrZ944omxY8f6+PgIgvDzzz+vWbPmp59+0qvZunVrmzZtLLUwSJHvALaNfAcAAACwQ5bJd9LS0uLi4uLj4wsLC+uqefjhh8eNG9e/f3+VSqX31aFDh+bPn5+TkyN+8uCDD27cuNH8haEm8h3A5smPbAh3AAAAANtgVr6Tn5+/a9euuLi4s2fP1lXj7u4+atSocePGtWvXzvBQ06ZNO336tPjJ2rVre/fubfLaUBfyHcAe6IIboY7sRqFQaLVawh0AAADAZihNeKa6uvrHH3+Mi4vbt29fZWVlXWXdunUbN27c0KFD5Vx87uHhERMTM2rUqEuXLuk+2bFjB/kOAJhGjG/EoEcP4Q4AAABgS4zLdy5evLht27bt27dL36XSo1arR44cOX78+MDAQKMGd3V1ffvtt6dNm6brHj9+3KjHAQBSuuym1nyHWAcAAACwMXLznR07dmzdujU1NdVATefOnceNGzds2DAXFxfTVhMREdG6devr168LgqD7vwAAcxDlAAAAAPZAbr7zxhtvVFdX1/pVs2bNIiMjx40b16VLFzNXo1AoAgMDdclOXdMBAAAAAABAypTzd0QdOnQYN27cqFGjXF1dLbYg5e0lmbwJCAAAAAAAwK6Yku+oVKqBAweOHz/+wQcftPiCCgoKdI02bdpYfHAAAAAAAADbY1y+4+fnN3bs2CeeeMLT07OBFvTuu++WlZUJguDm5tZAUwAAAAAAANgSufnOwIEDo6KievToUddVu5bSqVOnBh0fAAAAAADAxihkXq2SmZmpq/Tw8DBnZ01CQkJycrIgCM7Ozu+8847J48BkQUFBgiBkZGQ09UIAAAAAAIBlyN2/M2jQIN2FVnPmzJk+fbrJ8+Xn58fGxura06dP9/b2NnkoAAAAAAAACILg0A9xYwAAIABJREFU0Mjz+fj4iO20tLRGnh0AAAAAAMD2NHa+I3Xt2rUmnB0AAAAAAMA2NHa+I92zU1hY2MizAwAAAAAA2B7j7kc3R1VV1eHDhzds2CB+otFoGm12AAAAAAAAW1VLvjN48OCayYvucGVBEGJiYrZu3WrsNFVVVbm5ueXl5dIPW7dubew4AAAAAAAA0FNLvnPx4kUxzampoKCgoKDAInOHh4dbZBwAAAAAAAB71mTnK/fv39/f37+pZgcAAAAAALAZtezfWbhw4enTp9PS0n7//ffKysqGmPXBBx987733GmJkAAAAAAAAe6PQarV1fVdRUfH777+npaX9+uuv4pk7arVarVabMJOTk5Orq2tQUNCAAQP69u3r4NCUV7Pbs6CgIEEQMjIymnohAAAAAADAMgzlO1IhISG6Q3nmzJkzffr0Bl4VGhD5DgAAAAAANoZNNAAAAAAAANaNfAcAAAAAAMC61XK+cq22b9+ue5PLy8urIdcDAAAAAAAA48jNd4KDgxt0HQAAAAAAADCN3HwHekpKSk6fPn3hwoXi4mKlUunm5ubv79+pUycXFxfTBrx06VJ6enp2dnZZWZlKpfLw8AgICAgNDVUq+e8IAAAAAAAYQnZgtFOnTq1duzYpKamyslLvKycnp/79+z/33HO6O6rkKC8v37Rp0+bNmy9cuFDzW7VaHRkZOW3aND8/P3PXDQAAAAAAbNTt+9F37dqlu/5cEISAgIDOnTvr1UkLLGXEiBEKhcKyYzaoysrK995776uvvjJc5uDg8Pzzz8+cObPeAU+fPj179uzLly8bLnNycpo3b97TTz9txFrrxv3oAAAAAADYmNv5TkhIiBjfTJo06fXXX9erkxZYSlpamhW9fFRRUTF9+vTk5GSZ9c8+++wbb7xhoCA5OXn69OkVFRUyB5w2bdrcuXNlFhtAvgMAAAAAgI2xmnilyb3++uvScMfT0zMqKioiIsLHx6e6uvrChQvff//99u3bq6qqdAWfffbZAw88MHDgwFpHy8rKmjVrljTcCQwMjIqK6tKli7e3d2lpaWZm5s6dOxMTEzUaja5g7dq1AQEBI0eObLCfCAAAAAAArBL5jiw7duxISEgQu7169Vq2bJmbm5v4ia+vb69evUaPHj116tTi4mLdh0uWLHn00UednJxqDvjuu++KZYIgzJgxY9asWQ4ODuInAQEBffv2TU1NnTlzZl5enu7D6OjoiIgIDw8Py/46AAAAAABg1RzqL7F7ZWVlH3zwgdgNDw9fs2aNNNwRdevWbdGiRWI3Kyvr4MGDNctSUlIOHz4sdp999tnZs2dLwx3pXCtXrhRPKSouLl63bp2pvwMAAAAAANim2/t3oqOjxeN1goODa9ZJCyzF0dHRsgM2kK1bt+bm5uraarV62bJlBlY+aNCgTp06ZWRktGvXLjAwsNbKL7/8Umz7+fkZPlXn/vvvnzhx4saNG3XdzZs3z5o1q1mzZqb8EgAAAAAAYItu5zujR482XFdvgQ375ptvxPb48eO9vb0N12/YsKFFixa1vpYlCEJJScmBAwfE7lNPPVVXpWjSpElivlNSUnLw4MHBgwfLWjoAAAAAALADvJ9Vj/T09D///FPsyrmk3NPT00Bkc/ToUemxynKSGl9f39DQULErjYcAAAAAAADId+px6NAhsR0aGlrv5p16paSkiG1/f3+ZAz788MNi+9ixY2auAQAAAAAA2BLynXqkpqaK7R49epg/4G+//Sa2O3XqJPOpzp07i+3s7OyCggLzVwIAAAAAAGwD+U490tLSxHZISIj5A54/f15st2/fXuZTepXnzp0zfyUAAAAAAMA2KJt6AXe0wsJC8eYsQRDuvfdeXaOiomLPnj379u1LS0vLycmpqqry8PDw9vZ+6KGH+vXrd//999c1YHl5uXTAe+65R+ZKfHx8pN3Lly+Hh4cb8UsAAAAAAIDtup3vxMbGWvz683pFRUUpFIpGntQoWVlZ0q6fn58gCImJidHR0Tk5OdKvrl27du3atV9//XX9+vXdu3d/6623OnbsWHPAa9euSbuenp4yV9KyZUuVSlVZWanr6s0OAAAAAADs2e185+233278fOfxxx9XKu/oDUQ3btyQdtVq9SeffLJ8+XLDTx05cmTs2LH/+c9/IiIi9L4qLCyUdl1dXeUvpkWLFvn5+bp2UVGR/AcBAAAAAIBtu6PjlSYn5imCIDg5Oe3cuVMMd3x9fXv06OHr6+vs7JyXl3fixInU1NSqqirdt6WlpTNmzPj666+7dOkiHbCsrEzadXFxkb8YFxcXcT2lpaUm/BwAAAAAAGCTyHcMuXnzprT7z3/+UxAEd3f3BQsWDBkyRO/lsosXL7777rvJycm6rkajmT179q5du9RqtVij0Wikjxi1fcnR0VFsiy9qAQAAAAAAkO8YIo1jKioqKioq7rrrrs2bN+sO4tFz7733rlu3bvbs2YmJibpPLl++vGXLlkmTJok15rwEJ42TzH+ZLigoSE5ZRkaGmRMBAAAAAICGdjvf+eCDDxr//B3phpQ7k4OD/v3xixcvrjXc0VEqlYsXLz5x4oR4cM/nn38uzXf0fnJ5ebn8xdy6dUs6kfwHAQAAAACAbbsdEwwfPrxp13Fnkr5aJQhCYGDgo48+avgRNze38ePHf/TRR7rulStXzp8/36FDB123WbNm0mKj8h1psd44JmBjDgAAAAAANkN/fwqk9PKdnj17ynmqf//+0u4vv/witt3c3KRfSbfk1Eta3LJlS/kPAgAAAAAA20a+Y4hevuPr6yvnqY4dO6pUKrF79epVse3p6SmtvH79usyVFBUVSfMdvXEAAAAAAIA9I98x5O6775Z2Zb4V5ejo6O7uLnYLCgrEtoeHR/PmzcWuNPoxLDs7W9qVmTQBAAAAAAB7QL5jyL333ivdiVNcXCzzQWdnZ7Gtdyd6u3btxHZWVpbMAS9fvizttm/fXuaDAAAAAADA5pHvGOLo6Ojv7y925W+3KSkpEdt6Z+WEhISI7V9//VXmgCdPnhTbbm5u7N8BAAAAAACi2/dn7dq1S7wfPSAgoHPnznp10gJLGTFihEKhsOyYFhcWFiZeNXX69Gk5j5SUlBQWFopdDw8P6bcPPPDAtm3bdO2MjIzS0lK9U35qdfz4cbEdHh4uZxkAAAAAAMBO3M53Xn31VTG+mTRpUs18R1pgKZGRkUql0rJjWtyAAQNiY2N17ZMnT964caNVq1aGHzl9+rRWqxW7en+YPXr0ENvV1dUHDx6MjIw0POD169dPnDghdiMiImQuHgAAAAAA2APez6rHI4880qJFC127qqrqm2++qfeRnTt3im2lUtm1a1fpt23atOnWrZvY/frrr+sdMDY2tqqqShxw0KBBclYOAAAAAADsBPlOPZycnB577DGxu27dukuXLhmoP3/+fHx8vNjt06dPzVu3xo0bJ7ZTUlIOHDhgYMCcnJyYmBixO3ToUC5HBwAAAAAAUuQ79XvhhRfEI3Ju3bo1ffr0/Pz8Wivz8/NffvnlyspK8ZO///3vNcsiIyPbtm0rdt96662//vqr1gHLysrmzZtXVFSk6yqVyueee86kHwEAAAAAAGzW7eNvoqOjxeN1goODa9ZJCyzF0dHRsgM2EE9Pz+eff/5f//qXrnv+/PnRo0dHR0c/8sgj0rLk5OR//OMf0qRm+PDh0lexRCqV6p133pkyZYqum5ubO3r06Pnz5w8dOtTJyUksS01NjY6OPnv2rPjJ5MmTO3ToYLlfBgAAAAAAbIFCehIw6lJdXf3888/rvUh17733dunSpWXLlgUFBSdPnszKypJ+2759+7i4OAN3Yy1dunTt2rXSTzw8PEJCQry9vQsLC8+fP3/x4kXptw899FBMTIz5J1IHBQUJgiBeCgYAAAAAAKwd+Y5cFRUVc+bMSUxMlFMcFha2Zs2au+66y3DZkiVLpGfrGNC9e/eVK1fKuUm9XuQ7AAAAAADYGPId43z99dfLly+v6/wdQRDUavWkSZOmTp1a81jlWiUmJi5evDg7O9vAgM8///ykSZMs9Tob+Q4AAAAAADaGfMdot27d+v7775OSktLT03Nycm7duuXm5ubp6RkUFNSzZ89+/fp5eHgYNaBGo9m/f/++ffvOnDlz5cqVsrIyZ2dnLy+vwMDAiIiIyMhI8YJ2iyDfAQAAAADAxpDv2B3yHQAAAAAAbIxZh/Vev3797Nmz586d++uvv4qKisrKym7evOng4ODi4qJWq93d3Tt06BAQEBAcHGzZHSgAAJkUCkXND0n2AQAAABtjSr5TUFAQGxv7ww8/nD59Wk69SqXq3r374MGDhw8fLr3/GwDQoGoNd8TPSXkAAAAAm2Hc+1nV1dWfffbZqlWrioqKTJjM19d37ty5Q4cONeFZWArvZwF2wkCIQ74DAAAA2Bgj8p2KiopXXnnlhx9+MHPKyZMnv/baa2YOApOR7wD2QE6CQ8oDAAAA2AwH+aXz5883P9wRBCEmJubf//63+eMAAGolM7jRFdT1DhcAAAAAKyL3/J3k5ORvv/1W70OVStW1a9fQ0FBfX9+77767WbNmzZo1UygUt27dunnzZk5OTlZWVnp6+i+//FJZWSl9cMOGDYMGDQoLC7PMjwAA/JdRu3K0Wq1CoVAouEsRAAAAsG5y8521a9dKu97e3tOmTXv88cddXFzqffbWrVvx8fFr1qzJzMzUfVJdXb1ixYp169YZu1wAAAAAAADokfX/sy0qKurevbtGo9F1u3btunr1ak9PT6NmKi0tffnll5OSknRdlUp15MgRV1dXY1cMM3H+DmDbjD1Vh1N4AAAAABsg6/ydkydPiuGOWq1esWKFseGO7sEPP/zQ19dX162srExNTTV2EAAAAAAAAOiRle/cuHFDbI8YMeLuu+82bTK1Wv3MM8+I3WvXrpk2DgAAAAAAAESy8p28vDyx3aNHD3Pmi4iIENu5ubnmDAUAAAAAAABBZr7j4PD/Zd7e3ubMJ937Ix0WAAAAAAAAppGVsLi7u4vt6upqs+aTZDrSYQEAAAAAAGAaWflOhw4dxLb0LB4TSB+XDgsAAAAAAADTyMp3OnXqpFardW0zL706ceKErtGsWbMuXbqYMxQAoCbdTee6W8/rxeXoAAAAgG2Qle+oVKphw4bp2t99992tW7dMni8hIUHXGDJkiLOzs8njAADqIkY8daU8us8JdwAAAACbIfeE4xkzZui28OTk5Cxfvty0yQ4dOrRv3z5BEJo1a/b888+bNggAoF5iaqOojUC4AwAAANgWuflOmzZtlixZ4ujoKAhCTEzM0qVLNRqNUTMlJSXNmjVL146Ojm7btq1RjwMAjKLVauuKb7T/1chLAgAAANBAFEb9+/3hw4fnzZuXn58vCELbtm2nTp3at2/fVq1aGXiksrIyJSXlyy+/3L9/vyAIzZs3X7x48dChQ81cN0wWFBQkCEJGRkZTLwQAAAAAAFjG7XwnNjbW8MXnCoVCqVQqlcqbN29u2LDhr7/+Er/q2LGjv7//vffe6+rq6uLiolKpbt68efPmzatXr164cCEtLa2kpERX2bJly1mzZgUEBLRo0aJly5Z+fn4N+dNQO/IdAAAAAABszO18JyQkxHC+0xDS0tKUSmUjTwryHQAAAAAAbIzc83cAAAAAAABwZyLfAQAAAAAAsG7kOwAAAAAAANbt9vE3H3zwQSOcv6PVaqurqzUaTXl5eWlpqYMD6RIAAAAAAIC5buc7w4cPb9p1AAAAAAAAwDTsoAEAAAAAALBu5DsAAAAAAADWjXwHAAAAAADAupHvAAAAAAAAWDfyHQAAAAAAAOt2+/6sXbt2ifejBwQEdO7cWa9OWmApI0aMUCgUlh0TAAAAAADA3ii0Wq0gCCEhIWJ8M2nSpNdff12vTlpgKWlpaUql0rJjol5BQUGCIGRkZDT1QgAAAAAAgGXwfhYAAAAAAIB1I98BAAAAAACwbuQ7AAAAAAAA1u328TfR0dHi8TrBwcE166QFluLo6GjZAQEAAAAAAOzQ7fOVYT84XxkAAAAAABvD+1kAAAAAAADWjXwHAAAAAADAupHvAAAAAAAAWLfGyHcqKysbYRYAAAAAAAD7pDThmYqKimPHjrVo0eK+++6rqyYvL++zzz7bu3dvZmZmZWWlh4dHp06dRowYMXz4cK7NAgAAAAAAsCCj78/aunXrihUrrl27Nnny5Ndee63WmgMHDrzyyislJSU1v7rvvvs+/PD/2LvzuKjKxv//Z1iVVdQkEHcUUfTWpFxDrUyRykyxcl/KXfObmWVl3mqmdVvmkmbqbWgiaGqYpalp7omZGyoumLLJJuAwowwM8/vj9Dufc8MAZ2ZYZOb1/Oe+rjPXua4LetyCb6/lS19fX3Mmi4rA/VkAAAAAAFgZE/ZnFRUVvffeex9++GF6erogCCkpKUabnTp1asqUKUbDHUEQzp07N27cuJycHDPmCgAAAAAAgJJMyHdWr169c+dOqZqcnFyyjVarfeedd/R6fRn9JCQkfPLJJ8rHBQAAAAAAQBmU5jspKSlff/21/IlKpSrZbP369RkZGfI23bp1e/3115977rnatWtLz2NiYuLi4syaMAAAAAAAAP6H0vOVIyIiCgsLxbKzs/OiRYteeOGFYm0KCgq+//57qerh4bF27dqOHTuK1czMzEmTJl24cEGs/vDDD23btrVo7gAAAAAAAFC+fufAgQNSecmSJSXDHUEQTp48mZ2dLVXnzZsnhTuCINSvX3/lypXOzs5ide/evebMFwAAAAAAAP9LUb5z9+7dxMREsdy+ffvQ0FCjzeQZUIsWLcLCwoo18Pb2lt7NysoyeoIPAAAAAAAATKIo37l586ZULi3cEQTh6NGjUnngwIFG23Tt2lUqX7t2TcnoAAAAAAAAKIOifEe+0KZ9+/ZG2yQmJspvTO/du7fRZs2aNZPKd+/eVTRHAAAAAAAAlE5RvqPRaKSyt7e30TanTp2SyvXr1/f39zfazMvLy2i3AAAAAAAAMI+ifEen00llJycno21iY2OlcufOnUvrSjpfWRCEBw8eKBkdAAAAAAAAZVCU79SqVUsqy7MeuZMnT0rlLl26lNaVkqgIAAAAAAAAyinKd1xdXaVyZmZmyQbx8fHp6elStXv37qV1Jb9A3cXFRdEcAQAAAAAAUDpF+Y6Pj49UNnrp1f79+6Vys2bNGjZsWFpXCQkJUrlevXqK5ggAAAAAAIDSKcp35IclHzhwoNinOp1u+/btUvWZZ54po6vTp09L5aZNmyoZHQAAAAAAAGVQlO94e3v7+fmJ5SNHjvz+++/yT5ctW5aamipVQ0NDS+tHrVbv3btXLDs6OjZv3tzk+QIAAAAAAOB/OShs17dv3/Xr14vlKVOmDBs2rEuXLjqdbu/evT///LPUrHXr1u3atSutk4ULF0p3oj/11FPyY5uRmJh45cqVlJQUrVbr6Ojo5eXl7+8fFBTk4KD0vxEAAAAAALBNKoPBoKRdUlJSv379CgoKym721Vdf9evXr+Tze/fuLVq0aPfu3dKTxYsXDxw40KS5Vpdnn302KSnJjBd79OghhWKlyc/P37JlS1RU1K1bt0p+6urqGhYWNn78+EaNGpkxAaMCAgIEQYiPj6+oDgEAAAAAQPVStD9LEAQ/P78JEyaU3aZv375Gw50jR46EhITIwx0/P78XXnhB+Syrl1qtrqSeL1y4EBoaunjxYqPhjiAIGo0mOjq6f//+ERERlTQHAAAAAABQ0ynNdwRBmDp1ahkrbjp27Lhw4UKjH9WrV0++8Mfe3v6zzz5zdHRUPnT1ysvLq4xuT5w4MWzYsOTk5HJb6nS6Tz75ZOnSpZUxDQAAAAAAUNOZcLaLSqVavHhxt27dVq9eLb/m3NXV9dVXX33rrbdKO0+nZcuWDg4OhYWFgiA4Ozv/5z//6dSpk4XzrjJ5eXl6vV6qtmvXTvmxQeJOKKOSkpKmT5+u0+mkJ61atQoPD2/fvr23t7dGo7lz505MTMz+/fvF75sgCGvXrvX39x8wYIBZXwcAAAAAALBaSs/fKebvv/9OTEzUaDQ+Pj7+/v6urq5lt3/ppZfi4+NDQkJmz54tv2390ZeamtqrVy+pevDgQekqMUu88cYbR48elaqTJk2aPn26nV3x5VRnzpyZNm3avXv3xKq7u/v+/fu9vLwsGZrzdwAAAAAAsDJm3s3UtGnTpk2bKm//7rvvNmnSpAIPCa4y9+/fl1c9PDws7zM2NlYe7owePXrGjBlGWwYHB69atWro0KFiDKdWq7/99tt3333X8jkAAAAAAACrYcL5O5bo0aNHTQx3hBKHK7u5uVne56ZNm6Ryo0aNZs6cWUbjJ554YtiwYVI1Kirq4cOHls8BAAAAAABYjSrKd2ou+fodV1fXkluoTJWXl3fo0CGpOmLECCcnp7JfGTNmjPz1w4cPWzgHAAAAAABgTaoi35FfnlXjyPMdd3d3yzs8deqU/FhlozfKF+Pn5xcUFCRV5fEQAAAAAACAOefv6HS606dPu7m5dejQobQ29+7d27hx44EDB+7cuVNQUODl5dWmTZuXXnrpxRdftLe3t2DCVU2+P6uiDt+Rys2bN/f29lbyVpcuXS5duiSWT58+bfk0AAAAAACA1TB5/c62bdueffbZcePG7du3r7Q2hw4d6tOnzzfffHPz5k1x8U52dvbx48dnz549dOjQlJQUi6ZctSp8/c7ly5elcps2bRS+1bZtW6mckpKSk5Nj+UwAAAAAAIB1MCHfKSoqeu+99z788MP09HRBEEqLaU6dOjVlypS8vDyjn547d27cuHE1KJ6Qr9+pkHzn5s2bUrlZs2YK3yrW8saNG5bPBAAAAAAAWAcT9metXr16586dUjU5OblkG61W+8477+j1+jL6SUhI+OSTTz7//HPlQ1cjo+t3dDrdpUuXLl68mJGRoVar3dzcvLy8WrZsGRwc7OrqWkZv+fn5WVlZUrVhw4YKp+Hr6yuvJicnBwcHK/0aAAAAAACAVVOa76SkpHz99dfyJyqVqmSz9evXZ2RkyNt07dq1SZMmGRkZx48ff/Dggfg8JiZm9OjR8j1Hjyx5vuPh4ZGRkbFu3bodO3bIn0vs7e179eo1derU0jZeiUufJHXr1lU4DU9PT0dHR+mk6rS0NIUvAgAAAAAAq6c034mIiCgsLBTLzs7OixYteuGFF4q1KSgo+P7776Wqh4fH2rVrO3bsKFYzMzMnTZp04cIFsfrDDz/UiHxHvj/r/PnzoaGh8ifF6PX6gwcPHjx4cNSoUbNnzy55knRubq68atKGLzc3t+zsbLFsNF0CAAAAAAC2Sen5OwcOHJDKS5YsKRnuCIJw8uRJKYAQBGHevHlSuCMIQv369VeuXOns7CxW9+7da858q5w8Sbl06VIZ4Y7cd999N378+JIXw2u1WnnVxcVF+UzkjTUajfIXAQAAAACAdVOU79y9ezcxMVEst2/fPjQ01GgzeQbUokWLsLCwYg28vb2ld7Oysoye4POoKblSxs3NbcyYMRs2bDhy5MjFixdjY2N//PHH9957r3HjxvJmx44dW7BgQbF3pTVQIgcHE84/kq8GKpkcAQAAAAAAm6UoX5Bf+VRauCMIwtGjR6XywIEDjbbp2rXrrl27xPK1a9eUHzBcXYot2Hn11VffeecdDw8P6YmTk5OHh0fr1q1Hjhy5YsWK1atXSx9FRUX169evW7du0pOioiKzZyI/8MiSfkQBAQFKmsXHx1s4EAAAAAAAqGyK8h35Qpv27dsbbZOYmCi/Mb13795Gm8nv+b57966iOVarcePGSdeBBQQEPPvss6W1tLe3nzFjhrOz87Jly6SHX331lTzfKXYiT35+vvKZPHz4UCqbtPAHAAAAAABYN0Uxgfy0F29vb6NtTp06JZXr16/v7+9vtJmXl5fRbh9ZEyZMMKn9xIkTDx48ePHiRbF67ty5O3fuSFu3atWqJW9sUr4jb1ysHzOwMAcAAAAAAKuh6PwdnU4nlZ2cnIy2iY2NlcqdO3curSvpfGVBEKTr0q2JSqV644035E+OHz8uleUbu4T/XZJTLnljT09PcycIAAAAAACsjaJ8R75aRJ71yJ08eVIqd+nSpbSulERFNV337t3lZ+XcuHFDKtetW1feMiMjQ2Gf9+/fl+c7xfoBAAAAAAC2TFG+4+rqKpUzMzNLNoiPj09PT5eq3bt3L60r+QXqJt0OXoO4u7vXqVNHqt67d08qe3l51a5dW6oqP4FIfraRIAh+fn6WzREAAAAAAFgPRfmOj4+PVL527VrJBvv375fKzZo1K+NWrISEBKlcr149RXOsgeSJWLFNWE2bNpXKSUlJCjssdpe8/JhqAAAAAABg4xTlO/LDkg8cOFDsU51Ot337dqn6zDPPlNHV6dOnpbI86bAy9+/fl8rytTyCIAQGBkpl6Rjmcp07d04qe3h4sH4HAAAAAABIFOU73t7eUqBw5MiR33//Xf7psmXLUlNTpWpoaGhp/ajV6r1794plR0fH5s2bmzzfmiA3N1ee7xQ7K6dTp05SOT4+XuElYmfPnpXKwcHBFs8RAAAAAABYD0X3owuC0Ldv3/Xr14vlKVOmDBs2rEuXLjqdbu/evT///LPUrHXr1u3atSutk4ULF0pxxlNPPWX5Jd+V7ejRo8nJySkpKampqUFBQaNGjVLylvwqMUEQgoKC5FX54URFRUWHDx8OCwsru8OMjIy//vpLqoaEhCiZBgAAAAAAsBFK852hQ4dGREQUFBQIglBQULBx48aNGzeWbDZp0iSjr9+7d2/RokW7d++Wnrz44osmT7bKLV++/MKFC2L51KlTr7/+upI7v7Zu3SqvFrst3sfHp2PHjlJeExkZWW6+s337dr1eL5YdHBz69u2rcP4AAAAAAMAWKNqfJQiCn58DQ1ESAAAgAElEQVTfhAkTym7Tt2/ffv36lXx+5MiRkJAQebjj5+f3wgsvKJ9ldenZs6dUTk9Pj4iIKPeVw4cPHz16VKo+/fTTJe8yf+2116RybGzsoUOHyugwLS1tw4YNUrV///5cjg4AAAAAAOSU5juCIEydOnXgwIGlfdqxY8eFCxca/ahevXriwh+Rvb39Z5995ujoqHzo6vLaa685OztL1S+//LLY2UPFnDt37t1335U/mTp1aslmYWFhjRs3lqoffPDB33//bbRDrVY7a9Ys6TQfBweHiRMnKp4+AAAAAACwCSbkOyqVavHixZ9//nmxc5FdXV3Hjh27ceNGDw8Poy+2bNnSweGfjWDOzs7Lli2TnzH8KKtfv/6bb74pVQsLCydOnPjpp5+mpaUVa5mdnb1s2bIRI0bk5uZKD1999dUOHTqU7NbR0XHu3LlSNSsra/Dgwbt27dLpdPJmZ86cef311//44w/pydixY1u0aGHhFwUAAAAAAKyMymAwmPHa33//nZiYqNFofHx8/P39XV1dy27/0ksvxcfHh4SEzJ49W37b+qNPr9ePGzfu5MmT8ocqlSogIKB58+aurq55eXmJiYlxcXHFvpNPPvnkf//73zKWKS1dunTt2rXyJ15eXoGBgd7e3rm5uTdv3rx9+7b8086dO2/YsEFKyswWEBAgCEJ8fLyF/QAAAAAAgEeEmfmOqY4dO9akSZNGjRpVwVgVLj8/f/bs2b/88ovyVwYOHDhv3rxyLwhbsmSJ/GydMnTt2nXVqlXl5mhKkO8AAAAAAGBlqijfsQJ79+5dunTpnTt3ym7Wpk2bSZMmPf/88wq73b9//6JFi1JSUkpr4OrqOnny5DFjxtjb25sw3dKR7wAAAAAAYGXId0xgMBj+/PPPQ4cOxcXF3bp1S61WP3jwwM3NzdPT08/PLzg4uGvXrmYcLVRYWPjbb78dPHjw0qVLqampWq3W2dm5QYMGrVq1CgkJCQsLc3Nzq8CvgnwHAAAAAAArQ75jc8h3AAAAAACwMpYe1pufnx8fH3/58uWsrCy1Wp2Xl9emTZuhQ4dWyOQAAAAAAABQLjPzHa1W+/PPP//www/nz5/X6/Xyj1588cWS+c6+ffuuXLkyatQoLy8vM2cKAAAAAAAAY+zMeGfr1q09evT44IMPzp49WyzcKc3evXtXr14dGhp64MABM0YEAAAAAABAaUzLdzQazdixYz/++GONRqP8Lb1ef/z4cUEQsrOzp0yZEh0dbdocAQAAAAAAUDoT8p2CgoJp06aJSY1Jzp8/n5ubK1Xnzp17+vRpUzsBAAAAAACAUSbkO0uXLi0W7jg6Onbt2nXq1KlffPGFSqUq7UV3d/cnn3xSqhoMhvfee6+goMCM6QIAAAAAAKAYpflOamrq5s2bpWrt2rXfeuutEydObNy4cdq0aWFhYWXkOy1btty8efPMmTOlJ8nJybt37zZ70gAAAAAAAJAozXfWrVsnrbhp0KDBtm3bJk+e7OHhoXyk8ePHjxkzRqru2rVL+bsAAAAAAAAojdJ85/Dhw2JBpVKtWLGiZcuWZgw2Y8aMBg0aiOUzZ87k5eWZ0QkAAAAAAADkFOU7SUlJSUlJYrlPnz4dOnQwb7BatWoNHDhQLOv1+mvXrpnXDwAAAAAAACSK8p3r169L5dDQUEvG69y5s1S+deuWJV0BAAAAAARBUBlT3ZMCUKUU5TvZ2dlSuV27dpaM16xZM6ksvzQdAAAAAGCG0qIcUh7ApjgoaZSTkyOVvby8LBnPzc1NKms0Gku6AgAAAAAbJyY4BoOhtI8A2AhF+U4F/rkgz3Rq165dUd0CAAAAgK0pI9yRnpfdBoDVULQ/S75mJzMz05Lx7t69K5Xr1q1rSVcAAAAAYLMUBjfylAeAFVOU79SrV08qnz171pLxjh07ZrRbAAAAAIBCJq3KIeIBbIGifKdt27ZSedeuXWYP9vDhwx07dkhVC49qBgAAAAAAgKAw36lbt25gYKBY/uOPP/bv32/eYEuXLk1JSRHLrVu3Zn8WAAAAAACA5RTlO4Ig9O3bVyq/++67sbGxJg1TUFCwePHiiIgI6cnzzz9vUg8AAAAAAAAwSmm+M2LEiDp16ohlrVY7atSopUuXZmdnl/uiTqfbt2/fgAED/vvf/0oPPT09R40aZcZ0AQAAAAAAUIyi+9EFQXBzc5s2bdqCBQvEql6vX7t27caNG5988smOHTv6+PhIJ3ulp6fv27cvLy8vOTn5ypUrsbGxarW6WG/Tpk1zc3OrqK8BAAAAAADAlqkUnrgumjt3blRUlIVDhoeHL1y40MJOYLaAgABBEOLj46t7IgAAAADMZNL9WWa0B1DjKN2fJfr444/Dw8MtGe+VV16ZN2+eJT0AAAAAAABAzrR8x97efuHChStWrDDj6qu6deuuWLHi008/dXBQuikMAAAAAAAA5TJtf5YkPz//559/3rJly4ULF8puaWdn17Fjx1dffTU0NNTJycmsSaIisT8LAAAAsALKt1yxOQuwBWbmOxK1Wn3hwoVLly5lZWXdv39frVY7ODi4u7u7u7s3aNCgXbt2bdq0cXFxqajpwnLkOwAAAIB1EIMboZTsRqVSGQwGwh3ARlia76DGId8BAAAArIYU8ZSBv/QBtoCjcAAAAACgphKzG6MpD7EOYFPIdwCgIin5NzTI8asnAACW4+cpANPuz5LLy8s7duxYuc1OnDjx008/paWlmT0QAAAAAAAAymDO+p2rV69+8803+/bts7Ozu3TpUtmN//jjjzVr1qhUqp49e06ZMqV9+/ZmzRMAAAAAAADGmZbvFBUVrV69euXKlUVFRYIg6PV6rVar5Hosg8Fw+PDhI0eOjB8/fsaMGexfAGCtHs3V0VycAQAAAFg30/Zn/fvf/16+fLkY7ohycnKUv15UVLRmzZq5c+fydwwAAAAAAICKYkK+ExERsXXr1mIPTcp3RNHR0Zs3bzb1LQAAAAAAABilNN9JTU394osv5E/c3NwGDBhQp06dsl985ZVXZs2aFRAQIH/4+eefJycnmzRRAAAAAAAAGKU039m8efODBw+k6qhRo44cOfLZZ5/5+vqW/WKTJk3eeOONmJiYjz76yM7un+Hy8/MjIiLMmzEAAAAAAADkFOU7BoNh586dUnX69Olz5sxxdXU1aaThw4fPnj1bqu7YsUN+jg8AoPIYDAYOPgMAAACsmKJ8JyEhISsrSyw3a9Zs0qRJ5g02cuTI5s2bi+X79+9fu3bNvH4AAAAAAAAgUZTvXL16VSqHhYVJ26xMHszOLiwszGi3AAAAAAAAMI+ipCY7O1sqBwYGWjJe27ZtpfK9e/cs6QoAAAAAAACCwnxHq9VKZXd3d0vGk78u7xYAAAAAAADmUZTveHp6SmW1Wm3JePKlQOXerQ4AAAAAAIByKcp36tatK5WTkpIsGe/69etS2cvLy5KuAAAAAAAAICjMdxo3biyVDx8+bPZgBoNhz549UrVJkyZmdwUAAAAAAACRonwnICCgQYMGYvnkyZOxsbHmDbZp06YbN26IZS8vL/lZywCAyqNSqVQqVXXPAgAAAEBlUXrTea9evaTyzJkzpZhGuejo6MWLF0vVkJAQ/rIBAAAAAABgOaX5zptvvuno6CiW09LShgwZsnz58szMzHJf1Ov1f/zxx+jRoz/66CO9Xi8+tLe3nzBhgnkzBgAAAAAAgJzKYDAobPrpp59u3Lix2MO2bdsGBQU1adLk8ccfr127dq1atYqKih48eJCXl3f79u2bN2+ePn06Jyen2FtDhw79+OOPLZ89zBAQECAIQnx8fHVPBEDVEddLKv8DHwAAAEDNYkK+o9PpJk6cePz4cQuHfOqpp9atW+fs7GxhPzAP+Q5gg8h3AAAAAOumdH+WIAhOTk4rV67s0aOHJeN17tx59erVhDsAAAAAAAAVxYR8RxAEFxeX9evXz5s3z9XV1dSRateu/eGHH3733Xdubm6mvgsAAAAAAIDSmLA/Sy4vLy8mJmbbtm2XL18ut3Hr1q3Dw8NfeuklDw8PM8ZCxWJ/FmCD2J8FAAAAWDcz8x1Jbm7upUuX4uLiMjMz1Wq1Wq1WqVTu7u7u7u716tVr06ZNUFBQnTp1Kmq6sBz5DgAAAAAAVsbSfAc1DvkOAAAAAABWxrTzdwAAAAAAAPCoId8BAAAAAACo2czPd/Ly8o4dO1ZusxMnTvz0009paWlmDwQAAAAAAIAyOJjxztWrV7/55pt9+/bZ2dldunSp7MZ//PHHmjVrVCpVz549p0yZ0r59e7PmCQAAAAAAAONMW79TVFS0atWqgQMH/vzzz3q9vqCgQKvVKnnRYDAcPnz41Vdf/fLLLznRGQAAAAAqkMqY6p4UgCplWr7z73//e/ny5UVFRdKTnJwc5a8XFRWtWbNm7ty5RDwAAAAAUCFKi3JIeQCbYsL+rIiIiK1btxZ7mJOT4+vra9KQ0dHRrVq1GjFihElvWb3ExMQrV66kpKRotVpHR0cvLy9/f/+goCAHB3P20AGAnPi7Hdk6AADWp4yf8oQ7gE1Rmh2kpqZ+8cUX8idubm7PPvtsnTp1yn7xlVdecXd3j4mJiY+Plx5+/vnnzzzzTMOGDU2d7iMrIiLik08+kapvvvnmO++8o+TF/Pz8LVu2REVF3bp1q+Snrq6uYWFh48ePb9SoUYXNFQAAAIBVKPufcMTn/DMPYCOU7s/avHnzgwcPpOqoUaOOHDny2Weflbt4p0mTJm+88UZMTMxHH31kZ/fPcPn5+REREebN+BF0586dpUuXmvHihQsXQkNDFy9ebDTcEQRBo9FER0f379/fmr5dAAAAACynMLiRpzwArJiifMdgMOzcuVOqTp8+fc6cOa6uriaNNHz48NmzZ0vVHTt2yM/xqbkMBsP777//8OFDU188ceLEsGHDkpOTy22p0+k++eQT8yIkAAAAANbHpFU5RDyALVC0PyshISErK0ssN2vWbNKkSeYNNnLkyKioqISEBEEQ7t+/f+3atdatW5vX1aMjIiLizJkzpr6VlJQ0ffp0nU4nPWnVqlV4eHj79u29vb01Gs2dO3diYmL2799fWFgoNli7dq2/v/+AAQMqbOoAAAAAAMAqKFq/c/XqVakcFhYmbbMyeTA7u7CwMKPd1lC3b98udiyRQvPmzVOr1VJ10qRJP/7448iRIzt06ODj4+Pv7//MM88sW7bsu+++q1u3rtRswYIF2dnZFTBvAAAAAABgRRQlNfJMITAw0JLx2rZtK5Xv3btnSVfVrqioSNqZZWdn969//Uvhi7GxsUePHpWqo0ePnjFjhtHULDg4eNWqVdJCSrVa/e2331o8cQAAAAAAYFUU5TtarVYqu7u7WzKe/HV5tzVRRETEn3/+KZYHDx7crFkzhS9u2rRJKjdq1GjmzJllNH7iiSeGDRsmVaOiosw46wcAAAAAAFgxRfmOp6enVJbvKjKDfClQuXerP8r+/vtvaWeWm5vbW2+9pfDFvLy8Q4cOSdURI0Y4OTmV/cqYMWPkrx8+fNi0uQKweQaDgVtRAQAAACumKN+RHwGTlJRkyXjXr1+Xyl5eXpZ0VY2KiormzJmTn58vVt9777369esrfPfUqVPyY5X79etX7it+fn5BQUFSVR4PAQAAAAAAKMp3GjduLJUtWTxiMBj27NkjVZs0aWJ2V9Vr48aN0s6sHj16hIeHK383NjZWKjdv3tzb21vJW126dJHKp0+fVj4cAAAAAACweorynYCAgAYNGojlkydPyhMKk2zatOnGjRti2cvLS37Wcg1y69atZcuWiWVXV9eFCxea9Prly5elcps2bRS+Jf9epaSk5OTkmDQoAAAAAACwYkpvOu/Vq5dUnjlzphTTKBcdHb148WKpGhISIl0LVYOId2ZJO7PmzJnj4+NjUg83b96UysqPZC7W0ozvPwAAAACrIZ6sp/CvVGIzDuMDrJvSfOfNN990dHQUy2lpaUOGDFm+fHlmZma5L+r1+j/++GP06NEfffSRXq8XH9rb20+YMMG8GVevjRs3/vXXX2L56aefHjx4sEmv5+fnZ2VlSdWGDRsqfNHX11deTU5ONmlcAAAAAFZGinhKS3nE54Q7gI1wUNiucePGw4YN27hxo1jVaDSrVq1atWpV27Ztg4KCmjRp8vjjj9euXbtWrVpFRUUPHjzIy8u7ffv2zZs3T58+XXIz0auvvtqiRYsK/DKqRkJCwpdffimW3dzcTN2ZJQhCenq6vCo/uLpsnp6ejo6OBQUFYjUtLc3UoQEAAABYGYPBIA9xSiLcAWyH0nxHEISZM2dev379+PHj8odxcXFxcXEmDfnUU0+99957Jr3yKBB3ZklXX73//vuPP/64qZ3k5ubKq+7u7srfdXNzk26Xv3//vqlDAwAAALA+ZWzUItYBbIrS/VmCIDg5Oa1cubJHjx6WjNe5c+fVq1c7Oztb0km1+O9//3vu3DmxbMbOLJFWq5VXXVxclL8rb6zRaMwYHYDNKmPlNgAAsAIGY6p7UgCqlAnrdwRBcHFxWb9+fWRk5Oeff25qxFC7du2ZM2cOHz68Jv4d4+bNm9KdWebtzBIVFhbKqw4OJnz/7e3tpbK0UctsAQEBSprFx8dbOBAAAAAAAKhspuU7otdff/3FF1+MiYnZtm2b/Lbv0rRu3To8PPyll17y8PAwY7hqp9fr5Tuz5syZY8bOLFFRUZHZ05DnYpb0AwAAAAAArIw5+Y4gCG5ubkOHDh06dGhubu6lS5fi4uIyMzPVarVarVapVO7u7u7u7vXq1WvTpk1QUFCdOnUqdtJVbMOGDefPnxfLISEhgwYNMrsr+RocQRCke9aVePjwoVQ2aeGPUSzMAQAAAADAalgaE3h6enbv3r179+4VMptH0M2bN5cvXy6WLdmZJapVq5a8alK+I29crB8AAAAAAGDLTDhf2Qbp9fr33ntPvjPL29vbkg6L7VCTL8kpl7yxp6enJdMAAAAAAADWpBrynaKiosOHD0+cOFGv11f96CZZv379hQsXxHLv3r0t2Zklqlu3rryakZGh8MX79+/L851i/QAAAAAAAFtm6f4sk6Slpf3www/R0dGpqamCIDziN/bJd2bVr19/0aJFlvfp5eVVu3btBw8eiNW7d+8qfDElJUVe9fPzs3wyAAAAAADAOlRFvmMwGI4fPx4ZGXno0KFHf82OZP78+dI15G3btt26dWvZ7eUnFp89e/brr7+Wqs8991yrVq3EctOmTa9cuSKWk5KSFE4mOTlZXm3WrJnCFwFAeOTzdAAAAAAWqtx8JzMzU1ywozzIeHSkpaVJ5d9///33339X/u6ff/75559/StWGDRtK+U5gYKCU71y8eFFhh+fOnZPKHh4erN8BAAAAAACSSsl3DAbDqVOnoqKi9u/fX1hYWBlD1FydOnXasWOHWI6Pj9doNK6uruW+dfbsWakcHBxcWZMDAAAAAAA1UAXnO/fu3du5c2dUVNTt27fLaBYQEDBo0CAHhyo9/ecRIb9LXjxqOiwsrOxXMjIy/vrrL6kaEhJSWZMDAAAAUAOpVKqSD9mgDdiUCktYYmNjt27dum/fPunMmpLc3d3DwsIGDx7crl27ihq38uzdu9ek9rNnz961a5dYfvPNN9955x2jzXx8fDp27CjlNZGRkeXmO9u3b5fOLXJwcOjbt69JEwMAAABgxYyGO9JzUh7ARlia7+Tm5ooLdhISEspo1rlz50GDBvXt27dWrVoWjmgFXnvtNSnfiY2NPXToUO/evUtrnJaWtmHDBqnav39/LkcHAAAAICojxCkt9wFglczPd86ePbt169ZffvlFp9OV1sbb2/uVV14ZNGhQo0aNzB7I+oSFha1aterOnTti9YMPPtiyZUvTpk1LttRqtbNmzbp//75YdXBwmDhxYpXNEwAAAMCjrOwVOuJzVvEANsLkfEetVv/4449RUVHXrl0ru+XatWuffvppOzs7c+dmtRwdHefOnfvGG2+I1aysrMGDB3/44Yf9+/d3cnKSmp05c2bBggVXr16VnowdO7ZFixZVPV0AAAAAjx6FwY3BYFCpVCqViogHsG4m5DsXLlzYunXrnj17Hj58qKR99+7dCXdK8/TTT48fP37t2rViVa1Wz549e/HixYGBgd7e3rm5uTdv3ix2RnXnzp3feuut6pgsgBqPf7gDAMDKmPTDnYgHsAXl5zt5eXk//fTT1q1br1y5UlobV1fX/v37Dx48ePLkyVlZWRU6Q6s1c+bMwsJC+dk62dnZJ06cMNq4a9euq1atss0bxwAAAAAAQNnKygsuX74cGRn5008/abXa0tp06NBh8ODBYWFhLi4ulTA9Kzd79uwnnnhi0aJFKSkppbVxdXWdPHnymDFj7O3tq3JuAAAAAACgpjCS72i12j179kRFRV28eLG017y8vAYMGBAeHu7v71+Z07N+ffr06d2792+//Xbw4MFLly6lpqZqtVpnZ+cGDRq0atUqJCQkLCzMzc2tuqcJAAAAAAAeXf+zA/Pq1avR0dG7du3SaDTGW6tU3bp1Cw8Pf/bZZ+UnAUu6desm7c+Ki4tjP9EjKCAgQBCE+Pj46p4IgKrD+TsAAFgZU3+488sAYPX+J3955ZVX9Hq90Xa+vr7iTee+vr5VMjEAAAAAAAAo8j/5Tsk0183N7dlnnx0wYEC3bt3ExBcAAAAAAACPFOP7p1xcXJ577rl+/fo9/fTTRvdhAQAAAAAA4BFhZ/TpgwcPkpKSbt++nZmZWcUTAgBUOIPBwH57AAAAwIoZz3cMBsPZs2eXLFnSu3fvoUOHRkVF3b9/v4pnBgAAAAAwSvyXG4VnaHC4MmAL/iffqV+/fskWf/7559y5c7t37/7222+fPHmSPxQAAAAAoNpJEU9pKY/4nHAHsBH/k+8cPHjwiy++CA4OLtlOp9Pt2bNn9OjRffr0WbNmTVpaWlXNEAAAAABghJTaqIwRCHcAW6Iy+n/1GzduREZG7tq1Ky8vz+hrdnZ2PXv2DA8P79Wrl729vfS8W7duWVlZYjkuLs7Bwfj5zahGAQEBgiDEx8dX90QAAAAAVAyjS3iIdQCbYjzfET148GD37t2RkZGXL18urc1jjz02cODAwYMHN2nSRCDfqQnIdwAAAAAAsDJl5TuSCxcubNmy5eeff87Pzy+tzVNPPRUeHr5o0aLs7GzxCfnOo4l8BwAAAAAAK6Mo3xHl5ubu3Llz69att27dUtKefOfRRL4DAAAAAICVMX4/ulGenp6jR4/eu3fvxo0b+/btKz92x6jo6OjSju8BAFSlMm7WAAAAAGAFTFi/U0x6evq2bduio6Pv3r1bWptatWr17dt3yJAhRu/kQrVg/Q5gg7g7AwAAALBu5uc7Ir1ef/jw4cjIyKNHj5bRrGnTpoMGDRo4cOBjjz1myXCwHPkOYIPIdwAAAADrZmm+I0lMTNy6desPP/wgna9ckr29fa9evQYPHtyzZ89yt3ehkpDvADaIfAcAAACwbhWW74h0Ot3evXsjIyPPnj1bRjPxVvW3336b8yCqHvkOYIPIdwAAAADrVsH5juTatWuRkZE//vijRqMprQ0XbFUL8h3ABpHvAAAAANatsvIdkUaj2b17d2Rk5NWrV0t+Sr5TLch3ABtEvgMAAABYt8rNdyR//fVXZGTkL7/8otPppIfkO9WCfAewQeQ7AABULA6aMBW/hwCVrYryHVFOTs6OHTsiIyPv3LkjkO9UE/IdAAAAwELkO6Yi3wEqW5XmOyKDwXDixIktW7YsX76cW7SqHvkOAAAAAABWphryHVQv8h0AAAAAAKyMXXVPAAAAAAAAABYh3wEAAAAAAKjZyHcAAAAAwBqoVCoOfgZsFvkOAAAAAABAzUa+AwAAAAAAULOR7wCA9WO1NgAAAGDdyHcAAAAAAABqNvIdAAAAAACAmo18BwAAAAAAoGYj3wEAAAAAAKjZHMT/ycvL0+l0giDY2dnVqVOnZLvs7GyDwSAIgouLS61atapyigAAAACAcol/ZQNgm/7Jd8aPH//nn38KgtCkSZNff/21ZLtu3boVFRUJgvD2229PmDChKqcIAAAAAACAMvyzP+vOnTtiwdvbu/omAwAAAAAAAJP93/4ssfDgwYPqmwwAoFKwWhsAAACwbv+s39Hr9WIhISGBiAcAAAAAAKAG+Sff8fDwEAsajWb+/PmFhYXVNyUAAAAAAACY4J/9Wf7+/pmZmWJ5x44dR48effLJJ729vZ2dncWH4uHKgiAcP35cq9VWyNhvvfWWnR0XtAMAAAAAAFhEJR7KsH79+s8++6yKx46Li3NwcKjiQREQECAIQnx8fHVPBAAAAAAAVIx/ls8MGTKkXr161TsVAAAAAIDZVCqVSqWq7lkAqB7/5Dvu7u4rV66sU6dO9c4GAAAAAAAApvq/42+eeOKJ3bt3jxs3rmHDhtU4IQAAAAAAAJjkn/N3isnJyUlPT9dqtdJFWiNGjBCPWH7ttddefPHFChk7ODi4QvqBSTh/B7BB4lJto3/gAwAAq8FPfMCWGT/euE6dOqXt1fL19SWXAQAAAAAAeHRwPTkAAAAAAEDNRr4DAAAAAABQsxnfn1XS5s2bxW2cfn5+lTkfAAAAAAAAmEZpvtOpU6dKnQcAAAAAwBKcrAzYMvZnAQAAAAAA1GxK1+8YVVhYePPmzStXrly9ejUnJ0etVms0GkEQ3N3dPTw86tat26ZNm3bt2rGlCwAAAAAAoPKYme/ExcVt37599+7darW63Ma+vr5DhgwJDw+vX7++ecMBACzBam0AAADAuqlM/aU/Jydn/vz5e/bsMXUkR0fHqVOnjh8/3s6OTWHVKSAgQBCE+Pj46p4IAAAAAACoGKblO9evXx89enRmZqbZ4wUHB69Zs8bd3d3sHmAh8h0AAAAAAKyMCUtp0tLS3nzzTUvCHUEQzhbO6Q8AACAASURBVJw5M23atMLCQks6AQAAAAAAgMSE83c+/PDD1NTUYg9bt27dsWPHxo0bN2zYsHbt2i4uLgaDQavVajSaxMTEv//+OzY2NjExUf7KyZMnv/zyy1mzZlXA9AEAAAAAAGye0v1Z58+fHzJkiFR1cXEZPnz4iBEjGjRoUO67169fX7du3Y8//iiN5eTkdODAAW9vb/MmDUuwPwsAAACwSiqVSuBeBcBWKd2f9d1330llX1/f7du3z5w5U0m4IwhCy5YtlyxZ8t1337m6uopPdDrdhg0bTJ0rAAAAAAAASlKa75w8eVIs2Nvbr169ukWLFqaO1Llz5+XLl0vV3377zdQeAAAAAAAAUJKi83du3Lhx7949sfziiy+2bt3avMF69OjRu3fvQ4cOCYJw586dlJQUX19f87qqXomJiXFxcVlZWWq12tHR0d3d/fHHHw8KCqpbt64lfV65ciUlJUWr1To6Onp5efn7+wcFBTk4mHBGEgAYxWptAAAAwLopyg5u3bollZ9//nlLxuvfv7+Y7wiCcPny5ZqV79y9ezcyMnLHjh3p6elGG7Rs2TI8PHzQoEFubm4K+8zPz9+yZUtUVJT8myxxdXUNCwsbP358o0aNzJ83AAAAAACwaor2Z+Xm5kpl8XRes3Xs2FEqS2uCHn0Gg+G7777r16/fmjVrSgt3BEG4fv36okWLQkNDf//9dyXdXrhwITQ0dPHixUbDHUEQNBpNdHR0//79IyIizJw6AAAAAACwdibnO5ZsQRIEoX79+lI5JyfHkq6qjF6vf//99xctWvTgwQMl7dPT08ePH79r166ym504cWLYsGHJycnldqjT6T755JOlS5cqmi4AAAAAALAxivZn2dn9XwxUUFBg0Xiy02T0er0lXVWZzz//fOfOnfInnTt37t+/f2BgoKen58OHD+/evXvq1KkdO3bIg7D333+/efPm7du3N9pnUlLS9OnTdTqd9KRVq1bh4eHt27f39vbWaDR37tyJiYnZv39/YWGh2GDt2rX+/v4DBgyohC8RAAAAAADUYIryHS8vL6mcmZnp6elp9niZmZlGu31knT17duPGjVLVw8PjP//5T8+ePeVtWrdu3atXr8mTJ8+cOfPIkSPiw6KiooULF0ZHRxvtdt68eWq1WqpOmjRp+vTp8hzN39//mWeeOXPmzLRp06SNbAsWLAgJCakR3zcAAAAAVYy7FABbpmh/Vp06daTy2bNnLRnv/PnzUtnCrV5V45tvvpH+lLS3t1+3bl2xcEfi4eGxYsWKVq1aSU/Onz9/48aNki1jY2OPHj0qVUePHj1jxgx5uCMJDg5etWqVePGNIAhqtfrbb781+2sBAAAAAABWSVG+Iz9T+aeffrJkvJiYGKns7+9vSVdVICsrS1qPIwjCa6+99q9//auM9rVq1Zo2bZr8ifx1yaZNm6Ryo0aNZs6cWUafTzzxxLBhw6RqVFTUw4cPy505AAAAAACwHYryHR8fn8aNG4vlU6dO/frrr+YN9ttvvx08eFDqs3nz5ub1U2XOnTtXVFQkVQcNGlTuK08//bT8jKGSxyfn5eVJN8QLgjBixAgnJ6ey+xwzZoz89cOHD5c7DQCQMxgMLNgGAAAArJiifEcQBPmmpFmzZim8/1vuwIED/+///T+p2rt3b1N7qHr16tUbM2bMyy+/3LNnz06dOrVu3brcV2rXri3fd5adnV2swalTp+THKvfr16/cPv38/IKCgqSqPB4CAAAAAABQdL6yIAhjx47dunWreHnWw4cPx48fHxoa+sYbb8hzB6MMBsO5c+e+/fZbaeWOIAiOjo5vvvmm2ZOuMh06dOjQoYOpb8lP0nFxcSn2aWxsrFRu3ry5t7e3kj67dOly6dIlsXz69GlTpwQAAAAAAKyY0nzH19f39ddfj4iIkJ788ssvv/zyi7e3d3BwcPPmzRs1auTq6uri4mIwGLRarXjDd0JCwunTp7Oysor1NnLkSF9f3wr7Ih4lWq1WfkdYo0aNijW4fPmyVG7Tpo3Cbtu2bSuVU1JScnJy5IdeAwAAAAAAW6Y03xEEYdasWVeuXJEvPxEEIS0tbc+ePSYN+fTTT8s3almZAwcOFBYWStUuXboUa3Dz5k2p3KxZM4XdFmt548aN4OBgc+cIAAAAAACsitLzdwRBcHJy+vrrrzt27GjJeD169FixYoWjo6MlnTyy7t2798UXX0jVoKCgYvdt5efny1czNWzYUGHPxZY7lTy2GQAAAICNU6lUKpWqumcBoHqYkO8IguDh4fH999/PmDHDjIDGxcXl448/XrduXe3atU19t0a4du3ayJEjU1NTxaqjo+OCBQuKtUlPT5dX5Scxl83T01P+PU9LS7NgpgAAAAAAwKqYsD9LZG9vP2nSpMGDB//www/btm1LSkoq95WAgIDw8PABAwZ4eHiYNclHlMFg0Gg0mZmZcXFxv/76q3xnVq1atZYvX17yeJ3c3Fx51d3dXflwbm5u0m1c9+/ft2DiAAAAAADAqpic74gee+yxiRMnTpw4MTU19dKlS1euXMnKylKr1Wq1WqVSubu7u7u7P/bYY0FBQe3atVO+SqWmCAsLu3HjRmmfhoSEfPjhh02aNCn5kVarlVdL3q5VBhcXFynf0Wg0yl8EAHGptsFgqO6JAAAAAKgUZuY7Eh8fHx8fnz59+lTIbGo0Hx+f8PDwfv36tWjRorQ28qOXBUFwcDDh+29vby+VxYvqLREQEKCkWXx8vIUDAQAAAACAymZpvgNJamrqhg0bYmNj+/XrN2DAAKPHDBUVFZndv/ykNEv6AQAAAAAAVoZ8xxxNmzYVC1qt9v79+3l5eWI1Ly/v5MmTJ0+eXLly5UcffdS3b99iL8rX4AiCkJ+fr3zQhw8fSmWTFv4YxcIcAAAAAACsBvmOOVatWiWvZmRknDt3LiYm5tdff5WeTJ8+ffbs2WPHjpW3rFWrlrxqUr4jb1ysHwAAAAAAYMtMux8dRj322GN9+vRZsWLF9u3bfX19pedLliz5/fff5S2L3SAmX5JTLnljT09PcycLAAAAwDoZDAauUwBsFvlORWrXrl1kZKQ8fPn000/1er1ULXaVWEZGhsKe79+/L893rO9KMgAAAAAAYDbynQr2+OOPT506VareunXrr7/+kqpeXl7yc5fv3r2rsNuUlBR51c/Pz7JpAgAAAAAA60G+U/GKHascGxsrr0pnMwuCkJSUpLDP5ORkebVZs2ZmTg6ATWK1NgAAAGDdyHcqnre3t6Ojo1RNT0+XfxoYGCiVL168qLDPc+fOSWUPDw/W7wAAAAAAAAn3Z5VKr9dHRUVlZmZmZGRkZWV169Zt+PDhSl40GAzyM3dUKpX8006dOu3YsUMsx8fHazQaV1fXcvs8e/asVA4ODlb0BQAAAAAAANtAvlMqe3v7VatWZWZmilW1Wq0w30lLSysqKpKqxc5C7t69u1QuKio6fPhwWFhY2R1mZGTID/EJCQlRMg0AAAAAAGAj2J9Vlnbt2knl2NjY1NRUJW8dP35cXpUfuCMIgo+PT8eOHaVqZGRkuR1u375dWhDk4OBQ7HwfAAAAAABg48h3yhIaGiqVDQbDF198Ue4rBQUF69atk6oqlapbt27F2rz22mtSOTY29tChQ2V0mJaWtmHDBqnav39/LkcHAAAAUJJKpSp2OgQA20G+U5bQ0FB5mBITE7N27doy2hcWFs6ZMychIUF60rNnz5JxTFhYWOPGjaXqBx988PfffxvtUKvVzpo16/79+2LVwcFh4sSJJn4RAAAAAADAypHvlMXJyenDDz+UP1m6dOn48ePlp+GIxJN0hgwZEhMTIz20s7ObNWtWyW4dHR3nzp0rVbOysgYPHrxr1y6dTidvdubMmddff/2PP/6QnowdO7ZFixaWfEUAAAAAAMD6qAwGQ3XP4VE3f/7877//vthDLy+v1q1be3p6FhUV3bt378qVKxqNplibBQsWDBkypLRuly5dWmw1kJeXV2BgoLe3d25u7s2bN2/fvi3/tHPnzhs2bHBwsPRI7ICAAEEQ4uPjLewHQA0iLtXmD3wAAKwbP/EBW0a+o8iyZcvWrFmj/Hvl5OQ0Z86c119/vexmS5YskZ+tU4auXbuuWrVKyU3q5SLfAWwQv+0BAGAL+IkP2DKl+c6dO3fEll5eXh4eHmaPt2fPnhMnTgiC4OzsLN+j9OiLi4v77LPPTp06VXYzlUrVq1evWbNmKdxItX///kWLFqWkpJTWwNXVdfLkyWPGjLG3tzdtxqUg3wFsEL/tAQBgC/iJD9gypflOYGBgUVGRIAhvv/32hAkTzB5v8+bNCxYsEMtHjhzx9vY2u6tqkZiY+Ouvv168eDE+Pj47OzsvL08QBA8PDy8vr4CAgH/96199+vTx9fU1qc/CwsLffvvt4MGDly5dSk1N1Wq1zs7ODRo0aNWqVUhISFhYmJubWwV+CeQ7gA3itz0AAGwBP/EBW2bpYS6mkmcfcXFxNS7fadSo0bhx4yq2TwcHh+eff/7555+v2G4BAAAAAICNqOp8Ry49Pb0aRwcAAAAAa8LKHcCWVfX96HFxcVI5Nze3ikcHAAAAAACwPlW3fkev1x89enT9+vXSk8LCwiobHQAAAAAAwFoZyXf69etXMnkRD1cWBGHDhg3btm0zdRi9Xp+VlZWfny9/+Nhjj5naDwDADKzWBgAAAKybkXzn9u3bUppTUk5OTk5OToWMHRwcXCH9AAAAAAAA2LKqPn9H8txzzzVv3ry6RgcAAAAAALAaRtbvzJ8//8KFC3FxcdeuXSsoKKiMUZ988slPP/20MnoGAAAAAACwNaoyDmXQ6XTXrl2Li4u7ePGidOaOq6urq6urGSM5OTm5u7sHBAT06dPnmWeesbOrtqVDNi4gIEAQhPj4+OqeCAAAAAAAqBhl5TtygYGB4qE8b7/99oQJEyp5VqhE5DsAAACAVVKpVAL3KgC2ikU0AAAAAAAANRv5DgAAAAAAQM1m5Hxlo3bu3Cku82vQoEFlzgcAUPFYrQ0AAABYN6X5TuvWrSt1HgAAAAAAADAP+7MAAAAAAABqNvIdAAAAAACAmk3p/qxiUlNT4+LiUlNT8/LytFqteWc6vP3223Z2BEwAAAAAAAAWMS3f0el0mzdvjo6OvnXrluVjz5gxg3wHAAAAACoEdykAtsyEfCcxMXHKlCnx8fGVNxsAAAAAAACYSmm+o9FoJk6ceOPGjUqdDQAAAAAAAEylNN/ZtGkT4Q4A1FCs1gYAAACsm9J85/vvv5dXHR0de/Xq1aFDh4YNG7q7uzs6Opoxtr29vRlvAQAAAAAAQE5RvpOQkJCeni5Vg4ODFy9e3KhRo0qbFQAAAAAAAJRSlO9cuXJFKvv4+KxevdrDw6PSpgQAAAAAAAATKLqePDs7WyqHh4cT7gAAAAAAADw6FOU7Go1GKrdv377SJgMAAAAAMJNKpVKpVNU9CwDVQ1G+4+zsLJXr1atXaZMBAAAAAACAyRTlO97e3lJZr9dX2mQAAAAAAABgMkX5TuvWraVyZmZmpU0GAFApWK0NAAAAWDdF+U6zZs0aN24sls+cOVOZ8wEAAAAAAIBpFOU7giAMHz5cLOzevfvhw4eVNh8AAAAAAACYRmm+M3To0DZt2giCkJaW9tVXX1XmlAAAAAAAAGACpfmOo6Pj6tWr/fz8BEHYsGHD119/bTAYKnNiAAAAAAAAUERpviMIwuOPPx4dHf3UU08JgvDVV18NHz782LFjpDwAAAAA8CgwGAz8BQ2wWSqF///PyMhQq9V5eXkPHjyIiIg4cOCA+NzLy6tDhw5+fn4eHh4ODg4mjT1p0iTuc6l6AQEBgiDEx8dX90QAVB3xD1t+4QMAAACsldJ8JzAwsKioqGLHjouLMzUSguXIdwAbRL4DAAAAWDfiFQCwfiQ7AAAAgHUz4fwdAAAAAAAAPILIdwAAAAAAAGo2pfuzFi9e7OLi4uzs7ODgoPr/WTi2vb29hT0AAAAAAABA6fnKsBqcrwwAAAAAgJVhfxYAAAAAWIMK2WYBoIYi3wEAAAAAAKjZyHcAAAAAAABqNvIdALB+rNYGAAAArBv5DgAAAAAAQM2m9H70Y8eOFRUVWT5eUVFRQUGBTqfLy8sbMmQI/54MAAAAAABgIaX3owcGBlZIviMXFxfn4KA0YEJF4X50wAaJYbrCP/ABAEANxU98wJaxPwsAAAAAAKBmY/kMAAAAAFgDVu4Atoz1OwAAAAAAADWb0vU7s2bNMikMLiwszM3NTU5OPnfu3N27d8WHvXr1mjhxoouLi4uLi6urK4fvAAAAAAAAWE7p+cqWOHPmzJo1a44ePSoIQrt27VasWOHj41PZg6I0nK8MAAAAAICVqYr9WcHBwevWrfvggw8EQbh48WJ4ePidO3eqYFwAAAAAAABbUHXn74wcOXL69OmCIGRkZEyYMCE/P7/KhgYAAAAAALBiVXq+8vjx4xs3biwIQkJCwsaNG6tyaAAAAAAAAGtVpfmOo6PjSy+9JJY3b97M7X0AAAAAAACWq+r70Tt16iQW0tPTOeIXAAAAACqKSqVSqVTVPQsA1aOq85369etL5atXr1bx6AAAAAAAANanqvMdO7v/GzE9Pb2KRwcAAAAAALA+DlU8XmZmplSuuVdo5eTknD9/Pi0tLScnRxAEDw+PevXqtWvX7vHHHze7z8TExCtXrqSkpGi1WkdHRy8vL39//6CgIAeHqv5vBMD6iEu1OfUMAAAAsFZVnR2cP39eKru5uVXx6BbS6XQxMTGRkZGXLl0y2qBhw4aDBw9+7bXX6tatq7DP/Pz8LVu2REVF3bp1q+Snrq6uYWFh48ePb9SokfnzBgAAAAAAVk1Vlf+cq1arX3755aSkJLG6ZMmSl19+ucpGt9C5c+fef//9hISEclt6enrOnz+/X79+5ba8cOHCjBkzkpOTy27m5OQ0a9askSNHKp1rmQICAgRB4HBrwKawfgcAAFvAT3zAllXd+TuJiYkTJ06Uwh1BENq0aVNlo1vo119/HTZsmJJwRxCE3Nzct956KzIysuxmJ06cGDZsWLnhjiAIOp3uk08+Wbp0qaK5AgAAAAAAG6N0/c6xY8eKiopM7V2v16vV6tTU1PPnzx85cqSgoED6qF69esePH68Rt/fFxsaOGjVKr9dLTx577LHBgwc/9dRT3t7eBoMhPT399OnT0dHRWVlZUhs7O7tNmzYFBwcb7TMpKenll19Wq9XSk1atWoWHh7dv397b21uj0dy5cycmJmb//v2FhYVSm88++2zAgAEWfjms3wFsEP+aBwCALeAnPmDLlOY7gYGBZuQ7ZXjrrbcmT55cgR1WkgcPHrzwwgvyZUevvvrqnDlzatWqVaylVqt9//339+7dKz1p3779tm3bjHb7xhtvHD16VKpOmjRp+vTp8svFRGfOnJk2bdq9e/fEqru7+/79+728vCz5ish3ABvEb3sAAACAdavq+9FFLVq0GDVqVLUMbaqdO3fKw53w8PD58+eXDHcEQXBxcVm6dGnHjh2lJxcuXIiLiyvZMjY2Vh7ujB49esaMGSXDHUEQgoODV61aJa1yUqvV3377rdlfy//X3p3HRVX2/x8/w6bsgguCoKAmamqutzvumlpy51Jq2Vctd2/lTslbSyvTcrnVHhpauKSVqVDmEg/LDdNcUgJ3JZdEEEX2VTaZ3x/z/Z3vCXA4M8PMcGZez7+u68x1zvWBpjnjm3OuAwAAAAAALJIZ8p2WLVt++eWXzs7Opp9aDxEREWLb09Nz4cKFWgbb2dm988470i2//fZbxWHffPON2Pbz85s3b56WY3bs2PH1118Xu3v27CksLKyybMDiqaALfml6MO87HAAAANCJSfOd5s2bL1q0KDIyUilP+87Ly7tx44bYHTFiRJWxVOfOnV1dXcXunTt3Kh4zOjpa7E6YMMHBwUH7MSdNmiTd/cSJE1UVDlg4/u0NE+BtBgAAAAWxkzlu1qxZ+i3c4Ojo6OLi4u3t3bp16/r16+txBDPKyMjo27dvWlpaampqRkZGp06dqtzFxsbG19dXTIXEpXNE586dKy4uFrtyHqPu6+vbpk2bq1evarrR0dFy9gIsHqvJwHgIdwAAAKAscvOd2bNnG7WOmqlx48Zffvml2JW5wrSdnbbf6oULF8R206ZNvby85ByzW7duYr5z/vx5ObsAAAAAAAArYZ71lRWq0iWQK0pOThbbDRs2LPfq9evXxXbr1q1lTv38889Lj5+VlSVzRwAAAAAAYPHId6rZo0eP0tPTxa40l9GQrsgTEBAg87DlRt6+fVvfAgEAAAAAgKUh36lmkZGRYtvW1nbIkCHSV4uKiqTpT6NGjWQe1sfHR9p98OCBATUCAAAAsEA8AhKwZuQ71Sk1NVX67POhQ4d6enpKBzx+/FjaLfeqFu7u7vb29mI3JSXFgDIBAAAAAIBFkbu+cqVKS0vv3Llz48aNmzdvZmVl5ebm5ufnC4Lg6urq5ubm6enZunXrtm3b+vr6VlO1NZparV68eHF2dram6+Dg8M4775QbI76qIX2SepVcXFwyMzM17ZycHAMqBQAAAAAAFkXPfOfatWvff//9wYMHc3Nzqxzs4+Pz6quvjhkzpl69evpNpwirV6+Ojo4Wu//+978r3n5VUFAg7To5Ock/vpOTk5jvaHI0AAAAAAAAQY98Jysra+nSpVFRUfJ3SU5O/uyzz8LCwmbPnj116lSZT6FSli+++GLr1q1id+jQoZMnT644rLS0VNrV/iT1cmxtbcV2SUmJ7jX+TWBgoJxh8fHxBk4EAAAAAACMTbeo5datW8OHD9cp3BGVlJSsW7duwoQJci75URC1Wr1ixYp169aJW9q3b//JJ59UOrisrEzviaQrpRlyHAAAAAAAYGF0uH4kJSVlypQpaWlphswXExPzr3/9a8uWLTpdulJjPXny5N133z18+LC4pX379lu2bHnWjVfSa3AEQSgqKpI/V2Fhodg2/LfHhTkAAAAAAFgMHWKC999//+HDh+U2tmzZskOHDo0bN27UqJGjo6OTk5NarS4oKMjPz09MTLx3796FCxcSExOlu5w9e3bdunWhoaHVUL5ZPXz4cMaMGTdu3BC39OzZ8/PPP9eyqk7t2rWlXZ3yHengcscBAAAAAADWTG6+c+nSpZMnT4pdJyenN954Y8KECQ0aNKhy31u3bm3ZsmX//v1qtVqz5euvv37zzTe9vLz0qLiGuHjx4syZM9PT08UtwcHBy5cvlz7FvCI3NzdpV3pJTpWkg93d3eXvCAAAAMAaiP/gAmCF5K6/s2PHDrHt4+Pz/fffz5s3T064IwjCc889t3Llyh07djg7O2u2FBcXb9u2Tddaa45ffvllwoQJ0nBn1qxZq1at0h7uCILg6ekp7aampsqcMScnR5rvlDsOAAAAAACwZnLznbNnz2oatra2mzZtatasma4zde3adf369WL3+PHjuh6hhvjmm2/mzp1bXFys6To4OPz3v/+dM2eOnH09PDwcHR3F7qNHj2ROmpycLO36+vrK3BEAAAAAAFg8WfnO7du3MzIyNO2XX365ZcuW+k3Wq1evfv36adr3798vl1kowubNm5ctWyZe9+jp6fntt9++/PLL8o/g7+8vtpOSkmTu9eDBA2k3ICBA/owAAAAAAMCyycp3/vrrL7E9ePBgQ+YbNmyY2L5+/bohhzK9zZs3//e//xW7AQEBERERL7zwgk4HadWqldi+cuWKzL0uXrwott3c3Lh+BwAAAAAAiGTlO9nZ2WI7MDDQkPk6dOggtsVrghThwIED0nCnbdu23333nZ+fn67H6dSpk9iOj4/Pz8+Xs1dsbKzY7ty5s66TAgAAAAAAC6ZzvmPgyr716tUT21lZWYYcypRiYmIWLVokdtu1a7d9+3b9fhU9e/YU22VlZSdOnKhyl9TU1Li4OLEbFBSkx7wAAAAAAMBSycp3bGz+b1hJSYkh89nZ/d8T2Z8+fWrIoUwmJyfnnXfeEX/w5557buvWrS4uLvodzdvbW3oR065du6rc5fvvvxd/V3Z2dkOGDNFvagAAAAAAYJFk5TseHh5iOy0tzZD5pLtLD1uTffTRRykpKZq2i4tLWFiYm5ubIQccO3as2L5w4UJ0dLSWwSkpKdJnyQ8bNoyHowMAAACoSKVSqVQqc1cBwDxk5Tt16tQR29KFYPRw6dIlsa2InOLMmTM//fST2F22bFmTJk0MPObw4cMbN24sdt9777179+5VOrKgoCA0NDQnJ0fTtbOzmz59uoGzAwAAAAAACyMr35GuqSwNO/Rw4MABsd28eXNDDmUaGzZsENudOnUaOnSo4ce0t7dfsmSJ2E1PTx89evS+ffuKi4ulw2JiYsaNG/f777+LWyZPntysWTPDCwAAAAAAAJZEpVar5YwbNGjQ/fv3Ne0NGzbo95T048ePz5gxQ9P29vaWs7SweZ0+fXry5Mlit3Hjxl5eXroeJCQkpNInXq1ZsyY8PFy6xcPDo1WrVl5eXtnZ2Xfu3ElISJC+2rVr123btkkXMNKPJq2Lj4838DiAGWkuPJb58QXogfcYAECJOH8B1kxuWNCnT59vvvlG0w4NDa1Vq1afPn10muno0aPz5s0Tu/369dNpd7O4evWqtHv//n0x5JIvMzOz0u3z5s0rLS2Vrq2TmZl55syZSgd37949LCzM8HAHAAAAAABYHln3ZwmCMHnyZHt7e027sLBw6tSpISEh5eKPSqnV6ri4uJkzZ86aNauwsFCz0d7efsqUKfpVbEkWLFjw+eef+/j4aBnj7OwcGhq6detWZ2dnkxUGAAAAAAAURO71ID4+PuPGjfv666/FLYcOHTp06JCXl1fnzp2bNm3q5+fn7Ozs5OSkVqsLCgry8/Pv379/9+7d8+fPp6enlzvam2++qT3UsB6DQLXubAAAIABJREFUBg3q16/f8ePHjx07dvXq1YcPHxYUFNSqVatBgwYtWrQICgoaPny43s9iBwAAAAAA1kDu+juCIBQXF0+ePPnChQsGTtm7d+9NmzaJVwPBxFh/BxaAe8thbLzHAKCG4GnfMDZO97AYcu/PEgTBwcFh48aNHTp0MGS+Xr16bdiwgXAHAAAAgHaEOzAB3mawGDpcv6Px9OnT8PDwsLCwkpISnXZ0cnIKDQ0dN24c//+YF9fvwAJwbQWMjfcYANQEfBrD2HiPwZLonO9opKam/vDDD5GRkUlJSVUODgwMHDNmTHBwsJubmx5zoXqR78ACcCaGsfEeA4CagE9jGBvvMVgSPfMd0cOHD69evXrjxo309PTc3Nzc3FyVSuXq6urq6lq/fv02bdq0bdvW09OzusqF4ch3YAE4E8PYeI8BQE3ApzGMjfcYLImh+Q4Uh3wHFoAzMYyN9xgA1AR8GsPYeI/BkuiwvjIAAAAAAABqIPIdAAAAAAAAZSPfAQAAAAAAUDbyHQAAAAAAAGWz02+3/Pz827dvp6Sk5OXlFRQU6HeQ119/XbOcFQAAAAAAAPSmW75TWFi4Z8+e/fv3X7t2zfC5x44da2enZ8AEAAAAAAAADR3ilRs3bsyZM+f+/fvGqwYAAAAAAAC6kpvvPHr06K233kpPTzdqNQAAAAAAANCV3PWV169fT7gDAAAAAABQA8m6fqewsPDAgQPSLc7Ozr17927dunWjRo2cnJxq166tx9y2trZ67AUAAAAAAAApWflObGxsSUmJ2A0ODl68eLGrq6vRqgIAAAAAAIBcsvKdpKQksd2yZcsVK1bY2Mi9sQsAAAAAAABGJSumyc7OFtujR48m3AEAAAAAAKg5ZCU10oVyWrVqZbRiAAAAAAAAoDNZ+U7dunXFtpOTk9GKAQAAAAAAgM5k5TstW7YU21lZWUYrBgAAAAAAADqTle8EBgY2atRI07548aIx6wEAAAAAAIBu5K6U/D//8z+axt69e4uLi41WDwAAAAAAAHQjN98ZP35827ZtBUFITExcsWKFMUsCAAAAAACADuTmO/b29l988UXz5s0FQdi5c2doaGhmZqYxCwMAAAAAAIAsKrVaLX90Xl7ekiVLoqKiBEFwcXEZOnRo//79W7Vq1aBBA+kz1FGTBQYGCoIQHx9v7kIA/alUKkEQdPr4AnTCewwAagI+jWFsvMdgSXTLdwRBKC4uXrFixc6dO8ttd3R01DXiOX/+PKmQ6ZHvwAJwJoax8R4DgJqAT2MYG+8xWBI7nUbv2rVr/fr1GRkZFV968uSJrnPzfxEAAAAAAIDhdMh3Fi9eHBERYbxSAAAAAAAAoAe56yvv27ePcAcAAAAAAKAGknv9TlhYWMWNTk5O3t7eTk5OtWvX1mNuzb2OAAAAAAAAMISsfOfWrVv3798Xu87Ozm+99dawYcMCAgKMVhgAAAAAAABkkZXv3Lx5U2w7ODh89913LVu2NFpJAAAAAAAA0IGs9XfS0tLE9pgxYwh3AAAAAAAAag5Z+U5xcbHY7tmzp9GKAQAAAAAAgM5k5TsuLi5iu0GDBkYrBgAAAAAAADqTle/4+/uL7adPnxqrFgAAAAAAAOhOVr7Tvn17BwcHTTshIcGY9QAAAAAAAEA3svIdZ2fnYcOGadq//PKLMesBAAAAAACAbmTlO4IghISEuLm5CYJw7NixM2fOGLMkAAAAAAAA6EBuvuPt7b1p0yZnZ2dBEP71r3/FxMQYsyoAAAAAAADIJTffEQShc+fOERERgYGBeXl5b7zxxgcffHDnzh3jVQYAAAAAAAA5VGq1Ws641NTU3NzcvLy8vLy8HTt2nDhxQrPd39+/devWDRs2dHFxsbOz02nuqVOnqlQqXSuGgQIDAwVBiI+PN3chgP40Hx0yP74APfAeA4CagE9jGBvvMVgSuflOq1atysrKqnfua9eu6RoJwXDkO7AAnIlhbLzHAKAm4NMYxsZ7DJZEh/uzAAAAAAAAUAOR7wAAAAAAACgb+Q4AAAAAAICyyV3+ZsWKFU5OTrVq1bKzs1P9fwbObWtra+ARAAAAAAAAIDffCQ4ONmodAAAAAAAA0A/3ZwEAAAAAACgb+Q4AAAAAAICymSHfKSsrO3HixPTp058+fWr62QEAAAAAACyM3PV3qkVKSsoPP/wQERHx8OFDQRDUarUpZwcAAAAAALBIpsh31Gr16dOnd+3aFR0dzTU7AAAAAAAA1cu4+U5aWprmgp2kpCSjTgQAAAAAAGC1jJLvqNXqc+fO7dmz58iRI6WlpcaYAgAAAAAAABrVnO9kZGT8+OOPe/bsSUhI0DIsMDBw1KhRdnYmXf0HAAAAAADAIlVbwnLhwoXdu3f/8ssvJSUlzxrj6uo6fPjw0aNHt23btrrmBQAAAAAAsHKG5jvZ2dmaC3bu3r2rZVjXrl1HjRo1ZMiQ2rVrGzgjAAAAAAAApPTPd2JjY3fv3n3o0KHi4uJnjfHy8ho5cuSoUaP8/Pz0nshKJCYm3rhxIzk5uaCgwN7e3sPDo3nz5m3atOEuNgAAAAAAoJ3O2UFubu7+/fv37Nnz559/ah8ZHh7eu3dvGxsbfWur0TIzM99///2jR4+KW65du6ZHFlNUVPTdd9/t2bPnr7/+qviqs7Pz8OHDp06dSkAGAAAAAACeRaVWq2UOvXz58u7du6OiogoLC+WM1y/vUISTJ08uWrQoNTVVulGPn/fy5cshISEPHjzQPszBwSE0NPTNN9/UudDKBAYGCoIQHx9fLUcDzEKlUgmCIP/jC9AV7zEAqAn4NIax8R6DJak6j8jLy/vpp592795948aNZ41xdnYeNmzY6NGjZ86cmZ6eXq0V1iyFhYWrVq3auXOn4Yc6c+bMtGnTtNzdJiouLl6+fHlqauq8efMMnxcAAAAAAFgYbfnO9evXd+3a9dNPPxUUFDxrTPv27UePHj18+HAnJycjlFezXL9+fd68edpXkpYpKSlpzpw50nCnRYsWY8aMadeunZeXV35+/v379w8cOHDkyJHS0lLNgPDw8ObNmwcHBxs+OwAAAAAAsCSV5DsFBQVRUVF79uy5cuXKs3bz8PAIDg4eM2ZM8+bNjVleTVFWVrZ58+b169eLaYuzs3OXLl1OnDih3wE//PDD3NxcsTtjxow5c+ZI1ypq3rx5//79Y2Ji/vWvf2VkZGg2fvzxx0FBQR4eHnr+GAAAAAAAwBL9Ld+5efNmRETEvn378vPzKx2tUql69OgxZsyYAQMGODg4mKRC88vNzZ0+fXpMTIy4pV27dmvXrv3tt9/0y3cuXLhw6tQpsTtx4sSQkJBKR3bu3DksLGz8+PGaO0Jzc3M3b9787rvv6jEpAAAAAACwVH/Ld0aOHPn06dNKx/n4+GiedO7j42OSwmqQhw8fiuGOSqV6++23Q0JCDFk6+ptvvhHbfn5+2lfV6dix4+uvv/7tt99qunv27JkzZ07t2rX1nh0AAAAAAFiYv4UUFZcNd3FxGTBgQHBwcI8ePTRLi1uz+vXrr1q1qkePHoYcJC8vLzo6WuxOmDChyiuhJk2aJOY7eXl5J06cePHFFw2pAQAAAAAAWJLKL0JxcnIaOHDgiy++2Lt3b+u5D0u7Pn36rFixwtPT08DjnDt3TrqsspykxtfXt02bNlevXtV0o6OjyXcAAAAAAIDIptKtT548SUpKSkhISEtLM3FBNZCDg8PChQvDw8MND3cEQbhw4YLYbtq0qZeXl5y9unXrJrbPnz9veBkAAAAAAMBiVJ7vqNXq2NjYlStX9uvXb/z48Xv27MnJyTFxZTWHv7//xIkTq+to169fF9utW7eWudfzzz8vtpOTk7OysqqrHgAAAAAAoHR/y3fq1atXccQff/yxZMmSnj17vvPOO2fPnq24Rg90cufOHbEdEBAgc69yI2/fvl2dNQEAAAAAACX7W75z7NixtWvXdu7cueK44uLiqKioiRMnDho06IsvvkhJSTFVhRalqKgoPT1d7DZq1EjmjuUeW/bgwYPqLAsAAAAAACjZ3/IdBweH4cOH79y5Myoq6o033nBxcam4Q2Ji4rp16/r27Tt9+vRjx44963nqqNTjx4+lXfkL+ri7u9vb24td8jUAAAAAACCqfP2d5s2bL168+Lfffvv4448rXSOmrKwsOjp65syZffr0WbNmTUJCgpHrtBDZ2dnSrqurq/x9pXGbNS+HBAAAAAAAyqk839FwdHR89dVXf/zxx8jIyFdeeaVWrVoVx6SmpoaHhw8ePHjChAkHDhwoKyszWqmWoKCgQNp1cnKSv690cH5+frXVBAAAAAAAFM5OzqB27dq1a9du4cKFP/744+7du//666+KY86fP89zu6tUWloq7drZyfr9a9ja2ortkpKSaqsJUCyVSmXuEgAAgNFxxgcAOXTIF9zd3SdOnDhx4sSzZ8/u2rXr6NGj2hffiYiIGDFiRKWL+FgtQ65vkp7YDL9OKjAwUM6w+Ph4AycCAAAAAADGpkO+I+revXv37t0fP34cGRkZERHx6NGjSod99NFHK1euHDJkyKuvvlrpM7mskPQaHEEQioqK5O9bWFgotnW68AewVGq12twlwGLxt2IAqDk448N4OOPDkugfEzRo0GDWrFnTp08/ceLErl27Tp06VXFMYWHh/v379+/f7+/vP2rUqFdeeaV+/foGVKt4tWvXlnZ1ynekg8sdRw9cmAMAAAAAgMXQtr6yHLa2tgMGDNiyZcvRo0fffvttDw+PSofdu3dvzZo1ffr0mTlz5vHjx632qepubm7SrvSSnCpJB7u7u1dbTQAAAAAAQOEMzXdEfn5+oaGhJ0+eXL16dceOHSsd8/Tp02PHjs2YMUPzVHUrvNLS09NT2k1NTZW5Y05OjjTfKXccAAAAAABgzaot39FwcHAYMWLErl27Dh48OH78eGdn50qHaZ6qboVX8Xh4eDg6OordZy1dVFFycrK06+vrW51lAQAAAAAAJavmfEfUokWLDz744NSpUx999FHLli2NNIsS+fv7i+2kpCSZez148EDaDQgIqMaSAAAAAACAohkr39FwdnYeO3bs/v37d+/eHRwc7ODgYNTpFKFVq1Zi+8qVKzL3unjxoth2c3Pj+h0AAAAAACAybr4j6tChw6pVq06dOrVgwYLGjRubZtKaqVOnTmI7Pj4+Pz9fzl6xsbFim4fNAwAAAAAAKRPlOxp16tSZPHny4cOHt23bNnDgQJVKZcrZa4iePXuK7bKyshMnTlS5S2pqalxcnNgNCgoyRmEAAAAAAEChTJrvaKhUqp49e4aFhdna2pp+drPz9vbu0KGD2N21a1eVu3z//ffiWtR2dnZDhgwxVnEAAAAAAECBzJDvYOzYsWL7woUL0dHRWganpKRs27ZN7A4bNoyHowMAAAAAACnyHTMYPny4dBGi99577969e5WOLCgoCA0NzcnJ0XTt7OymT59uggoBAAAAAICCkO+Ygb29/ZIlS8Ruenr66NGj9+3bV1xcLB0WExMzbty433//XdwyefLkZs2ama5QAAAAAACgBCq1Wm3uGmq0xMTEhQsXVvrS48ePExISxG7nzp0rXTF66tSpla6IvGbNmvDwcOkWDw+PVq1aeXl5ZWdn37lzR3pwQRC6du26bds2Ozs7fX4MicDAQEEQ4uPjDTwOYEaa/9f4+ILx8B4DgJqAT2MYG+8xWBJDwwKL9+TJkwsXLsgZGRMTU+n2kSNHVrp93rx5paWl0rV1MjMzz5w5U+ng7t27h4WFGR7uAAAAAAAAy8P9Wea0YMGCzz//3MfHR8sYZ2fn0NDQrVu3Ojs7m6wwAAAAAACgIFwPYmaDBg3q16/f8ePHjx07dvXq1YcPHxYUFNSqVatBgwYtWrQICgoaPny4i4uLucsEAAAAAAA1F+vvWB3W34EF4E5pGBvvMQCoCfg0hrHxHoMl4f4sAAAAAAAAZSPfAQAAAAAAUDbyHQAAAAAAAGUj3wEAAAAAAFA28h0AAAAAAABlI98BAAAAAABQNvIdAAAAAAAAZSPfAQAAAAAAUDbyHQAAAAAAAGUj3wEAAAAAAFA28h0AAAAAAABlI98BAAAAAABQNvIdAAAAAAAAZSPfAQAAAAAAUDbyHQAAAAAAAGUj3wEAAAAAAFA28h0AAAAAAABlI98BAAAAAABQNvIdAAAAAAAAZbMzdwEAAAAA8EwqlcrcJQCAAnD9DgAAAICaSK1Wm7sEWD7eZrAYXL8DAAAAoIbi39460VzrxC8NsE5cvwMAAAAAAKBs5DsAAAAAAADKRr4DAAAAAACgbOQ7AAAAAAAAyka+AwAAAAAAoGzkOwAAAAAAAMpGvgMAAAAAAKBsduYuAAAAAABQDdRqtblLAGA2XL8DAAAAAACgbOQ7AAAAAAAAyka+AwAAAAAAoGzkOwAAAAAAAMpGvgMAAAAAAKBs5DsAAAAAAADKxvPRASiVSqUydwkAAAAAUCNw/Q4A5VGr1eYuAZaPtxkAQHFUKhV/AAOsFtfvAFAk/u2tE81XPX5pAAAAgKXi+h0AAAAAAABlI98BAAAAAABQNvIdAAAAAAAAZSPfAQAAAAAAUDbyHQAAAAAAAGUj3wEAAAAAAFA2no8OAJaPJ6MDAGANOOMD1ozrdwAAAAAAAJSNfAcAAAAAAEDZyHcAAAAAAACUjXwHAAAAAABA2ch3AAAAAAAAlI18BwAAAAAAQNnIdwAAAAAAAJSNfAcALJ9KpVKpVOauAgAAGBdnfMCake8AAAAAAAAoG/kOAAAAAACAspHvAAAAAAAAKBv5DgAAAAAAgLKR7wAAAAAAACibnbkLwP/KzMy8cuVKYmJiXl6eIAiurq7+/v7t2rVzcXExd2kAAAAAAKBGI98xv8OHD+/YseOPP/5Qq9XlXrKzs+vVq9fbb7/dpUsXs9QGAAAAAABqPlXFTAEmk5aWNm/evHPnzlU5ctSoUR988EGtWrUMnzQwMFAQhPj4eMMPBQAAAAAAagLW3zGbR48evfbaa3LCHUEQfvjhhylTphQVFRm7KgAAAAAAoDhcv2MeJSUl48aNu3LlirilXr16I0eO7N27d8OGDQVBSE5OPn78+I8//piTkyOOGT169PLlyw2cmut3AAAAAACwMOQ75vHll1+uXbtW7Pbt23f16tVubm7lhqWkpMycOfPq1avilu3bt3fv3t2Qqcl3AAAAAACwMNyfZQZ5eXnh4eFit23btmFhYRXDHUEQvLy8tm3bVr9+fXHLmjVrTFEiAAAAAABQDvIdM9i3b5/mIeiCINjY2KxatcrO7pkPMnN3d1+yZInYvXLlSlxcnNFLBAAAAAAAykG+YwY//fST2O7fv3/Tpk21jx80aJCvr6/YPXjwoLEqAwAAAAAACkS+Y2rZ2dkXL14Uu0OHDq1yF5VKNXjwYLEbHR1tlMoAAAAAAIAyke+YWkxMjHRN665du8rZq1u3bmI7OTk5KSmp+isDYLlUKpVKpTJ3FQAAwLg44wPWjHzH1K5fvy62GzRoIF07WYs2bdo86yAAAAAAAMDKke+Y2t27d8V2QECAzL3q1q3r6uoqdm/dulXNZQEAAAAAAMUi3zE16a1VPj4+8neUDk5OTq7OmgAAAAAAgJKR75haamqq2K5bt678HaWDU1JSqrMmAAAAAACgZOQ7ppadnS22pbdcVUk6WHoQAAAAAABg5ch3TK2goEBsOzo6yt/RyclJbOfn51dnTQAAAAAAQMnszF2AdSktLZV27ex0+P1LB5eUlFRbTQCqVU1+KGnNrE2tVpu7BAAAdFYzz6oaNbM2zviAsZHvmFRZWVkNOU5gYKCcYfHx8QZOBAAAAAAAjI37s0yq3AU7RUVF8veVDra3t6+2mgAAAAAAgMJx/Y5J2djY2Nvbi3dXFRcXy9+3sLBQbNeqVcvASrgwBzASrj0GAMAacMYHUNNw/Y6pSR+DJY1sqiQdXKdOneqsCQAAAAAAKBn5jqnVrVtXbKempsrf8fHjx2Lb09OzOmsCAAAAAABKRr5jat7e3mL74cOH8ndMTk4W276+vtVZEwAAAAAAUDLyHVNr2rSp2H7w4IHMvXJzc3NycsRuQEBANZcFAAAAAAAUi3zH1Fq1aiW27927J01ttLh06ZK027p162ouCwAAAAAAKBb5jql16tRJ2o2Li5OzV2xsrNh2c3Nr0aJFNZcFAAAAAAAUi3zH1Pz8/Pz8/MTusWPH5Ox1+PBhsd2rVy8bG/7DAQAAAACA/0VMYAbDhg0T2wcPHszLy9M+/o8//rh165bYHT58uLEqAwAAAAAACkS+YwavvvqqeAFOQUFBWFiYlsFPnz5dtWqV2G3UqFHfvn2NWh4AAAAAAFAW8h0z8PX1HTFihNj96quvjh49+qzBa9asuXjxotidOXOmnZ2dcesDAAAAAACKQr5jHvPnz3d3d9e01Wr17NmzP/vss8zMTOmYhISEkJCQrVu3ils6duw4atQokxYKAAAAAABqPJVarTZ3DVbq119/nTFjxtOnT8UtDg4O7dq18/HxKSkpSUxMvHr1qnR8/fr1IyMjvb29DZw3MDBQEIT4+HgDjwMAAAAAAGoI8h1zOnTo0IIFC4qKiqoc2ahRo82bNzdr1szwScl3AAAAAACwMNyfZU5Dhw6NjIzs1KmTljE2NjZjxozZu3dvtYQ7AAAAAADA8nD9To0QFxd36NCh2NjYxMTE3NxcGxsbDw+PZs2adevW7eWXX27UqFE1zsX1OwAAAAAAWBjyHatDvgMAAAAAgIXh/iwAAAAAAABlI98BAAAAAABQNvIdAAAAAAAAZSPfAQAAAAAAUDbyHQAAAAAAAGUj3wEAAAAAAFA28h0AAAAAAABlI98BAAAAAABQNvIdAAAAAAAAZSPfAQAAAAAAUDbyHQAAAAAAAGUj3wEAAAAAAFA28h0AAAAAAABlI98BAAAAAABQNvIdAAAAAAAAZSPfAQAAAAAAUDbyHQCwfIGBgYGBgeauAgAAGBdnfMCake8AAAAAAAAoG/kOAAAAAACAspHvAAAAAAAAKBv5DgAAAAAAgLKR7wAAAAAAACgb+Q4AAAAAAICyke8AAAAAAAAoG/kOAAAAAACAspHvAAAAAAAAKBv5DgAAAAAAgLKR7wAAAAAAACgb+Q4AAAAAAICyqdRqtblrgEkFBgaauwQAAAAAAFA94uPjBa7fAQAAAAAAUDqu3wEAAAAAAFA2rt8BAAAAAABQNvIdAAAAAAAAZSPfAQAAAAAAUDbyHQAAAAAAAGUj3wEAAAAAAFA28h0AAAAAAABlI98BAAAAAABQNvIdAAAAAAAAZSPfAQAAAAAAUDbyHQAAAAAAAGUj3wEAAAAAAFA28h0AAAAAAABlI98BAAAAAABQNvIdAAAAAAAAZSPfAQAAAAAAUDbyHQAAAAAAAGUj3wEAAAAAAFA28h0AAAAAAABlI98BAAAAAABQNvIdAAAAAAAAZSPfAQAAAAAAUDbyHQAAAAAAAGUj3wEAAAAAAFA28h0AAAAAAABlI98BAAAAAABQNvIdAAAAAAAAZbMzdwEAoABqtTohISEhIeHRo0d5eXlFRUUODg6Ojo7u7u6NGzf29/d3c3Mzd41mFhERsXjxYrEbHx9vgknnz59/8OBBTbtLly7ffvutCSYFAFgGTu4ALAz5DgA8U1FR0c8//3zkyJGzZ8/m5eVpGfncc8/16tVrxIgRrVu3Nll5AABAV0Y9uSclJQ0YMEDmYBsbGzc3N1dXVz8/v/bt2//jH//o1q2bSqV61viBAwcmJibKPLhMH3744bhx46r3mKK8vLyXX345OTlZ3HL58uVatWoZaToA5DsAUImioqLt27dv27YtKytLzvhbt27dunXrq6+++sc//vGf//zn+eefN3aFAABAJzXt5F5WVpaVlZWVlZWYmHjmzJmNGzc2adJk0qRJY8eO1ZLyKMjKlSul4Q4AY2P9HQAo7/Llyy+99NLatWtlfv+TOn/+/JgxYzZs2GCMwgAAgH4UcXJPSEj48MMPJ06cmJKSYuy5jO3MmTMRERHmrgKwLly/AwB/ExUVtWDBgpKSknLbfXx8evbs6evr6+np6ebmVlRUlJOTc+/evStXrly5cqWsrEwc+fTp088//zwlJWXp0qU2NtYSow8cOLBFixYmnnTOnDlvvPGGpu3i4mLi2QEASmGuk3vDhg39/Pye9eqTJ0+ys7MfPHggnUgQhHPnzk2cOPG7777z8PCQbm/evLmzs7OW6crKyv7880+xW6dOnYYNG2qvsNwU1SUvL2/RokXGODIALVRqtdrcNQBATfHzzz+HhIRIPxhVKtWIESOmTZvWrFmzZ+2VkZERGRm5ZcuWnJwc6fZZs2bNmTPHiOUCAICqmPLkXm79nSlTpsyfP197eQUFBTExMXv27Dl69Kh0e9euXb/++mvt+5aTn5/fsWNHsfvaa68tXbpUpyNUl/fffz8yMrLidtbfAYzKWv6wDABVunnzZmhoqPT7X+PGjfft27dq1Sot3/8EQfD09Jw2bdrPP//cs2dP6faNGzeeO3fOWOUCAICq1PyTu5OTU1BQUFhYWFhYmL29vbj9999/P3LkSDVOZDKnT58Ww51OnTqZtxjAqpDvAIAgCEJpaWloaGhxcbG4pXXr1rt3727ZsqXMI9StWzc8PHzgwIHiFrVavXz58nIXXQMAANNQ1sl94MCBy5Ytk27ZunVrtc9ibNI7s+zt7efOnWveegCrQr4DAIIgCJGRkeVuWQ8PD69bt65OB7Gzs1u9enVAQIC4paio6NatW9VWJQAAkE1xJ/fg4GBp9nTp0iU9VoM2rxUrVjx69EjTnjhxYqNGjcxbD2BVWF8ZAISysrLNmzdLtyxdurR+/fp6HMrJyWnJkiXh4eF9+vTp16+fv7+/zB0zMzN//fXX06dPx8fHZ2RkZGVl1a5d29O6+dq0AAAQXUlEQVTTs2HDhl27du3du3e7du20HyE5Oblfv35i9+rVq5rLvEtKSqKion755Zdr165lZGQIguDh4REYGDhw4MBXXnml4m3wv/76a1RU1MWLF1NSUp4+feru7u7v79+zZ8+xY8d6eno+a/aIiIjFixeL3fj4+HID9u3bt2DBAk27Y8eOu3bt0rTLysqOHz9++PDhK1eupKSkFBYWuri41K1b94UXXhgwYMCAAQO0LGM5f/78gwcPatpdunT59ttvtf+KAADWoyac3HWlUqkGDRp08+ZNTbesrOzSpUt9+vQx0nTV7tSpU+KdWU2aNJk9e3ZaWpp+hyopKTl79uzZs2djY2PT0tIyMzOLi4vd3d3r1KnTtGnTrl27BgUFNW7cuPpqBywB+Q4ACKdPn37w4IHYbdu27ZAhQ/Q+Wo8ePXr06CF/fF5e3tatW7/66qsnT55It5eUlOTm5iYkJPz+++/r16/v3LlzaGho+/btn3Wccs/UePLkib29/Z9//jl37ty7d+9KX3r8+PHjx49PnToVHh6+adOmwMBAzfbk5OT58+f/8ccf0sFpaWlpaWkxMTFbtmz59NNP9f7NSMsrKCjQNDTLIkj/uCoIQnZ2dnZ29t27d3/88ccWLVps2LDBeN+kAQCWyrwnd721bt1a2k1NTTXBpNUiLy/v/fff17RVKtWnn35au3ZtPY6jVqv379+/YcOGpKSkci9pvpPcvn378OHDKpVq2LBhc+bM4UsCIOL+LAAQyq1fOH78eJNNnZSUNHr06I0bN5YLdyqKiYkZO3bszp07nzVAuiijIAgFBQV37tyZMGFCuXBH6sGDB2+99VZ6erogCImJia+99lq5cEcqPz9/7ty558+f116nnPLy8/MFQYiLixs/fny5cKecP//887XXXktJSdFvUgCA1TLjyd0QderUkXYVdH/WJ598Ir0zS7+VlYuLi0NCQhYsWFAx3ClHrVZHRUWNHDnyt99+02MiwCJx/Q4ACKdPnxbb9vb2w4YNM828iYmJY8eOlV663KBBg0GDBrVr187Dw6OgoCAxMfHUqVNipKJWq5cuXfr06dM333yz4tHs7P72kZ6TkzNv3rysrCyVStWlS5cuXbp4eHhkZ2fHxcVJvwmlpqaGhYX95z//mT179uPHjwVBaNGiRVBQUIMGDYqKiuLj448dOyZmT2q1+qOPPoqKitLjh7W1tRXbRUVFKSkps2bN0gQ9TZs27dWrl7e3t52dXXp6emxsrDRFysrKWrp0aVhYmB6TAgCslrlO7gYqKiqSdh0dHc1ViU5Onjz5ww8/aNr+/v4hISF6HKSsrGzatGlnzpwRt9ja2nbr1q1Xr14NGzZ0dnbOyMiIj48/cuSImP7k5+dPmzZt69at3bp1M/ynAJSOfAeAtcvOzpb+jahly5b6XU6sq6dPn4aGhkrDnalTp86aNavc7FOnTo2NjQ0JCRGvYVm1alXPnj21P9VVEIQtW7b8+eef3t7e69at69Chg/SlP/74Y8qUKZpsRRCE/fv316lT5+bNm7Vr116+fPlLL70kHfz48ePJkyeLC0nevn370qVLL7zwgq4/r0qlEtvFxcVLly5NT0/38PBYunTp4MGDyw0+efLk3Llzxdu4jh079vDhQ29vb10nBQBYJ3Od3A1X7oYsLSvf1Ry5ubnVcmfW9u3bpeFOYGDgqlWrKj7sbP78+Vu3bl27dq2mW1paumjRooMHD5a7UR2wQtyfBcDa3blzR9rVI7nQz3fffRcXFyd2Q0ND582bV+n3Ic1qxG5ubppuSUnJxx9/XHFYuXWI9+/f7+rqumPHjnLhjiAInTp1mj59utjNy8vTXB2zfv36cuGOIAgNGjT45JNPpFtOnTpV5U+nvbysrKyjR4/WqVNn586dFcMdQRCCgoJmz54tdtVq9YkTJ/SYFABgncx1cjdcbGystNu8eXNzVSLfJ598Iv4VauLEiR07dtTjIGlpaevWrRO7fn5+27dvr/RJ9nZ2dtOmTZs/f7645cGDB9u3b9djUsDCkO8AsHYPHz6Udps0aWKCSdVq9ddffy12u3bt+vbbb2sZ36hRo9DQULF79uzZhISEKmeZM2fOs36cijnOSy+99KwndLRr1076iIrqeijs4sWLtVyFNH78eOmSPdevX6+WSQEA1sAsJ3fD5efnHzp0SOx6eXk999xzZqxHjl9//XXv3r2att53ZgmC8MMPPxQXF4vd9957T/u1S5MnT5Y+tH7v3r1qtVq/qQGLQb4DwNqVW7lQvEzGqM6cOXP//n2xO2PGjCp3+ec//+nh4SF2xbvcn8XR0XHUqFHPetXHx6fcCo7aF558/vnnxXa5L836ady48fDhw7UMcHR0lP7VTvoMFAAAtDPLyd1wq1evllZe8Y8xNU113Zkl/P2LTUBAQL9+/bSPt7W1HTt2rNhNSkrS8owIwEqQ7wCwduUWMjTNV8Bz586JbXd3965du1a5i4ODQ+/evcVulc+x6tq1q/Yb0aXL2bi4uGi/mtrHx0dsiwv3GGLo0KHSFXmqnDQvL8/wSQEAVsIsJ3dDFBcXL1u2bNeuXeIWZ2fnKVOmmLEkOZYtW6Z5OINgwJ1ZgiCkp6dLL0zu37+/nL2CgoKk3cuXL+s3O2AxWF8ZAP5G+pgnLfbt27dq1SqZx/z222+bNm0q3XLp0iWx/cILL5RbOudZOnTocODAAU375s2bZWVlWnas9JZ1KScnJ7EdGBioPW2RPr+jyke5yyFnKQQXFxexLa61DACArkxzctdVUVFRTk7O7du3z58///3334tBicYHH3wgvW63Bjpx4sS+ffs0bUPuzBIE4cqVK9Ju+/bt5ezVtGlTR0dH8WsJt3ID5DsArJ005hAEITs7W85eT548SU9PlzlFaWlpuS3x8fFiu2HDhjKP4+/vLy3g/v370i3l1K9fX/vRHBwcxHa9evXkD66W+9vl/NTSJ75zUz0AQD6znNwr2rx58+bNm2UeUCokJCQ4OFiPHU0mJydn8eLFmrZKpVqxYoUhTygrt7SfdGEd7Zo0aXLz5k1N++7du3oXAFgG8h0A1k56kYggCDk5OcaeUa1WS79oRkRERERE6HGcjIwMLflOuZ9LO9M/UtTV1dXEMwIArIfpT+7VxdnZefny5UOHDjV3IVWQ3pk1adKkig/r1Em5/0ANGjSQuWPdunXFdm5uriE1ABaAfAeAtZMu8iIIQnJysrFnzMvLq5arUbQvSVPl6jZSMm8Qq0amnxEAYD1Mf3I3nJub27hx4958880qL6qtXjNmzJDeNl6pkJCQV199VexGR0fv379f0w4ICDDkziyNcl9ppHeFaycdyVJ9APkOAGtX7hHdcXFxcvYaN27cuHHjnvVqUlLSgAEDnvVquUUf9cbfqQAAqJTpT+6V8vPz07JGj42NjbOzs7u7u6+vb6dOnZ5//nnpjckmk5WVVeVdadJV8LKzs5csWaJp29rarly5slatWgbWUG6VPeld4dpJR1bL+oCAopHvALB27u7ujRo1Eh+/feXKleLiYvlfLPRQ7maofv36DR48WI/jtGvXrpoqAgDAopj+5F6pF198cf78+Sae1NiWL18u3pk1e/ZsOQ9MqFK59ZLk/8eS/s2s3EEAK0S+AwBCz549xRVwSkpKjh49OmzYMONN5+joaGdnJ67L2Lhx45EjRxpvOgAArJCJT+5WIiYmRrwzy8nJqaysbOPGjVrGl1tYJzw8XHyWmbu7++uvv65pl1uVr6CgQGa+I73wx83NTc4ugAUj3wEAoX///tIVjr/++mtjfwWsU6dOWlqapp2VlWXUuQAAsEKmP7kr1K5du+QPTklJEdsFBQUbNmzQaa7PP/9cbPv5+Yn5Tp06daTDHj16VG7Ls0gfKk++A7C8JQAIQUFB3t7eYjcuLu7MmTNGnbFVq1ZiW/qsdAAAUC1Mf3KH3gIDA6Xdv/76S85eZWVl9+/fF7stWrSo5rIApSHfAQDB1tZ2woQJ0i0LFy6UPsK82rVt21Zs3759m5WSAQCoXqY/uUNvbdq0kXZjY2Pl7HXjxo2SkhKxK/1yBVgn8h0AEARBmDBhgp+fn9h99OjRu+++W1xcrN/Rzp07p31At27dxHZpaemhQ4fkHDYrKysjI0O/kgAAsDYmPrlbg+HDh8fr4tixY9LdL1++LL509OhRcbu7u7v00ubjx4+r1eoqizl+/Li027lzZ4N/PkDZyHcAQBAEwcHB4cMPP5RuOXHixNtvv52Xl6fTcYqKilasWPHee+9pH9a1a9eAgACxGx4eLueh6WvWrOnevfvIkSPXrl3LXV0AAGhn4pM7DDF69GixnZSUJE1/KvXkyZPdu3eL3Q4dOjRr1sxYxQEKQb4DAP+rV69e//73v6Vbfv/99+Dg4KioKDl/RHry5ElERMSQIUO++uor6fY+ffo0adKk4vg33nhDbCcmJn788cfaj3/48GHNOpHXrl378ssvk5KSqiwJAAArZ+KTO/QWHBzs4uIidlesWKH9muU1a9aIj6oQBEFcqhmwZuQ7APB/pk+fPnHiROmWpKSkd95555///OemTZuuX79eVlYmfVWtVicmJkZFRb377ru9e/devHjxw4cPpQPGjRu3cePGWrVqVZxr3Lhx7du3F7uRkZHz5s2r9KtMcXHxpk2bQkJCxC0dO3bs37+/Xj8iAADWxZQnd+jN1dV10aJFYjcpKWny5Ml37typOLKgoGDZsmXffPONuKV79+4vvfSSKaoEajaejw4Af7Nw4UJvb+/Vq1eXlpaKG2/evHnz5s3PPvvMxsbGw8PD09NTpVIVFBSkpKRIF/aTqlev3gcffDB48OBnTWRra7t69erXXntNzHR++umn6Ojovn37duzYsV69eiqVKi0t7fr168eOHcvMzBR39PDwWLVqlUqlqqafGAAAC2eykzsMMWrUqFOnTomLEt64cSM4OLhv3769evXy8vKysbHJyMiIi4s7evRoenq6uFf9+vVXrlzJ9yJAIN8BgIomTpzYvXv3999///Lly+VeKisrS09Pl36rqMjFxeX111+fOnWq9DLjSjVu3DgiIuKtt95KSEjQbMnPz4+KioqKinrWLt7e3l9++aV0tUgAAFAlk53cYYg1a9Y4Ojru3btX0y0pKTly5MiRI0eeNf65554LDw/38vIyVYFAjUa+AwCVCAwMjIyMPHXq1LZt286dO1fuyu1nadeu3YgRI1555RX5X/78/Pz27t27devWHTt25OfnaxlZq1atMWPGhISEuLq6yjw4AAAQmezkDr3Z2tp++umnvXv3/uyzz8S/flXKxcVl0qRJkyZNcnZ2Nll5QA1HvgMAz9S7d+/evXtnZWWdPHny0qVLt27dSkxMzMvLy8/Pt7GxqV27toeHh6+vb9OmTTt06NClSxf9/nzk4uIyd+7ciRMnnjx58vTp0zdu3MjIyNDckOXs7NywYcMWLVp07969X79+Hh4e1f0jAgBgXUxzcochhg0bNnjw4LNnz54+fTomJiYtLS0zM7OsrKxOnTqenp5t2rTp0aNHUFAQf/ECylHJWTceAAAAAAAANRbPzwIAAAAAAFC2/wdHuQ9lQM5dygAAAABJRU5ErkJggg==;" parent="1" vertex="1">
          <mxGeometry x="380" y="20" width="435.34" height="340" as="geometry" />
        </mxCell>
        <mxCell id="OMM5ij9aVdAq4AW9rGDp-1" value="" style="shape=image;verticalLabelPosition=bottom;labelBackgroundColor=default;verticalAlign=top;aspect=fixed;imageAspect=0;image=data:image/png,iVBORw0KGgoAAAANSUhEUgAABcAAAAVgCAIAAADnzWlbAAAACXBIWXMAAC4jAAAuIwF4pT92AAAAB3RJTUUH6QcYES4g95+jKQAAACR0RVh0U29mdHdhcmUATUFUTEFCLCBUaGUgTWF0aFdvcmtzLCBJbmMuPFjdGAAAACJ0RVh0Q3JlYXRpb24gVGltZQAyNC1KdWwtMjAyNSAxNzo0NjozMqDcTTUAACAASURBVHic7N15fFbVvTfslYQECPOsgoggBCoiNA4VRdFCq1SK2lOHah8pbfXxiNZqbetAFQT1tVpq1aOt04MgekSOBQXUQ6lDq6IgFhnCqIgIhCEMIUAC5P3jtttwE7IDZMTr+uu39173by8+x7OlX/daO6W4uDgAAAAAsH+p1T0BAAAAgJpOgHL4yMrKysrKqu5ZAAAAwGFIgHK4kaEAAABAhROgAAAAAMQQoAAAAADEEKAAAAAAxBCgAAAAAMQQoAAAAADEEKAAAAAAxBCgAAAAAMQQoAAAAADEEKAAAAAAxBCgAAAAAMQQoAAAAADEEKAAAAAAxBCgAAAAAMQQoAAAAADEEKAAAAAAxBCgAAAAAMQQoAAAAADEEKAAAAAAxBCgAAAAAMQQoAAAAADEEKAAAAAAxBCgAAAAAMQQoAAAAADEEKAAAAAAxKhT3ROoSBs3bpw6derMmTNzcnI2bdpUUFDQvHnzVq1anXLKKd/97nd79epV/lZFRUUzZ8587bXX5s2bt379+ry8vEaNGrVq1SorK+vcc8/t06dPRkZG1bcCAAAAqkVKcXFxdc+hAhQWFo4ePXr8+PE7duzY35gzzjhjxIgRbdu2je02a9as22+//ZNPPtnfgLZt244aNeq0006rylaxsrKyEsWiRYsOvRsAAAAQORyW8OTm5l522WVPPfVUGelJCOEf//jH97///YULF5bdbfz48ZdffnkZkUcIYdWqVYMHDx4zZkyVtQIAAACqUa1/A6WwsPBHP/rRxx9/HJ3p0aPHwIEDO3funJmZuXbt2rfeemvSpEmFhYWJqy1atHjhhRfatWtXarcZM2Zce+21e/bsSRy2bt36wgsvPPHEE1u2bLlp06acnJyJEyeuWLEicTUlJeWhhx7q379/ZbcqJ2+gAAAAQCWp9QHK6NGjH3vssUSdmpr6u9/97rLLLksa8+mnn1599dWffvpp4rBfv36PPPLIvq0KCgr69eu3YcOGxOGAAQNGjRqVmZlZckxRUdGoUaOee+65xGGzZs2mT5/esGHDymtVfgIUAAAAqCS1ewnP5s2bx44dGx3efPPN+6YnIYQOHTo888wzTZs2TRxOnz599uzZ+w4bO3ZsFHlkZ2fff//9SZFHCCE9Pf3OO+8888wzE4d5eXmlrr6pwFYAAABAtavdAcrf//73bdu2JepjjjnmJz/5yf5GtmnT5qabbooO//u//ztpQHFx8bhx46LDO+64Iy0tbX/dfve730X12LFjo3U6Fd4KAAAAqAlqd4Ayc+bMqL7gggtSUlLKGDxo0KDGjRsn6hkzZhQVFZW8Om/evNzc3ESdnZ0dLYcp1dFHH927d+9EnZeX9+GHH1ZSKwAAAKAmqN0BSrQJawihZ8+eZQ+uW7fuKaeckqi3bt2aFFW88cYbUR0tqylDnz59onrGjBmV1AoAAACoCWp3gJKXlxfVLVq0iB3ftWvXqF68eHHJSwsWLIjq7Ozs2FYlx8ybN6+SWgEAAAA1Qe0OUEpKTY3/szRp0iSqly1bVvLS8uXLo7pjx46xrTp16hTVn3zySSW1AgAAAGqC2h2glAxENm7cGDt+165dUR191ThxfuXKlYk6IyOjPC+zNGzYsEGDBok6Nzc3Pz+/wlsBAAAANUTtDlDatWsX1eVZ/FJyz5SSOcXmzZt3796dqFu3bl3Ou7dp0yaqo48WV2ArAAAAoIao3QFKyd1DXnnllbIH79ix49VXX40Oo+8fhxAKCgqiul69euW8e8mRUYcKbAUAAADUEHWqewKH5Jxzzhk5cmRiYc6CBQumTJnyve99b3+D//SnP23atCk6LJlTlKzr1q1bzruXHBnFMRXY6qCV/eHkhJJZEgAAfJ0de+yx1T0FoBao3W+gtGnT5vzzz48Ohw0b9v777+87bM+ePY899tiTTz6ZkpISnUxLS4vqnTt3RnV6eno5756RkRHVhYWFFd4KAAAAqCFq9xsoIYRf//rX//jHP9avXx9C2LZt25VXXvmDH/zgggsu6NKlS926ddeuXfvee+89//zz8+fPDyGcf/75L7/8cuKHmZmZUZOSL4AUFRWV89Ylk46oQwW2OmiLFi06xA4AAABASbU+QGnRosWDDz549dVXJzaF3bNnz4QJEyZMmLDvyBNPPPG6666LApTowzdh7zCl5CskZduxY0dUR90qsBUAAABQQ9TuJTwJJ5100vjx47t06bK/ASkpKZdeeumYMWNKvujRuHHjqC6ZWWzfvr2c9y253UnUoQJbAQAAADVErX8DJSErK2vSpElTpkx59dVXP/jgg82bN4cQUlJSOnTo0KdPn0svvbRTp04hhE8//TT6Scmdopo0aZKenp5YcZObm7tnz57U1Phoac2aNVHdsmXLCm8FAAAA1BCHSYASQkhNTR04cODAgQNDCIWFhdu2bWvQoEHJzVlDCMuXL4/q4447LqrT0tI6dOiwZMmSEEJRUdG6devatGlT9u02bNgQrdBp165d/fr1K7wVAAAAUEMcDkt49pWRkdGsWbOk9CSEMGvWrKhOWvJTMk9ZvHhx7C0WLlwY1YnXWyqjFQAAAFATHJ4BSql27Ngxc+bMRN2sWbMTTjih5NUePXpE9ezZs2O7lcxievXqVUmtAAAAgJrgaxSgvPzyy9FKmX79+qWlpZW82q9fv6j++9//Httt+vTpUd2/f/9KagUAAADUBLU7QNm0adPo0aOvv/76gQMHDh48uIyRRUVFjz/+eHT4/e9/P2lA+/bto0U9OTk5Zb85MnPmzMQuJyGEjh07llyzU7GtAAAAgJqgdgcojRo1mjBhwmuvvbZ48eJ33303WqGzr9///vcrVqxI1L179z7llFP2HTNkyJCoHjFiRMlvHpe0c+fO4cOHR4dXXXVVpbYCAAAAql3tDlDS0tIuueSS6PAXv/jF0qVLk8YUFxc/+OCDY8aMSRympKT8+te/LrXboEGDohdAcnJyhg4dunXr1qQxW7Zsufbaa5ctW5Y47NKly6BBgyq1FQAAAFDtUoqLi6t7Dodk69atAwYMyM3NTRymp6dfcMEFZ5111lFHHVVQULBo0aIXXnhh0aJF0fgbb7zx6quv3l+3+fPnX3755du3b08cNm/e/KKLLurZs2fz5s03btz40UcfTZw4MS8vL3G1QYMG48eP79q1a2W3KqesrKxEUfLPCwAAABy6Wh+ghBA+/PDDIUOGRFFFGa666qqbbrqp7DFvvPHG0KFDi4qKyh5Wt27dRx999PTTT6+aVuUhQAEAAIBKUruX8CR885vfHD9+fBQflKp169Z/+tOfYtOTEELfvn1feuml7t27lzGmV69ekyZNio08KrAVAAAAUI0OhzdQEvbs2fPmm2++/vrr8+fPX7VqVUFBQZ06ddq0aXP88cefc8455513XkZGxgF1e//996dOnTp37tzc3NwtW7Y0bdq0VatWvXr1GjBgQHZ2dkpKStW3Kps3UAAAAKCSHD4BCgIUAAAAqCSHwxIeAAAAgEolQAEAAACIIUABAAAAiCFAAQAAAIghQAEAAACIIUABAAAAiCFAAQAAAIghQAEAAACIIUABAAAAiCFAAQAAAIghQAEAAACIIUABAAAAiCFAAQAAAIghQAEAAACIIUABAAAAiCFAAQAAAIghQAEAAACIIUABAAAAiCFAAQAAAIghQAEAAACIIUABAAAAiCFAAQAAAIghQAEAAACIIUABAAAAiCFAAQAAAIghQAEAAACIIUABAAAAiCFAAQAAAIghQAEAAACIIUABAAAAiCFAAQAAAIghQAEAAACIIUABAAAAiCFAAQAAAIghQAEAAACIIUABAAAAiCFAAQAAAIghQAEAAACIIUABAAAAiCFAAQAAAIghQAEAAACIIUABAAAAiCFAAQAAAIghQAEAAACIIUABAAAAiCFAAQAAAIghQAEAAACIIUABAAAAiCFAAQAAAIghQAEAAACIIUABAAAAiCFAAQAAAIghQAEAAACIIUABAAAAiCFAAQAAAIghQAEAAACIIUABAAAAiCFAAQAAAIghQAEAAACIIUABAAAAiCFAAQAAAIghQAEAAACIIUABAAAAiCFAAQAAAIghQAEAAACIIUABAAAAiCFAAQAAAIghQAEAAACIIUABAAAAiCFAAQAAAIghQAEAAACIIUABAAAAiCFAAQAAAIghQAEAAACIIUABAAAAiCFAAQAAAIghQAEAAACIIUABAAAAiCFAAQAAAIghQAEAAACIIUABAAAAiCFAAQAAAIghQAEAAACIIUABAAAAiCFAAQAAAIghQAEAAACIIUABAAAAiCFAAQAAAIghQAEAAACIIUABAAAAiFGnuicA8KWtW7dOmDBhxowZH3300dq1azdv3pyWlta4ceP27dv36NHju9/97sCBA+vXr1/d0wQAAL6OUoqLi6t7DlSMrKysRLFo0aLqnQkcqF27dv3hD3+466678vPzyxjWokWLkSNH/t//+3+rbGIAAAAJlvAA1aywsPCHP/zhb37zm7LTkxDChg0brrnmmp///OeSXwAAoIoJUIBqNnz48L/+9a/7nk9PT09JSdn3/BNPPPHEE09U/rwAAAC+IkABqtOmTZvuv//+pJNXXXXVkiVLtm/fvn379lmzZn3nO99JGjBixAgvoQAAAFXJHiiHjxq1B0qpLw4AVAv/pgMA4NB5AwUAAAAghgAFAAAAIIYABQAAACCGAAUAAAAgRp3qngBfC3+eZQdH9uuD155/4rbLSp7pceb3Bwy57YgOXXfvKlq1dO6kR4ct+9c/o6upaXV+9Zc3O53Yu8pnSq1x9Un2sQYAoIIJUIBqdvJ3L922ZeMLD9ywe1dR4szctybPfWtyqYPrNWj8k+HPSE8AAIAqJkABql/fH/5nl+y+/zvugblvTc7ftL7UMa2P7tzrnIvOvuS6Zq3bVvH0AAAA7IEC1Ai5ny3ZsmFN0c4d+xuwNS939ScLP1/8UVXOCgAAIMEbKEA121GQ//gtl8z759Sk83Uy6u3ZvWvP7l2Jw+35mxNLe3r2vfCnI5/NqFe/ymcKAAB8fXkDBahOe/bs+a8bv18yPUlNqzPw6uH/37RVj7yz/b/eK7xzwoKz/uM/S/7kozde+stvL67ymQIAAF9rKcXFPo9ymMjKykoUixYtqt6ZhBBSUnwCA6gp/JsOAIBD5w0UAAAAgBgCFAAAAIAYh9UmsmvWrJk8efKcOXMWL168adOm7du3Z2ZmNmnSpEuXLj179jz//PPbti3v10+Liopmzpz52muvzZs3b/369Xl5eY0aNWrVqlVWVta5557bp0+fjIyMqm8FAAAAVIvDZA+UvLy8e++9d/LkyXv27NnfmJSUlPPOO+/WW29t1apV2d1mzZp1++23f/LJJ/sb0LZt21GjRp122mmxE6vAVrHsgQJQqsPj33QAAFSvwyFAWbZs2eDBg3Nzc0uerFOnTr169bZv37579+6S55s1a/b0009369Ztf93Gjx8/fPjw8tz31ltvvfLKK8sYUIGtyqMmByi1/58yKsWOHaFhw1Dy/0ePPDJ8/nlI3Wdx4YYNoXXrUDIgbdcurFxZFZOkNkqKcA+Df9MBAFDtav0Snk2bNl155ZXr1q1LHLZu3fqqq67q27fv0UcfHUIoLi5euXLljBkz/vKXv2zYsCGEkJeXN3jw4ClTprRs2XLfbjNmzLjrrruiw9atW1944YUnnnhiy5YtN23alJOTM3HixBUrViSu3nPPPUcddVT//v1LnVgFtoLDVb164fTTw1tvfXVm9erw9NPhpz9NHjl6dEh6vezb36706QEAAERq/Rsod95553PPPZeoO3fuPG7cuKZNm+47bOPGjZdddtmnn36aOLzooovuueeepDEFBQX9+vVL5CwhhAEDBowaNSozM7PkmKKiolGjRkV3bNas2fTp0xs2bFh5rcrPGyjURs88E5LevqpTJ9x6axg8OBx7bAghLF0a/uu/wh//mPxP0RtvhLPOqrp5Urt4AwUAgApXu7/CU1hYOHny5Ohw5MiRpaYnIYTmzZsPGzYsOnz11Vd37NiRNGbs2LFR5JGdnX3//fcnRR4hhPT09DvvvPPMM89MHObl5Y0ZM2bf21VgKzi8/fjHoU+fvc7s2hVGjAgdO4b09FCnTujcOYwenZye/OhH0hMAAKBK1e4AZdmyZdu2bUvUbdq06dmzZxmDe/fuHb3fUVBQsGzZspJXi4uLx40bFx3ecccdaWlp+2v1u9/9LqrHjh2btHNtBbaCw15KSpg8OZx0UimXdu0Ke29h9KX+/cOTT1b2vAAAAPZSuwOU6C2PEEK7du3KHpyamnrkkUdGh+vXry95dd68edE2tNnZ2dFymFIdffTRvXv3TtR5eXkffvhhJbWCr4OmTcM//hFuvz00aBAzskmT8Pvfh2nTQr16VTIzAACAf6vdAUrJdTFFRUWx43ft2lXqb0MIb7zxRlRHy2rK0KfEqoMZM2ZUUiv4mqhbN9x1V1i9Ojz5ZPjxj0P37qFVq5CREerWDa1bh549w5AhYezYsHp1+NWvwv7f6AIAAKgstfsrPF26dElNTU0se1m+fPnu3bvLWCxTWFj4xRdfRIedO3cueXXBggVRnZ2dHXvrkmPmzZtXSa3ga6VRozBkSBgypLrnAQAAsI/a/QZKw4YNzzjjjESdn5//2muvlTH4jTfe2LlzZ6I+7bTTkrabXb58eVR37Ngx9tadOnWK6k8++aSSWgEAAAA1Qe0OUEIIv/jFL1JTv/xTjBgxYvHixaUOW7Vq1ahRoxJ1SkrKDTfcUPLqrl27Vq5cmagzMjJatGgRe9+GDRs2+PeGDbm5ufn5+RXeCgAAAKghan2A0r179+j7xHl5eT/4wQ/uvvvu2bNnb9myZffu3Vu3bp07d+4f//jHgQMHrlmzJjHslltuSfpez+bNm3f/+2sfrVu3Luet27RpE9XRdrYV2AoAAACoIWr3HigJP/rRj4444oiRI0euWrWqsLBwzJgxY8aMKXVk27Ztb7nllv79+yedLygoiOp65f68R8mRUYcKbAUAAADUELX+DZSEc845Z/LkyVdeeeX+NpGtU6fO5Zdf/uKLL+6bnoS9M4u6deuW86YlR27btq3CWwEAAAA1xOHwBsru3buffvrpxx9/fNOmTSXP169ff/v27Yl6165dzz777MSJEy+++OIbbrgh2nMkIdpcNoSQnp5ezvtmZGREdWFhYYW3OmhZWVmxY1599dVDvAtAbWF/bgDKduyxx1b3FIBaoNYHKIWFhddee+1bb72VOGzTps3gwYPPOuusY489NvGF408//fSdd94ZO3bsp59+umPHjmeeeeadd9555plnSm7vWvIFkKKiovLfet8OFdgKAAAAqCFqfYByxx13ROnJaaed9tBDDzVq1Ci6mpqa2rFjx44dO1588cW33377pEmTQghLly69/vrrx40bl5KSkhiWmZkZ/aTkKyRl27FjR1RHr7RUYKuDtmjRokPsAHA48d8VAQA4dLV7D5QPP/zwf/7nfxJ1mzZtHn744ZLpSUkZGRn33HNPt27dEoezZs2aOnVqdLVkZhGt+olVcruTqEMFtgIAAABqiNodoDz//PNRPXjw4IYNG5YxOC0tbciQIdHhxIkTo7pJkybRfiW5ubl79uwpz92j7yKHEFq2bFnhrQAAAIAaonYHKO+//35U9+7dO3Z8dnZ2VM+ZMyeq09LSOnTokKiLiorWrVsX22rDhg3RCp127drVr1+/wlsBAAAANUQtDlCKi4vXrl0bHbZq1Sr2J82bN4/qgoKC/Pz86PC4446L6sWLF8e2WrhwYVR36tSp5KUKbAUAAADUBLU7QCl5WJ5P3pSxq2uPHj2ievbs2bGtZs2aFdW9evWqpFYAAABATVCLA5TU1NSmTZtGh6tWrYr9ScmtRjIyMkrumdKvX7+o/vvf/x7bavr06VHdv3//kpcqsBUAAABQE9TiACWE0KVLl6h+7733Ysd/8MEHUZ2VlVXyUvv27aNuOTk5Zb85MnPmzCVLliTqjh07llyzU7GtAAAAgJqgdgcoffv2jernnnuu5J4m+yoqKho/fnx0ePbZZycNKPmNnhEjRhQWFpbaZ+fOncOHD48Or7rqqn3HVGArAAAAoNrV7gDlP/7jP5o1a5ao161b94tf/GJ/GUpRUdGwYcOWL1+eOGzYsOFll12WNGbQoEHRCyA5OTlDhw7dunVr0pgtW7Zce+21y5YtSxx26dJl0KBB+96uAlsBAAAA1S4laSvWWmfKlCk33nhjdHjUUUddeeWVffr0OfbYY1NTU4uLi7/44ov33ntvzJgxixYtioaNHDnyhz/84b7d5s+ff/nll2/fvj1x2Lx584suuqhnz57NmzffuHHjRx99NHHixLy8vMTVBg0ajB8/vmvXrqVOrAJblVO0KKnkn7S6pKSklDys5f+UAbXM3k+g5E3HAQDgINT6ACWE8Pzzz48YMWL37t1J5zMzM7dv3570B0xJSbnpppt+/vOf76/bG2+8MXTo0Nhv+tStW/fRRx89/fTTyxhTga3KQ4ACkCBAAQCgwtXuJTwJl1566cSJE7Ozs5POFxQUJP2luWvXruPGjSsjPQkh9O3b96WXXurevXsZY3r16jVp0qTYyKMCWwEAAADV6HB4AyWyaNGi119/fe7cucuWLdu8eXNBQUH9+vUbNWrUoUOHHj16nHPOOb169Spnqz179rz//vtTp06dO3dubm7uli1bmjZt2qpVq169eg0YMCA7OzvpDYuqaVU2b6AAJHgDBQCACndYBShfcwIUgAQBCgAAFe5wWMIDAAAAUKkEKAAAAAAxBCgAAAAAMQQoAAAAADEEKAAAAAAxBCgAAAAAMQQoAAAAADEEKAAAAAAxBCgAAAAAMQQoAAAAADEEKAAAAAAxBCgAAAAAMQQoAAAAADEEKAAAAAAxBCgAAAAAMQQoAAAAADEEKAAAAAAxBCgAAAAAMQQoAAAAADEEKAAAAAAxBCgAAAAAMQQoAAAAADEEKAAAAAAxBCgAAAAAMQQoAAAAADEEKAAAAAAxBCgAAAAAMQQoAAAAADEEKAAAAAAxBCgAAAAAMQQoAAAAADEEKAAAAAAxBCgAAAAAMQQoAAAAADEEKAAAAAAxBCgAAAAAMQQoAAAAADEEKAAAAAAxBCgAAAAAMQQoAAAAADEEKAAAAAAxBCgAAAAAMQQoAAAAADEEKAAAAAAxBCgAAAAAMQQoAAAAADEEKAAAAAAxBCgAAAAAMQQoAAAAADEEKAAAAAAxBCgAAAAAMQQoAAAAADEEKAAAAAAxBCgAAAAAMQQoAAAAADEEKAAAAAAxBCgAAAAAMQQoAAAAADEEKAAAAAAxBCgAAAAAMQQoAAAAADEEKAAAAAAxBCgAAAAAMQQoAAAAADEEKAAAAAAxBCgAAAAAMQQoAAAAADEEKAAAAAAxBCgAAAAAMQQoAAAAADEEKAAAAAAxBCgAAAAAMQQoAAAAADEEKAAAAAAxBCgAAAAAMQQoAAAAADEEKAAAAAAxBCgAAAAAMQQoAAAAADEEKAAAAAAxBCgAAAAAMepU9wQAgCqVkpJS3VMA+FJxcXF1TwGgvLyBAgAAABBDgAIAAAAQQ4ACAAAAEEOAAgAAABDDJrIA8LVmA0egKtnGGqi9vIECAAAAEKNS3kDZvXt3bm5uQUFBq1atGjduXBm3AAAAAKgyBxagrFmzZsqUKe3atfvud79b6oC1a9c+8sgj06ZN27JlS+LMMcccc8EFF/zsZz/LyMg41MlSDosWLaruKQAAAMDhprxLePbs2TN69Oh+/frdd99977zzTqlj5syZM2jQoP/+7/+O0pMQwooVKx588MFBgwatXbu2AuYLAAAAUOXKG6DceOONjz32WFFRUQjh888/33fA6tWrr7nmmry8vFJ/vnz58p/+9Kfbt28/6IkCAAAAVJdyBSjPPvvstGnTosNVq1btO+buu+/eX3qSsGTJkieeeOJA5wcAAABQ7eIDlMLCwkcffTQ67NSp03XXXZc0Jicn5/XXX48OTzjhhKeeeuqtt9566aWXrrjiiuj8U0895SUUAAAAoNaJ30T2n//857p16xJ1dnb2k08+Wb9+/aQxL774YlR36dJl3Lhx9erVCyG0adPmG9/4RuvWrf/whz+EEAoKCv7+978PGDCgwqYPAAAAUPni30B5++23vxyamnrPPffsm56EEEq+fvKb3/wmkZ5EfvKTn7Ro0SJRv/vuuwc/WQAAAIDqEB+gRJ/FPfXUU4855ph9B+Tk5ERf2GnXrt3pp5+eNCAjI+OMM85I1IsXLz74yQIAAABUh/gAZeXKlYnim9/8ZqkDSn7V+Oyzz05JSdl3TJcuXZK6AQAAANQW8QFKfn5+ojjyyCNLHfDee+9F9b6vnyRES3i2bdt2YBMEAAAAqG7l+gpPokja2SRh9+7ds2bNStRpaWknn3xyqU0yMjISxY4dO4qLiw9mpgAAAADVJD5AiXKTnTt37nt17ty50UslPXr0aNiwYalNohQmPT291DU+AAAAADVWfIDSoEGDRJGbm7vv1egbPWH/63dCCBs2bEgUmZmZBzZBAAAAgOoWH6AcffTRiWL+/Pn7Xp02bVpUlxGgLFmyJFEcccQRBzZBAAAAgOoWH6BkZWUlirfffnv9+vUlL02fPn358uWJumXLlj179iy1w+7du6Mv9XTo0OGg5woAAABQLeIDlD59+iSKnTt33njjjXl5eYnDnJyc3/3ud9Gw733ve6mppXebPHlytPwnOzv7kOYLAAAAUOXqxI7o3bt38+bNN27cGEKYOXPmWWed1b179x07dixYsCD6nk5qaupll11W6s/nzJkzcuTI6LBv374VMGsAAACAKhT/BkpGRsYNN9wQHe7cuXP27Nnz588v+TXiH//4x8cewwTVNQAAIABJREFUe2zSD1evXn377bdffvnl+fn5iTNnnXXWMcccUxHTBgAAAKg68QFKCOHiiy8eOHDg/q6eeOKJv/rVr/Y9n5ubO2HChN27dycO69Wr9+tf//rgZgkAAABQjcoVoKSkpNx7773XX399RkZG0qXzzz9/zJgx+54PIWRlZUW7omRkZNx///3HHXfcIU4XAAAAoOqllFyJEys/P//NN99csWLF9u3bjzzyyNNOO23flTslnXfeecuXL+/evfsdd9zRo0ePQ55tsuuuu+71118/uN/26NFjwoQJ+7taVFQ0c+bM1157bd68eevXr8/Ly2vUqFGrVq2ysrLOPffcPn36lJoZVXarsiW+l7Ro0aIK6XaIUlJSSh4eyD9lAIdq7ydQOKB/030deEQD1cgjGqi9DixAOVAvv/zyEUcccdJJJyX9Xa2iVFKAMmvWrNtvv/2TTz7Z32/btm07atSo0047LfYuFdgqlgAFIMHfzsvmEQ1UI49ooPYq1xKegzZw4MCTTz65ktKTSjJ+/PjLL7+8jMgjhLBq1arBgwePGTOmyloBAAAA1Sj+M8Y12eDBg88999zyj1+8ePFjjz2WqE888cR9B8yYMeOuu+6KDlu3bn3hhReeeOKJLVu23LRpU05OzsSJE1esWJG4es899xx11FH9+/cv9V4V2AoAAACoXpW7hKdG2b1798UXXzxv3rwQQps2baZOndqwYcOSAwoKCvr167dhw4bE4YABA0aNGpWZmVlyTFFR0ahRo5577rnEYbNmzaZPn57Up2JblZ8lPAAJ3g8vm0c0UI08ooHa64DfQPnss88WLFjw+eef5+fnb9++fc+ePQfa4ZZbbom+zlOVnnzyyUR6EkIYPnz4vlHF2LFjo8gjOzv7/vvvT0tLSxqTnp5+5513rlq16q233goh5OXljRkz5tprr628VgAAAEC1K+8bKHv27Hn++efHjRu3bNmyQ7zl/Pnz69Sp6qVDy5cvHzRoUGFhYQhhwIABo0ePThpQXFx85pln5ubmJg4nT56ceKGjVCtXruzXr1+ibtas2TvvvFMyEqrAVgfEGygACf7zZtk8ooFq5BEN1F7l+t/q27dvv/LKK4cPH37o6Um1KC4uvu222xLpSYMGDW655ZZ9x8ybNy+KPLKzs8uIPEIIRx99dO/evRN1Xl7ehx9+WEmtAAAAgJqgXAHKbbfd9v7771f2VCrPX//61yiYuP7661u3br3vmDfeeCOqzzzzzNieffr0ieoZM2ZUUisAAACgJohfSpOTkzNlypR9zzdq1Khhw4YHsRinir9qnJ+ff//99yfqrKysH//4x6UOW7BgQVRnZ2fHti05JtpapcJbAQAAADVBfPzx17/+teTh6aef/pOf/KRnz56NGjWqtFlVpIceemj9+vWJ+pZbbtl3M9eE5cuXR3XHjh1j23bq1CmqP/nkk0pqBQAAANQE8QFKyV05rr322uuvv74y51PBli9fPnbs2ET97W9/+7TTTit12K5du1auXJmoMzIyWrRoEdu5YcOGDRo02LZtWwghNzc3Pz8/8VmfCmwFAAAA1BDxe6B88cUXiaJDhw7XXXddJc+ngj300EO7d+8OIaSmpt588837G7Z58+bEsBBCqTuklKpNmzZRHX20uAJbAQAAADVEfICyZcuWRHH66adX8fYlhygnJ2fq1KmJ+vvf//6xxx67v5EFBQVRXa9evXL2Lzky6lCBrQAAAIAaIj5AiTYNadu2bSVPpoI9+OCDiSI1NfXaa68tY2TJzKJu3brl7F9yZGIBTsW2AgAAAGqI+D1QmjdvnggFUlPL9c3jGmLJkiXRJ4HPPvvs9u3blzF4586dUZ2enl7OW2RkZER1YWFhhbc6OFlZWeUZ9uqrrx7KXQBqEftzA9RYNeQRXca76gCR+Ewk+h/kGzdurOTJVKQxY8ZE9eWXX1724JIvgBQVFZXzFiWTjqhDBbYCAAAAaoj4N1DOOuusv/3tbyGEWbNmVf58KsbmzZtffvnlRN2hQ4fevXuXPT4zMzOqS75CUrYdO3ZEdYMGDSq81cFZtGjRofwc4PDjvysC1Fge0UAtEv8GysCBA5s1axZCmDNnTk5OTuVPqQJMnDgxiiQuvfTS2L1vS2YW27dvL+ddSm53EnWowFYAAABADREfoGRmZt55550hhOLi4ttuu61WfCPmlVdeiepzzz03dnyTJk2i/Upyc3P37NlTnrusWbMmqlu2bFnhrQAAAIAaolz7wp577rnDhg1LSUmZN2/ekCFDPv/888qe1qH47LPP5s+fn6i7du165JFHxv4kLS2tQ4cOibqoqGjdunWxP9mwYUO0Qqddu3b169ev8FYAAABADVHeD+tcccUVjz/+eJs2bebMmfO9731v2LBh7733Xs384O60adOi+tvf/nY5f3XcccdF9eLFi2PHL1y4MKo7depUSa0AAACAmiB+E9mHH344Pz+/oKBgx44dWVlZa9eu3bFjxwsvvPDCCy+EEBo3btyoUaMD+sLxa6+9lpaWdvBTjvOPf/wjqs8+++xy/qpHjx5R8jJ79uw+ffqUPb7klrq9evWqpFYAAABATZBSXFxc9ohu3bqVcyOPcpo/f36dOvHBzcEpLCzMzs5OfBU4PT19zpw50Y4kZfvss8/69++fqLt27Tpp0qSyx59//vlLlixJ1FOmTCn51kkFtjogiQ9O15Cv8CRt3Bv3TxlARUraOjz233RfNx7RQDXyiAZqrwN4c6RWmDt3biI9CSF07NixnOlJCKF9+/ZdunRJ1Dk5ObNnzy5j8MyZM6PIo2PHjkmRRwW2AgAAAGqCwy1AWbBgQVRHKUY5DRkyJKpHjBgRBTFJdu7cOXz48OjwqquuqtRWAAAAQLWLX0ozaNCg+vXrp6enp6WlpaSkHNB2J6U69A5lWL58eVQfaIAyaNCgJ554YunSpSGEnJycoUOHPvDAA40aNSo5ZsuWLTfeeOOyZcuiWwwaNKhSWwEAAADVLn4PlNrlyiuvfO+99xL1vffee+GFFx7Qz+fPn3/55Zdv3749cdi8efOLLrqoZ8+ezZs337hx40cffTRx4sS8vLzE1QYNGowfP75r166V3aqc7IECkGCBfdk8ooFq5BEN1F6HW4By3nnnRS+hPPzww9FmruX3xhtvDB06tKioqOxhdevWffTRR08//fSqaVUeAhSABH87L5tHNFCNPKKB2utw2wMlPz8/qpOWzJRT3759X3rppe7du5cxplevXpMmTYqNPCqwFQAAAFCNKutzwtVl27ZtUd2wYcODa9K5c+cJEya8//77U6dOnTt3bm5u7pYtW5o2bdqqVatevXoNGDAgOzs76T/fVUErAAAAoLocbkt4vs4s4QFI8H542TyigWrkEQ3UXgf5BsquXbuWLl26cOHC5cuXb9myJT8/f/v27ZmZmY0bN27cuHHnzp1POOGE9u3bV+xcAQAAAKrFAQcoH3300Ysvvjh16tSSi2VK1bp16x/84AeXXHLJkUceebDTAwAAAKh+B7CEZ9OmTXfdddcrr7xyQDeoU6fO0KFDr7rqqrS0tAOfHgfAEh6ABO+Hl80jGqhGHtFA7VXeAGX16tWXXnrpmjVrDu423/rWt/7yl7/UrVv34H5OeQhQABL87bxsHtFANfKIBmqvcn3GOD8//2c/+9n+0pPU1NTMzMxmzZplZmbu74My77333m9/+1vPRwAAAKA2KtceKE899dTSpUujw7S0tNNPP/2ss846/vjjjznmmObNm5ccnJub++mnn86dO3fGjBmzZ8+Ozk+dOvWss8664IILKmrqAAAAAFUjfgnPli1b+vbtG20Z26dPn2HDhh1zzDHl6f7xxx8PHz78448/ThweffTRr776ap06B/npH8pmCQ9AgvfDy+YRDVQjj2ig9opfwvP2229H6cl3vvOdP//5z+VMT0IIJ5xwwrhx4771rW8lDleuXPnPf/7z4CYKAAAAUF3iA5SZM2cmigYNGgwfPvxAP6ZTr169u+++u169eonDd99990CnCAAAAFC94gOU+fPnJ4qzzz47abuTcmrbtm3fvn0T9axZsw6iAwAAAEA1ig9QNm7cmChOOumkg77NaaedlijWrVt30E0AAAAAqkV8gLJ58+ZE0aJFi4O+TevWrRPFpk2bDroJAAAAQLWID1D27NmTKA5li+xoD5TCwsKDbgIAAABQLeIDlKZNmyaK9evXH/Rtot82a9bsoJsAAAAAVIv4ACWKPGbPnn3Qt5kzZ05SN+Awk5sb7r8/fP/7oUOH0LhxyMgILVuGbt3CZZeFxx4L/14LWJZdu8KUKeGaa8K3vhWOOCJkZn7Z5PjjwyWXhEceCbm58U0KC8OECWHIkNCjR2jZMqSnh4YNQ9u2oW/fcNNN4Z13Dv0PCgAAfB2lxC7Muf322ydMmBBCaNCgwfTp0w/iQzz5+fn9+/dPbEY7aNCg++677+DmStmysrJCCIsWLaruiYQQQkpKSsnDQ1j+RS1QWBjuvDM88EAoY4le/frhttvCb34T6tQpfcDkyeH668OKFWXdKD09DB0aRowIDRuWPmD8+HDTTWHNmrKaZGeHRx4Jp55a1hhqu72fQIe0BPWw5BENVCOPaKD2in8DJfqAzrZt2+66665oS5RyKi4uHjFiRPQpnzPOOONApwjUZAUFoX//cM89ZaUnIYTt28Ptt4cLLghFRaVcve++MGhQTHoSQigqCqNHh3POCXl5yZeKi8N//me4/PKY9CSEMHt26NMnvPBCzDAAAICS4gOUPn36NGjQIFFPnTr1hhtuiNKQWOvWrbvuuusmTZqUOGzQoMGZZ555cBMFaqYhQ8Jbb5V38JQp4be/TT75v/8bfvObUganpob09FLOf/BBGDo0+eSIEeHRR8s7jaKicOWVISenvOMBAADil/CEEB566KGHH344OszMzLzgggvOOeecnj17NmrUaN/xmzdvnjNnzt/+9rfJkyfv2LEjOn/DDTdcc801FTJv9mUJD1Vv+vTQv3/yyW7dwllnhVatwqefhpdfDknfLk9PD0uXhvbtvzpz6qnh/ff3GnPmmeG++0LPniE9PaxYER58MDz4YPJdliwJxx33Zb1oUejePezatdeAtm3DeeeFtm1Dbm54++0wb15yhyuuCGPHlv/PSm3i/fCyeUQD1cgjGqi9yhWgbNu27eKLL166dOm+l1q2bNm6dev69evXrVt3586dBQUFa9euLfUVlW7duj333HP169evgFlTGgEKVW/QoDB58l5nfvWrcO+9IS3ty8P168N3vhP+vYv0l/70p3DddV/Wa9eGI47Y62q7dmHhwuRdTv7P/0kOO/74x/CLX3xZX399eOihva5ec0344x9DRsaXh3v2hJEjwx137DWmSZPkcIfDhr+dl80jGqhGHtFA7RW/hCeE0KBBgyeeeKJ169b7Xlq/fv2CBQtmz579zjvvzJ49e+HChaWmJ+3bt3/yySelJ3A42bEjTJu215njj98rPQkhtGwZHngg+YcffvhV/emnyVfPO6+UPWL/4z+Sz3z22Vd10jQ6dQoPP/xVehJCSE0Nw4aFbt32GrZ5swAFAAAor/18D2MfRx555MSJE2+77ba3yr/bwb+df/75w4YNa9q06YH+EKjJ/vWv5B1hf/CDvdKThJNOSj6zbt1X9e7dyVePPLKUe7Vrl3wmWrCzZ08YPHiv/4Teo0dI3SccTkkJ3/xmWLgw+SQAAEB5lDdACSG0bt368ccf/9///d9nn3323XffjR2flpbWt2/fK664onfv3ocwQ6CG6tVrrygkhFDankghIyOkpOwVcDRu/FXdtWtITQ0lv+617zspIYS1a5PPdO36ZZGaGm67rVwT3rBhr8MjjghNmpTrhwAAAAcQoCT079+/f//+X3zxxezZs+fNm7dkyZItW7Zs3bq1oKAgMzOzUaNGTZs2zcrK6t69+8knn9yyZcvKmDRQE2RkhPL8v/jf/pa8w8Kxx35VN28evve98PLLX52ZPDnk5oakJYPPPbfXYb164aKLDmy2778fpk/f68yllx5YBwAA4OusXJvIUivYRJYaaNeucOqpe216EkL44IO91vUsWRKys8PWrV+d6d493HtvOPnkkJkZli0LDz4Ynn56rw733Rduvjn+7sXFYdu2sGRJeOmlMHp0yM//6lKHDmHWrNCixcH8oaj57FBYNo9ooBp5RAO11wG/gQJQfkOHJqcn3/pW8q4onTuHadPCRReF3Nwvz8ybF84/v/SGqanh1lvj05NXXgkDB+736je/GSZOlJ4AAAAHoFxf4QE4UMXF4YYbwp//vNfJOnXCww+XMvj008P8+eG228Jxx+23YatWYfDg8P774a67DnJK9euH/v3Ds8+GDz4IHTocZBMAAODrSYACVLydO8MVV4QHH0w+/8ADITu79J+sXBlWrdprlU2SzZvDkiXhgw9CYeFBzuob3whdupRr3xYAAIAk9kA5fNgDhRpizZpw0UVh30913XxzuO++0n8ybFi4++69vsUTQkhPD2lpYceO5MHf+EZ4+eXQsWNZcyh7Cc8JJ4THHw+nnlpWB2o1C+zL5hENVCOPaKD2+jJAGTJkyJ5//2+XW2+9tUuXLtGIkpcqxFNPPZWa6s2XiidAoSb44INw4YVh1ark83feGe64o/Sf3HFHGDFirzOXXRZuvTUcf3xISQmrV4fnnw/DhoVt274acPTR4aOPQvPm+51GTk74f/8vhBC2bQsrVoR//jNs3LjXgLp1w8svh/79y/vnonbxt/OyeUQD1cgjGqi9vgxQunXrFqUkzz777Ekl9ngsealCzJ8/v04dm9dWPAEK1W7ixHDFFcnvjGRmhqeeCpdcUvpP5s8PPXrs9e7JFVeEsWOTh02fnhx2XHNN+K//Ku/EiorCo4+GX/0qFBV9dbJFi7B0aWjatLxNqEX87bxsHtFANfKIBmovb4IAFeORR8LFFyenJ126hJkz95uehBAefTR55c7vflfKsH79klfcjBlzAJuhpKeH669PXkC0YUN4/PHydgAAAL7mBChABbj//jB0aHIUctFFYdas0L17WT98++29Dps3D507lz7y5JP3OiwoCHPnHtgkf/az5P/qNWPGgXUAAAC+tr5cSjNgwIBonU7zvfcVKHmpQtgABQ4zf/5zuPnm5JO/+U24557kwGJfa9bsddi48X5HNmiQfGbduhBC2LQprFgRcnNDbm5Yuzbk5obBg0PXrqV0aNgwNGoUtmz56szq1THTAwAASPgyQHnggQf2N6KMSwBvvx2uu26vM2lp4ZFHwtVXl+vn9evvdZiXt9+RGzYkn0lEKs88E37xi73ON2wYbr+9lA75+WHr1r3OZGaWa5IAAABeBgEO3urV4Yc/3Gtn1hDCE0+UNz0JIbRtu9fh5s1h4cLSR37wQem/PeWU5PNPP50clCS89FLyZplJdwcAANgfAQpw8H71q7B27V5nrr46DB58AB369Us+c/fdpQybPj386197nTnmmNCpUwghnHpq6NBhr0vLl4dLLglffLHXySlTkl9UCSGcc84BTBUAAPg6S4n9ctj69esTY5o2bZqenn5wt3n22WdXr14dQujTp8+pSd/SoIL4jDFV7L33Qu/eyf/HvfDCsPc2SqUbMSIcdVQIISxdGo4/Pvl7OpdcEn7963DiiSEtLeTmhhdfDL/9bfJLJcOHf/W9nocfTl5GFELIzAxnnBE6dgxbt4Z585LzlxBCo0Zh6dLQunX8bKl1fCOzbB7RQDXyiAZqr/gApVu3bolNZJ999tmTTjrp4G5z4403TpkyJYQwaNCg+5I+JUoFEaBQxX75y/DHPx7kbz/++Kuv8wwbFkaOLGVMSkpITy/9W8WdOoWPP/5q/5Q9e0Lfvskf9Ik1enS44YYD+wm1hb+dl80jGqhGHtFA7VVFS3ja/nungQULFlTNHYHKVlF/4RkxIvzsZ6X3LzU9ad8+TJ++1+6zqanh5ZfDt751ADf95S+lJwAAwAGoogCl8N//M2j9+vVVc0egtkhJCY8/Hp599stFPWWoUyf89KfhX/9K3vQkhNCkSXjzzTBiRClfO05y9NHhxRfDH/5w0PMFAAC+jupUwT127dr13nvvJeotW7ZUwR2BWudHPwqXXBKmTQvTpoXZs8OKFWHz5lBUFBo3Di1bhhNPDL17h8suC23a7LdDRkYYNiz88pdhwoQwY0aYMyesWRO2bAl16oQmTcIxx4Ts7DBgQDj33JCWVoV/MAAA4LCQvAfKvHnzks5cfPHFiT1QRo4c2bVr1wPqvmvXrtWrV7/00ktvvfVW4kx6evq8efMObc6Uzh4oAAkW2JfNIxqoRh7RQO2VHKBEW8ZWks6dO7/yyiuV1//rTIACkOBv52XziAaqkUc0UHtV0R4okQEDBlTxHQEAAAAOUXKA0qVLl6T/MFWBTjjhhJ/85CeV1BwAAACgkiRvIjtp0qRt27bNnTt37ty5//rXv/71r39VyHdz2rVrd+GFF/785z+vW7fuoXcDAAAAqErJe6DsK9oV5Z577unWrduB3iAjI6NFixZNmzY9yAlSbvZAAUiwwL5sHtFANfKIBmqvA/iMcfv27Q8iQAEAAACo7ap6E1kAAACAWif+DZQxY8Yk3qxLrBABAAAA+LqJD1BOOeWUQ7/Npk2brrzyykS322677dAbAgAAAFSZKlrC06RJk8WLF+fk5Lz55ptVc0cAAACAilJFAcrKlSsTn/JZt25d1dwRAAAAoKJUeoCye/fu2bNn33jjjYnDgoKCyr4jAAAAQMU6gM8YhxC2bt06bdq0d999d8WKFXl5eTt37ix7fFFR0ZYtW0qeadiw4QHPEQAAAKBaHUCA8uyzzz744IObN28+lPv17NnzUH4OAAAAUPXKG6DcfffdY8aMOcSbpaWlXXPNNYfYBAAAAKCKlWsPlClTphx6etKtW7cnn3zypJNOOsQ+AAAAAFUs/g2U3bt333vvvSXPHHvssd27d2/WrFlaWtrTTz+dOPnjH/+4Tp06e/bsycvLmz9//rJly6LBN9100/HHH3/UUUdV+OwBAAAAqkBKcXFx2SOmT59+7bXXJuqWLVv+/ve/7927d3S1W7duie8Tf/jhhw0aNIjOL1++/KmnnpowYUIIoUuXLqNHjz7uuOMqfvqUkJWVFUJYtGhRdU8khBBSUlJKHsb9UwZQkfZ+AoXYf9N93XhEA9XIIxqoveKX8LzzzjtR/fDDD5dMT8rQsWPHkSNHPv3000ccccTixYsvvvjimTNnHvw0AQAAAKpPfIDy8ccfJ4rs7OxevXodUPfevXuPGzeuWbNm27Ztu+aaa5YvX34wcwQAAACoVvEBytq1axPFySeffBA3OProo//0pz+FELZt23b77bcfRAcAAACA6hUfoGzdujVRtGnTpoxhZSxfPOWUU77zne+EEGbPnj1r1qwDnCEAAABANYsPUHbt2pUo0tPTS/l96pcdioqKymhy4YUXJopp06Yd2AQBAAAAqlt8gJKZmZkoCgoK9r1av379RLFp06YymkSbp3z00UcHNkEAAACA6hYfoDRp0iRRrFq1at+r0aeLP//88zKaNGvWrE6dOiGEFStWHPAcAQAAAKpVfIDSoUOHRFHqd4hbtGiRKMp+tWT37t27d+8OIeTn5x/oFAEAAACqV3yAcvzxxyeKnJycN998M+lq586dE8WLL764Y8eO/TVZuHBhYpfZxHsoAAAAALVIfIDSt2/fqP7lL3/5/PPPlwxKonhlzZo1v//97/fX5M9//nOiaNas2cFNFAAAAKC6xAcoPXr06Nq1a6Letm3bHXfckZ2dXVhYmDjTr1+/aOS4ceNuvvnmzz77rOTPN27ceOutt77++uuJwxNOOKFiJg4AAABQVeIX1KSkpNx0000///nPozN169bNyMhI1Ef9/+zdeXhN59r48WdnlkkSGYg5SGKmMcQQpKIllMaYlramjmidDk6rVNV4WhzqdOCttIagJVQ0kYipqKBSUwwRQ9WQyCghIfPvj+W37OzsKbFjZ/P9XOd633utde9nPVHXY7s9g6dnt27d4uPjpcvIyMjIyEhvb++6deva2dmlpqYmJiYqn3AcGBho0P4DAAAAAABUO4W0NYlOX3/99TfffCPFDRo02L17t/woOTk5JCREuUqiiaenZ2xsrFx8gWH5+PgIIZKSkozdESGEUCgUypf6/S4DAMMoPwIJPf+ke3owRAMwIoZoAKZL9xIeybvvvjtnzhxHR0chhIuLi/KjFi1azJkzx8xMR1O2trbffPMN1RMAAAAAAGBy9J2BIrl79250dHR+fv7YsWNVHv3+++9z5sy5du2a2g+2bdv2P//5T7NmzarcUejEDBQAkPDPm9oxRAMwIoZoAKarcgUU7QoLC/fu3XvgwIHLly9nZWWZmZm5uLi0adOmT58+/v7+hnoLNKGAAgASvp1rxxANwIgYogGYLkMWUGBcFFAAQMK3c+0YogEYEUM0ANOl7x4oAAAAAAAATy0KKAAAAAAAADpQQAEAAAAAANCBAgoAAAAAAIAOFtL/GzNmTElJyeN55bp168zNzR/PuwAAAAAAAB7dgwJKQkJCaWnp43klW20DAAAAAADTwhIeAAAAAAAAHSigAAAAAAAA6PBgCU9ISMhj2wPFzIyqDQAAAAAAMCUKdiR5Yvj4+AghkpKSjN0RIYRQKBTKl/wuA/A4lR+B2HtLFUM0ACNiiAZgupgMAgAAAAAAoAMFFAAAAAAAAB0ooAAAAAAAAOhAAQUAAAAAAEAHi6p9rLi4+OLFi+fOnbt8+XJubu7du3fv3btna2vr6Ojo6OjYokWLtm3bNmrUyLB9BQAAAAAAMIpKF1BOnDixefPm6OjovLw87Znu7u7Dhg0bNWpUvXr1qto9AAAAAAAA46vEMca3b9+eM2f1ca8AAAAgAElEQVTOb7/9VqkXWFhYTJ48+Y033jA3N69891AJHGMMABLOyNSOIRqAETFEAzBd+hZQUlJSQkNDU1NTq/Yaf3//lStXWltbV+3j0AcFFACQ8O1cO4ZoAEbEEA3AdOm1iezdu3cnTpyoqXpiZmZma2vr7Oxsa2ur8p1Mdvjw4Y8//pjxEQAAAAAAmCK99kAJCwu7ePGifGlubt6jR4/evXu3bt26cePGLi4uyslpaWl///33qVOn9uzZk5CQIN+Pjo7u3bv3iy++aKiuAwAAAAAAPB66l/Dk5ub26dNH3jI2ICBg5syZjRs31qf106dPz549+/Tp09Jlw4YNY2JiLCyqePQPtGMJDwBImB+uHUM0ACNiiAZgunQv4Tlw4IBcPXnuuedWrFihZ/VECNG2bdt169b5+/tLl9euXfvjjz+q1lEAAAAAAABj0V1AOXLkiBTY2dnNnj27sofp2NjYzJ8/38bGRrqMj4+vbBcBAAAAAACMS3cB5cyZM1IQGBiost2JnurXr9+nTx8pPnbsWBVaAAAAAAAAMCLdBZSsrCwp6NSpU5Vf061bNylIT0+vciMAAAAAAABGobuAkpOTIwV16tSp8mvc3d2l4Pbt21VuBAAAAAAAwCh0F1BKS0ul4FG2yJb3QCksLKxyIwAAAAAAAEahu4Di5OQkBRkZGVV+jfxZZ2fnKjcCAAAAAABgFLoLKHLJIyEhocqvOX78uEprAAAAAAAApkJ3AaV169ZSsG/fPnlD2Uq5e/duTEyMSmsAAAAAAACmQncBRT5AJy8vb86cOfKWKHoqKyv74osv5MpLz549K9tFAAAAAAAA49JdQAkICLCzs5Pi6OjoqVOn6j8PJT09fcqUKdu2bZMu7ezsevXqVbWOAgAAAAAAGIuFzgxHR8dx48b973//ky5jY2MPHDjw4osvPvvssx06dHBwcKj4kZycnOPHj+/evTsyMvL+/fvy/ddff13ekraalJaW7tu3LyYm5vTp0ykpKYWFhXZ2dp6enm3atOnfv3/Pnj0VCoU+7RQVFR05ciQ2NjYxMTEjIyM7O9vBwcHNzc3Hx6d///4BAQFWVlZ6dsmATQEAAAAAAKNQ6HM4cV5e3siRIy9evFjxkaurq7u7e61ataytrQsKCvLz82/duqV2ikrLli03bNhQq1YtA/Rag4SEhM8++0xtPyVt27adP3++t7e39naOHTs2Y8aMK1euaEqoX7/+vHnz5MVNj6cpnXx8fIQQSUlJj97Uo1MpVD3CEdgAUGkqpXJ9/qR7qjBEAzAihmgApkuvAooQIiUlZeTIkWlpaVV7TaNGjTZu3FinTp2qfVwfW7ZsmTFjRklJifY0Ozu7sLCwDh06aEpYv3797Nmz9Xnj9OnTX3vtNS0JBmxKHxRQAEDCt3PtGKIBGBFDNADTpW8BRQiRlpb26aef7t+/v7LvGDRo0MyZM6t18c6ePXveeecd+WepX7/+iBEjWrVq5ejomJKScuTIkS1bthQWFkpPXV1do6Oja9eurbadSZMmyRvluru7h4SEtG/f3tXV9fbt2+fPn4+IiLh69ar0VKFQLF++vF+/fpq6ZKim9EQBBQAkfDvXjiEagBExRAMwXZUooEji4uLCw8Pj4+N1Zpqbm/fp02fMmDHdu3evavf0kpubGxQUlJOTI12OHDly5syZKhuL/PPPP6NHj5Zn0IwbN+7jjz9WaSc/Pz8oKCgzM1O6DA4Onjdvnq2trXJOUVHRvHnzNmzYIF06Ozvv2rXL3t6++prSHwUUAJDw7Vw7hmgARsQQDcB0VbqAIrl582ZCQkJiYmJycnJubu6dO3fy8/NtbW0dHBycnJx8fHzatGnTuXNnV1dXg/e4oi+//HLVqlVSPGjQoMWLF6tNO3Xq1IgRI6TYwcHhjz/+sLa2Vk5YsWLFkiVLpNjPz2/t2rXm5uZqm3r99dflmTjvvvvupEmTVBIM2JT+KKAAgIRv59oxRAMwIoZoAKarigWUmiMzM7NPnz7S8hxnZ+fdu3fLhy5XNGfOnKKiIm9v7xYtWnTs2FF5lkpZWVmvXr3kKSqRkZFSPUKta9euBQUFSbGzs/OhQ4fMzB4eCG3ApiqFAgoASPh2rh1DNAAjYogGYLp0H2Ncw+3cuVPe3GTcuHFaqidCiJkzZ2p6lJiYKJc8/Pz8tJQ8hBANGzbs3r37oUOHhBDZ2dl//fVXp06dqqMpAAAAAABQE1RxskPNERsbK8dDhgypcjv79u2T4169eunMDwgIkOM9e/ZUU1MAAAAAAKAmMO0CSkFBwdGjR6XY29u7bt26VW7q7Nmzcuzn56czXzknMTGxmpoCAAAAAAA1gWkXUC5fvlxSUiLFbdu2rZggP9WnKTn28vLSmd+sWTM5vnLlSjU1BQAAAAAAaoIHe6CMHz++tLRUiqdPn+7t7S1nKD8yiLCwsCrvk6ri4sWLctykSRMpuHnz5qZNmw4cOHD58uW8vDxLS8s6deq0b9++T58+gwYNUjneWFJcXHzt2jUptrKyqlOnjs5X29vb29nZ5eXlCSHS0tLu3r0rnUBswKYAAAAAAEAN8aCAEh8fL1dJcnNzlTOUHxlEaWmpoQooyvM16tevX1ZWtnr16kWLFhUVFcn3i4qKUlNTU1NTY2Njly9f/vnnn/fu3VulnZycHHmuiru7u55v9/DwkCebZGZmSlUPAzYFAAAAAABqCNNewpOTkyPHdnZ2n3zyyYIFC5SrJypu3rz55ptvrl+/XuV+fn6+HNvY2Oj5duVMuQUDNgUAAAAAAGoI0z7GWFr2Itm+fftvv/0mhOjQocOYMWP8/PxcXV0LCgquXr26e/fuNWvW3L17VwhRVlY2Z84cLy8vf39/+bPKNQtra2s9366cKffEgE1VjfZTk2UxMTGP8hYAMCFsLwUANVYNGaKbNm1q7C4AMAEPCijBwcHyOh0XFxflDOVHBmGo9TuifLVCqp68//77b775pnzTysqqTZs2bdq0GTly5MSJE6U9U0pLS2fMmBEbG2tubi6lFRQUyB+xtLTU8+3K26kUFhYavCkAAAAAAFBDPCigLF68WFOGlkdGp3LIzujRo5WrJ8rq1av33XffDRkyRKq5XLt2LTY2Njg4WHqqPAFEywogFcqVDrkFAzZVNUlJSY/ycQB48vDvigBQYzFEAzAhDyeDFBcXG7EfVWNrayvHFhYWU6ZM0ZLcqFGjESNGyJd79+5V247yFBLt7t+/L8d2dnYGbwoAAAAAANQQDwsogYGBixcvlo/gNQnKtYa2bds6Oztrz3/uuefk+K+//lLbzr179/R8u/ICIrkFAzYFAAAAAABqiIcFlIyMjJUrVwYFBY0bNy42Nlb/5SdG5ODgIMf16tXTme/r6yvHt27dkuPatWvL+5WkpaXpuedLamqqHLu6uhq8KQAAAAAAUEOo2c/10KFD7777bp8+fWr+hBTlNZNlZWU68+3t7S0sHmz7UlRUJM8QMTc3b9KkiXw/PT1dZ1OZmZnyCp0GDRrUqlXL4E0BAAAAAIAaQuOBOPKElAkTJuzcubNm7pDi7e0tx1lZWTrzy8rK5H1nFQqF8natzZs3l+MLFy7obOrcuXNy3KxZM+VHBmwKAAAAAADUBA8LKI6OjmozDh48OGXKlD59+ixZsuT69euPq2N6ad68ubxe5ty5czonoWRkZMg5tWvXVj5QuV27dnKckJCg89XHjh2T444dOyo/MmBTAAAAAACgJnhYQdi/f/+iRYv8/f3V5qWnp69YsSIoKGjixIlxcXE1ZEKKjY1Njx49pDg3N1dnteLkyZNy3KJFC+VHQUFBcqx8QI8mu3btkuN+/fpVU1MAAAAAAKAmeFhAsba2fuGFF1avXr179+5Jkyap3ZO1rKzswIEDkydP7tOnz9KlS2/cuPEYu6pecHCwHP/444/ak7du3SrHXbp0UX7UqFEjeUHQ+fPntddijhw5kpycLMVeXl7Ka3YM2xQAAAAAAKgJ1OyB0qBBg3fffXfPnj2rVq0aMGCAvEZGWXp6+nfffde3b9/XX3/duBNSnn/+eQ8PDynetWvXjh07NGXGx8fLcz0UCsWQIUNUEsaPHy/HX3zxRWFhodp2CgoKZs+eLV++8cYbFXMM2BQAAAAAADA6jZvImpmZ9ezZc+nSpQcPHpwxY4byAcCysrKy/fv3T548OTAwcNmyZTdv3qzOrqpnY2Pz0UcfyZcfffTRzp07K6YdO3bs3XfflS8HDhzYuHFjlZwhQ4bIE0DOnz8/efLkO3fuqOTk5uZOmjTp0qVL0qW3t3fFQoxhmwIAAAAAAEan0Of0X8mZM2ciIiK2b9+em5urvi2FIiAgIDQ0tE+fPubm5obrpG7vvfdeTEyMfNm7d+/Bgwc3adKkrKzsn3/+iYuLU56ZUq9eva1btzo7O1ds58yZM6NHj5aPN3ZxcRk6dGiHDh1cXFyysrJOnDgRERGRnZ0tPbWzs1u/fr3a0pJhm9KTj4+PECIpKelRGjEUhUKhfKn37zIAMIDyI5Be59w/VRiiARgRQzQA01WJAoqkoKAgLi5u8+bN8fHxmnLc3d1HjBgxYsQItRupVIfCwsJ33nnnwIEDOjPr1au3YsUKqdag1r59+yZPnlxUVKS9HWtr6++++07ewra6m9IHBRQAkPDtXDuGaABGxBANwHRVuoAiu3HjxpYtW7Zs2aJp5Y5CoejVq1doaGjv3r0fw4SUkpKS1atXf/311/Kkj4r69+8/c+ZMV1dX7U0lJyd//PHHiYmJmhI6duy4YMGCpk2b6uyVAZvSiQIKAEj4dq4dQzQAI2KIBmC6ql5AkZSVlR06dGjz5s1xcXGaplp4eHiMGDFi+PDhj2FCSlZW1s6dO3fv3n316tX09PTi4mInJ6eGDRv6+/v3799fPhxHp9LS0qNHj0ZHR586dSotLS03N9fJycnNza1jx47BwcF+fn4q3z4fT1PaUUABAAnfzrVjiAZgRAzRAEzXoxZQZDk5Odu3b9+0adP58+fVJpiZmUkTUgIDAw3yRqiggAIAEr6da8cQDcCIGKIBmC6DFVBk586di4qKiomJuXbtmtqEM2fOWFhYGPalEBRQAOD/49u5dgzRAIyIIRqA6TJ8AUV29uzZHTt2xMbGXr16Vfk+BZRqQgEFACR8O9eOIRqAETFEAzBd1VjIaNWqlY+PT48ePb7++uuEhITqexEAAAAAAEC1qpYCSklJyZEjR2JiYnbu3JmdnV0drwAAAICekpNFeLiIjxdnz4rsbFFYKBwdhYeHaNdOBAaKESOEs7PuRjIzxYYNIiZGnD4tMjJESYnw8BCNGongYDFqlPDy0vjBr74S06ZVrsP//rdYuLByHwEAoLoZuIBy6tSpiIiI2NhYTXUTZ2dnMzMzw74UAAAAat24Id57T0REqN7PzBSZmeLsWbFxo3jvPTFtmpg+XVhba2xnxQrx73+LnJxyN//5R/zzjzh4UMyaJT7+WMyYIays1Hz29u1H/jEAAKgBDFNAyc7Olo7guXDhgqacLl26hIaG9uvXjwIKAADAY3D8uHj+eZGeriPt/n3xxRdi/36xfbuwt1eTMHOmmDtXWwtFRWLOHJGYKDZvFhW/6FFAAQA8GR6pgFJaWhofH7958+a4uLiioiK1Oc7Ozi+++OKoUaOaNm36KO8CAACA/lJTxXPPiYwMffP37RNTp4offlC9v327juqJbOtW8dlnapJZzw0AeDJU8RSeGzdubNmyZcuWLTdv3tSU07lz51GjRj3//PNWamdzwtA4hQcAJBzxoB1D9FPipZfExo3l7piZieeeE61bCysrkZwsIiNFYaHqp65cEU2aPLwsLhbe3uLKlXI5PXuKoCDh6CiOHxfr14uSkoePbGzExYuifv1y+cHBYseOh5f9+4uvvtLReTc34eGhIwcmiiEagOmq3AyUwsLCXbt2bd68+dChQ5oGOycnJ2nKiZeWzcQAAABQbW7eFJs3l7vj5ibi4kT79g/vXLkievUS16+XS/vtNzF58sPLX39VrZ7MmiU+//zh5YQJIihIFBc/uLx/X3z1lVi6tNxHVGagNGki2rSp1E8DAECNoG8B5fz58xEREZGRkbc1L2P18/MLDQ3t378/U04AAACMKC7uYVFDsnRpueqJEKJpU7FwoRgzptzNv/8ud7lhQ7nLJk3EzJnl7vTuLUJDxbp1D+9ERKgWUFS+PLq46Ow+AAA1kY4Cyt27d3/77bfNmzefPn1aU07t2rWHDBkSGhrarFkzQ3cPAAAAldaokZgzp9ydQYPUpPn5qd5RXl5RUiJ27Sr3dNgwYW6u+pFhw8oVUK5fF8ePi44dH95RmYFCAQUAYKI0FlD+/PPPTZs2xcbG3r9/X1POM888M2rUqAEDBlhrOfUOAAAAj1dgoAgM1J2Wmal6x8fnYZycLHJzyz3t0kVNIxVv/vlnuQIKM1AAAE8G1QJKWlra1q1bN2/e/M8//2j6jKOjozTlpHnz5tXcPQAAAFSLkhLxn/+Uu2NrKwYPfnh55ozqR9RucOfpKWxshPK/uCnvaH//vigoKJfv4iJu3hTffitiY8XFiyI/X7i4iGbNRFCQGD9eNGpUpR8GAIDq97CAIu0O+/vvv5eWlmrK7tixozTlxMbG5rF0DwAAAIZUVCTS0sThw2LJEnHoULlHCxYId/eHlyr7ywoh3NzUt+nuLpT/6U25gFLxDONt28RLL4l79x7eSU0Vqanijz/EggXiX/8S8+apWSgEAIDRPSygTJkyRVPpxMHBYfDgwaGhod7e3o+rYwAAADCkDh3EyZPqH1lbi4ULxbvvlrt565ZqmqOj+o+r3M/KehhXPH7gxx819rCwUPznP+L0abFtm7Co3FmRAABUOx1/NLVv3z40NDQ4OJgpJwAAAE+eZs3Eiy+KyZNFkyaqj/LyVO/UqqW+EVvbcpd37z6MK85A0Sk6Wnz8sVi0qNIfBACgWqkvoNjb2w8ePHjUqFG+vr6PuUMAAAB4PJydRfv2omFDofY8AJW9S4TQOCtE5b5yAaXiDBQhhLm5CAgQbdqI0lJx7Jg4elQ1YelS8dZbgt32AAA1iuofg23btg0NDR04cGAtTf/EAAAAgCdCdrbYskVs2SL+/W8xdaqYO7dcKUT5SGNJWZn6dlRWgSt/sOIMlNatxcaNok2bh3d27BCjRok7dx7eKSkRy5eLZcv0/DkAAHgcHv4h+dJLL40cOZIpJwAAAE+k8ePFzZuiuFhkZYmTJ8Vffz18VFAg/vMfceqU2L794Qau9vaqLRQXC0tLNS2XlJS7VP5g9+5i06ZyT/v0Ea6u5e4MGCC++06MGVPuZlyc7p8IAIDHSVGm6Z8SYGp8fHyEEEnKG98bj6L8P1rxuwzA46Tyz+b8SaeCIRqSc+fEuHHiyJFyNxcsEB9//CCePVt8/nm5pxkZok4dNU21bi3Onn142aOHOHiwcp0pLRWNGokbN8rdzM/XuOsKTBdDNADTZWbsDgAAAMAIWrYUO3cKT89yN7/66uF0koq1kpwc9U2pbHSiMsFEH2ZmoksX1ZuZmZVuBwCA6kMBBQAA4Cnl6ChGjix3JytLnDjxIK64sDs1VU0jJSUiLa3cnZYtq9gZFffuVaUdAACqiY5jjAEAAGBaysrEpUsiLU3cuiXS0kRamnByElOmqE9WmYEihEhJeRBUrIMkJ4vu3VVvXr4siovL3WnVqirdrjjfpAozWQAAqD4UUAAAAJ40nTqVW25jby/eekv9/q9yuURma/sgqF9fNGworl17+OjIEfHaa6r58fGqd+QiS1aW+P57kZ4uMjIe/N8XXhCzZqnpRkmJ+PPPcnccHYWTk5pMAACMhSU8AAAATxSFQnTqVO7O3bsiLExNZnGxiIxUvVm//sN4yJByj7ZuFYWFqvnh4eUu27cXzZo9iO3sxJw5YulSsW6diI0VCQnif/8rd1yxbP16cetWuTt9+6o5RxkAACOigAIAAPCkGTVK9c6//iV++aXcnfR0MWaMuHSp3M369YWPj8Z2UlPFZ5+VO7lp7Vqxc2e5nJdeehhbW4t+/co9zcgQw4apbka7a5eYPFm1w6GhqncAADAujjF+cnCMMQBIOCNTO4bop0FenvD2Fjdvqt5v1Uq0ayecncXff4s//hC5uaoJn34q5s4td6dfP7FrV7k7XbuKoCBhYyMOHxZRUeUe1a0rLl4UdnYP7+zbJwIDVd9Su7Z48UXh5SUKC8Uff4h9+1QT2rcXx48zA+XJxBANwHRRQHlyUEABAAnfzrVjiH5KREeLQYMq99+3cWORmCjs7cvdPHVK+PvreyDO2rVizBjVm+PGiZ9+qkQ3atcWhw5VcSda1HwM0QBMF0t4AAAAnkDBweKnn4S5ub75np4iLk61eiKEaNdOrF8vzPT4zvjZZ2qqJ0KIb78VAwfq2w03NxEZSfUEAFATUUABAAB4Mr36qjhyRHTtqiPN3Fy88oo4dUq0aKE+4cUXxe7dD7eGrcjZWfz4o5g9W/3TWrXEr7+Kr74SDg7aumFmJoYOFcePi169dHQYAACjYAnPk4MlPAAgYX64dgzRT6Fjx8TmzeLoUZGcLLKzRUGBcHAQdeqItm1Ft27i5ZfLnbyjyb174tdfxebNIjFRpKSIkhLh4SFatBAhIWLECFGnju4W7twREREiLk4cPy5SU8WdO6JWLeHiInx9RUCAGDFCeHs/+s+Kmo4hGoDpooDy5KCAAgASvp1rxxANwIgYogGYLpbwAAAAAAAA6KC7gPLGG29ER0cXFhY+ht4AAAAAAADUQBY6Mw4cOPD777/Xrl170KBBw4cPb8Wu6AAAAAAA4Cmjew+Uli1blpaWype+vr7Dhw9/4YUXnJycqrlvqBz2QAEACQvstWOIBmBEDNEATFelCygSS0vLoKCgoUOH9uzZ08yMjVRqBAooACDh27l2DNEAjIghGoDp0l1A6dOnT0pKiqanHh4eISEhw4YNa9SokaH7hsqhgAIAEr6da8cQDcCIGKIBmC7dBZTS0tKEhISoqKjY2NisrCxNaZ07dx4+fPjzzz9fq1YtQ3cSeqGAAgASvp1rxxANwIgYogGYLt0FFFlJScnhw4ejoqLi4uJyc3PV5tjZ2QUHBw8bNqxjx46G6yT0QgEFACR8O9eOIRqAETFEAzBdlSigyIqKig4ePBgVFbVnz568vDy1OV5eXsOGDRsyZIibm9sjdxJ6oYACABK+nWvHEA3AiBiiAZiuqhRQZAUFBfv27YuKitq3b19BQUHFBHNz8169eg0bNiwwMNDCQveRyXgUFFAAQMK3c+0YogEYEUM0ANP1SAUUWV5e3p49e6Kjow8cOFBUVFQxwcXFZciQIcOHD2/evPmjvw5qUUABAAnfzrVjiAZgRAzRAEyXYQoosjt37sTFxW3fvv3w4cMVDz8WQrRr1y40NHTgwIE2NjYGfC8EBRQA+P/4dq4dQzQAI2KIBmC6DFxAkaWnp0dFRUVGRp45c6bi09q1a4eGhr766quurq7V8fanEwUUAJDw7Vw7hmgARsQQDcB0VVcBRQiRk5Oza9euH3/8MTk5WW2CjY3Nq6+++tZbb9nZ2VVTH54qFFAAQMK3c+0YogEYEUM0ANNl+ALK3bt3d+/eHR0d/ccff6jdD0WFh4fHl19+6e/vb9huPIUooACAhG/n2jFEAzAihmgApstgBZTi4uLff//9119/3bdvX2Fhodqctm3b9urVa8+ePefOnVO+b2ZmNnv27JEjRxqkJ08tCigAIOHbuXYM0QCMiCEagOkyQAElOTk5IiJi27ZtWVlZahPs7e0HDx48atQoX19f6c6ff/759ddfHz16VDlt2bJl/fv3f8TOPM0ooACAhG/n2jFEAzAihmgApqvqBZTc3Nzffvtty5Ytp0+f1pTTsWPHkSNHBgcHqz1z57fffps1a9bdu3elSwcHh7i4OGdn56r1BxRQAEDCt3PtGKIBGBFDNADTZVHZD5SWlsbHx0dERMTFxWlaquPk5DRkyJCRI0c2b95cS1ODBg1q0aLFa6+9lp2dLYS4c+fO+vXrJ02aVNkuAQAAAAAAVKtKzED5559/tmzZsnXr1tTUVE05Xbp0GTly5PPPP29lZaVnswcOHJg4caIUt27desuWLXp+ECqYgQIAEv55UzuGaABGxBANwHTpnoGSn58fGxsbERHx559/aspxcXEJCQkZOXJkkyZNKtuDgIAAPz+/hIQEIcTly5cr+3EAAAAAAIDqpruAEhAQIG9TUlH37t1HjhwZFBRkaWlZ5U5069ZNKqDcu3evrKxM5V/GAAAAAAAAjEuvGSgVb7q7u0tTTho0aPDonXBycpICKysrqicAAAAAAKCmqdwmsgqFIiAgYNSoUX369LGwqPQGtJrk5uZKgZubm6HaBAAAAAAAMBR9iyD16tUbNmzYiBEj6tata/BOBAYGSjNZXFxcDN44AAAAAADAI9JdQOnXr9+wYcMCAgLMzMyqqROtWrVq1apVNTUOAAAAAADwiHQfY5yRkSHlODk5VXmn2PDw8JSUFCFEQEBA165dq9YItOMYYwCQcEamdgzRAIyIIRqA6dLrFJ7S0lIhRHh4eKdOnar2moSEhKioKCFEWloaBRQAAAAAAGBaqmtVjor69etLwdmzZx/PGwEAAAAAAAzlMRVQCgsLpSAjI+PxvBEAAAAAAMBQHkcBpbi4+PDhw1Isn1gMAAAAAABgKlT3QElMTNS0k9OVK1esra0r1XpxcXFKSsrWrVvPnz8v3am+o3wAAAAAAACqieopPC1btpS2jK0mLVq0+O2336qv/acZp/AAgIQjHrRjiAZgRAzRAEzX454PEhwc/JjfCAAAAAAA8IhUCyje3t4q/zBlQG3bth03blw1NQ4AAAAAAFBNVPdA2bZtW15e3qlTp06dOnXy5MmTJ08a5NycBg0ahISEvL90sMYAACAASURBVP7665XdRQUAAAAAAMDoVPdAqUjeFWXBggUtW7as7AusrKzq1Knj5ORUxQ5Cb+yBAgASFthrxxANwIgYogGYLtUZKFo0atSoCgUUAAAAAAAAU8ehwgAAAAAAADronoGyevVqaWadtEIEAAAAAADgaaO7gNKlS5fH0A8AAAAAAIAaiyU8AAAAAAAAOlBAAQAAAAAA0OHBEp7x48dLZxULIaZPn+7t7S1nKD8yiLCwMDMzCjcAAAAAAMBkPCigxMfHy1WS3Nxc5QzlRwZRWlpKAQUAAAAAAJgQChkAAAAAAAA6UEABAAAAAADQ4cESnuDgYHmdjouLi3KG8iODYP0OAAAAAAAwLYqysjJj9wGG4ePjI4RISkoydkeEEEKhUChf8rsMwONUfgQS/EmngiEagBExRGuiMjjDWPg9CS2YDAIAAAAAAKCDhbE7gKcC9XQAAAAAgEljBgoAAAAAAIAOFFAAAAAAAAB0YAkPAAAAANQsK46xlelj8manmrXdwMGDBwMCAqR47dq1Y8aMMW5/oOxBAWXMmDElJSWP55Xr1q0zNzd/PO8CAAAAAAB4dA8KKAkJCaWlpY/nlZwL9RQqi3zD2F0A8BRRDF5p7C4AAIAn0NixY1evXi1fvvnmm99//32lWtixY0dwcLB82b59+xMnThisf6hmLOEBAAAAAKDSNmzYsGTJEltbW/0/8uOPP2pP8PLy+u9//yvFnTp1qnrnUA0ooAAAAAAAUGm5ubmbN29+9dVX9czPysqKjIzUnuPp6Tl16tRH7hqqxYMCSkhIyGPbA8XMjKN/AAAAAACmytHRMTc3VwixatUq/Qso4eHhBQUFQggHB4c7d+5UY/9QPR4UUObPn2/cfgAAAAAAYBK6d+++d+/egoKC/fv3Jycnt2jRQp9Pyet3evbsuWPHjursIKoFk0EAAAAAAKgECwuLZ599VorDwsL0+cjJkyePHz8uhHBzc2vXrl01dg7VhgIKAAAAAACVUFRUNHz4cClevXq1PhtiyHWWF154obCwUFPawYMHFf/funXrlB8dOnRIfnT27Fnp5rlz5z788MOOHTu6u7tbWVm5u7v36tVr3rx5mZmZOruUn58fFhb28ssv+/j41KlTx8rKytXV1dfXd8yYMWFhYfn5+Zo++Pnnn0vdqFu3rnRnz549zz33nJOTk0KhCAoK0vlqE0UBBQAAAACASigqKgoJCbG0tBRCpKSkREdHa88vLCxcv369FA8fPvz+/ftVeKmDg4Mc5+bmlpWVffLJJ61bt168ePGJEyfS09OLiorS09MPHDgwY8YMX1/fgwcPamlt1apVXl5eEyZM2LBhw4ULF7KysoqKijIzM5OSksLDwydMmODl5aXpzKBatWpJwb1794QQ27dv79evX1xcXE5OThV+LhNCAQUAAAAAgEooLCx0dnaWp1qsWrVKe/727dszMjKEEO7u7v369ataAUWq10jy8/OnTZu2cOHCsrKyWrVqtWzZsl27dm5ubnJCRkZGSEhIWlqa2qamTZs2ceLEW7duSZfOzs6BgYFDhw599tlnXVxcpJu3bt0aP378zJkzK35cLqDk5+ffu3fvzTffLC0trcJPZHIooAAAAAAAUAnFxcVCiFdeeUW6jIqKSk1N1ZIvT+UYM2aMhYVFUVFRFV5qbm4ux1FRUYsWLXJzc/vxxx8zMzPPnj178uTJtLS0+Ph4eUfbjIyM7777rmI74eHhX331lRTXrVv3559/Tk9P37NnT0RExO7du9PS0jZs2ODq6iolzJ07NyoqSqUFuZRTXFz8008/paSkuLi4fPLJJz///POmTZsmTZpUhZ/OJFgYuwMAAAAAAJiSsrIyIURISIizs3N2dnZxcfGaNWumTZumNjklJSUmJkaKx40bJ3+8shQKhRwvXbrU1dX14MGD3t7eyjn+/v5bt25t166dNCVk69ats2bNUk7Iy8ubMmWKFDs6Ou7du9fX11c5wdzcPDQ01Nvbu1u3btJeLVOmTBkwYICZmZlyjhyvWLGicePGBw8ebNCgQRV+KNPyoIAyfvx4ecrN9OnTlf8bKD8yiLCwMOVfegAAAAAATI6Njc3o0aP/97//CSHCwsI0FVDWrFkj7TLbuXPnNm3aGOTVpaWlS5YsUameSFq3bt25c+cjR44IIc6ePVtUVKS89mfjxo3Z2dlSPG3aNJXqieyZZ56ZOHHit99+K4S4cuXKrl27nnvuOfmp8t/oT548uXv37qeheiLkAkp8fLxcJcnNzVXOUH5kEKWlpRRQAAAAAACmbsKECVIBJSkp6eDBgz179qyY89NPP0nB+PHjDfVeDw+Pl156SdNTPz8/qYAi7Qsrn5UjhPjll1+kQKFQSNNhNBk9erRUQBFCbNu2TbmAoqxt27byic5PPAoZAAAAAABURYcOHZ555hkpVruV7KFDh86fPy+EsLGxCQ0NNdR7e/XqZWGhcUcOZ2dnOb5z547yo2PHjklBy5YtPT09tbyia9eu1tbWUvzXX39pSuvfv78+HX4yUEABAAAAAKCKJkyYIAWbNm1SqVYIpe1jhw4d6uTkZKiXNmvWTMtTe3t7OZZWD0muX7+elZUlxS1bttT+CnNzcy8vLyk+e/aspjRDLUoyCQ9KVsHBwfI6HfnUooqPDIL1OwAAAACAJ8PLL7/84Ycf3rt3Ly8vb+PGja+//rr8KD8/X14yo329TGU5OjpW4VNy9UQIUa9ePZ357u7u586dE0Lk5uaWlJQo7x0r0z6N5QnzoICyePFiTRlaHgEAAAAA8DRzcnIaOnRoeHi4ECIsLEy5gBIRESHtMdq4ceO+ffsa8KXKJ/LoLycnR47t7Ox05ivn3LlzR+0MGltb2yr0xEQxGQQAAAAAgKqbOHGiFBw+fPjMmTPy/bCwMCkYO3Zs1UoehqXcB32OUlbO0dT/p2qJyVP0owIAAAAAYHC9e/eWNyWRiyZXrlz5/fffhRAKhWLs2LHG6puy2rVry3FeXp7OfDlHoVA4ODhUV7dMBwUUAAAAAACqTqFQyEcUr127Vtq3dfXq1dIMjsDAwCZNmhixezJXV1c5vnHjhs78mzdvSoGzs/NTNdNEE43nHmmXnp5+4cKFS5cuXbt2LS8vLz8/v7Cw0MbGxtbW1sHBoUmTJs2aNfP19VXe+xcAAAAAgCfS2LFjP/vss5KSkvT09EOHDgUEBGzYsEF6JNdWjK5evXru7u5paWlC68E6ksLCwr///luK27dvX919MwmVK6Dk5ub+/PPPsbGxp0+f1t20hYW/v3///v2HDBliZWVV1R4CAAAAAFCjeXp69u/fPyoqSggRGRnp4uJy4cIFIUTt2rWHDh1q7N495O/vHxkZKYS4cOHC1atXGzdurClz3759xcXFUtylS5fH1L+arRIFlPDw8K+//vr27dt65hcXFx88ePDgwYPff//9J598EhQUVKUe6vD777+/8cYblf3UkiVLBg4cqCWhqKjoyJEjsbGxiYmJGRkZ2dnZDg4Obm5uPj4+/fv3DwgI0L8kZMCmAAAAAAA104QJE6QCSkxMjIuLi3QzNDS0Vq1aRu1XOS+99JJUQBFC/N///d/cuXM1ZcqbuQghQkNDq71npkCvAkpZWdmcOXOkY5mq4Pr165MmTfroo4/krYkN6M6dOwZv89ixYzNmzLhy5YryzaysrKysrKSkpMjIyPr168+bN69bt26PsykAAAAAQI01aNAgaYFMYmKivH5n3Lhxxu2ViqFDh3p6ekqbmyxdunTUqFFt27atmLZz585ffvlFinv06NGhQ4fH2suaSq9tYNasWaOlemJubm5nZ+fs7GxnZ2dubq4p7auvvpILXQYknaptQOvXrx89erRKyUPFjRs3xo4du3r16sfWFAAAAACgJrO0tHz11VelWNr1olWrVl27djVqp1RZWVmtWLFCivPy8vr167dly5bS0lI54f79+8uXLx86dKi0A66NjY2cD90zUDIzM5ctW6Z8p1atWv369evWrZuPj0+DBg2UT0ISQty5c+f69evJycnx8fFxcXHKM0Tmz5/fu3dvlfxHpNz+q6++qmdhrGPHjmrv79mzZ86cOfKlu7t7SEhI+/btXV1db9++ff78+YiIiKtXr0pPFyxY4Onp2a9fv+puCgAAAABQ802YMGHRokXyZc3ZPlbZoEGD5s6dO2PGDCHErVu3hg0bVrdu3bZt29rb22dkZCQkJOTn50uZ1tbWa9asad26tVH7W4PoLqDExMQoHxA9YsSIDz74wNnZWVO+g4NDy5YtW7ZsOXjw4E8//XTFihUrV66UHmVnZ8fExIwaNerR+y1TnoHSs2fP3r17V7mp/Pz8GTNmyLW34ODgefPm2draygm9e/ceP378vHnzpOlYZWVlM2fO7NatW8XDhgzYFAAAAADAJPj6+nbv3v3QoUNCCAsLizFjxhi7R+p9+umnTZo0+eijj1JSUoQQqampqampKjnt27f/9ttvu3fvbowO1lC6l/Ds27dPjseOHTt37lwt1RMV9vb2H3zwgVTZkuzatauSPdRBuYDi6Oj4KE2tXbs2MzNTiv38/BYtWqRc8pBYWlp+/vnnvXr1ki6zs7PVrr4xYFMAAAAAAFMxYcIEKRg4cKCHh4dxO6PF6NGjL168uGrVqpEjRzZv3rx27dqWlpZubm7t2rV7++23t2/ffvz4caonKhTSuiYtnnvuOWmlibOz8/79+6t2ZMzw4cOlNWD169ffs2dPFVrQZOrUqTt27JDiqKio5s2bV62dsrKyXr16SQdiCyEiIyN9fHw0JV+7dk0+VMjZ2fnQoUNmZg9LUQZsqlKktyQlJVXt44alUCiUL8siK31SEgBUmWLwSuVLnX/SPW1Uh2h+eQA8RuVHIIboh1QGZxgLvyehhe6/q8szKQIDA6t84G5wcLAUpKenV60FTZRnoDg4OFS5ncTERLnk4efnp6XkIYRo2LChXIrLzs7+66+/qqkpAAAAAABQE+guoBQVFUlBo0aNqvyaJk2aqLRmKIZawqO8UkleVqNFQECAHKvMqTFgUwAAAAAAoCbQXUCRqxJVnn4ihLCxsVFpzVDkU3gsLCxq1apV5XbOnj0rx35+fjrzlXMSExOrqSkAAAAAAFAT6C6gNG3aVAoyMjKq/JqsrCwpkKeiGIo8A+VR1u8IIS5fvizHXl5eOvObNWsmx1euXKmmpgAAAAAAQE2g+xjjrl27Hj16VAjxKNtznDhxQgq6dOlS5UbUkmegSAWU27dvb9u27fDhw+fPn8/Ozi4uLnZ2dvb09OzSpUu/fv3atWuntpHi4uJr165JsZWVVZ06dXS+197e3s7OTjrgOS0t7e7du9IJxAZsCgAAAMBTgr1LgZpP9wyUIUOGSOfCnDhx4uLFi1V4x/3792NjY6U4JCSkCi1ocu/ePXlTlVq1av3vf/8LCAiYP3/+nj17bt68KT1NS0s7ceLEypUrR4wYMW7cOOlEIRU5OTklJSVS7O7urufblY+kkrfaNWBTAAAAAACghtBdQGnYsOErr7wixdOnT79//35l37F48WLpVJoRI0YoL1d5dMo7yCYlJS1fvrywsFBL/qFDh4YNG3bw4EGV+/n5+XIsb9eik3Km3IIBmwIAAAAAADWE7iU8QogPP/zwypUr+/fvP3ny5KuvvrpgwQI96yB379798ssvf/75ZyGEn5/fjBkzHqmzFcjrd2Tm5ubPPvtsjx49GjZsaGdnd/v27cTExOjoaHlfkjt37kyePHnjxo2+vr7yp5RrFtbW1nq+XTlTWoBj2KYAAAAAAEANoVcBxcrK6vvvv1++fPkPP/xw8uTJQYMG9e3bNygoyM/Pz9PT09zcXCU/Nzf3zJkze/fu/fXXX3NycoQQoaGh06dP17+goCflGShCiICAgFmzZjVs2FD5ZmBg4KRJk8LDwxcuXFhcXCyEuHfv3gcffLB9+3ZpaZIQoqCgQM63tLTU8+3KxxLJM18M2FTV+Pj46JMWExPzKG8BABPC/twAUGPVkCFaPjcDALR4UEAZM2aMvHNHRQqFwsLCwtra2svLKykpqbS0NC4uLi4uTghhaWnp4eFhZ2dnY2NTUlJy7969rKys7Oxs5Y97eHikp6d/+umndnZ2jo6O77//vkKhMEjvPT09P//8cyl2dHQMDg5W27KZmdkrr7xSu3btjz76SLpz8eLFqKioF154QbpUruzIm6ropFzpkFswYFMAAAAAAKCGeFBASUhIKC0trcLni4qKrl+/rj3n1q1bt27dki/fe+89Cwu9Zr7oVLdu3ZdeeknP5MGDB0dHR+/du1e6jI6Olgsotra2cpryFBLtlLeDsbOzM3hTVZOUlPQoHweAJw//rggANRZDNAATonsT2SeJcrXlyJEjcqxcs7h3756erSlvdyK3YMCmAAAAAABADfF0FVCeeeYZOc7Ly5O3UKldu7a8X0laWpqek3FSU1Pl2NXV1eBNAQAAAACAGuLBUpqQkBAte6A8orKysrKysuLi4sLCwrt37xpqA5QqcHBwsLS0lLcmycnJcXR0FEKYm5s3adIkOTlZCFFUVJSenu7h4aG9qczMTHmFToMGDWrVqiXFBmwKAAAAwFPCiH9LgrKysjJjdwE114MCyvz5843bj8ejuLhYeWNX5cUyzZs3l6oeQogLFy7orHqcO3dOjlUOdTZgUwAAAAAAoCZ4upbwpKSkyLFCoXBycpIv27VrJ8cJCQk6mzp27Jgcd+zYUfmRAZsCAAAAAAA1gQkXUPLz87du3frtt9/OnDlz6tSp+ky1Onz4sBy3bNnSzOzhjx8UFCTH8kk9WuzatUuO+/Xrp/zIgE0BAAAAAICawIQLKFZWVnPmzFm2bNkvv/yyY8eO/fv3a88vKysLDw+XL3v06KH8tFGjRt7e3lJ8/vx57TNHjhw5Ii/S8fLyat68eTU1BQAAAAAAagITLqBYWFj07dtXvly4cGFeXp6W/JUrV8q7jZibm48cOVIlYfz48XL8xRdfFBYWqm2noKBg9uzZ8uUbb7xRMceATQEAAAB42pSV8b/H9L+nXKdOnRQKhUKh6NChg7H7YgJMuIAihHjjjTfk3aovX748fvx45V1OZEVFRcuXL1+yZIl8Z/jw4Y0aNVJJGzJkiDwB5Pz585MnT75z545KTm5u7qRJky5duiRdent7DxkypOIbDdgUAAAAAAAwOoW0dcj48eNLS0ulW9OnT5dXoKg8MoiwsDDlzUce0bfffrts2TL50traesCAAd26datfv76FhUV2dvbJkyd/++2369evyzmtW7cODw9Xe1rwmTNnRo8efe/ePenSxcVl6NChHTp0cHFxycrKOnHiRERERHZ2tvTUzs5u/fr1vr6+ajtmwKb05OPjI4RISkp6lEYMReUYtrJIJtcAeHwUg1cqX3IeoQrVIZpfHgCPkcpZvQzRMgZnY6nU78mxY8euXr1avnzzzTe///77Sr1ux44dwcHB8mX79u1PnDhRqRYMq1OnTtKmE0bviUl4cIxxfHy8XCXJzc1VzlB+ZBClpaUGLKC8/fbbubm5P/74o3RZUFDw66+//vrrr5ry/fz8vv76a7XVEyFE69atly5dOnnyZOm046ysrB9++EFtprW19fLly7WUPAzYFAAAAACgptmwYcOSJUtsbW31/4j8V1dUh/v37zs6OhYVFc2aNevzzz83ePumvYRHCKFQKD7++ONvv/224pIcFU5OTlOnTl2zZo2rq6uWtD59+mzdurVNmzZacjp27Lht2zaVbWirtSkAAAAAQI2Sm5u7efNm/fOzsrIiIyOrrz/466+/pBkM1cSi+pp+nPr27RsYGHj48OHdu3efOXPm2rVrd+7cKSkpcXR0dHV1bdu2bZcuXZ5//nlNE09UtGjRYtOmTUePHo2Ojj516lRaWlpubq6Tk5Obm1vHjh2Dg4P9/PxUptg9hqYAAAAAADWBo6OjtHRj1apVr776qp6fCg8PLygoEEI4ODhU3CUTj+7o0aPV2v6DAkpwcLC8TsfFxUU5Q/mRQRhw/Y5Ks927d+/evbuhWvP39/f3969RTQEAAAAAjK579+579+4tKCjYv39/cnJyixYt9PmUvH6nZ8+eO3bsqM4OPqWOHDlSre0/KKAsXrxYU4aWRwAAAAAAPG0sLCyeffZZqQgSFha2YMECnR85efLk8ePHhRBubm7t2rWjgFIdqnsGisnvgQIAAAAAwONUVFQ0fPhwKV69enVJSYnOj4SFhUnBCy+8UFhYqM9b8vPzw8LCXn75ZR8fnzp16lhZWbm6uvr6+o4ZMyYsLCw/P19nC+np6QsWLOjWrZuHh4e1tXWDBg38/f3nzZt37do1fTogS05OnjdvXmBgYKNGjWxtbe3t7Zs2bdqvX78vv/zyn3/+0fLBPn36KBQKhUIRGhoqhCgrK1uxYoWfn5+tra1CoZg7d27Fj5w5c2bWrFlBQUENGza0t7e3tLR0cXFp1arVK6+8snnz5uLi4oofmThxovSWy5cvS3dmz56t+P807SZ74MCBDz74oFOnTvXq1bO2tnZ2dvb29h45cuQPP/xw9+5dtR95QvZAAQAAAADg8SgqKgoJCXnrrbeKiopSUlKio6NfeOEFLfmFhYXr16+X4uHDh2/fvl3nK1atWvXpp5/eunVL+WZmZmZmZmZSUlJ4ePj06dMXLFgwbtw4TS1s3bp14sSJWVlZ8p0bN27cuHHjyJEjc+bMWbx48aRJk3TuyJmXl/f++++HhYWpVC7y8vL+/vvvXbt2ffbZZ1OmTJk/f76lpWXFj8v7kN67d08IMW3atEWLFml6V05Ozttvv71x40aVw6Szs7Ozs7PPnTu3bt06b2/vdevWde7cWXu3tUtOTn777bd3796tfLOwsPD27dvJycmbNm2aMWPGwoULx44dq/JBCigAAAAAAFRCYWGhs7NzUFCQtBJn1apV2gso27dvz8jIEEK4u7v369dv06ZN2tufNm3aV199JV86Ozt36NDB2dn59u3bJ06ckGoit27dGj9+/OXLl+fMmVOxhZiYmJEjR8pVD1tb286dO7u4uGRmZiYkJOTl5U2ePNna2trc3FxLN9LS0oKDgxMSEqRLhULRpk2bpk2blpSUXLp06fz580KIgoKCRYsWJSYmbtmypeKxLfKd/Pz848ePa9khJC8vr3fv3idPnpTv1K9fv1GjRlZWVhkZGefPn5em+Vy4cKFv37779+/v0KGDnBkQECC9YsOGDdKdjh07PvPMM1IsB5IjR44MGjRI+s8hhLCysurUqZOHh0deXt6pU6dSU1OlX9tx48ZduXJl9uzZyp+tlgJKSUlJWlpafn6+m5ubo6NjdbwCAAAAAACjkAoTr7zyilRAiYqKSk1NrVu3rqZ8efvYMWPGWFhYaD9qNzw8XK6e1K1bd9myZcOGDZMrHSUlJZs2bZoyZYpUApg7d66/v//AgQOVW8jPz584caJcPfnggw9mz55tZ2cnXRYUFHz//fcff/zxv/71L3d3d03dKCsrGzNmjFw9GTRo0LJly7y8vOSEc+fOTZkyRZrHERMT8+mnny5ZskSlEXlayv3797/66quysjJfX98JEyZ4eXkVFBQ0bdpUzvzss8/k6om/v/8PP/zQunVr+WlGRsasWbO+/fZbIcSdO3feeOMN5e1OXnvttddee+369etyAWXw4MFqV+5kZGSEhIRIv3QKhWLatGnTp09XrlrExsa+9dZbf//9txDiiy++8PPzGzx4sPy0cgWU1NTUqKioBg0aPP/882oTbt269c033+zYsUM60kkI0bhx4xdffHHixIlWVlaVehcAAAAAADWQtMYkJCTE2dk5Ozu7uLh4zZo106ZNU5uckpISExMjxdKKG5UlKsry8vKmTJkixY6Ojnv37vX19VVOMDc3Dw0N9fb27tatm7SXypQpUwYMGKB83O3KlStv3LghxW+++abKqhlra+v33nuvYcOGw4YN07TZhxDip59+iouLk+KXX3557dq1KifqtmzZMiYmZsCAAbt27RJCLFu2bPz48W3atFHprRSkpaUlJCQMHDhw8+bNNjY2Ku8qKChYsWKFFLu5uUVFRamcDuzq6vrNN9+kpKRs3bpVCPHnn38ePXq0S5cumjqvyQcffJCSkiLF33333ZtvvqmS8Pzzz8fHxz/zzDNS2jvvvDNgwAC5DKTvJrKlpaX//e9/g4KCvvzyy0OHDqnNOX78+JAhQ37++We5eiKEuHr16rJly4YMGaKydgsAAAAAANNlY2MzevRoKZb3iK1ozZo10vKTzp07q9QXKtq4cWN2drYUT5s2TaV6InvmmWcmTpwoxVeuXJFKGLKff/5ZCqysrFQWociGDh06YMAALT3573//KwVubm4rVqxQqZ5ILCwsVqxYIVVJSktLV65cqZIgf+rChQuWlpZr166tWD0RQty8ebNv377dunVr3rz5qFGjVKonsnfeeUeOf//9dy2dVys1NVWeotK/f/+K1RNJ3bp1Fy5cKMU3btxQ3rBG3wLK+++///3330sTja5fv14xISUl5e2335b/S6u4fPnyhAkTpG1jAAAAAAB4AkyYMEEKkpKSDh48qDbnp59+koLx48frbPCXX36RAoVCoWWDWCGEXLsRQmzbtk2Ob9++feTIESnu0aOHh4eHphZee+01TY9OnTp1+vRpKZ4wYYK9vb2mTC8vr759+0rxxo0btXT4tddec3Z2VvuoadOm27ZtO3ToUHJy8vLlyzW10LZtWzm+efOmlnep9csvv8iLp6ZOnaol86WXXpJ/ZOUfSq8CSnh4uPIh1fJcIGXz58/XVD2RJCcn//DDD/q8DgAAAACAmq9Dhw7yHqWrVq2qmHDo0CFps1UbGxvpKF/tjh07JgUtW7b09PTUktm1a1dra2sp/uuvv+T7Z86ckZcIde3aVUsLgYGBqB5eLwAAIABJREFUmh7Fx8fLcVBQkPY+P/vss1KQnp5+9epVTWn9+/fX3o5OypuVaFl8pIn8Q1lYWPTu3VtLpqWlZc+ePaX4zz//lO/r3gOlsLDwu+++ky+bNWs2adIklZzz58/v3LlTvmzbtu2//vWv5s2bZ2ZmRkRErFu3TrofFhY2ceLEihvzAgAAAABgiiZMmCDVLzZt2vT11187ODgoP5W3jx06dKiTk5P2pq5fvy6fOtyyZUvtyebm5l5eXufOnRNCnD17Vr5/4cIFOVbe87Uid3d3Jyen27dvV3x04sQJPRsRQiivMzpx4kTjxo3VpulcviQpKyu7dOlSYmLirVu37t69e//+fbkepHyUspZ9ZDSRfyhPT0+1K4mU+fr6SjvX/P333zk5ObVr1xb6FFD++OOP9PR0Kfbz81u1alXFCsjmzZvlWDqWWeqNh4dHq1at3N3dpc148/Pz9+7dGxwcrOePBwAAAABATfbyyy9/+OGH9+7dy8vL27hx4+uvvy4/ys/Pl5fkaF+PI5GrJ0KIevXq6cx3d3eXCii5ubklJSXSXiTKBRFXV1ftLbi6uqotoGRmZsqxzgKKsrS0NE2PdP5EmZmZCxcu3LBhg9pVL49O/qH++ecfhUKh/wfT0tKkAoruJTwHDhyQAjMzswULFqidP6I8/eTf//63Si1n3LhxderUkWLliUAAAAAAAJg0JyenoUOHSrHKVrIRERHSESuNGzeWNwrRIicnR47lU4e1UM65c+eOFCivbdG5/kPT5iZqqyr6UD5SRpmlpaV8lo1aBw4c8PHxWbRoUTVVT4QhfijdM1CSkpKkoGvXrmqn4pw/f14+YadBgwY9evRQSbCysurZs6e0q43ybCIAAAAAAEzdxIkTw8PDhRCHDx8+c+ZM69atpftyPWXs2LH6THlQztFniYpyjvzZ0tJSvTsupIOQK7KweFgr6Nmzp3wasU6a5ryoPcRHduXKlYEDB8o1IF9f36lTp3bv3r1hw4b29vZyZ+7fv/8oW4JYWFhIm8ja29v7+flV6oMPAp2p165dkwJ5axwVyqcaBwYGqv1t4e3trdIaAAAAAABPgN69ezdr1uzSpUtCiLCwsMWLFwshrly5Ih21q1Aoxo4dq0870joRSV5ens58OUehUMh7ryhPS9F5Eq6mtyj3JCIiwt3dXWdnHsWMGTPk6skrr7zy448/qi3ZVGHfE2W1a9eWfkEaNmy4b9++KrSgewmPPP9H04Klw4cPy3HF6ScSeQmPPr8JAAAAAAAwFQqFQj6ieO3atSUlJUKI1atXS3/hDwwMbNKkiT7tKE/f0Gcli3yUr7OzszzFQ/moGnk/U7WKi4s1HQasXDFR3g+lOhQUFMjHMHt4ePzwww+aJrykpKQ8yovkH6rKP5HuAoo8pUftLrUlJSXyMUvm5uadO3dW24iVlZUUKO+gCwAAAADAE2Ds2LHSX/vT09OlVRobNmyQHsm1FZ3q1asn/yVf+WAdtQoLC//++28pbt++vXy/WbNmcnz58mUtLSQnJ0tLWirq2LGjHJ8+fVp7Tx7RpUuX5JkWL7zwglw9qOjUqVOP8iL5h0pLS5P3IakU3QUUuW5SUFBQ8empU6fkH7Vdu3aadqCRqzCWlpaV2u0WAAAAAIAaztPTs3///lIcGRl55swZaQPQ2rVry1vM6sPf318KLly4cPXqVS2Z+/btk4/17dKli3y/VatWcqz9FJfY2Fid3RBCREdHa+3yo8rOzpbj+vXra8n8v//7v0d5kfIPtWPHjiq0oLuAIi+gUnsckXxGj9C8fkcozZCxtbWtXAcBAAAAAKjxJkyYIAUxMTGRkZFSHBoaWql9T1966SU51l4vUD7xJzQ0VI7r1avn6+srxfHx8ZqWApWWlq5YsUJT476+vvI2q5s3b9a+nmjBggXPPffcokWLEhMTtaRpIu/eIoRITU3VlBYVFaVc9dA0d0bL0+HDh1tbW0vx8uXLte+2O3To0FGjRoWFhSmvctJdQGnYsKEUnDlzpuJT5R9ASwElOTlZCurWravzjQAAAAAAmJZBgwZJC3ASExPl9Tvjxo2rVCNDhw719PSU4qVLl2paPrNz585f/h979x0W1bU9fPwMvak0UYqCCmJBLJioCBEbxm6QxGtJrDGxxpgYS+wlmmjUhNhLTOw9YlBRUVTsYsWIvaEgTRQYOrx/nLznzm8oMwxl4Pr9PPe5d50zu6GGXJZ7r71rlxi3bdu2WbNmip/27dtXDLKysqZMmVLgCPPnz4+MjCxiJePHjxeD1NTUoUOHFngkRRCEc+fOzZ8//9ixY5MmTVqwYEERAxbGxcVFOrYTEhJSYO7j8uXLn332mb29vbm5ufgmf6pF8exPVFRU/kGsra0HDBggxlevXp0zZ05hS1q+fPn+/ft37do1fPjwgwcPSu9VJ1BcXV3F4MyZM/Hx8YofHT9+XDpSZW1trfR7JsnJyZFu6lGzdg4AAAAAAJWIvr7+Z599JsZi4qNRo0atWrUq1iAGBgbSxpDU1NTOnTvv27dPca9Eenp6QECAn5+fWF3UyMgo/0aS8ePHS9s6tmzZMnjwYMWEwuPHjz///PNZs2ZZWloWVsZUEIRPP/3U19dXjI8dO9a+ffuLFy8qNoiLi/vhhx86duwol8sFQTA1NZ0/f36xvliRsbGxNNGDBw/Gjh2reHlQfHz8ggULvL29ExMTV65c6eLiIr4PCwtTqilraWkpbTA5cOCAVERG8SqbxYsXS9fjzJ07d+jQoc+ePVMc5M6dO8OHD//666/FR3d3d8UUmOoEire3txhkZGRMnDhROp4UGRk5c+ZMqVn37t0Lu9g5MDBQOv5TrMuWAQAAAACoLKRTPCL1y8cq6tGjh5SJePXqVd++fe3t7X19ff38/D744AMrK6vx48eLSQFDQ8M///yzcePGSiPY2NgsXbpUevzzzz9r167t7Ozs4eFRu3btunXrrl+/XhCEgIAAabdL/vMsMpls8+bNLVq0EB/Pnz/funVrBweHdu3atW/fvn79+vb29t9//316erogCPr6+tu2bVOsX1sss2fP1tfXF+O1a9c6OTl9+OGHH3/8catWrRwcHKZPn56RkTFjxoyePXt6enqKzeRyefPmzf39/ceMGSO+0dPT++CDD8T4zZs3bm5utWrVsrW1VdzqYWVltX//fum2o02bNjk6OjZq1Khz585t27YVY+lslL29/d69exU3tuip/Eo8PT0tLS0TExMFQbh48WK7du3c3NzS09P/+ecf6T4dHR0dxZNaiq5du6aYhfLx8VE5IwAAAAAAlU6DBg08PT3FExh6enqDBg3SbJzvv//eyclp0qRJ4iaLmJiY/CdWmjZtunLlSimhoGTEiBEZGRmTJk0Sd3Pk5eU9fPhQ+tTQ0HDZsmUDBgwICgoS30gXvyiysbE5derUN998s3HjRrFg7YsXL/LXQ2ncuPH69esVS7QWl4eHx+bNm4cMGSKmY2JjYxUL3BoaGi5cuFDcFTJq1KjVq1eL54levXq1d+9exRuI5syZExoaKh4CysvLE/fdKKV1WrVqde7cuVGjRoWEhIhv7ty5c+fOHaUl9ejRY82aNVKCSaQ6gWJgYDBhwgRps0lGRkZ4eLhSm08//bROnTpKL6Ojo1esWLFv3z7xEmxBENq1a+fo6KhyRgAAAAAAKqPhw4eLCZTu3bvXqFFD43EGDhz40Ucf7dixIzg4+OrVq3FxcXK53Nzc3NbWtm3btt26devevXvRV9yOGTOmR48e69atO3LkyNOnT9+8eWNtbV27du3u3bt/9tln4s/m0l4MxXMuiszMzNasWTN58uSdO3ceP378wYMH8fHxWVlZVapUcXJyatmyZe/evbt27Vryy3b79ev3/vvvBwQEHDt27OnTp3K5vGrVqg0aNOjcufPnn3/u4OAgNnN1dT1y5Mj06dOvXr0qk8kcHR39/f2lQdq0aRMaGjp79uyLFy+mpaWZm5s7OTlJ54MkLi4ux48fP3fu3P79+0+dOhUVFZWQkCCTyczNzevXr9+2bdt+/foVWKJEJu0iKUJeXt6kSZMUS6coatq06ZYtW/Lf1Xzjxo1PPvlEejQyMtq7d6+zs7PK6aAZsVrN3bt3tb0QQRAEpX9+8gJHamslAN5Bsl5rFR/V+TfdO0X5WzS/PADKkdIPWXyLlvDNWVv4Mwn1qd6BIgiCTCZbtGhRnTp1Vq9erbSxRzydlT97IgiCq6urjo6OeJLKwMBgyZIlZE8AAAAAQKUS/3U+gNKnVgJFEAQ9Pb0xY8YMHjz41KlTT58+TUtLs7W1bdOmTf6TOxIjIyMnJ6dHjx65ubnNmjXL3d29lNYMAAAAAABQrtRNoIjMzMy6d++ufvvRo0fXrFmzZcuWJT8QBQAAAAAAoC3FS6AUV8+ePct0fAAAAAAAgHKgo+0FAAAAAAAAVHRlsgMlJycnNjZWLpdXr169atWqZTEFAAAAAPzP4PIXoOIrXgIlJiYmKCjIwcGhS5cuBTZ49erVihUrDh8+/PbtW/GNo6Njnz59RowYUeBNPQAAAAAAABWfukd4cnNzly1b1qlTp59++uncuXMFtrl27Vrv3r137twpZU8EQXj69Okvv/zSu3fvV69elcJ6AQAAAAAAyp26CZSJEyeuXr06KytLEISoqKj8DaKjo0eNGvX69esCuz969Gj48OFpaWkaLxQAAAAAAEBb1EqgbN269fDhw9Ljixcv8rf54YcfCsueiO7fv79+/frirg8AAAAAAEDrVCdQMjMzV61aJT3Wq1dv3LhxSm0iIyOPHj0qPTZp0mTjxo2nT5/ev3//oEGDpPcbN25kEwoAAAAAAKh0VBeRPXv2bFxcnBh7eHhs2LDB2NhYqc2ePXukuH79+lu2bDEyMhIEoUaNGo0aNbKxsVm6dKkgCHK5/OTJk926dSu15QMAAAAAAJQ91TtQzpw5829THZ2FCxfmz54IgqC4/WTy5Mli9kQydOhQKysrMT5//rzmiwUAAAAAANAG1TtQ7t69KwatWrVydHTM3yAyMlK6YcfBwaFt27ZKDQwMDLy8vA4cOCAIwr1790q0XgAAAAD4nyOTybS9BAiCIOTl5Wl7Cai4VO9Aef78uRi0aNGiwAaKtxq3b9++wH/y69evrzQaAAAAAABAZaE6gZKSkiIGtra2BTa4cOGCFOfffiKSjvCkpqYWb4EAAAAAAADaptYtPGKgVNlElJOTc+XKFTHW1dV97733ChzEwMBADNLT09kTBQAAAAAAKhfVCRQpb5KRkZH/05s3b0qbStzd3c3MzAocRMrC6Ovrc7oPAAAAAABULqqLyJqamiYnJwuCEBsbm/9T6Y4eofDzO4IgJCQkiIGJiUmx1wgAAAAA75K8wJHaXsK7QtZrrbaXgEpD9Q6UWrVqicHt27fzf3r48GEpLiKBcv/+fTGoWbNm8RYIAAAAAABKZv78+bL/LyoqStvLqZRUJ1BcXV3F4MyZM/Hx8YofHT9+/NGjR2JsbW3drFmzAkfIycmRbupxcnLSeK0AAAAAAABaoTqB4u3tLQYZGRkTJ058/fq1+BgZGTlz5kypWffu3XV0Ch4tMDBQOv7j4eFRovUCAAAAAKBtOTk5oaGh3333XdeuXevVq2dlZWVgYGBoaGhhYVGvXj1fX99JkyYFBwfn5ORoe6UoNaproHh6elpaWiYmJgqCcPHixXbt2rm5uaWnp//zzz/SfTo6Ojr9+/cvsPu1a9fmz58vPfr4+JTCqgEAAAAA0Ibc3NyNGzfOmTOnwIMwmZmZSUlJjx49Onbs2JIlS2rXrj137tzBgweX/zqV+Pr6Sre+mJuba3cxlZTqBIqBgcGECROkzSYZGRnh4eFKbT799NM6deoovYyOjl6xYsW+ffuklFu7du0cHR1LvGYAAAAAALQgNTW1f//+Bw8eVHpfrVo1MzOznJycN2/epKWlSe+fPXs2ZMiQs2fPrl2r5Wq177///vvvv6/dNVR2qo/wCILwySef9OzZs7BPmzZt+u233+Z/Hxsbu3v3bil7YmRk9N1332m2SgAAAAAAtO6LL76QsifGxsajR48+ceLEmzdvkpKSoqKioqOj5XL58+fP//zzT09PT6nXunXrFi1apKUlo9SolUCRyWSLFi0aP368gYGB0kc9evT4448/8r8XBMHV1VWqimJgYLBkyRJnZ+cSLhcAAAAAAK24cOHC1q1bxdjBwSE8PHzFihXt27evWrWqYjMHB4dPP/307Nmzixcvll7OnTuXu28qO9VHeP5tp6c3ZsyYwYMHnzp16unTp2lpaba2tm3atMl/ckdiZGTk5OT06NEjNze3WbNmubu7l9KaAQAAAAAob9u3b5filStXNmzYsOj233777b1799atWycIQlpa2vr162fPnl2mK0SZUjeBIjIzM+vevbv67UePHl2zZs2WLVvKZLJiLgwAAAAAgArk7t27YqCnp9etWzd1ukyfPv3YsWMNGzZ0c3MrugTJmTNn/vrrr1OnTr148SIxMdHExKR69erNmjXz9fX9z3/+I9V/VRIaGtq+fXsxvnPnToMGDR4+fDhr1qyQkJDY2FiZTJadnS1+On/+/BkzZojx8+fPHRwcChwwKipqx44dISEhd+/ejY+Pz8jIsLS0rFmzZtu2bbt27dqtW7fCfrp3c3O7ffu2IAgeHh5Xrlwp7Mt88uSJtA9j4cKFU6ZMKWwNJ0+evHPnTnx8vFwuNzIysra2btCgQfv27fv371+7du3Cxi9TxUugFFcRlVMAAAAAAKhEUlJSxEBPT08qWFG02rVrP378uOg29+/fHzVqVEhIiOJL8Taf+/fv7969e/r06YsWLRoyZEj+vsbGxlKclpb25MmT1q1bx8fHi290dXXVWaQ049SpU1esWJGRkaH4PiYmJiYm5vr16ytWrHB3d1+zZk3r1q3VH7ZYcnNzZ82atXjxYqU1pKampqamPn36NDg4eMaMGRMmTFiwYIG+vn4ZLaMwZZtAAQAAAADgf0PNmjXFID09/fLly6Vyqc3Fixd79OghpTwMDAxatmxZo0aN1NTUmzdvxsTECILw6tWroUOHPn78eM6cOUrdFRMocrl8zpw50lDFkpKS0qtXr5MnT0pvnJyc6tevb2JiEhsbGx4eLmY0bt682b59+927d/fo0UODWVQaNWqU4nVFdnZ2derUMTIyio+Pf/78eWJioiAIWVlZixcvjo6O3rx5c1msoQhq5cwAAAAAAHjHdezYUYpHjhwZGxtbwgHj4+M/+ugjMeUhk8kmT54cFxd39uzZffv2BQcHR0dHHzlyxMnJSWw8d+7cwMBApREUd2Fcv349MDBQT09v6NChmzdv3rdv34oVK9Rcyddffy1lT1q2bHnx4sXHjx8HBwfv37//7Nmz8fHxc+bMEfezpKenf/rppy9evCjZl16ACxcuSNkTLy+vGzduvHjxIiws7Pjx49evX4+Lizt69Ki0+WXLli2HDx8u9TUUTfMdKJmZmffv34+MjHz9+nVycnJKSkq3bt08PDxKcXEAAAAAAFQQn3766YIFC8TcwY0bN9zc3KZNm/bZZ59ZWlpqNuA333wTHR0txqtWrfriiy+UGnTp0uX8+fMtWrQQm40ePbpr166KSRPFQzrr1q3T09M7fPiwYqJHHefPn1+/fr0YN2/e/OTJk0olV8zMzGbOnGllZTV27FhBEJKSkr7//vtNmzYVaxaVdu7cKQampqYHDx40NzdX/FRHR6dz585eXl6tWrW6deuWIAhr167t2rVr6a6haMVOoKSlpQUHB+/du/fatWtZWVmKH7m6uiolUM6dO3f69OkRI0ZYW1uXdKUAAAAAAGiPmZnZjh07fH1909LSBEGIi4v7+uuvJ02a1Lp16w4dOog/2ytdaVyEmJgY6VqfDz/8MH/2RFSzZs1FixYNHjxYEIQXL14cPHjQz89P+lSxFMuNGzdmzJhR3OyJIAgrV66U4oCAgMIK1o4ePXr16tURERGCIOzateuXX36pVq1acecqwqNHj8SgYcOGStkTibGx8eLFi0NCQpycnFTeglTqineEJzAw0MfHZ/LkyZcuXVLKnhTo+PHjv//+e/fu3Y8fP67pCgEAAAAAqBC8vLzOnj3r5uYmvcnOzg4LC5s7d66vr6+FhYW7u/uoUaO2b98uFuwowq5du6QfqydMmFBEy/79+0tJjR07dhTWTEdHZ9y4cep+Jf9fTk7Ovn37xLh+/fpt27YtrKVMJuvfv78Yp6WlHT16tLhzFc3Q0FAMnjx5olREVlGXLl1++umn0aNHS9cPlRt1Eyg5OTkTJ06cNGlSUlKS+qOHhYUJgpCUlDRu3LigoCBNFggAAAAAQIXRvHnzGzdu7Nixo23btkp3+ubm5t66dWv16tUDBgywsbHx8vLauHFjYbmA8+fPi4Genl67du2KmFFfX9/Ly0uML1++XFgzDw+P6tWrF++LEYSIiAi5XC7GnTp1Krqx4jqvXr1a3LmK1rx5czGIj48fOnTo27dvS3f8klM3gTJjxoziZkCeP3/+9OlTMc7NzZ02bZq0IQcAAAAAgEpKR0enX79+YWFhUVFRGzZsGDhwoKOjo1KbnJycs2fPDh8+vFatWr/99lteXp5Sg+vXr4uBnZ2dkZFR0TM2aNBADJ48efLmzZsC2yjui1GfWE9EpPJQjIuLixT/888/GkxXhM8//1yqJrN9+/a6deuOHTv2yJEjUn5H69RKoBw6dGjv3r2Kbz744IPZs2cHBgbeuHGjsOuv7ezsFi9ebGFhIT6mp6f/+OOPJVwuAAAAAAAVhJ2d3bBhw7Zs2fLkyZOXL1/u3bt34sSJ77//vmJt17i4uHHjxg0YMCA3N1exb0JCghg8e/ZMpsry5culjoXd/mNnZ6fBl6B41MjW1rboxtWrV5c23bx+/VqD6YpgbW39999/W1lZiY8JCQkrVqzo2rWrhYWFl5fXrFmzzp49m5OTU7qTFovqBEp2drbib1WTJk2CgoLWrVvXv39/V1fXIvJkurq6vXr12rZtm1T9JTQ09MmTJyVeMwAAAAAAFYutra2fn9/PP/988eLFuLi4DRs2NGnSRPp0x44dCxcuVGxfrPoYigo722JiYqLBaIr7WUxNTYtuLJPJjI2Ni15GSbRp0+bWrVuffvqp4k1DmZmZZ8+enTt3rpeXl729/eTJk8WLn8uf6lt4Ll68KJ3E8fDw2LRpk4GBgfoT1K1bd/bs2VJFnJCQkOHDh2uwUAAAAAAAKgULC4thw4YNHjx41qxZCxYsEF/++OOPX331lVQOVk9PTywia2ZmpnShbdH09Ar+Qb6w0yFFUyzjkv+cUX5SG6X6L6XF1tb2zz//XLp06b59+4KCgkJDQxUzNa9evfrpp5/WrFmzadOmPn36lMUCiqA6gSIWghUEQU9Pb/HixcXKnoi6du36yy+/PH78WBCEK1eukEABAAAAAPzP09XVnT9//pUrV4KDgwVBSE5ODg0N7dGjh/hptWrVxOuQa9WqFRoaqq1FKl5FnJqaWnTj3Nxccc1KHdWnTo5GEARra+uRI0eOHDkyOzv70qVLx48fDw4OPn/+vNj9zZs3H3/88bFjx3x8fDRYg8ZUJ6iuXbsmBu3bt7e3t9dsGul6oYcPH2o2AgAAAAAAlY6/v78UK/5EbGNjIwZSMRStsLa2luIXL14U3Tg6OlqKpWIlxVJYBdzC6OnpeXp6zpw58+zZs48ePfrPf/4jvs/Ozv766681WEBJqE6gxMXFicH777+v8TRSqV5tHVUCAAAAAEBjL1++PHTo0IIFC37++edidaxataoUK+6/kG7tjY2NffXqVaksUgPNmjWTYpUX69y9e1eKmzZtqviRVDe36G0sJdlU4eTktH379t69e4uP169fL+erflUnUKTKujVq1NB4GqmObMW5fwgAAAAAAHVkZmY2atSoe/fu06dPnzlzZmH34BQoIiJCihVPdbRu3VqKDx8+XCrr1ICrq6v0A/vRo0eLbnz8+HEpVtpjIdV2UbzWJ78TJ05oskoFQ4cOleJnz56VcLRiUZ1AkTJkmhWkEaWnp4uBYildAAAAAAAqPgMDAz8/PzGWy+WjRo1SupO4MAkJCevXrxdjPT29du3aSR/5+/sbGhqKcUBAQNED+vn59evXb+PGjS9fvtTkCyicjo5Ov379xPjJkyeKKRIlmZmZW7duFePq1at36NBB8dOaNWuKQWxsbGGLTEhIkEZQcurUqeHDh3t4eLRo0aLoOinSL5ogCFWqVCmiZalTnROxsLAQA+ksjwak/UjSaAAAAAAAVBYzZswwMjIS43379vn7+6v8GfnBgwe+vr5S3ZCPP/5YqnsiCIK1tfWAAQPE+OrVq3PmzClsnOXLl+/fv3/Xrl3Dhw8/ePBgib6MgowePVraMDFhwoTk5OQCm82dO1fa8TFy5EilG2YUjwJt2rQpf/esrKxhw4YVdvlxcnLyxo0br169eu3atZUrVxax2m3btomBsbGxq6trES1LneoEilQY5vLlyxpPc/bsWTFQrE8DAAAAAEClUKdOHcUf7Pfv3+/k5DR06NCdO3feuXMnJSUlLy8vNzc3OTk5IiJi8+bN/fr1a9iw4dWrV8X2Dg4OAQEBSmMuXrzY1tZWjOfOnTt06FClMyl37twZPny4VC3V3d1d8QBLaXF3d5emuH37docOHaTLZERxcXFjxoyR7mN2dXWdNm2a0iAfffSRFM+dO3fdunXSSRRBEC5dutSxY8fAwMDPP//c1NQ0/xq6du3q5uYmxmPHjh0/fvyTJ0+U2jx58mTkyJGbN28WHwcOHCidGyofqq8xbtas2c2bNwVBCAkJefXqlQaVUB48eHDu3DkxlsrkAAAAAABQiQwdOjQvL2/cuHFicU+5XL5p06YCd1socXd3P3jwYP5ra6ysrPZS1jX6AAAgAElEQVTv39+jRw/xuhVxtIYNG9rb28vl8qioKMV8ir29/d69e5X2fZSWBQsW3Lt3T9zecuXKlRYtWri6ujo7O+vq6r548eLatWvSCSMHB4d9+/aZmJgojeDm5tanT5+//vpLEISMjIyRI0d+/fXXtWrVMjY2fvHihVg1pnHjxj///POePXvEQrM5OTlSd11d3a1bt3p5eYn7XwICAgICAuzs7BwdHY2MjNLT058/fx4VFSW1b9So0eLFi8vil6IIqnegeHl5iUFGRsb06dMVv0J1pKSkTJkyRerVtm3b4i4RAAAAAICKYNiwYdeuXRs4cKCenurtCIIg2NraLl++/PLly7Vr1y6wQatWrc6dO9exY0fpzZ07d44fP37u3DnF7EmPHj0uXbrk7OxcwvUXxtDQcN++fVOnTpWOKd29ezcoKCgwMDA8PFzKnvTq1evixYuNGjUqcJANGzZICQRBEFJTUyMjI69duyZmT1q3bh0SEmJmZiZNkZmZqdjd3d39/PnzLVu2lN68fPny/PnzJ0+ePH/+vJQ9kclkgwYNCgsLk2rflhvVv+Vt2rSxtbUVT22dPn163LhxCxcurFatmjqjP3r06Lvvvrt165b4WKNGDRIoAAAAAIDKq379+lu2bFm2bNmRI0dOnz4dGRn5+PHj5OTk1NRUPT29KlWqWFpaurq6NmnSpEuXLl5eXirvY3FxcREzJvv37z916lRUVFRCQoJMJjM3N69fv37btm379eunWGGkjOjp6f3www9jxozZtm3bsWPH7t69Gx8fn5OTY2Vl5ejo2L59+759+7Zo0aKIESwtLUNDQ3fv3r1jx47w8PD4+HhdXV07Ozt3d/fPPvuse/fu4lXH0rmblJQUpREaN258+fLl0NDQwMDAK1euPHz4MCkpKT093cTExNLSslGjRp6env369atfv34Z/SIUTVZ0eVvR3r17FQ84WVhYDBw40NfXV6zX0rBhQzEdNW/evE8++UQQhNTU1Bs3bhw4cCAoKCgrK0vqOHfuXKm6L0qd+NuheC+3FslkMsXHvMCR2loJgHeQrNdaxUd1/k33TlH+Fs0vD4By9H+/A/Et+r+UvjlDW/gziSKolUDJzc0dPXr0yZMnld6bmprWrFnz4cOH4qOTk5OZmVlSUpLiwSSJt7f36tWr1dzmBA2QQAEAEQmUopFAAaBFJFAKQwKlguDPJIqgugaKIAg6OjrLli3Lv2UoNTVVyp4IgvDkyZOIiIgCsydubm6//PIL2RMAAAAAAFAZqZVAEQTB2Nh48+bNml2Y9Nlnn23btq3Am4oAAAAAAAAqvmJsCTEwMJgyZUrPnj3//PPPQ4cOKdXLzc/Q0LBbt26DBg2SLnMGAAAAAACojNSqgZLf27dvr169euPGjbt37yYlJb19+zY9Pd3U1LRq1aoWFhYNGjRo0qRJ8+bNpeK6KAfUQAEAETVQikYNFABaRA0UAJWXhkVJqlat6uPj4+PjU6qLAQAAAAAAqIjUrYECAAAAAADwziKBAgAAAAAAoIImCZR79+4FBgYW3ebKlSu//fbb5cuXNVoVAAAAAABABVK8BMrp06f9/f179uz5008/Fd3y2bNnAQEBgwYN+vDDD4ODg0uwQgAAAAAAAC1TN4GSm5s7b968zz///NatW4IgJCUlqdnx8ePH48ePnzp1ak5OjoZrBAAAAAAA0Cp1EyizZ8/esmWL9JiVlZWamqr+NPv27ZsyZUrxlgYAAAAAAFAxqJVACQoK2rlzp9LLN2/eFNHF3Nzc1NRU8U1gYOD+/fuLuz4AAAAAAACtk+Xl5RXdIjs7u3379rGxseKjmZnZiBEjunfvXrt27aI75uTknDx5cvHixU+ePBHfWFlZhYaGGhgYlHjZKICrq6sgCHfv3tX2QgRBEGQymeJjXuBIba0EwDtI1mut4qPKf9O9a5S/RfPLA6Ac/d/vQHyL/i+lb87QFv5Mogh6KluEhIRI2RMHB4c//vjDwcFBnaF1dXU7derUunXrgQMHRkZGCoKQkJBw+PDh3r17l2TFAACgFPH/2AEAANSh+gjP6dOnpXjZsmVqZk8kZmZmP/74o/QYFhZWrO4AAAAAAABapzqBcvPmTTFo2rSpu7u7BnM0aNCgefPmSqMBAAAAAABUFqoTKHFxcWLQrFkzjaeR+kqjAQAAAAAAVBaqEyjSdcXm5uYaT2NhYaE0GgAAAACgQHn8p7z+U4mEhYXJ/r8tW7YUt3unTp3Evs7OzmWxvJK4cOGC9KVt2rRJ28splOoislWqVElISBAEISUlReNpkpKSxKBq1aoaDwIAAEodF6UBKE9KF6UBQCWiOoFiaWkpJlCePn2q8TT37t0TAysrK40HAQAAAACgQrl58+aJEydOnjz5+PHjhISEhIQEHR2dKlWq2NvbN2rUyNvbu0ePHvb29tpeJkqB6gSKs7Pz/fv3BUE4d+6cXC43MTEp7hwxMTHnz58X43r16hW3OwAAAAAAFc3ff/89b968S5cu5f8oLS0tNjb22rVrW7du1dHR6dOnz6xZszS7lUVSt27dZcuWiXHLli3zN5g+ffqCBQsEQcjLK+Bw0ujRo3v06CGUrDrHO051AuWDDz44fPiwIAhyufzXX3+dMmVKsSbIzs6eNm1aTk6O+Ojt7a3BKgEAAAAAqCBev37dv3//4OBgdRrn5ubu27fv4MGDM2bMmD59ukwm02xSOzu7CRMmFNGgwFSOxM/PT7N5IVGdQPHx8TE2Nk5LSxME4ffffzcxMRk1apS+vr46o0dHR0+dOlXafqKvr9++ffuSLBcAAAAAAC26d+9et27dHj58KL2xsbHp0aNHp06dnJycqlevnpeXFx8ff/PmzcOHDwcFBWVnZwuCkJWVNXPmzGfPnq1du1bjHEoR8vLyrly5UurDQpFaNVCGDRu2YsUK8XHFihUHDhz45JNPvL29XVxcCsykJCUlhYeHh4SEBAYGZmVlSe8HDx5co0aN0lo6AAAAAADl6e3btz179pSyJ8bGxtOnT58wYYJSsQsXF5c2bdp88cUXT58+nThx4r59+8T369evr1+//qRJk0p9Yffu3Xv9+nWpDwtFqhMogiCMGDHi+PHjd+/eFR+joqKWLl26dOlSHR0dW1tbCwsLIyMjAwODjIwMuVweExNT4G9bnTp1vvzyy9JcOwAAAAAA5WjIkCHSHSnW1taBgYFt2rQpor2jo+PevXvnzZs3c+ZM8c3333/fp08fFxeX0l1Y0ed3UCp01GlkYmKyYcOG2rVrK73Pzc198eJFRETElStXzp07Fx4efufOnQKzJzVr1vz999+rVKlSCksGAAAAAKDcnTlzZv/+/WKsq6t74MCBorMnkhkzZgwYMECMs7KyfvvtN8VPfXx8ZDKZTCb7z3/+IwhCXl7emjVrPDw8TExMZDLZ/PnzxWZhYWGy/2/Lli3iy6ioKPHNZ599Jg0oUyC97NSpk/jG2dm5iKU+evRo/vz5H3zwgYODg5GRUZUqVerXrz9o0KCDBw/m5uYW/WW+evUqICCgd+/eLi4u1apV09PTq1q1ap06dXr37h0QEJCUlKTOr1VFptYOFEEQqlevvnv37vnz5x88eLC4c/j6+s6ePZsLjAEAAAAAlZd4x41o8uTJnp6e6vf9+eefb9++/eGHH/r5+b333nuKHxkbG4uBWHv0u+++W7JkSWmst3iysrKmTp0aEBCQmZkpvczIyLh///79+/e3bt3q4eHxxx9/NG7cOH/fvLy8BQsWLFy4UC6XK75PTk5OTk5+8uRJYGDg9OnTAwICFBM9lY66CRRBEMzNzZcsWdK3b99t27adOHFCLIRTBF1dXR8fn/79+3PzDgAAAACgUnv58qV07Y6Jick333xTrO41a9a8fv16gR9JCRS5XH7t2rWff/5Z/WFNTU2HDx8uCEJYWJhUdkN8Uyzp6el+fn7iDbwiCwuLmjVryuXyZ8+eifcih4eHe3l5HTt2LP8lyiNHjly/fr1i33r16pmZmSUnJ9+5c0fMqrx9+3bw4MFZWVkaLK+CKEYCRdSmTZs2bdokJiZevXo1IiLi3r17SUlJKSkpcrncxMTEzMzM3NzcxcXFzc2tRYsW7DoBAAAAAPwPCA0NlWJ/f39LS8vSGlm6myU9PX3x4sV5eXkNGjQYPnx43bp1MzIy6tSpU0RfCwsLMXMxYsQIKYGimMtQ09SpU6XsSadOnRYtWuTh4SE+xsXF/fjjj2JaJykpyd/f/9atW4oFOg4ePCjNaGNjs3nz5k6dOuno/FswJCMjY/369d98801GRoYgCF999VWPHj0q6fUyxU6giCwtLTt16tSpU6fSXQ0AAAAAABXQqVOnpNjHx6cUR9bV1RWD2NjY8PDw7t2779mzx8jIqBSnKNqNGzd+/fVXMe7WrVtgYKC0JEEQqlevvmTJkuzs7F9++UUQhKdPn65ateq7776TGojvRXv27FE6g2JoaDhmzJicnJyvvvpKEITU1NQ//vhDsXslolYRWQAAAAAA3mWPHj2S4latWpXiyNJmjXv37unr62/evLk8syeCIKxcuVIsEKurqxsQEKCYPZEsXLhQuqp58+bNih/Z2tp+8MEHDRs29PDwKKyCx4gRI6SNNoqpqMpFwx0oAAAAAAC8OxISEqS47E6gDB482MLCoowGL1BeXt6uXbvEuHXr1nXr1i2wmbGx8bx586Kjoy0tLa2srPLy8qQrfpTyKQUyMTGpV69eZGSkIAgvX74spbWXN00SKPfu3YuMjOzVq1cRba5cuXLhwoVWrVoplRcGAAAAAKDSSUxMlGJzc/MymuXDDz8so5ELIxY2FeO2bdsW0XLixIklmahq1apikJKSUpJxtKh4CZTTp0//+uuvt27dql69etEJlGfPngUEBAQEBNSpU+frr7/u0qVLydYJAAAAAIDWiDfRiLKzsws851Jybm5uZTFsEW7cuCHFzs7OJRwtJibm1q1bT58+TUlJSU1NVfxFkzaeKL6sXNRNoOTm5i5YsGDLli3io5SgUunx48fjx4/38/ObP39+Gf0JAwAAAACgTCneO5OYmGhra1sWs5TRsEWIj4+XYmtra80GycrKWrVq1caNGxXTMf971E2gzJ49e+fOndJjVlZWamqqqampmt337duXnZ29ePHiYi+wxB49etSnTx/xwiRBEBYuXOjn56eyV1ZW1sWLF4ODgyMiIuLj41+/fl2lSpXq1au7urp++OGH3t7eBgYGai6gFIcCAAAAAGiFnZ3d7du3xfjZs2dlkenQ19eXKq2Wmzdv3kixVCa2WGJiYrp06XLz5s3SW1QFpVYCJSgoSDF7Inrz5k0RCRRzc3NTU9PU1FTpTWBgoKen50cffaTZQjWTk5MzZcoUKXuipitXrkyfPv3x48eKLxMTExMTE+/evRsYGGhvb79gwYI2bdqU51AAAAAAAG1p2LDhsWPHxDgsLKx0L+IRSdfxlCepFqwgCDk5OcXtnp2d3bVrVyl7YmlpOX78+C5dutSrV8/c3FwxH9S6deuLFy+WfMFapPq3Jzs7e9GiRdKjmZnZhAkTjh07ZmdnV0SvDh06XL58ecWKFU5OTtLLxYsXZ2ZmlmC1xbZhw4bi7iDatm3bwIEDlVIeSl68eDFkyJA//vij3IYCAAAAAGiRp6enFB8+fFiLKyld1apVk2LFPRBq+v33369fvy7G7u7ud+/enTVrVuvWratXr660m6bylj6RqN6BEhISEhsbK8YODg5//PGHg4ODOkPr6up26tSpdevWAwcOFC8rSkhIOHz4cO/evUuyYvU9ePDg119/LVaXEydOzJs3T3q0sbH56KOPmjZtam1tnZSUFBkZuXfv3qdPn4qfLly40M7OrnPnzmU9FAAAAABAuzp37qynp5ednS0IQkhIyK1bt5o0aVKsES5evBgSEjJmzBjFnIXWWVlZSXFUVFRxuyueVvnzzz+LqKISHR1d3MErGtU7UE6fPi3Fy5YtUzN7IjEzM/vxxx+lx7CwsGJ111h2dvbkyZOzsrLENajTRS6XT58+PTc3V3zs1q1bcHDwxIkTO3bs2LRp03bt2n3xxRdBQUH9+/cXG+Tl5c2YMaPAG5hKcSgAAAAAgNZZWloqlqSYOnVqsbpnZmaOGjXq+++/d3R0nDFjRsXZjtG0aVMploq8qE86vOPs7Kw4lJKEhIQXL15osLwKRXUCRfrlaNq0qbu7uwZzNGjQoHnz5kqjlbW1a9dGREQIgqCnpzdkyBB1umzevDkhIUGMPTw8lixZkr+Cjr6+/uzZsz/44APx8fXr1wWevinFoQAAAAAAFcGkSZOkiiFBQUHFOvEwYcKEa9euCYLw5s2bZ8+eKVYe0a769eubm5uL8dGjR4touXDhQmdnZ2dnZxcXF+nuntevX4uBvb19EX03btwo7TCovFQnUOLi4sSgWbNmGk8j9ZVGK1ORkZErVqwQ40GDBtWuXVtll7y8POmSZkEQZs2aVcSlyzNnzpTizZs3K/05KMWhAAAAAAAVxHvvvTd8+HDp8euvv165cqXKXrm5ud9+++2qVavERysrK8Uyo2VBPIqhJplM9sknn4jx8+fP//7778Jabt68+eHDhw8fPszOzpaO6ki3O8fExBTW8fnz54oHU4q1vApFdQJFqiIjJaU0YGFhoTRa2cnKypo8ebJ4Ms3Ozm7cuHHq9IqIiJBKvXh4eLi6uhbRuFatWlIBodevX1+9erWMhgIAAAAAVBzLly+XDqrk5uaOGTNmwIABT548Kaz97du3O3bs+PPPP4uPurq627ZtK4srkA0MDKS4uKVMvvzyS2lHzFdffVXgvoeAgIA7d+6I8dChQ6X3jRo1EoOHDx8+ePAgf8dXr175+fklJSU1bNhQfBMXF6fBdT8VgeoEipRPKkmFjqSkJDGoWrWqxoOoaeXKlWLNWkEQfvjhBzULoISGhkqxdKymCN7e3lJ84sSJMhoKAAAAAFBxmJqaHjp0yM3NTXqzfft2V1fXbt26BQQEHDt27MaNG//888+pU6d+/fVXX19fd3d36SdEfX39bdu2+fr6lsXCFO/JXbx4sZihyM3NTU9PV9m3efPmY8eOFeNHjx61atXqr7/+kvaJPHz4cOTIkV999ZX4WKtWrQkTJkh9pbow2dnZn332mWLuJiMjY+vWrS1atLhy5cpXX33Vo0cP8X1aWloR+1wqMtW38FhaWorlPKQrYzRw7949MVAs8FsWbt++vWbNGjEeOHBgmzZt1Oz4zz//SLGHh4fK9optxGIrZTEUAAAAAKBCsbOzCwsL+/LLL3fs2CG+yczMPHz4cNF3Gzs5Of3555+Kf31eujp06DBjxgwxXrVq1ebNm6tXrx4TE7N27dpBgwap7P7jjz/evXtXrIHy+PHjjz76yMjIqGbNmgkJCcnJyVKzatWq7d27V3FjxMiRI3/77TdxD8758+ddXV09PDzs7OxevnwZEREhVkjp0KHDokWLgoKCpF79+/fv2LGjTCbbtm2bmpseKgLVO1CcnZ3F4Ny5c3K5XIM5YmJizp8/L8b16tXTYAQ1ZWZmTp48Wcy0OTg4fPvtt+r3ffTokRTXrVtXZXvFL+Tx48dlNBQAAAAAoKKpVq3a9u3bg4OD1UmIWFpazp079+bNm2WXPREEwdPTU9riIQhCSkrK48eP09LS1OxubGx88ODBCRMm6Ovri2/S09OfPHmimD1p1qxZWFjYe++9p9ixSpUqgYGBtWrVEh/lcvmZM2d27tx55swZMXsyePDgv//+W19fv1u3bi4uLmIzcRPKwYMHxeIblYXqBIp0CEUulxeryLAoOzt72rRp0gGnMv0TExAQcP/+fUEQZDLZokWL8l98U5js7Oznz5+LsYGBgTrbZMzMzExNTcU4NjZWOt9UikMBAAAAACosX1/f06dPR0ZG/vTTT35+fg0aNLCwsNDT0zMyMqpRo4anp+fo0aMDAwNfvnw5Y8YMqThG2dm9e/e0adPq1q2rr69vZmZWp06dXr16STVKVDIwMFi2bFlkZOTcuXO9vb3t7e0NDQ1NTEzq1q07YMCA/fv3h4eHK55dkjRp0iQiIuLHH39s27atpaWlrq6umZlZkyZNRo8effny5U2bNhkbG4vjHz16tG/fvhYWFgYGBrVr1x4wYID4UWUhU3n7dGJiYocOHaTE1ZgxY0aNGiUlpYoWHR09depUafuJvr5+SEhIjRo1SrLiwty8ebNfv37iLTaDBw+eNm2a9NGBAwe+++47MV64cKGfn59S34SEBKmSq4ODQ0hIiDozdu3aVdpscvToUUdHx9IdqrjEarV3797VoG+pU7qUKy9wpLZWAuAdJOu1VvFR5b/p3jV8iwagRXyLLkzFudT2HcefSRRB9Q4US0vLYcOGSY8rVqz48MMP16xZ888//xR2+VBSUlJISMi0adM6d+4sZU8EQRg8eHAZZU8yMjImT54sZk+cnJwmTpxYrO6KR5OMjIzU7KXYUhqhFIcCAAAAAAAVhOoisoIgjBgx4vjx49LWhqioqKVLly5dulRHR8fW1tbCwsLIyMjAwCAjI0Mul8fExIgnnZTUqVPnyy+/LM21K1i2bJm4g0M8vKN+5kKkmLMwNDRUs5diS+l65lIcSjNF35osOXLkSElmAYBKhPJSAFBhVZBv0XXq1NH2EgBUAmolUExMTDZs2DBgwIBnz54pvs/NzX3x4sWLFy9UjlCzZs3ff/+9jA59Xb16ddOmTWI8fPjw5s2bF3eEjIwMKVbzdJLwf+/ZzszMLPWhAAAAAABABaFWAkUQhOrVq+/evXv+/PkHDx4s7hy+vr6zZ88uowuM09PTp0yZIh5Uq1evnnQ3dbEobgAp7FxSfoqZDmmEUhxKMxWkBgoAVBz8vSIAVFh8iwZQiaibQBEEwdzcfMmSJX379t22bduJEydU3jakq6vr4+PTv3//Mr15Z8mSJU+fPhUEQUdHZ9GiRYpbOdSneF+P4haSoqWnp0uxdI1OKQ4FAAAA4B1B7VKg4itGAkXUpk2bNm3aJCYmXr16NSIi4t69e0lJSSkpKXK53MTExMzMzNzc3MXFxc3NrUWLFmW060Ry6dKlzZs3i/HIkSPd3d01G0cxZ6H+RdmK5U6kEUpxKAAAAAAAUEEUO4EisrS07NSpU6dOnUp3NcUil8unTp0qxm5ubmPHjtV4qGrVqunr64snbmJjY3Nzc3V0VN9PFBMTI8XW1talPhQAAAAAAKggVP9sX2H99NNPUVFRgiCYmpouXbpU/Yqt+enq6jo5OYlxVlZWXFycyi4JCQnSCR0HBwdjY+NSHwoAAAAAAFQQGu5A0djr168tLCxKZagDBw6IQWpqqq+vr5q9pk6dKu1b8fLy2rBhgxg7Ozvfv39fjO/du1ejRo2ix7lz544U16tXT/GjUhwKAAAAAABUBOW0AyUvL+/ChQsTJ0709vZWWX1W/TFLZRyRYv2U8PBwle2vXLkixUoXJ5fiUAAAAAAAoCIo8wRKfHz82rVrfX19Bw8eHBQUpP7NvuVMsZ7LyZMnVbY/fvy4FHfu3LmMhgIAAAAAABVBWR3hyc3NDQsL27Vr14kTJ3JycspiipMnT6q5CSU4OHj27NliPGPGjG7duomx4p3HtWvXrl+//r179wRBiIyMDA8P9/DwKGzAixcvSod06tat6+zsrPhpKQ4FAAAAAAAqgtJPoMTExOzZs2fPnj3R0dGlPrgi9WupmJiYKMaWlpYFNhs2bNiUKVPEeO7cubt371bMsEgyMjLmzJkjPY4cObJMhwIAAAAAAFpXakd4srOzjx8/PnLkyPbt2wcEBBSYPZHJZF5eXupc66sVvXv3ljaAREZGjh07Njk5WanN27dvx4wZ8/DhQ/Gxfv36vXv3LtOhAAAAAACA1pXCDpTnz5/v3r173759RVzZW7Nmzb59+/r7+9vZ2ZV8xjKio6Pz008/DRw4MC0tTRCEU6dO+fr6+vn5NWvWzNLSMjEx8fr163v37n39+rXY3tTUdPHixQXmg0pxKAAAAAAAoHWaJ1AyMzNDQkJ27dp17ty5QkfX0/Px8fnkk0+8vb0rRXagcePGy5cvHzt2rFjsNjExcf369QW2NDQ0DAgIaNCgQTkMBQAAAAAAtEuTBMqjR4927969f/9+aQNFfo6Ojv7+/n5+ftbW1iVYnhb4+Pjs379/ypQpERERhbVp3rz5woUL69SpU25DAQAAAAAALSpGAiUjI+PIkSO7du26cuVK0S03bdrUpk2bki1Mm1xcXHbv3n3p0qVDhw7dvHkzNjb27du35ubm1atXb968ebdu3Tw8PGQyWTkPBQAAAAAAtEWmzk3AkZGRu3fvPnDgQP5KqBJDQ8OMjAwxvn37tp5eWV2QjMK4uroKgnD37l1tL0QQBEEpK5QXyAVDAMqPrNdaxUc177x/d/AtGoAW8S0aQOVVVJojNTX10KFDu3btunnzZmFtLCws+vTp4+/vv3r16oMHD5bBCgEAAAAAALSs4ATKrVu3du3aFRQUlJqaWmAD8UJif3//jh076uvrl+UKAQAAAAAAtOz/JFCSk5MDAwN37doVGRlZWAd7e3s/Pz9/f/+aNWuW/fIAAAAAAAC0778JlKlTpwYFBUl1TJTo6+t37tzZ39/f09OToqcAAAAAAOCd8t8Eyl9//ZWbm5u/RYMGDfz9/Xv27Glubl6OCwMAAAAAAKgoCi0i6+zs3LVr165du9arV688FwQAAAAAAFDRFJxAef/990eOHNm6dWsKxAIAAAAAABScQLl06dKlS5eqVq3q6+vbs2fPVq1aUfcEAAAAAAC8s3SkyMDAQOmzt2/f7tmzZ/DgwT4+PsuXL3/+/Hn5rg0AAAAAAKBC+G8C5eTJk5MmTXJ0dMzfKCYmZtWqVZ06dRoyZMjff/+dmZlZjisEAAAAAADQsv8mUCwtLbD8kdUAACAASURBVEeMGBEcHLxp06auXbsWWP3k/Pnz33zzjZeX17x58yIjI8txnQAAAAAAAFqjo/Qsk8natGmzfPny06dPf/vtt7Vr187f582bN1u2bOndu3ffvn23b9+ekpJSLksFAAAAAADQDuUEisTS0vLzzz8/evTo77//3qVLFz29AsrNRkREzJ49u23btt99911UVFRZrhMAAAAAAEBrCr6FRyKTyTw9PT09PePj4/fu3btr1678iZL09PQDBw6U2QoBAAAAAAC0rNAdKEqsra2/+OKL48ePb9iwwdfXV1dXt4jGY8aMOXHiRE5OTmmsEAAAAAAAQMtU7EBRIpPJvLy8vLy84uLixA0pL168yN8sNDQ0NDTUxsbG39/f39/f3t6+lFYLAAAAAACgBeruQFFSvXr1L7/8MiQkZP369Z06dSpwQ0psbOzKlSs7duw4fPjw4ODgrKyski0VAAAAAABAO4q3A0WJTCbz9vb29vaOjY0VN6S8fPlSqU1eXl5YWFhYWJiVlZWfn9/HH3/s6OhYkkkBAAAAAADKmYY7UJTY2NiMGjUqJCRk7dq1HTt2LHBDSkJCwrp163x9famNAgAAAAAAKpcS7UBRoqOj065du3bt2r169WrPnj27d++Ojo7O3ywvL68UJwUAAAAAAChrpbMDRUmNGjXEi3jWrFnToUMHHZ0ymQUAAAAAAKB8lOYOFCU6Ojo+Pj4+Pj6vXr3atWvXnj17YmJiym46AAAAAACAMlIee0Nq1Kgxbty4EydOrF692sfHRyaTlcOkAAAAAAAApaUMd6Ao0dXVbd++ffv27cttRgAAAAAAgFJBdRIAAAAAAAAVSKAAAAAAAACoQAIFAAAAAABABRIoAAAAAAAAKpBAAQAAAAAAUIEECgAAAAAAgAokUAAAAAAAAFQggQIAAAAAAKACCRQAAAAAAAAVSKAAAAAAAACo8G8CZfDgwW5ubm5ubj/88INSi2bNmokfXb16tdyXBwAAAAAAoH164v88ePAgKytLEIRq1aoptcjIyMjNzRUEQfxvAAAAAACAd82/O1BSUlLEIC0tTXuLAQAAAAAAqIj+TaDk5eWJQUREhPYWAwAAAAAAUBH9m0CRTu6cP39+586dOTk52lsSAAAAAABAxfJvDRQXF5fY2Fgxnjlz5qJFi2xtbfX19QWF0idTp041MTEp+ZT79u3T1dUt+TgAAAAAAADl498ESseOHc+ePSu9lcvlDx8+VGr67NmzUplSOi4EAAAAAABQKfx7hMfPz69OnTraXQoAAAAAAEDF9G8CxdjY+Pfff2/ZsqV2VwMAAAAAAFAB6UmRra3t1q1bIyMjr1y5EhMTI5fLxfdbt24Vg86dO9vY2JR8Sh0dnZIPAgAAAAAAUG70lJ4bNGjQoEEDxTfbt28X68gOGTKELSoAAAAAAOAdxGYQAAAAAAAAFUigAAAAAAAAqKB8hCe/1atXi0d4XFxcyn49AAAAAAAAFY7qBEq7du3KYR0AAAAAAAAVluoESoGys7MfPHhw586dR48evX37NiUlJS0tzcTEpGrVqlWrVnVxcWnSpEnt2rVLd60AAAAAAABaUewEyvXr1/fs2XPo0KHU1NSiW9rY2PTt27dfv362traaLg8AAAAAAED7ilFENikp6ZtvvunXr9/u3btVZk8EQYiNjV21alWnTp1WrVqVk5NTgkUCAAAAAABok7oJlOjo6N69e//999/FnSA7O3v58uXDhg3LyMgobl8AAAAAAICKQK0ESkpKyogRI2JiYgoeQkfHxMTEwsLCxMREJpMV2ObChQtTpkzJy8vTfKUAAAAAAABaolYNlI0bNz548EB61NXVbdu2bbt27Ro3buzo6GhpaanYODY29smTJzdv3jxx4kR4eLj0/tChQ+3atevTp09pLR0AAAAAAKB8qE6gvH37dtOmTdKjt7f3jBkzHB0dC2tvY2NjY2Pz/vvvjxgx4tatW3PmzLl165b40W+//dajRw89PQ2v/gEAAAAAANAK1Ud4zpw5I5WM9fX1XbNmTRHZEyVNmjTZsmVL69atxcfnz5+fPXtWs4UCAAAAAABoi+oEysWLF8XA1NR0zpw5urq6xZrAyMjohx9+MDIyEh/Pnz9f3CUCAAAAAABol+oEyu3bt8Wgffv2SuVO1GRvb+/j4yPGV65c0WAEAAAAAAAALVKdQElMTBSDli1bajxNmzZtxCAuLk7jQQAAAAAAALRCdQLlzZs3YmBlZaXxNDY2NmKQlJSk8SAAAAAAAABaoTqBkpubKwZ5eXkaTyPVQMnMzNR4EAAAAAAAAK1QnUAxNzcXg/j4eI2nkfpaWFhoPAgAAAAAAIBWqE6gSCmP8PBwjae5du2a0mgAAAAAAACVheoESuPGjcUgNDRUKihbLCkpKUeOHFEaDQAAAAAAoLJQnUCRLtBJTU2dN2+eVBJFTXl5eXPnzpUyL15eXsVdIgAAAAAAgHapTqB4e3ubmpqK8aFDhyZMmKD+PpS4uLhx48YdOHBAfDQ1Nf3ggw80WygAAAAAAIC26KlsUbVq1aFDh/7222/iY3Bw8JkzZ/r06dOhQ4dmzZpVqVIlf5c3b95cu3YtJCQkMDAwPT1dev/5559LJWkBAAAAAAAqC9UJFEEQhg0bduTIkQcPHoiPcrl827Zt27ZtEwTB2traxsbG2NjY0NAwIyNDLpe/evWqwC0qDRs2HDJkSOmtHAAAAAAAoJyolUAxNTVdv379J598Ehsbq/RRfHy8Otcb165de8OGDcbGxpqsEQAAAAAAQKtU10AR2dra7t27V7MKJj169Ni9e7eVlZUGfQEAAAAAALROrR0oIhsbm3Xr1h07dmzr1q3nz59X2V5XV9fHx2fQoEGenp4lWCEAAAAAAICWFSOBIurcuXPnzp1fvnwZHh4eERFx//79t2/fJicny+VyExOTKlWqmJubu7q6urm5vffee9bW1mWxaAAAAAAAgPJU7ASKyM7Ozs7OrmfPnqW7GgAAAAAAgApI3RooAAAAAAAA7ywSKAAAAAAAACqQQAEAAAAAAFCBBAoAAAAAAIAKJFAAAAAAAABUIIECAAAAAACgAgkUAAAAAAAAFUigAAAAAAAAqEACBQAAAAAAQAU9bS8AwP+mnJxcz+8OXLofp/iyqZPl9V/9VfY9fj1q5Iozj18lS29MDfVSdg9Tf/awf2J2hz068090dKI8ITnDxFDPztKkeV3rvp51erVy1NMldwwAAACgeEigACgTS/bfVMqeqCMxOf2bjRc2hdzTeN6H0W9Hrjh94uZLxZdv5Jlv5Jl3opK2nX7QuLbF5q/bN69nrfEUAAAAAN5B/DUsgNIXGZU0e3t4cXvtOvOw4ehdJcmeXIh81eyrPUrZEyW3n71uN+3g1YfxGs8CAAAA4B1EAgVAKcvNzRv6S2h6Vo76XaLiU3rNO9JvcUjsm3SN542MSuo253BKerbKlslpWZ/8eDyjOCsEAAAA8I7jCA+AUrb0wM0Ld2PFWCYIearan7jx4qMfjr5Ny1J8aWakp04qRNGolWdep2YqvnGwMvVvW6eGucn9l292nH4oz/zvgA9j3q4LvjO2h1uxpgAAAADwzmIHCoDSdO9F0sytV6TH7u/VVtnl5pNExeyJi23V4/O6d2leq1jz/nXhSWhEtOKbvm3q3Fvdb9kIzyn+zTaMb3f917421YwUG6w/GlmsKQAAAAC8y1TvQImPj8/LyxMEwdzcXF9fX7Nptm7dGh0dLQiCt7d3q1atNBsEQAWXm5s39JdTaZn/Ho3xbebQ2tXm78vP1OxuqKczxb/Z1I+bG+rrrjr0T7GmXn34/7RvYG++5Zv2Rgb//RbnYldtVn+PXwIjnGyqONqYOdlUcapRJTc3T0dHVqyJAAAAALybVCdQvL29c3NzBUHYunVry5YtNZsmPDw8KChIEITY2FgSKMD/quWBt85FvhJjI33dlaO8NoXcVbNvR3e7laO86tubazBvYnJ6yI0Xim++/6S5YvZENLpb49HdGmswPgAAAACUUw0Ue3t7Mfjnn+L9rTKAyuLByzfTt1yWHmf196hnW1WdQq01zI03f91+UHsXjac+ei0qO/e/tVb0dXV6t3LUeDQAAAAAyK+cEiiZmf9WdoyP5+pQ4H9QXl7esF//e3inpbP1pI/cBUHIVVlCVhD6t3Mu4ew3nyQqPro7WVYxMZAeM7NyYt+kmRrpm5sayGQc2AEAAACgifJIoGRnZ1+4cEGM3759Ww4zAihnvx6MOPNPjBgb6On8/pWPrm751aiOePp/EigudtUEQYh/m/7rwYidZx7ef/lGTOOYGen5NLH73LdBr1ZO5bY2AAAAAP8blBMoERERYsnY/B4/fmxoaFis0bOzs6Ojo/fv3x8Z+e9tFzo63PsD/K95GP122p//Pbwz/ZMWbo6W5bmAx6+SFR+rVzMKufFi4M8nXiWlKb5PSc/++/Kzvy8/823msPO7juZmxfuGBgAAAOBdppxA+fjjj8WSsflNnz695PM5OTmVfBAAFUdeXt7wX0/JM7PFx2Z1rKb4NyvnNbyVZyk+PnmV/NEPR5PTsgprf/R6VIfpf/8/9u47PKoq/+P4d9I7ISQBCYROUPpGkQAhUQgoSMe2uktnXcGylhVEV5DFhm0VBRQVhB8lBBEEhKWIKCBIJ0DoJQghlfQ+8/tj3OtkJpk7SaYlvF+Pf5x75tzvPTyPz03ymXPP3fPOMNONZgEAAACgUvZeDzJo0CA7XxGATX2y8cSPJ67r224umq+eiXF3s/eNJbewxPDwu1+vmElP9A5fyHhp8X5bTgoAAABAvWL8d0779u1tt8li586dx40bZ6PiAOzvYkrOtCV/xBDTH+zerXWw/adRUFxm2tn79sbbZg/OXTUuf/X4XW8OubdLU6MBCzefvJ5ZYJcJAgAAAKjzjJevr1u3Lj8//9ixY8eOHTt69OjRo0et8t6cZs2ajRgxYtKkSdXdRQWA09LpdBM+3pX/v/CiU3jDVx7q7pCZeHm4FZdVWITSt2OTbbMfUNbCRHe87b+zBg1+ffOWw1eVMcVl2m/2XpwyuKNd5woAAACgbqrk+X9fX9+oqKioqCj94e23367fFeXNN9+8/fbbq3sBDw+PRo0aBQYG1nKiAJzN/O9P/nD8mr7t6qL56plYD3dXh8zE39s9u6BCgPL2mLuNniRydXV5a0wPwwBFRHafSiFAAQAAAGCJamygGB4eXoMABUC9dDk196XF+5TDF0Z0ubNdiKMm08DX42pGvnLo4eZyd0So6bBurYMb+Xtm5BYrPclp+abDAAAAAMAUb6AAUBM/HLuWV/THziNvrzn69pqjqmcdvZSpGfqZvj1l0B3znuhjlcm0b9rgxJUs5dDL3bWqvZwaB3obBihG61YAAAAAoCrqAcqSJUt0Op2IRERE2H4+AFBtXVs1WvvLJeUwt7A0v6jU18vddGRRSbnhob93JWMAAAAAwJR6gNKjRw87zAMAauzu9hUe2NGJ/Jh4fdCd4UbDCorLrqTlGfaENvC2+eQAAAAA1AvGrzEGgDqnX9ewYH8vw573vz1mOmzlrnNlWp1hT8/KtkoBAAAAAFPsgQKgJob3bGnJrrHvfXts8fYzymFEWIOEaXH6dqOKkUdtuLu5/Dmm7UcbEpWe7ceuzVpx8LVHI5WepKs3py3Zb3TifZHNrTUHAAAAAPVbtQOUK1eunDx58urVq3l5eYWFhfo3HFfL9OnTXVxY+QLUbYF+noF+nqrDjFISL3fXTi2CjMZcTc+7mW+8mWtOYYUerU6XeDnTaEzTIJ+g/9Wf8VD3pT+cyTKoM3PFwf8evjoyqpWft9uRCxlf7zhbUFJmePqAbs26tmqk+k8AAAAAALE8QNFqtStXrly2bNn58+drecmXXnqJAAWA4oUvf1n18wXzYwpLyjs/lWDU+fHkXlMf6KRvhwZ6vz8hatxHPxoO2JN0Y0/SjUoL+nu7fzAxqqZTBgAAAHDLsShAKSwsnDx58v79xqvfAcB5jO0fkZFb/MJXv6iO9PFwW/FCvzvCG9phVgAAAADqB4sClBkzZtSJ9OT69evr168/fPjw2bNns7KyioqKfH19GzRo0K5du27dug0ePLhZs2YWliotLd23b9+WLVsSExPT09OzsrL8/f1DQkIiIiLuu+++6OhoDw8P+5cCYN7zI7q0axrw7KK9F2/kVjUmsk3wF0/H8PAOAAAAgGpRD1CSkpI2btxo2u/v7+/n5+fmVu1dVDQaTXVPUZWWlvb2229v2LBBp6vwio2cnJycnJzk5OQdO3a8//77999///Tp0xs3bmy+2oEDB1555ZWLFy8admZmZmZmZp4+fXr9+vVhYWFz5syJilJf/2/FUgAsMfTulgO6N/tu/5V1+y4dPJeeml2YW1ga6OvRNMin9+1NhvVsOaC7pUEqAAAAACg0RomDqbfeeuurr75SDnv37j1u3Lhu3br5+/vbeG6WOn78+KRJk7KysiwZ3LBhwyVLlkRERFQ1YPny5bNmzbKk1MsvvzxmzBgzA6xYyhL6f9Tp06drWccqjGIy3frJjpoJgFuQZuhnhoeqP+luNdyiATgQt2gAdZf6+pFDhw4p7SlTpjz99NO2nE+1JScnjx07Ni8vT+mJjo6OjY1t1aqVp6dnbm7u6dOnN23apMQKWVlZEyZM+P777ysNgHbs2DF79mzlMDQ0dMSIEV27dg0ODr5582ZSUtKaNWsuX76s//TNN99s2rRpXFxcpROzYikAAAAAAOBY6itQ+vTpk5aWJiItW7bcvHmzLR7AqY0xY8b88svve0aGhoZ+/PHH3bp1Mx325Zdfvv3228rhxIkTX3zxRaMxBQUF/fv3z8jI0B8OGjRozpw5Pj4+hmNKS0vnzJmzYsUK/WHDhg23bdvm5+dnu1KWYwUKAOjx9aZ53KIBOBC3aAB1l/rrhHNycvSN3r17O1t6cuLECSU98fDw+OqrrypNT0Rk/Pjxf/nLX5TDSnd1Wbp0qRJ5REZGvvvuu0aRh4i4u7vPnDmzb9+++sOsrKwlS5bYtBQAAAAAAHA49QDF1dVV3wgLC7PxZKpt27ZtSnv48OFt27Y1M3jixIlK+/r160rAoafT6ZYtW6Ycvvbaa8o/3NS//vUvpb106VKtVmujUgAAAAAAwBmoByhBQUG/D3VRH2xn/v7+0dHRnTt3Dg8P79evn/nBTZo0adiwoXJoFKAkJiampqbq25GRkWZ2mRWR5s2b9+rVS9/Oysoy3CbGuqUAAAAAAIAzUM9ElL//MzMzbTyZahs/fvyiRYsSEhK2bt0aGxurOt7wpcteXl6GH+3cuVNpK4/VmBEdHa20d+zYYaNSAAAAAADAGagHKDExMfrGgQMHbDwZ20pPT09PT9e3vb29b7vtNsNPT548qbQjIyNVqxmOSUxMtFEpAAAAAADgDNQDlCFDhuiffDl8+HBSUpLtp2QrX3zxhbLL97333uvu7m746YULF5R269atVau1adNGaV+8eNFGpQAAAAAAgDNQD1B8fHxmzpwpIjqdbsaMGQUFBTaflLVptdpFixZ9+eWX+kMfH5+nn37acEBZWVlycrK+7eHh0ahRI9Wafn5+vr6++nZqampeXp7VSwEAAAAAACdh0b6w991336uvvqrRaBITE8ePH3/16lVbT6v2tFptbm7uiRMnvv766xEjRsydO1ff7+Pj89FHH7Vs2dJwcHZ2dnl5ub4dGhpq4SUaN26stJUtaa1YCgAAAAAAOAk39SEiIvL444+3aNFixowZhw8fHjx48NChQwcPHty5c2dl6YTzuO+++yp9EMbFxSUuLu7FF19s3ry50UeGy2qMNpc1w3CkUsGKpQAAAAAAgJNQD1DmzZuXl5dXUFBQVFQUERFx48aNoqKi+Pj4+Ph4EQkICPD396/WG463bNni6upa8ylXn7e396hRo8aNG9esWbNKBxhmFp6enhaWNRyZn59v9VI1Y/6tyYrNmzfX5ioAUIewvRQAOC0nuUW3atXK0VMAUAeoByiffPKJVqut6tOcnJycnJxqXVLZydVuCgsLly1btmbNmnvuuedvf/tbhw4djAYUFxcrbaPNZc3w8PBQ2iUlJVYvBQAAAAAAnISlj/DUIU899VROTo5Wq83Pz09NTT116tShQ4e0Wm1hYeGmTZu+//77KVOmTJ06VaPRKKcYLgApLS218EKGSYdSwYqlaub06dO1OR0A6h++VwQAp8UtGkAdUg8DlMGDBxv1ZGZmLly48Ouvv9ZqtTqdbt68eeXl5c8++6wywMfHR2kbLiExr6ioSGkre8FYsRQAAAAAAHAS6gHKsGHDvL293d3dXV1dNRpNtbY7qVTtK1RXUFDQ9OnT//SnPylvL54/f35cXFzHjh31h4aZRWFhoYVlDbc7USpYsRQAAAAAAHAS6gHKW2+9ZYd52MHAgQMffPDB1atX6w+/+uqrd999V99u0KCBu7u7/omb1NRUrVZrScqTkpKitIODg61eCgAAAAAAOAl7LwZxrBEjRijtPXv2KG1XV9eWLVvq26WlpWlpaaqlMjIylCd0mjVr5u3tbfVSAAAAAADASdxaAYoSbYhIRkaG4datbdu2VdpnzpxRLXXq1Cml3aZNG8OPrFgKAAAAAAA4gzocoKSmpn700Uevvvrqk08++cQTT1hySllZmeGh4Yt4unTporQPHjyoWurAgQNKu3v37oYfWbEUAAAAAABwBnU4QHFzc/vkk0/i4+O3b9/+ww8/XL9+XfWU5ORkpR0QEODu7q4c9u/fX2n/8MMPqqW2bdumtOPi4gw/smIpAAAAAADgDOpwgBIUFGT4SE5CQoLqKdu3b1faHTp0MPwoPDy8ffv2+nZSUpL5lSP79u07e/asvt26dWvDZ3asWwoAAAAAADgD9bfwbNq0SafT1fIyWq22vLy8pKQkPz9/7Nixhs/O1MbIkSPff/99ffuLL74YNGiQmT1ELl68uGLFCuUwNjbWaMD48eOnTZumb7/++uurV6/28PAwrVNcXDxr1izlcPLkyaZjrFgKAAAAAAA4nEY1HLn99tu1Wq0VL3nixAk3N/XgxhJZWVn3339/VlaW/jA0NPS9997r0aOH6chDhw4999xzymM+gYGBW7duDQgIMByj1WqHDBly7tw5/WFMTMx7773n7+9vOCYnJ+e555776aef9Ift27dft26d6YuKrVjKchERESJy+vTpGlewIqOMTLeebAiA/WiGfmZ4WPuvAeoZbtEAHIhbNIC6q24HKCKydevWqVOnGvZERkbGxMS0bt3a19e3oKDg8uXLu3bt+uWXXwzHzJ07d+jQoZXO7bHHHissLNQfBgUFjRw5slu3bkFBQZmZmUeOHFmzZo2S1/j6+i5fvtzoUSBblLIQAQoA6PHbuXncogE4ELdoAHVXnQ9QROTbb7+dMWOG0Rt2quLi4jJt2rQxY8ZUNWDnzp1Tp04tLS01X8fT03P+/Pm9e/c2M8aKpSxBgAIAevx2bh63aAAOxC0aQN1lj01kW7Ro0a5du06dOt15552xsbG1eUqlUsOHD//222979uypOvKOO+5YsWKFmfRERGJjY9euXdupUyczY7p3775u3TrVyMOKpQAAAAAAgAOpr0ApKCiwPBjWarU5OTk3btw4evToxo0bjx8/LiJ33XXX7NmzW7VqVdvJqjl//vz3339/7Nixc+fOZWdnFxQUeHt7BwQEtGjRokuXLv379+/atauFpbRa7f79+zdt2nTs2LHU1NScnJzAwMCQkJDu3bsPGjQoMjLS8n1wrVjKPFagAIAeX2+axy0agANxiwZQd6kHKLXx888/v/zyyzdu3PD19f3ggw9iYmJsdy0QoACAHr+dm8ctGoADcYsGUHfZ9hGePn36rFy58rbbbsvPz58yZcrBgwdtejkAAAAAAABbsPkeKE2bNn3jjTdEpLS09KWXXlLdURUAAAAAAMDZ2GMT2V69et1xxx0ikpycvHnzZjtcEQAAAAAAwIrsEaCIiPKWma1bt9rnigAAAAAAANZipwClcePG+saJEyfsc0UAAAAAAABrsVOAomz4n5qaap8rAgAAAAAAWIudApT09HR9o6SkhHeVAQAAAACAusVOAcqvv/6qb/j5+SmrUQAAAAAAAOoEewQo27ZtO3DggL4dGhpqhysCAAAAAABYkZtNq2dlZS1btuzzzz9Xerp27WrTKwIAAAAAAFideoDy7LPPlpeXV6toeXl5fn7+9evXr1y5YrTjycCBA6s3QQAAAAAAAEdTD1C2bNmi1WqtcrFOnTrFxsZapRQAAAAAAIDd2GkTWREJDQ396KOP2EEWAAAAAADUOfYIUNzd3UeMGLF+/fqwsDA7XA4AAAAAAMC61B/h6dGjR3X3QNFoNF5eXn5+fmFhYXfccUevXr0CAwNrOkMAAAAAAAAHUw9QlixZYod5AAAAAAAAOC377YECAAAAAABQR6mvQAEAAECddvZa9v/tPLs3KfVkclZWXnFJmTbAx71xoHeXlo3u6dz0wT6tG/p5Wlhq25Grkz/56eKNXKXH19Mtb/V4M6fM/eboPxfvq9aEXxrV9a0xd1frFAAAbI0ABQAAoN76LSP/mc/2rNl70ag/I7c4I7f4ZPLNlT+df+bzPf8c2fXlh7p7uruaKZWZW/T8l78s3n6munO4mV9c3VMAAHBCBCgAAAD10+Hz6QNf25SWU2R+WFFp+eurDu06cf27V+/z83avdEz8T+ef+mx3arZKqUrdzCupwVkAADibGgYoZWVl586dO3Xq1IULF3JycvLy8goLC318fAICAgICAtq1a9e5c+fw8HDrzhUAAAAWSskqGPCvTem5lkYeOxOvP7toz6KnYoz6r6bnPTn/5+9+vVLjmWSxAgUAUC9UO0A5cuRIQkLCpk2b8vPzzY8MDQ0dNWrUww8/KRHrOgAAIABJREFUfNttt9V0egAAAKiJfyzaa5SeuGhkQPdmHcODPNxczl7LXr//ckmZ1nDAF1tPv/LQn1o29ld6dhz9bcQb/80pLDUc5ufllldUZvlMjFag3PenZnPH9TR/SkiAl+X1AQCwj2oEKDdv3pw9e/aGDRssHJ+amjp//vzPP/986tSpkydPdnU191QtAAAArOVaRn7C7guGPSEBXltnD+7aqpHSczElp+/0765mVPhKbMOvl6c+0Ek5PHYp0zA9aXdbwPwno+dvOmm6qYoZRitQWob6d2oRZPnpAAA4CUtfY3z9+vVhw4ZZnp4oysrKPvzww/HjxxcXs3oTAADAHrYe+a1MqzPs+XBSL8P0RERaNQl4a0wPoxMvpeZVWtDTzeW1R/50fN6D/bqGVXcyRitQgvwtfeMPAABOxaIVKHl5eRMnTkxJSan0UxcXFy8vL09Pz+Li4sLCQp1OZzrml19+mTZt2vvvv6/RaGo1XwAAAKgJD/Gb/didhj0P3FXJ5nSRbUOMeir9Ra1fl6af/r1P+7DAmk3GaAVKkB+P5wAA6iSLApQvv/zy3LlzyqGrq2vv3r1jYmI6duzYokWLoKAKizBTU1MvXbp07NixHTt2HDx4UOnftGlTTEzM8OHDrTV1AAAAVOqeLk3v6dJUdViGyQt6IppVSEkaB3ov/cc9j9/TrjaTuZlXMUBhBQoAoG5SD1BycnIWL16sHEZHR7/66qstWrSoanxoaGhoaGiPHj0mTpx4/PjxWbNmHT9+XP/RvHnzHnjgATc33p0MAADgYOXl2rfXHDHs8fFwG9qjwu94j8a0reVVikrKiituVRvk53ktI//TTSe3HE4+dz2noLgsyM+zzW0B/buGjY/rEB7iV8srAgBgI+p7oPz000/KC3cGDBiwcOFCM+mJkc6dOy9btqxnz983Wk9OTt69e3fNJgoAAIDaKy3T/paRv2bPhb7TvzN6OfGbY3qEBnpb93JZFTdAEZF1+y61/dvKOasPHziXfjO/pKRMm3KzcPepG7NWHmr3t5XTluwrL9dWWgoAAMdSXwyyb98+fcPX13fWrFnVfZmOl5fXG2+8MWjQoKKiIhHZu3dvTExMDSYKAACA2uj2dMLRS5mVfuTp5vLWmLufHtKp0k9r42a+8WsEvtp+pqrBJWXat9ccPX4pc90rA91cLX3XAQAA9qH+k+nEiRP6xj333GO03YmFwsLCYmNj9e0DBw7UoAIAAABsoU2TgOeHd0ma//Czwzrbon5WXrXfw7jpYPK0JfttMRkAAGpDPUDJzPz9m4o777zT/EgzoqKi9I20tLQaFwEAAIAVNfT16NoqqHmwr6d79ZYYW+5mvvEjPCLi6qKJ7XTb1MEdn7z/jh7tjN8EJCIfrj9+7lq2jaYEAEDNqD/Ck539+0+vRo0a1fgyoaGh+sbNmzdrXAQAAABWlJVf8s3eS9/svfTS4n3PDuv878fvsvqDM6YrUDqGN1z5Yr9OLf5Y1/z9wSsPv7M9t7BU6SnX6j7ecOI/k3tZdzIAANSGeoCi1f6+j5dOp6vxZby8vPSNkpJKvoUAAACArY2P63AtM7+sXJeZW3T0YuahC+nKR8Vl2rfXHD12MfO7Vwe6WjVD6dWh8eqX+hv2xHZuGhzgZdhzf2T4/L/3efz9Hww7tx65asVpAABQe+oBSmBgYGFhoYikp6erDq6Kcm7Dhg1rXAQAAAA1ZrRH7KnkrHH/+XHfmVSl5/tDyXPXHps2upsVL9qqSUCrJgGqwx7t2/alxft+yyz4Y3pXbxYWl3l7qv+yCgCAfah/w6BEHgcPHqzxZQ4fPmxUDQAAAA50e/OG/319UNMgH8POud8cdchbhF1cND3ahxp1ZuQW2X8mAABURT1A6dixo76xc+dOZUPZasnLy9u8ebNRNQAAADhWgI/HQ31aG/Zk5hUfuZjhqMkY9RSWlDtkJgAAVEo9QFFeoJOfnz979mxlSxQL6XS6119/XUle+vTpU90pAgAAwHI6ne7ctew9p1LW7r24cPPJ2SsPffxdYlWDmwb5GvVcN3iOxp5M15sYbZUCAIBjqT9WGh0d7evrm5+fLyKbNm0qLy+fOXNmUFCQ6okikpaWNmvWrK1bt+oPfX19+/btW5vpAgAAQNWdz63NLvhj534/L7cn7r/D3a2Sb85M4xIf6207kplbtOD7U2k5hek5RWnZRek5RUN6tHjt0UjTkeXl2l/Pphn2BHi7B/oar0kBAMCB1H9ABgQEjBs3bt68efrDLVu2/PTTT8OHD7/33nu7devm7+9vekp2dvbhw4e3b9++fv36oqI/vkyYNGlSYGCgtaYOAAAAUxqN5s62wduPXVN68orKvtyW9Lf77jAaWVauXb//slFnWCPjNSk15uvlPnvVoaLSP57EuZya99ywzv4mT+ss33Xuxs1Cw55+XcM0Go21ZgIAQO1Z9A3D+PHjN2/efO7cOf1hQUHB8uXLly9fLiLBwcGhoaHe3t6enp7FxcUFBQU3btyodKuU22+/fezYsdabOQAAACr3cHQbwwBFRP6xaG9DX8+HotsoPWnZhU8t3H0+JcdwWFiQT0Qzq33d5enuGtct7Ltfryg96blFo97auvqluAYGq0u2Hbk6dcFuo3MfMZgqAADOwKIAxdfXd9GiRQ899FBqaqrRR+np6Za83jg8PPyLL77w9vauyRwBAABQHX+OaTtzxcFrBo/nFJaUPzx3+6yVB7u0bNTQz/PSjdzdp1JyCkuNThzbL8Lw8Gp63s38EqMxOYUVerQ6XeJl4y/Pmgb5BPl7ichzw7sYBigisvXIby0mLB/es2XrJv4lpdrdp1J2Jl43Or1ry6AHK+5uCwCAw2l0Op2FQ1NTU2fMmLFr167qXuOBBx549dVXeXjH1iIiIkTk9OnTjp6IiIjRmlvd+smOmgmAW5Bm6GeGh5b/pLtFcIu+RWw6cOWB1zdX6//+FiF+ifMe9PN2V3oeeWfbqp8v1ODqH0/uNfWBTvr2uP/sXLz9jOXnNvDx2PPOsDvCG9bgunB+3KIB1F3qb+FRhIaGfv755/PmzVPey2Oeq6trv379vvrqq/fee4/0BAAAwJ4G3Rm++NlYVxdLtxFpGuSzdfZgw/TEWj59os/gO8MtHBwS4LX+lYGkJwAAJ1TtXdbj4uLi4uKuXbt28ODBxMTEs2fP5uTk5ObmFhQU+Pj4+Pv7BwYGRkREdOrU6a677goODrbFpAEAAKDqr/e27xjecMqC3fvOGD+FbcjVRfPnvm0/mBjVyDavDfb2dPt2xoAP1x9/feWhXJOHhhQuGhnes+VHk3tbcRdbAACsqIavqWvatGnTpk2HDBli3dkAAADAiiLbhvzy7vADZ9MS9lzYfybt7LXsrLzi4tJyf2/3RgFenVsERXVo/OeYtrbOLNxcXV4Y0fVvA29fs+fi1iO/Hb6QnpJVkFtY6u3pFuTn2aFZYHTHJg/2bt0+jDXLAADnVY09UODk2AMFAPR4wN48btEAHIhbNIC6qxp7oAAAAAAAANyaCFAAAAAAAABUVHsPFK1We+XKlWvXruXn5xcWFtZg0d3QoUONFg8DAAAAAAA4s2oEKFu3bl2zZs2ePXuKi4trc8nBgwe7udVw81oAAAAAAAD7syjIyM/Pf/rpp3/++WdbzwYAAAAAAMAJWbQHyrPPPkt6AgAAAAAAblnqK1B27969a9euqj51can2NrRsgAIAAAAAAOoW9QBlw4YNhodRUVFDhw7t2LFjWFiYt7e3q6urzeYGAAAAAADgFNQDlCNHjijtl156afz48bacDwAAAAAAgNNRfwAnPT1d32jXrt24ceNsPB8AAAAAAACnox6gFBYW6ht9+vRh+xIAAAAAAHALUg9Q/P399Y3Q0FAbTwYAAAAAAMAZqQcobdq00TeKiopsPBkAAAAAAABnpB6g9OnTR984c+aMjScDAAAAAADgjNQDlFGjRnl6eorIzp0709LSbD8lAAAAAAAA56IeoISEhDz//PMiUlhY+PLLL5eUlNh+VgAAAAAAAE5EPUARkTFjxkyaNElEdu3aNW7cuAsXLth4VgAAAAAAAE7EzcJxL7zwQocOHf79738fOHBg8ODBUVFRsbGxHTp0CA4O9vX1dXGxKIjRCwkJqdFUAQAAAAAAHMPSAEVEevbs+cgjj8yfP1+r1e7evXv37t01u+SJEyfc3KpxXQAAAAAAAMeyKMjQ6XSLFi2aN28ebzIGAAAAAAC3IIsClA8++GDhwoW2ngoAAAAAAIBzUt+75MyZM5999pkdpgIAAAAAAOCc1FegJCQk6HQ65TAgICA2NvaOO+4ICwvz9vb28PCo7iVdXV2rewoAAAAAAIADqQcov/76q9IeOHDgG2+84efnZ8spAQAAAAAAOBf1AOW3337TN4KDg9955x0vLy8bTwkAAAAAAMC5qO+BUlBQoG/ce++9pCcAAAAAAOAWpB6geHt76xvh4eE2ngwAAAAAAIAzUg9Qmjdvbod5AAAAAAAAOC31AKVHjx76xuXLl208GQAAAAAAAGekHqA8+OCDGo1GRLZv315UVGT7KQEAAAAAADgX9QClTZs2kyZNEpHMzMx3333X9lMCAAAAAABwLuoBioj84x//eOSRR0Rk6dKls2fPZh0KAAAAAAC4pVgUoLi4uMyaNWvu3LlBQUHLli0bOHDgvHnzTp06VVJSYuv5AQAAAAAAOJyb6oh58+bl5eUVFBQUFRV16tRp165dKSkpH3/88ccff+zm5tagQQM/Pz8XF4uCGL2NGze6urrWYs4AAAAAAAB2pR6gfPLJJ1qtttKPysrKMjIyMjIyqnVJnU5XrfEAAAAAAACOVY2VIwAAAAAAALcmAhQAAAAAAAAV6o/wDBs2zNvb293d3dXVVaPRVGu7k0rVvgIAAAAAAIA9qQcob731lh3mAQAAAAAA4LRYDAIAAAAAAKCCAAUAAAAAAECFvQOUrKwsO18RAAAAAACgluwUoOh0ul9++eW5556Ljo4uKyuzz0UBAAAAAACsQn0T2VpKT0//5ptvVq9efeXKFVtfCwAAAAAAwBZsFaBotdqff/45Pj5+x44d5eXlNroKAAAAAACAHVg/QElJSUlISEhISLh+/brViwMAAAAAANif1QKUsrKynTt3xsfH//TTT1qtttIxGo2md+/eLi68+gcAAAAAANQlVghQkpOTV69e/c0336SlpVU1pkmTJqNGjRo9enTTpk1rf0UAAAAAAAB7qnmAUlJSsn379vj4+D179lRZ3c0tNjb2oYceio6OZuEJAAAAAACoo2oSoFy4cGH16tVr167NysqqakyLFi1Gjx49cuTI4ODgWkwPAAAAAADA8aoRoBQXF2/evDk+Pv7AgQPmRy5evDgqKqp2EwMAAAAAAHAWFgUoSUlJq1evXrduXW5ublVjPD09i4uL9e277rrLOrMDAAAAAABwAuYClPz8/E2bNsXHxx87dqyqMQ0bNhw+fPjo0aMXLFjw3Xff2WCGAAAAAAAADlZ5gHL8+PH4+PiNGzfm5+dXOkCj0fTp02f06NH9+vVzd3e35QwBAAAAAAAcrEKAkpubu379+vj4+KSkpKpOCAsLGzly5OjRo5s0aWL76QEAAAAAADjeHwHK9OnTN27cqOxjYsTd3T0uLm706NG9evXSaDT2mh4AAAAAAIDj/RGgfPvtt1qt1nREhw4dRo8ePWTIkMDAQDtODAAAAAAAwFlUuYls27Zt77///vvvv79Nmzb2nBAAAAAAAICzqTxA6dGjx+TJk3v27MkGsQAAAAAAAJUHKPv379+/f39AQMCAAQOGDBly9913s+8JAAAAAAC4ZbkoLQ8PD6PPcnJyEhISxowZExsb++GHHyYnJ9t3bgAAAAAAAE7hjwDlhx9+ePHFF1u0aGE6KCUlZf78+f379x87duyGDRtKSkrsOEMAAAAAAAAH+yNACQoKmjhx4pYtWxYvXnz//fdXuvvJ3r17n3/++T59+syePTspKcmO8wQAAAAAAHAY4z1QNBpNVFRUVFRUZmbmmjVr4uPjr1y5YjQmOzt72bJly5Yt69Spk/4Nx35+fvaasDnFxcWbN2/evXv38ePHMzIy8vLyvLy8GjRo0LZt227dug0ZMiQ8PNzCUqWlpfv27duyZUtiYmJ6enpWVpa/v39ISEhERMR9990XHR1t+sSTHUoBAAAAAACH0Oh0OjMf63S6vXv3rly5cvv27WVlZZWO8fLyGjhw4JUrVw4fPqzvOXHihJtblS9ItgWdTrdy5coPP/zw5s2bZoYNHDjwtddea9SokflqBw4ceOWVVy5evFjVgLCwsDlz5kRFRalOzIqlVEVERIjI6dOna1+q9ox2Hdatn+yomQC4BWmGfmZ4aP4n3S2IWzQAB+IWDaDuUglQFOnp6foFKVevXlUdbOcApaSk5JlnntmxY4clgxs1arR8+fKWLVtWNWD58uWzZs2ypNTLL788ZswYMwOsWMoSBCgAoMdv5+ZxiwbgQNyiAdRdlgYoejqdbvfu3atWrdq+fXt5eXlVw2JjYx9++OGYmBhXV1drTFLFlClTtm3bphw2adJk+PDhXbp0adCgQX5+/pkzZzZs2GC4Y0uzZs02bNjg7e1tWmrHjh1TpkzRarX6w9DQ0BEjRnTt2jU4OPjmzZtJSUlr1qy5fPmy/lONRvPxxx/HxcVVOisrlrIQAQoA6PHbuXncogE4ELdoAHVX9QIURVpamn5Bym+//VbVmNDQ0NGjR48ePTosLKwWM1SRkJAwY8YM5XDs2LHPP/+86a4iX3755dtvv60cPvPMM08++aTRmIKCgv79+2dkZOgPBw0aNGfOHB8fH8MxpaWlc+bMWbFihf6wYcOG27ZtM90CxoqlLEeAAgB6/HZuHrdoAA7ELRpA3eWiPqQyISEhTzzxxPbt2xctWtS/f/9KV5qkpqZ++umn/fr1mzBhwpYtW0pLS2s31UrodLoFCxYoh4888sj06dMr3ZN1/Pjxf/nLX5TDb775xnTM0qVLlcgjMjLy3XffNYo8RMTd3X3mzJl9+/bVH2ZlZS1ZssSmpQAAAAAAgMPVcAWKkdTUVP2ClGvXrlU1plGjRiNHjnzwwQdbtGhR+yvqHTp06NFHH9W3vb29f/75ZzMrONLS0vr06aMc7ty587bbblMOdTpd3759U1NT9Yfr16/XL+ioVHJycv/+/fXthg0b7tmzx8XljyjKiqWqhRUoAKDH15vmcYsG4EDcogHUXTX8W91IaGjo3//+9+3bt3/22Wf9+vWrdEFKRkbG559/PmDAADObp1TX0aNHlXZ0dLT5519CQkIMX2OckpJi+GliYqISeURGRpqJPESkefPmvXr10rezsrIOHTpko1IAAAAAAMAZWPNdOS4uLjExMTExMTdu3EhISFi9evX169dNh1kxZv7rX/86ePDg9PT0tLS00NBQ1fENGjRQ2oWFhYYf7dy5U2krj9WYER0dvWfPHn17x44dd955py1KAQAAAAAAZ2CTlw03btx4ypQpf//733ft2rVq1aqdO3cqL6OxLldX19DQUEuiE70bN24YTtLwo5MnTyrtyMhI1VKGYxITE21UCgAAAAAAOAObBCh6Li4usbGxsbGxN27ciI+PT0hIMHpqxs5u3LiRlpamb/v7+zdv3tzw0wsXLijt1q1bq1Zr06aN0r548aKNSgEAAAAAAGdgnT1QzGvcuPFTTz21Y8eOBQsWxMbGGu1dZzfx8fHK00MDBw40fFlPWVlZcnKyvu3h4dGoUSPVan5+fr6+vvp2ampqXl6e1UsBAAAAAAAnYY8ARc/V1fWee+5ZuHBhpVvM2trly5e/+OILfdvd3X3SpEmGn2ZnZytb21r+QJDhQ0DKS4utWAoAAAAAADgJ+wUoDpSfn/+Pf/xD2TV2woQJLVu2NBxQUFCgtL28vCwsazhSqWDFUgAAAAAAwEnU/wClqKhoypQpJ06c0B9GRUU99dRTRmMMMwtPT08LKxuOzM/Pt3opAAAAAADgJGy4iawzuHnz5hNPPHH48GH9Ydu2bT/88EM3N+N/dXFxsdJ2d3e3sLjhLiolJSVWL1UzERERlgzbvHlzba4CAHUI+3MDgNNyklt0q1atHD0FAHVAfV6Bcv78+YceekhJTzp06PD1118HBgaajjRcAFJaWmphfcOkQ6lgxVIAAAAAAMBJ1NsVKNu3b3/xxReVx2F69uz5ySef+Pn5VTrYx8dHaRsuITGvqKhIaSuv0bFiqZo5ffp0bU4HgPqH7xUBwGlxiwZQh9TPFSgLFy6cMmWKkp6MGjVq0aJFVaUnUjGzUPaaVWW43YlSwYqlAAAAAACAk6hvK1CKi4unT5++ceNG/aGLi8sLL7wwYcIE82c1aNDA3d1d/8RNamqqVqt1cVGPllJSUpR2cHCw1UsBAAAAAAAnUa9WoGRnZz/++ONKeuLv779w4ULV9EREXF1dlRcbl5aWpqWlqZ6SkZGhPKHTrFkzb29vq5cCAAAAAABOov4EKJmZmX/961+PHTumPwwPD4+Pj+/bt6+Fp7dt21ZpnzlzRnX8qVOnlHabNm1sVAoAAAAAADiDehKg5OfnT5gwISkpSX/YtWvXVatWtW7d2vIKXbp0UdoHDx5UHX/gwAGl3b17dxuVAgAAAAAAzqA+BChlZWVPPfXUyZMn9Yc9e/ZcvHhxUFBQtYr0799faf/www+q47dt26a04+LibFQKAAAAAAA4g/oQoHzyySe7d+/Wt7t167ZgwQLDdwlbKDw8vH379vp2UlKS+ZUj+/btO3v2rL7dunVrw2d2rFsKAAAAAAA4gzofoBw8eHDBggX6dmho6Lx582q8Cev48eOV9uuvv15SUlLpsOLi4lmzZimHkydPtmkpAAAAAADgcHU7QNHpdLNnz9ZqtfrDN954IyQkpMbVhg0bpiwASUpKmjp1am5urtGYnJycKVOmnD9/Xn/Yvn37YcOG2bQUAAAAAABwODdHT6BWvv/+e+UVNmFhYfn5+Zs3b7bw3MDAwJ49exr2uLi4vPPOO4899lhhYaGI/PjjjwMGDBg5cmS3bt2CgoIyMzOPHDmyZs2arKws/XhfX9+5c+e6uFQSQlmxFAAAAAAAcDiNTqdz9BxqbvLkyT/++GPNzu3Spcvq1atN+3fu3Dl16tTS0lLzp3t6es6fP793795mxlixlCUiIiJE5PTp07WsYxUajcbwULeep5MA2I9m6GeGh3X6J50tcIsG4EDcogHUXXV7yUN5ebnVa8bGxq5du7ZTp05mxnTv3n3dunWqkYcVSwEAAAAAAAeq24/w2Ei7du1Wr169f//+TZs2HTt2LDU1NScnJzAwMCQkpHv37oMGDYqMjDT6+s4OpQAAAAAAgKPU7Ud4YIhHeABAj/Xh5nGLBuBA3KIB1F11+xEeAAAAAAAAOyBAAQAAAAAAUEGAAgAAAAAAoIIABQAAAAAAQAUBCgAAAAAAgAoCFAAAAAAAABUEKAAAAAAAACoIUAAAAAAAAFQQoAAAAAAAAKggQAEAAAAAAFBBgAIAAAAAAKCCAAUAAAAAAEAFAQoAAAAAAIAKAhQAAAAAAAAVBCgAAAAAAAAqCFAAAAAAAABUEKAAAAAAAACoIEABAAAAAABQQYACAAAAAACgggAFAAAAAABABQEKAAAAAACACgIUAAAAAAAAFQQoAAAAAAAAKghQAAAAAAAAVBCgAAAAAAAAqCBAAQAAAAAAUEGAAgAAAAAAoIIABQAAAAAAQAUBCgAAAAAAgAoCFAAAAAAAABUEKAAAAAAAACoIUAAAAAAAAFQQoAAAAAAAAKggQAEAAAAAAFBBgAIAAAAAAKCCAAUAAAAAAEAFAQoAAAAAAIAKAhQAAAAAAAAVBCgAAAAAAAAqCFAAAAAAAABUEKAAAAAAAACoIEABAAAAAABQQYACAAAAAACgggAFAAAAAABABQEKAAAAAACACgIUAAAAAAAAFQQoAAAAAAAAKghQAAAAAAAAVBCgAAAAAAAAqCBAAQAAAAAAUEGAAgAAAAAAoIIABQAAAAAAQAUBCgAAAAAAgAoCFAAAAAAAABUEKAAAAAAAACoIUAAAAAAAAFQQoAAAAAAAAKggQAEAAAAAAFBBgAIAAAAAAKCCAAUAAAAAAEAFAQoAAAAAAIAKAhQAAAAAAAAVBCgAAAAAAAAqCFAAAAAAAABUEKAAAAAAAACoIEABAAAAAABQQYACAAAAAACgggAFAAAAAABABQEKAAAAAACACgIUAAAAAAAAFQQoAAAAAAAAKghQAAAAAAAAVBCgAAAAAAAAqCBAAQAAAAAAUEGAAgAAAAAAoIIABQAAAAAAQAUBCgAAAAAAgAoCFAAAAAAAABUEKAAAAAAAACoIUAAAAAAAAFQQoAAAAAAAAKggQAEAAAAAAFBBgAIAAAAAAKCCAAUAAAAAAEAFAQoAAAAAAIAKAhQAAAAAAAAVBCgAAAAAAAAqCFAAAAAAAABUEKAAAAAAAACoIEABAAAAAABQQYACAAAAAACgggAFAAAAAABABQEKAAAAAACACgIUAAAAAAAAFQQoAAAAAAAAKghQAAAAAAAAVBCgAAAAAAAAqCBAAQAAAAAAUEGAAgAAAAAAoIIABQAAAAAAQAUBCgAAAAAAgAoCFAAAAAAAABUEKAAAAAAAACoIUAAAAAAAAFQQoAAAAAAAAKhwc/QEcEvQDP3M0VMAAAAAAKDmWIECAAAAAACgggAFAAAAAABABQEKAAAAAACACvZAAQDglsY2VQAAAJaonwHK0aNHX3zxxcuXL+sP582bFxcXV60KpaWl+/bt27JlS2JiYnp6elZWlr+/f0hISERExH333RcdHe3h4WH/UnWXztETAHBL0Th6AgAAAKh/NDpdvfrbtrS09NNPP12wYIFWq1U6qxugHDhw4JVXXrl48WJVA8KKhSO/AAAgAElEQVTCwubMmRMVFWXPUqoiIiJE5PTp07UvVXsaTYW/X+rV/2QAnJ5RgFLPftLVntEtGgAciFs0gDqkXu2Bcv78+YcffvjTTz81TE+qa/ny5Y899piZyENEfvvtt7Fjxy5ZssRupQAAAAAAgAPVk0d4dDrdkiVL3nvvvZKSEn2Pu7t7aWlpdevs2LFj9uzZymFoaOiIESO6du0aHBx88+bNpKSkNWvWKE8Gvfnmm02bNq1qbYsVSwEAAAAAAMeqD4/wXLt2bdq0afv27dMfent7v/zyyz/99NN///tffY+Fj/AUFBT0798/IyNDfzho0KA5c+b4+PgYjiktLZ0zZ86KFSv0hw0bNty2bZufn5/tSlmOR3gAQI9HeMzjFg3AgbhFA6i76sMjPHPnzlXSk44dO65du/ahhx6qQZ2lS5cqkUdkZOS7775rFHmIiLu7+8yZM/v27as/zMrKqvTpGyuWAgAAAAAADlcfAhTFhAkTVq1a1apVqxqcq9Ppli1bphy+9tprrq6uVQ3+17/+pbSXLl1qtOWKFUsBAAAAAABnUE8ClNDQ0MWLF//zn/90d3evWYXExMTU1FR9OzIyUv84TFWaN2/eq1cvfTsrK+vQoUM2KgUAAAAAAJxBfQhQYmJi1q9fX8s3Ae/cuVNpK4/VmBEdHa20d+zYYaNSAAAAAADAGdSHt/AMHz689kVOnjyptCMjI1XHG45JTEy0USkAAAAAAOAM6sMKFKu4cOGC0m7durXq+DZt2ijtixcv2qgUAAAAAABwBgQoIiJlZWXJycn6toeHR6NGjVRP8fPz8/X11bdTU1Pz8vKsXgoAAAAAADgJAhQRkezs7PLycn07NDTUwrMaN26stJWXFluxFAAAAAAAcBIEKCIiBQUFStvLy8vCswxHKhWsWAoAAAAAADiJ+rCJbO0ZZhaenp4WnmU4Mj8/3+qlasb8W5MVmzdvrs1VAKAOYXspAHBaTnKLbtWqlaOnAKAOYAWKiEhxcbHSdnd3t/AsDw8PpV1SUmL1UgAAAAAAwEmwAkWk4gKQ0tJSC88yTDqUClYsVTOnT5+uzekAUP/wvSIAOC1u0QDqEFagiIj4+PgobcMlJOYVFRUpbeU1OlYsBQAAAAAAnAQBikjFzKKwsNDCswy3O1EqWLEUAAAAAABwEgQoIiINGjRQ9itJTU3VarWWnJWSkqK0g4ODrV4KAAAAAAA4CQIUERFXV9eWLVvq26WlpWlpaaqnZGRkKE/oNGvWzNvb2+qlAAAAAACAkyBA+V3btm2V9pkzZ1THnzp1Smm3adPGRqUAAAAAAIAzIED5XZcuXZT2wYMHVccfOHBAaXfv3t1GpQAAAAAAgDMgQPld//79lfYPP/ygOn7btm1KOy4uzkalAAAAAACAMyBA+V14eHj79u317aSkJPMrR/bt23f27Fl9u3Xr1obP7Fi3FAAAAAAAcAYEKH8YP3680n799ddLSkoqHVZcXDxr1izlcPLkyTYtBQAAAAAAHI4A5Q/Dhg1TFoAkJSVNnTo1NzfXaExOTs6UKVPOnz+vP2zfvv2wYcNsWgoAAAAAADicRqfTOXoOtZKUlHTp0iXT/i+//PLo0aP69sSJEzt37mw0wM/Pr0+fPkadJ06ceOyxxwoLC/WHQUFBI0eO7NatW1BQUGZm5pEjR9asWZOVlaX/1NfXd/ny5R06dKh0YlYsZaGIiAgROX36dG2KWItGozE8rNv/kwGoazQVD+v6Tzqr4xYNwIG4RQOou+p8gDJnzpyvv/66Bie2atVq8+bNpv07d+6cOnVqaWmp+dM9PT3nz5/fu3dvM2OsWMoSBCgAoMdv5+ZxiwbgQNyiAdRdPMJjLDY2du3atZ06dTIzpnv37uvWrVONPKxYCgAAAAAAOJCboyfgjNq1a7d69er9+/dv2rTp2LFjqampOTk5gYGBISEh3bt3HzRoUGRkpNHXd3YoBQAAAAAAHKXOP8IDBY/wAIAe68PN4xYNwIG4RQOou3iEBwAAAAAAQAUBCgAAAAAAgAoCFAAAAAAAABUEKAAAAAAAACoIUAAAAAAAAFQQoAAAAAAAAKggQAEAAAAAAFBBgAIAAAAAAKCCAAUAAAAAAEAFAQoAAAAAAIAKAhQAAAAAAAAVBCgAAAAAAAAqCFAAAAAAAABUEKAAAAAAAACoIEABAAAAAABQQYACAAAAAACgggAFAAAAAABABQEKAAAAAACACgIUAAAAAAAAFQQoAAAAAAAAKghQAAAAAAAAVBCgAAAAAAAAqCBAAQAAAAAAUEGAAgAAAAAAoIIABQAAAAAAQAUBCgAAAAAAgAoCFAAAAAAAABUEKAAAAAAAACoIUAAAAAAAAFQQoAAAAAAAAKggQAEAAAAAAFBBgAIAAAAAAKCCAAWAlZ0TuVdEU/G/A5adqxX5WMS/4rkPWHzpIpGvRR4XuV2kkYi7SKBIK5EHRP4tcqlm/x4AAAAAEHFz9AQA1B9lIu+LzBQprNHpJ0Umiuyt6dX/T+RZkfSKndki2SKXRDaK/EvkzyL/EWlU00sAAAAAuGWxAgWAdRwS6SHyUo3SkxKRWSLda5GevCjyuEl6YkQn8n8id4n8VtOrAECdVpsVgiKSITJP5AGRFiK+Il4iLUSiRd4UuWBZhTKR1SKTRbqKNBbxFAkSuV1ktMjXIjk1/GcBAGAnrEABUFuFIjNF3hcpq9Hpe0UmipysxQQWiLxr8eCLIsNF9pEfA7iV1HKFoIgsFHlJJLti5xWRKyI/i7wmMk3kFRGPqiusEnlB5GrFzhKRLJEkkTUijUXeF/lzTWcIAICtEaAAqJUUkWiRcxU7/UTyLDv9HZHpIlqDHi+RsupkMRki00w6Q0QGibQQSRHZYTK9AyKrRB61+BIAUKcdEpkocrgWFV4V+bfZAaUis0USRRKqiKefF3lf7So3RB4TuSDySg2nCQCAbfEVLIBaSakYTzQQmScyx+LT91RMTwaIJIo0qM4Evjb5RjRW5IzIYpFZIgtFTopMMDkroTqXAIA6qlDkJZG7a5eefKeWnijWivyrsv7/WJCeKF4VWWbxYAAA7IkABYDVPCySJDKlRneWJiLLRbaItKnmid9UPHQTWSoSaNDjLvKBiG/FYYeqP0MAqFtSRLqIvFNxTZ9fNYuUiTxj0tnnf09u/kXEteJH75nsM5VW2YqSEJHnRD4ReU2kg8mnL1q8jBEAAHviER4AVtBG5FORATU610XkbyJvVnPhiZ7W5GvVXiLNTIb5i0RUDE3Sqn8tAKhbTFcIzhEprywQMeNbkYsVe14TmWlwOEGkv0FGUyQyV+RDgwELTdKQ7iJbDV6INkNkgsjSijP/VOSf1ZknAAB2wAoUALXiIfKKSGJN0xP9m3c+rVF6IiIakUsiaQb/baxipFfFw4AaXQ4A6qgarxBcUfGwpcirFXtiRB6p2LOm4uEWk5qLK75O3l3kM5HWFcesrM4kAQCwDwIUALVyh8hsk3jCcq+J9KjF1TUiwRX/q3R1epbIwYo9rWpxUQCoQ9qIbBFZKdKk+ueWi2yr2DPK5JkdfaehqxXXBh6v+GknkS4mFbxEJlXsOSxyyfKJAgBgFwQoAOq/10SKK/aMcMxEAMB+arlCUETOiuRU7Kk08jbt/PV/jRKTfb7bV3GtniY9BysZBQCAIxGgAKjnlovMq9gTIPJXx8wFAOynlisEReSESU/rSkZJU5OrnP5fQ2cy2HQBi16wSc9Jc1MDAMABCFAA1GfxImNMfoOfLRLqmOkAQF1y1aQnpIqRRjdVJUDxFPGp+NGlKipkmvScNTMzAAAcgQAFQL31kcijFd/fKSIjRZ5yzHQAoI65YdJT1Q7cRv2GaYjRMzuHRK5UVsF0C/DsSkYBAOBIBCgA6qFSkb+JPCOirdgfK/K1iMYhcwKAuibfpMe7ipFGy0wM31scU/GjcpEnTaLtPSIfm9TMVZ8gAAB2RYACoL5JFblX5DOT/gdENor4OmBGAFAnFZv0uFUx0qjfMECZYDJ4o0iMSLzIYZEdIs+J3CtSaDKsoBozBQDAHqr6OQgAddJJkUEil036XxR5i8wYAKrDdL2e6aawekbL/QxP7CzyqMiKigP2iOwxKeIqUm5wWNVqFwAAHIW/JgDUH3tEepukJwEiCSLvcL8DgGryM+kpq2SUSMXgw/TE+SK3q13rHpG7Kvb4q50CAICd8QcFgHriR5EBIjcrdnYU+VVklGNmBAB1m2mAUtVjNUa7pRhlHw1EfhYZWPWFRoskmDzFQ4ACAHA2PMIDoD44KPKAyW/wcSIJVb8zAgBgXiOTnuzKOsUkvA42GRAksllkq8j/ifwskiKiEWkm0lvkL//baNborcnhNZw1AAD/396dx1VZpo8fv9hBjrGESwrlYCIpikiag1tNWoq7WY1ZzuCkluL4U6fspZiFWmqAWTNuaVaSmmabpZhWiJMiiZZCuCSmuYGxb8py+P5xfvO8HrbzHJbjgdPn/dd93+e+n+c6veg5x+vci7mQQAHQ4t0QGVd1z0IRCRNZL+JgmYgAwBr412i5LuJbo7FCJLNqS10LdoaKDK3jpRyRrKotPbQDBADgtmIJD4CWTS/yhMhvVRvDRN4lewIAjVMzD3Kutm7pNfZG6Vb/ex2s0UICBQDQ3JBAAdCybRKJr9oSUNsZxgCA+uoo4lO15Wht3Y7UaAmp44LXRFLreOmjGrfurhEdAAC3G0t4ADRKjsiVGo3XarScF3Gu2uIm4iNyRqSsRudqpzkUiKTU6NNFxEkkX2RRjZd0Is9pRC0iMknkIRO6AcAf2RiRf6uqn4q8KeJYtc+HVauBIp1V1X0ia0XOi6SLFIu4iFwW8aw6JEXk46otT/IrHwCg+SGBAqBRPhJ53oRuf63R8pjIxyKDRTK0xibUNpH7lEiAyHe1DU8USTQhpF4kUABAy5NVEyjXRV4WeV3E5n8tW0S+rjpkYtXqHSKfq6olIlNFPlJ9B/1VZELVRUC2ImGNDx0AgKZGAgVAC1Zp6QAAoNlq5AxBgwEiQ0QOqF5dIRIvMkTEWSRR5KuqY9uLhFdt6SfSU+SkquUTEX+RCSJeImkiO2rsAv6cSICRNwYAgIWQQAEAALBCjZwhqIgW6SdSomo5WsdmKCLyhohr1RYbkeUioVUbz4usqOMK94os1QgZAADLYHkpAAAA6tRTZKtpXxlfFnm6tvbhIvNNu9fdIt+IeNQjOgAAbh9moABolOdM27G1Ltcbd/exrOIBAPMbK/KNyLMi5+vo4CESI/L3uq+wXKS9SIRIUd19/iYSJeLVmEABADAnEigAAADQ8KDIKZHPRD4WSRG5JlIh0k6ki8g4kcdF7tS6wv8TmSiyVWS/SIrI7yIVIm1FvEUeFXmcc4sBAM2eTWUlP99aia5du4rImTNnLB2IiIiNjY26yh8ZgNvJpmqVT7pqeEQDsCAe0QBaLvZAAQAAAAAA0EACBQAAAAAAQAMJFAAAAAAAAA0kUAAAAAAAADSQQAEAAAAAANBAAgUAAAAAAEADCRQAAAAAAAANJFAAAAAAAAA0kEABAAAAAADQQAIFAAAAAABAAwkUAAAAAAAADSRQAAAAAAAANJBAAQAAAAAA0EACBQAAAAAAQAMJFAAAAAAAAA0kUAAAAAAAADSQQAEAAAAAANBAAgUAAAAAAEADCRQAAAAAAAANJFAAAAAAAAA0kEABAAAAAADQQAIFAAAAAABAAwkUAAAAAAAADSRQAAAAAAAANJBAAQAAAAAA0EACBQAAAAAAQAMJFAAAAAAAAA0kUAAAAAAAADSQQAEAAAAAANBAAgUAAAAAAEADCRQAAAAAAAANJFAAAAAAAAA0kEABAAAAAADQQAIFAAAAAABAAwkUAAAAAAAADSRQAAAAAAAANJBAAQAAAAAA0EACBQAAAAAAQAMJFAAAAAAAAA0kUAAAAAAAADSQQAEAAAAAANBAAgUAAAAAAEADCRQAAAAAAAANJFAAAAAAAAA0kEABAAAAAADQQAIFAAAAAABAg72lA7B+ZWVlR48e3bdvX0pKyu+//56Tk9O6des2bdp07dp12LBhAwcOdHR0tHSMAAAAAADAGJvKykpLx2DNjh07FhERceHChbo6dOzYcdmyZX/+858bf6+uXbuKyJkzZxp/qcazsbFRV/kjQ3119fMTkTNnz1o6ELRINlWrfNJVwyMajcdTGg3GIxpAy8USHjPaunXrpEmTjGRPROTKlSt///vf33///dsWFQAAAAAAqC+W8JjLt99+u2TJEqXatm3bcePGBQYGenl55ebmnj59eteuXRcvXjS8+vrrr3fo0GHo0KEWChYAAAAAABjDEh6zKC4uHjJkSFZWlqEaGhq6bNmyVq1aqfuUlZUtW7Zs27ZthqqHh8eBAwd0Ol2Db8oSHlgTJoejMZgfbhyPaDQeT2k0GI9oAC0XS3jMYsuWLUr2JDg4OCoqqlr2REQcHBxeeeWVQYMGGao5OTks5AEAAAAAoHkigdL0KisrY2NjlerixYvt7Ozq6vzyyy8r5S1btuj1evMGBwAAAAAA6o8EStNLSUnJzMw0lIODgw0ra+ri4+MTEhJiKOfk5Bw/ftzs8QEAAAAAgHoigdL04uPjlbKyQseIgQMHKuVvv/3WHCEBAAAAAIDGIIHS9H7++WelHBwcrNlf3SclJcUsMQEAAAAAgEYggdL00tPTlbKvr69m/86dOyvlCxcumCUmAAAAAADQCCRQmlh5eflvv/1mKDs6Ot55552aQ3Q6naurq6GcmZlZWFhoxvgAAAAAAED92Vs6AGuTl5dXUVFhKLdt29bEUe3atVPmrWRlZel0OrMEZzk2lg4ALY6fiPCXA9wW/I+GBuApDQD4A2IGShMrLi5Wys7OziaOUvdUXwEAAAAAADQHzEBpYur0h5OTk4mj1D2LiooaE4DxU5NvGz8/P0uHAGvAHxKaRDN5MDYf/J+FpsLfEhqv+Tyiz5w5Y+kQADR3zEBpYrdu3VLKDg4OJo5ydHRUyqWlpU0cEwAAAAAAaBxmoDQx9VySsrIyE0epkyamz1upplllzW1sWBYNoLmorKy0dAjNC49oAM0Hj2gALQgJlCbWqlUrpayejWLczZs3lbJyIk+LxmchADRbPKIBAAAagCU8TUyd/igpKTFxlHrnFOtIoAAAAAAAYE1IoDQxNzc3ZeuTzMxMvV5vyqjr168rZS8vL7NEBgAAAAAAGooEShOzs7Pr1KmToVxWVnbjxg3NIVlZWcpiH29vbxcXF/OFBwAAAAAAGoAEStO79957lfLZs2c1+6elpSnlzp07myUmAAAAAADQCCRQml7Pnj2VcnJysmb/Y8eOKeWgoCCzxAQAAAAAABqBBErTGzJkiFL+7rvvNPsfOHBAKQ8dOtQsMQEAAAAAgEYggdL07r77bj8/P0P59OnTxiehHD169Ny5c4ayr6+vevkPAAAAAABoJkigmMWUKVOUcmRkZGlpaa3dbt269eqrryrVadOmmT0yAAAAAABQfyRQzGLMmDHKXJLTp0+Hh4cXFBRU65Ofnz9z5szz588bqn5+fmPGjLmtUQIAAAAAANPYVFZWWjoG65Samjpp0qSSkhJD1dPTc/z48b169fL09MzOzv7xxx937dqVk5NjeNXV1XXr1q3+/v6WixcAAAAAANSJBIoZxcfHh4eHl5WVGe/m5OS0du3a/v37356oAAAAAABAfbGEx4wefPDBTz/9NCAgwEifoKCgzz//nOwJAAAAAADNGTNQzE6v1yclJe3Zs+fkyZOZmZn5+fnu7u5t2rQJCgoKDQ0NDg62sbGxdIwAAAAAAMAYEigAAAAAAAAaWMIDAAAAAACggQQKAAAAAACABhIoAAAAAAAAGkigAAAAAAAAaCCBAgAAAAAAoIEECgAAAAAAgAYSKAAAAAAAABpIoAAAAAAAAGgggQIAAAAAAKCBBAoAAAAAAIAGEigA/nDWr1/f9X/WrFljBTcCAAAAYG72lg4AwG2SnZ2dnJyclJSUmpqak5OTm5ubn59vZ2fXqlUrDw+Pu+++u0uXLv369evTp4+Tk5OlgwUAq6XX69PS0pKSko4dO3b16tW8vLzc3NybN286Ozu7urp27Njxnnvu6dWrV//+/e+++24Trzl+/PjU1FTNbvb29q1bt3Zzc/Pz8wsMDBw2bJi3t3etPdevXx8TE1OPd1U3BweHlJSUJrmUorS0dMyYMenp6Ybq2LFjV6xY0bS3AACgJhIogPVLTU1dt27d/v37Kysrq71UXl5+69atnJyc9PT0+Pj4d955p3Xr1hMmTPjHP/7Rpk0bi0QLANaqpKRkx44dmzZtysjIqPlqUVFRUVFRZmbmiRMnPvvsMxEJDg4OCwsbOnRoUwVQXl6ek5OTk5Pz66+/fv3111FRUQ8++ODChQt9fHya6ha3x6pVq5TsCQAAtw0JFMCaFRQULFiw4Ouvv67XkM2bN3/88ccRERFjx441X2wW1KFDhz59+ihlK7gRgOZv//79ixYtysnJMX1IcnJycnLyoEGDXn/9dS8vryYPqbKy8rvvvjt69Ojrr78+bNiwJr++mZw4cWLz5s2WjgIA8EdkU/MXaQDW4ezZszNnzrx06ZK60cHBITAw0N/f38PDw93dvbS0NC8v79KlS8ePH79+/Xq1K4SHh8+aNes2hgwAVkiv169atWrDhg3V2tu3b9+3b9927dp5eHg4OjoWFxdfu3bt7NmzJ0+eLCsrU/f08fHZvHmzkXki6iU8EyZMCAkJqbVbcXFxdnb2mTNnDh06lJ+fr7Tb29uvW7du4MCBSktaWtqPP/5o5E29/fbbWVlZyh0DAgLq6mlnZ/fEE08YuVS93Lx5c8yYMb/++qu6kSU8AIDbgxkogHW6dOnSpEmT1N+Pvb29w8PDhw0b5uLiUuuQlJSU9957b/fu3UrLv//97/bt2z/++ONmDxcArNeyZctiY2OVqq2t7ahRo6ZNm3bvvffW2r+oqGj37t1r165V8tq//fbbtGnTPv74Y1dXV83bBQQEjBgxwnif0tLS2NjYVatWlZaWikh5eblhuqLyAXHffffdd999Rq7w/vvvKwmUkJAQzTs2lejoaEP2RKfTFRYW3p6bAgBgwCk8gBUqLi6eOXOmOnsyefLkuLi4cePG1ZU9EZGAgICoqKj33nvP3d1daYyMjKz2Qx8AwHSfffaZOnvStm3bXbt2rVy5sq7siYi4urr+9a9/jYuLGzVqlNKYnp6+bNmyporK0dFxypQpb7/9ttKSmZm5ffv2prq+mfzwww8ffPCBoTxt2jTLBgMA+AMigQJYoejo6LNnzyrVuXPnLly40MHBwZSxf/7znzdv3qzkWUpLS9944w2zRAkA1i4jI2PRokVK1cfHZ+fOnd26dTNlrIuLS1RUlDqH8sknn/z8889NGN6DDz44fPhwpXrgwIEmvHiTKy4ufumllwzl7t27jx492rLxAAD+gFjCA1ib33//fceOHUr14Ycfnj59er2u0K1btxdffDEmJqZfv34DBgwYMGCA5pDi4uL9+/d///33KSkp2dnZBQUFOp3Ow8PDz89vwIABQ4YM8fT0NDI8MDDw5s2bIhIUFGT4CbSysjIxMXHnzp1paWnXr18vLy9v06ZNjx49xo8fP3jwYPXYwsLCHTt2fPPNN7/88ktBQYGLi8tdd93Vt2/fp59+2tfXt9bbqY/nnD179owZM9SvTp06NSEhwVBOSUkxJJ6ys7N37tx56NCh8+fP5+fnOzg4uLu7d+/e/S9/+cuoUaMcHR0bcCMAVm/Tpk2GNTIiYmdnFxMT0759+3pdYcmSJSdOnNDpdP379x8wYICReSsNM3LkyL179xrKJ06c0Ov1trbN9Ne1N9544/LlyyJiZ2e3ZMkSGxubBlwkMTHx0KFDP/zwQ2ZmZm5ubkVFhbu7u6enZ69evR544IEhQ4bU9TwHAEBIoADWZ/Pmzcr3dScnp6VLlzbgIhMnTnzyySft7Ow0e1ZWVsbGxq5ZsyY7O1vdnpubm5ube+HChX379i1fvnzq1KnPPvtsXbNgXF1dDQmUoqIiESksLJw9e/Z///tfdZ8rV65cuXIlLi5uxIgRK1eutLe3F5HDhw/PmzdPfevCwsJz586dO3du27ZtERERkyZNqu971+l0SrmoqMjd3X337t2LFy82xGZQXl5eUlJy7dq1AwcOrF+/fs2aNU3+rxoALV1OTs5HH32kVCdPntyzZ8/6XsTFxWXfvn2GJ545+Pn5KeWKiorc3Fzj+W5LOXLkyNatWw3l5557rnv37jU3Pjfu2LFjy5cvP3XqVLX2zMzMzMzM06dPb9++vX379rNmzZowYULTBA0AsDrN9EcGAA2m/JYoIqNHj27YV2EbGxtTsielpaVz585dunSpOoVha2vr5uamHl5UVPTmm2/OmDGjpKSk1usoiZXi4mK9Xj9z5sxq2RO1r7766q233hKRo0ePTps2rVriRqHX6yMjI5OSkjTfRV3BiEhJScknn3zyr3/9S509qebixYtTpkzJy8ur740AWLf4+HhDalhEbG1tJ0+e3LDrmC97IlVTxvK/LHZzU1hYuGDBAkPZ39//+eefr+8Vdu3aNXny5GrZE2dn52pv//r16wsXLoyMjNTr9Y0JGABgrUigAFbl6tWrV65cUarm/hlt4cKFe/bsMZRtbGwee+yxHTt2pKamJiUlpaam7t69e9q0ac7OzoYOCQkJ8+fPr/U6yj8PSktL33333cTERHd39/nz58fFxSUnJx88eDA6OrpTp05K/82bN1+6dGnu3LllZWUBAQFvvvlmQkJCcnLy3r17X3jhBfUpFW+++WZ935Q69XPy5MmXX35ZRHr37h0dHf3tt98mJyfHx8dv2rRpyJAhSreMjIyNGzfW90YArJs6gRsSEtKhQwcLBlMX9XbjIuLh4WGpSIUFsP8AAAyxSURBVIxYvnz51atXRcTBwWHFihUmbumlOHTo0IIFCyoqKgzVLl26REVFJSYm/vTTT8nJySdPnty0aZN6ceiHH37IIx0AUCuW8ABWRf193dHRsXv37ua71549e7744gtD2cHBYfXq1Q8//LDyqo2NjZ+f37x584YPHx4WFpabmysi+/bt+/rrrx955JG6rpmfn79mzRofH58PP/ywXbt2hkadTjdy5MiQkJDhw4cbrlNaWhoWFvb777+PHDly5cqVSspDp9P5+vred999U6ZMMbQkJydnZGQolzKFel39kiVLysrKqm1fotPp7rrrrgEDBrz00kuffvqpofHTTz+dN2+e6XcBYPXUD+Tg4GALRmJEWlqaUtbpdNVmZDQHhw4d2rlzp6E8c+ZMf3//eg1Xz14RkeHDh0dFRakn9Tg5ORl2+1q7dq2Sc3/rrbceeeQRdeIeAABhBgpgZdRHDnfv3r2+P9PVi/r8yxdffFGdPVHr1q1bZGSkUl2zZk3NPkrO4ubNm8XFxatWraqZ8vD09Bw/frxSvXz5sre392uvvVZzqVH//v3V37DV/zwwhTqBcuPGjXHjxtW1+evcuXOVzjdu3DD8QAoAIlJeXm7Y8dQgMDDQgsEY8dVXXynlkJAQC0ZSq4KCgoULFxrKAQEBU6dOre8VPvnkk8zMTEO5Y8eOyhZaNT3//PMPPPCAoVxWVqZsuQIAgIIECmBVDBM0DNq2bWu+Gx0+fDg9Pd1Q7tixo/G9Wh999NEuXboYymlpacYzGoMGDerRo0etL91///3qalhYmJOTk2bPixcvGrmdcfb29kbmlbRt27Zr165K9cKFCw2+EQArU21fJLM+kBssISFh//79SnXEiBEWDKZWy5Yty8jIkP8t3mnAdjDqY+mmT59u/JCdZ599Vil//vnn5eXl9b0dAMC6kUABrIr6K/sdd9xhvhspB/2KyMiRIzV3nH300UeVcnx8vJGeQ4cOreuljh07qqt1zXmp1rOwsNB4bEaEhIS0adPGSAdvb2+lXFBQ0OAbAbAy6nS2mPmB3AB6vX7nzp3//Oc/lZaAgAD1g7o5iI+PV5ZJzp49uwGHnWVlZZ07d85QtrGxUe9dVat+/fq1atXKUM7NzT1//nx97wgAsG7sgQJYFfUBCi4uLpr9169fHxMTo9ktNDR01apV6paffvpJKZuytl/dJzU11UjPbt261fWSendYNze3u+66y5SeyikYDaB55qh6v4C6zhgC8AdUXFysrpryQA4ICCgrK9PstmfPns6dOxvp8Msvv6hz3Gq3bt3Kzc1NS0v77rvv1KsOPTw8oqKi1AsYLS4vLy8iIsJQ7tWrl7KzVb2oj93x8fG58847jfd3dHTs0qWL8gH3888/q6cZAgBAAgWwKurv6NXOVmha6t/l2rdvr9lfvRXfmTNnjPT08vKq6yX1li7Gvwere1ZWVmqGVxfN3WfV88kbcyMAVqZaxiQ/P/+2TUKJjY2NjY01vX+7du3+85///OlPfzJfSA0QGRl548YNEXFyclq+fLnmPMdaKUtNRcTEN9ipUyclgXLp0qUG3BQAYMVIoABWRT0hwnwJlMrKSvVyldGjR9dreE5OjpFXTfmd1vRujaSeyQIApqt2nI1ZM9oNZm9vP2rUqPnz55v79OJjx46pzySqqU+fPn369FGq+/fv//LLLw3lOXPmNDi5o/6o8vT0NGWIm5tbrcMBABASKICV8fHxUcrqE3nq0qdPn9mzZ9f6UmZm5rZt22p9qaioSK/XNyjA/z+8wWMBoEVo27ato6NjaWmpofrrr78aWZ9oMGvWrIqKilpf+uKLL5pqm+rWrVu7u7t37dr1/vvvDw0Nrdcp7w2WlJS0evVqIx3Cw8OVBEp2dvbixYsN5eDg4L/97W8Nvq86A6JsbmKcOjtPAgUAUA0JFMCqqPfYS09Pz8nJMf67Yu/evXv37l3rS6dOnaorgdKwqdQKvV5fUlJye6aQAIBF2Nra+vr6nj592lBNTk4ODQ01PmT69Ol1vfTjjz+ankB55ZVXJk6caGLnZujVV1/NysoSEZ1Ot3LlSlvbhp94oN7VxcRVlupuzWpTGABAc0ACBbAqwcHBNjY2yve/I0eOaH5lbwAXFxd7e3vlfMeEhITb8xsmALQgffr0URIohw8ftmwwLcXevXvj4uIM5SVLlqhPOmuA1q1bK+Vq2/rWRb0duHo4AABCAgWwMh4eHj179lQ2wIuNjTVHAkVE3NzcDL8QikhBQQEJFACoZvDgwVu2bDGU09PTDx8+HBISYtmQLGXGjBkzZswwpednn32mlOfMmTNnzhwTRykDHRwcUlJSDGX1xr3Z2dmmXEq9S1dzO3waAGBxDZ8VCaB5mjBhglJOTk4+duyYOe7i5+enlJtqZT4AWJOQkJAOHToo1fXr11swmJaiaY8z69Kli1JWn8hjhPoTzdfXtwmDAQBYARIogLUZM2aM+ojf+fPnm2MbvB49eijl48ePN/n1AaCls7Ozmzx5slJNTExUJqTg9ggICFDKly9fzsjIMN6/uLj47NmzSrVnz57migwA0DKxhAewNk5OTi+++OL8+fMN1cuXL8+dO/ftt992dnY2/SIlJSXvvfeekQ6DBw/esGGDofzll1/OmzfP3t7Y86SgoODMmTO9evUy3g0ArMmkSZN27NihzH1YsWJFp06dBg4cWK+LHDlyRFmYafViYmKUo4uMu3HjxujRow3l0NDQRYsWGcrqnV/d3NwCAwOV/3r79+9/+umnjVzz4MGDZWVlhrK3t7f6YDsAAIQZKIBVGjt27EMPPaRUExISnnnmGc1f3hTHjx9//PHHv/zyS6XFycmpWp/7779fOfEnMzPz3XffNX7NdevWTZo0qW/fvs8999z58+dNjAQAWjRHR8fXXnvNwcHBUC0rK5s+ffr27dtNHF5YWLh69eqwsLDc3FylseYD2ZrodDpP07i5uSmjHB0dlfZqZ889+eSTSnnjxo23bt2q69Z6vX7dunVKtUWfZAQAMBMSKIB1io6O9vf3V6onT5585JFHoqOjMzMz6xpSUFCwb9++p556auLEiefOnVPag4ODFyxYULP/rFmzlPLq1av37NlT15VjY2M3btwoIkVFRSdPnuzYsWN93w4AtFBBQUFLly5VqhUVFYsXL54wYUJCQoJyllk1lZWVZ8+ejY6OHjx48Jo1a5RtQezt7aOiohp5MM0fzciRI++55x5D+dq1ay+99FJFRUXNbpWVlUuXLlVOTfL09FRvKAYAgAFz6QHr5OrqumXLlvDw8KNHjxpabt68uWHDhg0bNvj7+wcHB3t5eXl4eFRUVGRnZ2dnZ6ekpKSmpur1+mrXCQsLmzt3rqOjY81bDBs2bMyYMZ9//rmIlJeXz5kzZ9++fU888URQUFCrVq1EJCsr69ixY1u3bk1MTFRGRUZG1msxEQC0dGPHjnVwcJg/f76yPOTUqVNTp07V6XT9+vXz9fX19PR0dXXNy8vLzs6+evVqUlJSzSNjfHx8YmJi2JWjvpycnFasWPHUU08ZPuD27Nlz8eLF559/fuDAgYYPo6KioiNHjmzcuPHEiRPKqOXLl7u7u1ssaABAc0UCBbBad9xxx6ZNm9555521a9eql5SfPn1a+ZHNiKCgoAULFhj/sr506dKysjJl7klcXFxcXJyIODs7V1RUKP9UUERERAwZMqTe7wQAWrgRI0Z07tw5IiLi1KlTSmNhYeGBAwc0x7Zq1WrKlClTp04l+9wwQUFBb7311pw5cwyfSqmpqeHh4SLi5uZWUVFRWFio7mxvbx8ZGTl48GDLxAoAaN5YwgNYMwcHhxkzZuzdu/eZZ55xdXU1ZYiLi0toaOiHH364fft2zZ86HR0dY2JiFi1a5OXlpW6/efNmtexJly5dPvjgg2eeeaa+bwEArIO/v/+OHTtiYmLUp5gZ17lz5xdeeOHgwYOzZs0ie9IYQ4cO3bp1a+/evdWNeXl51bInQUFBsbGxjz322O2NDgDQYjADBbB+3t7eERERL7zwwtGjR48cOXLu3LkLFy7k5+cXFRXZ2tq6uLh4eXl5e3sblvb069evXl/TbWxsnn766ccee+ybb775/vvvT506lZ2dnZeXZ2tr27p163vuuadHjx4PPfRQv3791CcjAMAfkK2t7YgRI0aMGPHbb78dPHjwp59+On/+/PXr14uKim7duuXs7Ny6desOHTp06tQpMDDQsLrH0iFbj549e27bti0pKSk+Pj4pKSkjIyM3N9fW1tbd3b19+/Z9+/YdNGhQnz59LB0mAKBZs1F2JgMAAAAAAECtWMIDAAAAAACg4f8AE7XXgOoqV6EAAAAASUVORK5CYII=;" vertex="1" parent="1">
          <mxGeometry x="10" y="20" width="363.72" height="340" as="geometry" />
        </mxCell>
      </root>
    </mxGraphModel>
  </diagram>
</mxfile>
